<svg xmlns="http://www.w3.org/2000/svg" viewBox="0 0 49.86 50"><defs><style>.cls-1{fill:#001e8a;}.cls-2{fill:#99a5d0;}</style></defs><g id="Layer_2" data-name="Layer 2"><g id="Layer_1-2" data-name="Layer 1"><polygon class="cls-1" points="49.86 50 14.16 50 14.16 38.79 16.16 38.79 16.16 48 47.86 48 47.86 2 16.16 2 16.16 11.34 14.16 11.34 14.16 0 49.86 0 49.86 50"></polygon><polygon class="cls-2" points="8.89 12 8.89 19 0.89 19 0.89 23 8.89 23 8.89 38 42.89 38 42.89 12 8.89 12"></polygon><path class="cls-1" d="M44.06,39.67H7.64V24.23H0V17.84H7.64V10.76H44.06Zm-34.42-2H42.06V12.76H9.64v7.08H2v2.39H9.64Z"></path><rect class="cls-1" x="15.16" y="6.09" width="33.7" height="2"></rect><rect class="cls-1" x="15.16" y="41.34" width="33.42" height="2"></rect><rect class="cls-1" x="26.19" y="3.47" width="11.04" height="1"></rect><path class="cls-1" d="M38.67,46.24h-3v-1h3Zm-6,0h-3v-1h3Zm-6,0h-3v-1h3Z"></path><path class="cls-1" d="M18,30.56l-3.66-1.47.26-1.63a3.68,3.68,0,0,1-.4-.39l-1.63.29L11,23.73l1.34-1c0-.18,0-.37,0-.56L11,21.26l1.47-3.67,1.63.27c.12-.14.26-.28.39-.41l-.29-1.62,3.63-1.55,1,1.34a5.19,5.19,0,0,1,.56,0l.94-1.36L24,15.73l-.27,1.63a5,5,0,0,1,.41.39l1.62-.3,1.55,3.64-1.34,1a5.19,5.19,0,0,1,0,.56l1.36.94-1.48,3.66L24.23,27c-.13.14-.26.28-.4.41l.3,1.62-3.64,1.55-1-1.34H19Zm-1.43-2.73.7.28.7-1,.6.08a4.91,4.91,0,0,0,1.27,0l.6-.08.72,1,.69-.3-.22-1.21.48-.37a5.06,5.06,0,0,0,.89-.9l.36-.49,1.21.2.29-.71-1-.7.08-.6a4.83,4.83,0,0,0,0-1.26l-.08-.6,1-.72-.29-.7-1.21.22L23,19.45a5.06,5.06,0,0,0-.9-.89l-.49-.36.2-1.21-.71-.28-.69,1-.6-.08a4.9,4.9,0,0,0-1.27,0l-.6.09-.72-1-.7.29.22,1.22-.48.37a4.69,4.69,0,0,0-.88.9L15,20l-1.21-.2-.28.71,1,.69-.07.61a4.43,4.43,0,0,0,0,1.26l.09.6-1,.72.3.7L15,24.89l.37.48a4.74,4.74,0,0,0,.91.88l.48.37ZM19.27,26a3.52,3.52,0,1,1,1.31-6.79h0A3.52,3.52,0,0,1,19.27,26Zm0-5a1.53,1.53,0,1,0,.57.11A1.65,1.65,0,0,0,19.27,20.92Z"></path><rect class="cls-1" x="27.34" y="33.56" width="12.74" height="2"></rect><rect class="cls-1" x="27.34" y="14.7" width="12.74" height="2"></rect><rect class="cls-1" x="31.54" y="29.03" width="8.54" height="2"></rect><rect class="cls-1" x="29.32" y="24.59" width="10.76" height="2"></rect><rect class="cls-1" x="32.65" y="19.63" width="7.43" height="2"></rect></g></g></svg>