<svg xmlns="http://www.w3.org/2000/svg" viewBox="0 0 1230.54 400.38"><defs><style>.cls-1{fill:#fff;}.cls-2,.cls-5{fill:#001f8a;}.cls-2{stroke:#f9fafa;stroke-miterlimit:10;stroke-width:3px;}.cls-3{fill:#e81f38;}.cls-4{fill:#6678b9;}.cls-6{fill:#f9fafa;}.cls-7{fill:#f1f2f2;}</style></defs><g id="Layer_2" data-name="Layer 2"><g id="Layer_1-2" data-name="Layer 1"><path class="cls-1" d="M562.67,370.79l18.56-21.41a110.5,110.5,0,0,1-6.63-220.51l14.07-29.81L567.23,74.32C484,83,419,153.49,419,238.93c0,89.26,71,162.23,159.55,165.38Z" transform="translate(-0.26 -3.93)"></path><path class="cls-1" d="M585,73.43l20.24,23.36-15,31.79a110.5,110.5,0,0,1,10.54,219.64l-21.53,24.84,14.68,31.09c86.87-4.92,156-77.14,156-165.22C750,147.85,676,73.72,585,73.43Z" transform="translate(-0.26 -3.93)"></path><polygon class="cls-2" points="435.69 79.5 288.69 235.5 436.69 391.5 583.69 234.5 435.69 79.5"></polygon><polygon class="cls-3" points="432.69 98.5 303.69 234.5 432.69 371.5 432.69 98.5"></polygon><polygon class="cls-4" points="440.69 98.5 569.69 234.5 440.69 371.5 440.69 98.5"></polygon><polygon class="cls-2" points="730.69 79.5 583.69 235.5 731.69 391.5 878.69 234.5 730.69 79.5"></polygon><polygon class="cls-3" points="727.69 98.5 598.69 234.5 727.69 371.5 727.69 98.5"></polygon><polygon class="cls-4" points="735.69 98.5 864.69 234.5 735.69 371.5 735.69 98.5"></polygon><circle class="cls-1" cx="731.53" cy="233.75" r="29.25"></circle><path class="cls-5" d="M719,227.65v-8.53h2.8a3.69,3.69,0,0,1,2.21.58,2,2,0,0,1,.79,1.75,1.66,1.66,0,0,1-.32,1,2,2,0,0,1-.88.69,1.9,1.9,0,0,1,1.26.7,2.43,2.43,0,0,1-.34,3.18,3.46,3.46,0,0,1-2.17.62Zm1.43-4.94h1.52a1.62,1.62,0,0,0,1.05-.31,1.26,1.26,0,0,0,0-1.83,1.86,1.86,0,0,0-1.17-.31h-1.37Zm0,1.06v2.74h1.92a1.71,1.71,0,0,0,1.13-.33,1.2,1.2,0,0,0,.4-1,1.35,1.35,0,0,0-.39-1,1.59,1.59,0,0,0-1.1-.41h-2Z" transform="translate(-0.26 -3.93)"></path><path class="cls-5" d="M730.41,226.71a2.19,2.19,0,0,1-.75.79,2.07,2.07,0,0,1-1.07.27,2,2,0,0,1-1.59-.67,3.15,3.15,0,0,1-.57-2.08v-3.71h1.41V225a2.1,2.1,0,0,0,.27,1.25,1,1,0,0,0,.82.33,1.86,1.86,0,0,0,.86-.18,1.25,1.25,0,0,0,.55-.54v-4.58h1.42v6.34h-1.22Z" transform="translate(-0.26 -3.93)"></path><path class="cls-5" d="M734.77,219.76h-1.42v-1.25h1.42Zm0,7.89h-1.42v-6.34h1.42Z" transform="translate(-0.26 -3.93)"></path><path class="cls-5" d="M737.88,227.65h-1.42v-9.14h1.42Z" transform="translate(-0.26 -3.93)"></path><path class="cls-5" d="M739.21,224.57a4.23,4.23,0,0,1,.65-2.45,2.12,2.12,0,0,1,1.83-.93,2,2,0,0,1,.92.21,2.13,2.13,0,0,1,.71.6v-3.49h1.42v9.14h-1.15l-.17-.8a2.11,2.11,0,0,1-.74.69,2.14,2.14,0,0,1-1,.23,2.16,2.16,0,0,1-1.82-.85,3.58,3.58,0,0,1-.65-2.23Zm1.43.12a2.59,2.59,0,0,0,.33,1.4,1.18,1.18,0,0,0,1.07.52,1.35,1.35,0,0,0,1.28-.74V223.1a1.5,1.5,0,0,0-.52-.54,1.4,1.4,0,0,0-.75-.2A1.14,1.14,0,0,0,741,223a3.25,3.25,0,0,0-.34,1.6Z" transform="translate(-0.26 -3.93)"></path><path class="cls-5" d="M713.68,240.08h0l2.47-6.56H718v8.53h-1.43v-6.13h0l-2.35,6.13h-1l-2.39-6.25h0v6.24h-1.42v-8.53h1.87Z" transform="translate(-0.26 -3.93)"></path><path class="cls-5" d="M722.34,242.17a2.76,2.76,0,0,1-2.17-.87,3.25,3.25,0,0,1-.79-2.27v-.24a3.37,3.37,0,0,1,.79-2.3,2.54,2.54,0,0,1,2-.9,2.4,2.4,0,0,1,1.94.79,3.19,3.19,0,0,1,.65,2.11v.77h-3.92v0a2.13,2.13,0,0,0,.41,1.26,1.4,1.4,0,0,0,1.17.49,3.26,3.26,0,0,0,1-.14,2.83,2.83,0,0,0,.79-.41l.46.93a2.91,2.91,0,0,1-1,.54A4.07,4.07,0,0,1,722.34,242.17Zm-.16-5.43a1.1,1.1,0,0,0-.89.4,2,2,0,0,0-.41,1v0h2.48v-.11a1.64,1.64,0,0,0-.29-1A1.06,1.06,0,0,0,722.18,236.74Z" transform="translate(-0.26 -3.93)"></path><path class="cls-5" d="M729.75,242.05c0-.16-.09-.32-.13-.47a3.47,3.47,0,0,1-.06-.45,2.6,2.6,0,0,1-.77.74,2,2,0,0,1-1.07.3,2.1,2.1,0,0,1-1.52-.51,1.82,1.82,0,0,1-.53-1.4,1.66,1.66,0,0,1,.72-1.43,3.55,3.55,0,0,1,2.05-.51h1.1v-.56a1,1,0,0,0-.29-.78,1.18,1.18,0,0,0-.84-.28,1.22,1.22,0,0,0-.77.23.76.76,0,0,0-.29.6H726v0a1.55,1.55,0,0,1,.67-1.33,2.86,2.86,0,0,1,1.85-.58,2.71,2.71,0,0,1,1.79.57,2,2,0,0,1,.68,1.61v2.82a6.33,6.33,0,0,0,0,.76,4.2,4.2,0,0,0,.17.7ZM728,241a1.76,1.76,0,0,0,1-.27,1.31,1.31,0,0,0,.57-.61v-.94h-1.13a1.4,1.4,0,0,0-1,.31.93.93,0,0,0-.35.72.74.74,0,0,0,.24.58A1,1,0,0,0,728,241Z" transform="translate(-0.26 -3.93)"></path><path class="cls-5" d="M736,240.32a.67.67,0,0,0-.28-.55,2.94,2.94,0,0,0-1-.38,4.29,4.29,0,0,1-1.71-.67,1.42,1.42,0,0,1-.59-1.2,1.72,1.72,0,0,1,.67-1.36,2.65,2.65,0,0,1,1.77-.57,2.78,2.78,0,0,1,1.84.59,1.68,1.68,0,0,1,.66,1.4v0H736a.91.91,0,0,0-.3-.68,1.2,1.2,0,0,0-.82-.28,1.14,1.14,0,0,0-.78.24.71.71,0,0,0-.27.57.6.6,0,0,0,.25.51,2.76,2.76,0,0,0,1,.35,4.42,4.42,0,0,1,1.76.69,1.46,1.46,0,0,1,.59,1.21,1.68,1.68,0,0,1-.71,1.4,3,3,0,0,1-1.86.54,2.86,2.86,0,0,1-2-.63,1.78,1.78,0,0,1-.68-1.45v0h1.33a1,1,0,0,0,.4.81,1.65,1.65,0,0,0,.91.25,1.41,1.41,0,0,0,.85-.22A.66.66,0,0,0,736,240.32Z" transform="translate(-0.26 -3.93)"></path><path class="cls-5" d="M742.65,241.11a2,2,0,0,1-.75.79,2.07,2.07,0,0,1-1.07.27,2,2,0,0,1-1.59-.67,3.15,3.15,0,0,1-.57-2.08v-3.71h1.41v3.72a2.1,2.1,0,0,0,.27,1.25,1,1,0,0,0,.82.33,1.86,1.86,0,0,0,.86-.18,1.25,1.25,0,0,0,.55-.54v-4.58H744v6.34h-1.22Z" transform="translate(-0.26 -3.93)"></path><path class="cls-5" d="M748.65,237l-.61,0a1.22,1.22,0,0,0-.69.18,1.06,1.06,0,0,0-.43.5v4.4h-1.43v-6.34h1.3l.1.92a2,2,0,0,1,.62-.76,1.46,1.46,0,0,1,.87-.28l.24,0,.2,0Z" transform="translate(-0.26 -3.93)"></path><path class="cls-5" d="M752.28,242.17a2.77,2.77,0,0,1-2.17-.87,3.29,3.29,0,0,1-.78-2.27v-.24a3.41,3.41,0,0,1,.78-2.3,2.56,2.56,0,0,1,2-.9,2.41,2.41,0,0,1,1.94.79,3.24,3.24,0,0,1,.65,2.11v.77H750.8v0a2.06,2.06,0,0,0,.41,1.26,1.4,1.4,0,0,0,1.17.49,3.31,3.31,0,0,0,1-.14,3,3,0,0,0,.79-.41l.46.93a2.91,2.91,0,0,1-1,.54A4.17,4.17,0,0,1,752.28,242.17Zm-.15-5.43a1.09,1.09,0,0,0-.89.4,2,2,0,0,0-.41,1v0h2.48v-.11a1.64,1.64,0,0,0-.29-1A1.06,1.06,0,0,0,752.13,236.74Z" transform="translate(-0.26 -3.93)"></path><path class="cls-5" d="M718.89,255.31h4v1.14h-5.42v-8.53h1.42Z" transform="translate(-0.26 -3.93)"></path><path class="cls-5" d="M726.64,256.57a2.76,2.76,0,0,1-2.17-.87,3.3,3.3,0,0,1-.79-2.27v-.24a3.42,3.42,0,0,1,.79-2.3,2.54,2.54,0,0,1,2-.9,2.39,2.39,0,0,1,1.93.79,3.19,3.19,0,0,1,.66,2.11v.77h-3.92l0,0a2.15,2.15,0,0,0,.41,1.26,1.42,1.42,0,0,0,1.17.49,3.26,3.26,0,0,0,1-.14,2.83,2.83,0,0,0,.79-.41l.47.93a3.28,3.28,0,0,1-1,.54A4.07,4.07,0,0,1,726.64,256.57Zm-.15-5.43a1.11,1.11,0,0,0-.9.4,2,2,0,0,0-.41,1v0h2.48v-.11a1.64,1.64,0,0,0-.29-1A1,1,0,0,0,726.49,251.14Z" transform="translate(-0.26 -3.93)"></path><path class="cls-5" d="M734.05,256.45c0-.16-.09-.32-.13-.47a3.4,3.4,0,0,1-.06-.46,2.4,2.4,0,0,1-.77.75,2,2,0,0,1-1.07.3,2.1,2.1,0,0,1-1.52-.51,1.82,1.82,0,0,1-.53-1.4,1.66,1.66,0,0,1,.72-1.43,3.55,3.55,0,0,1,2-.51h1.1v-.56a1,1,0,0,0-.29-.78,1.14,1.14,0,0,0-.84-.28,1.22,1.22,0,0,0-.77.23.76.76,0,0,0-.29.6h-1.37v0a1.55,1.55,0,0,1,.67-1.33,2.86,2.86,0,0,1,1.85-.58,2.69,2.69,0,0,1,1.79.57,2,2,0,0,1,.68,1.61V255a6,6,0,0,0,.05.75,4.32,4.32,0,0,0,.17.71Zm-1.74-1a1.74,1.74,0,0,0,1-.27,1.31,1.31,0,0,0,.57-.61v-.94h-1.13a1.41,1.41,0,0,0-1,.31.93.93,0,0,0-.35.72.75.75,0,0,0,.24.58A1,1,0,0,0,732.31,255.43Z" transform="translate(-0.26 -3.93)"></path><path class="cls-5" d="M739.92,251.39l-.61,0a1.28,1.28,0,0,0-.7.18,1.15,1.15,0,0,0-.43.49v4.41h-1.42v-6.34h1.3l.09.92a2.05,2.05,0,0,1,.62-.76,1.46,1.46,0,0,1,.87-.28l.24,0,.2.05Z" transform="translate(-0.26 -3.93)"></path><path class="cls-5" d="M742.26,250.11l.08.91a2.32,2.32,0,0,1,.78-.75,2,2,0,0,1,1.07-.28,2,2,0,0,1,1.54.61,2.78,2.78,0,0,1,.55,1.91v3.94h-1.42v-3.93a1.55,1.55,0,0,0-.29-1.05,1.1,1.1,0,0,0-.86-.31,1.74,1.74,0,0,0-.79.17,1.4,1.4,0,0,0-.54.48v4.64H741v-6.34Z" transform="translate(-0.26 -3.93)"></path><path class="cls-6" d="M378.23,19.59a2.4,2.4,0,0,0-.84-1.92,8.08,8.08,0,0,0-2.93-1.37A16.77,16.77,0,0,1,369,13.74a4.82,4.82,0,0,1-1.87-4,5,5,0,0,1,2.1-4.18,9.72,9.72,0,0,1,10.92.12,5.45,5.45,0,0,1,2,4.57l0,.09h-4a3,3,0,0,0-.95-2.4,3.89,3.89,0,0,0-2.64-.83,3.5,3.5,0,0,0-2.38.74,2.41,2.41,0,0,0-.85,1.9,2.09,2.09,0,0,0,.92,1.74,12.2,12.2,0,0,0,3.15,1.43,13.49,13.49,0,0,1,5.23,2.54,5.18,5.18,0,0,1,1.8,4.12,5,5,0,0,1-2.08,4.21,9.05,9.05,0,0,1-5.52,1.54A9.78,9.78,0,0,1,369,23.65a5.53,5.53,0,0,1-2.34-5l0-.09h4a3.27,3.27,0,0,0,1.09,2.71,4.5,4.5,0,0,0,2.94.88,4,4,0,0,0,2.55-.7A2.27,2.27,0,0,0,378.23,19.59Z" transform="translate(-0.26 -3.93)"></path><path class="cls-6" d="M400,7.44H394V25h-4.17V7.44H384V4.23h16Z" transform="translate(-0.26 -3.93)"></path><path class="cls-6" d="M406.42,16.71V25h-4.17V4.23h7.2A8.6,8.6,0,0,1,415,5.85a5.48,5.48,0,0,1,2,4.52,4.51,4.51,0,0,1-.85,2.76A5.92,5.92,0,0,1,413.69,15a4.5,4.5,0,0,1,2.65,1.81,5.76,5.76,0,0,1,.81,3.15v1.52a8,8,0,0,0,.23,1.83,2.5,2.5,0,0,0,.81,1.4V25h-4.3a2.3,2.3,0,0,1-.73-1.51,13.36,13.36,0,0,1-.17-2V20a3.31,3.31,0,0,0-.85-2.42,3.23,3.23,0,0,0-2.4-.86Zm0-3.21h3a3.87,3.87,0,0,0,2.61-.75,2.74,2.74,0,0,0,.86-2.2A3.06,3.06,0,0,0,412,8.28a3.52,3.52,0,0,0-2.54-.84h-3Z" transform="translate(-0.26 -3.93)"></path><path class="cls-6" d="M431.73,20.54H425L423.59,25h-4.36l7-20.79h4.27l7,20.79h-4.36ZM426,17.27h4.7l-2.3-7.33h-.09Z" transform="translate(-0.26 -3.93)"></path><path class="cls-6" d="M452.72,7.44h-5.94V25h-4.17V7.44h-5.85V4.23h16Z" transform="translate(-0.26 -3.93)"></path><path class="cls-6" d="M466.89,15.88h-7.71v5.94h9.17V25H455V4.23h13.31V7.44h-9.14v5.23h7.71Z" transform="translate(-0.26 -3.93)"></path><path class="cls-6" d="M487.21,22.18a7.89,7.89,0,0,1-2.89,2.21,11.51,11.51,0,0,1-5,.93A8.38,8.38,0,0,1,473.18,23a8.26,8.26,0,0,1-2.4-6.15V12.45a8.4,8.4,0,0,1,2.32-6.14,8,8,0,0,1,6-2.38,8.52,8.52,0,0,1,5.84,1.8,6,6,0,0,1,2,4.82l0,.09h-3.93a3.42,3.42,0,0,0-1-2.58,3.87,3.87,0,0,0-2.78-.92,3.74,3.74,0,0,0-3.09,1.48,5.93,5.93,0,0,0-1.17,3.81V16.8a5.92,5.92,0,0,0,1.2,3.84,3.92,3.92,0,0,0,3.22,1.48,7.3,7.3,0,0,0,2.34-.3,3.6,3.6,0,0,0,1.34-.75V17h-4V14.15h8.18Z" transform="translate(-0.26 -3.93)"></path><path class="cls-6" d="M498.1,13.81h.08l4.54-9.58h4.57l-7.12,13.48V25H496V17.5L489,4.23h4.57Z" transform="translate(-0.26 -3.93)"></path><path class="cls-6" d="M674.05,20.59a2.43,2.43,0,0,0-.83-1.92,8.23,8.23,0,0,0-2.94-1.37,16.77,16.77,0,0,1-5.46-2.56,4.84,4.84,0,0,1-1.86-4,5,5,0,0,1,2.09-4.18A9.72,9.72,0,0,1,676,6.67a5.45,5.45,0,0,1,2,4.57l0,.09h-4a3,3,0,0,0-1-2.4,3.85,3.85,0,0,0-2.64-.83,3.5,3.5,0,0,0-2.38.74,2.44,2.44,0,0,0-.85,1.9,2.09,2.09,0,0,0,.92,1.74,12.14,12.14,0,0,0,3.16,1.43,13.51,13.51,0,0,1,5.22,2.54,5.18,5.18,0,0,1,1.8,4.12,5,5,0,0,1-2.08,4.21,9.05,9.05,0,0,1-5.52,1.54,9.8,9.8,0,0,1-5.76-1.67,5.5,5.5,0,0,1-2.33-5l0-.09h4.05a3.27,3.27,0,0,0,1.08,2.71,4.54,4.54,0,0,0,2.94.88,4,4,0,0,0,2.55-.7A2.27,2.27,0,0,0,674.05,20.59Z" transform="translate(-0.26 -3.93)"></path><path class="cls-6" d="M698.12,17.5a8.72,8.72,0,0,1-2.42,6.33,9.13,9.13,0,0,1-12.54,0,8.74,8.74,0,0,1-2.4-6.32V13.75a8.77,8.77,0,0,1,2.4-6.32,8.21,8.21,0,0,1,6.23-2.5,8.38,8.38,0,0,1,6.3,2.5,8.71,8.71,0,0,1,2.43,6.32ZM694,13.73a6.36,6.36,0,0,0-1.21-4,4,4,0,0,0-3.36-1.56,3.88,3.88,0,0,0-3.29,1.56,6.41,6.41,0,0,0-1.18,4V17.5a6.38,6.38,0,0,0,1.19,4,3.92,3.92,0,0,0,3.31,1.56,4,4,0,0,0,3.34-1.56,6.39,6.39,0,0,0,1.2-4Z" transform="translate(-0.26 -3.93)"></path><path class="cls-6" d="M705.59,22.82h9.31V26H701.42V5.23h4.17Z" transform="translate(-0.26 -3.93)"></path><path class="cls-6" d="M733.81,5.23V18.84a6.86,6.86,0,0,1-2.33,5.5,9,9,0,0,1-6,2,8.9,8.9,0,0,1-6-2,6.88,6.88,0,0,1-2.31-5.5V5.23h4.19V18.84A4.27,4.27,0,0,0,722.42,22a4.1,4.1,0,0,0,3,1.1,4.15,4.15,0,0,0,3-1.1,4.2,4.2,0,0,0,1.13-3.18V5.23Z" transform="translate(-0.26 -3.93)"></path><path class="cls-6" d="M751.92,8.44H746V26H741.8V8.44H736V5.23h16Z" transform="translate(-0.26 -3.93)"></path><path class="cls-6" d="M758.66,26h-4.17V5.23h4.17Z" transform="translate(-0.26 -3.93)"></path><path class="cls-6" d="M779.61,17.5a8.76,8.76,0,0,1-2.41,6.33,8.38,8.38,0,0,1-6.29,2.49,8.24,8.24,0,0,1-6.25-2.5,8.74,8.74,0,0,1-2.4-6.32V13.75a8.77,8.77,0,0,1,2.39-6.32,8.21,8.21,0,0,1,6.23-2.5,8.38,8.38,0,0,1,6.3,2.5,8.71,8.71,0,0,1,2.43,6.32Zm-4.16-3.77a6.3,6.3,0,0,0-1.21-4,4,4,0,0,0-3.36-1.56,3.89,3.89,0,0,0-3.29,1.56,6.41,6.41,0,0,0-1.18,4V17.5a6.45,6.45,0,0,0,1.19,4,3.92,3.92,0,0,0,3.31,1.56,4,4,0,0,0,3.34-1.56,6.39,6.39,0,0,0,1.2-4Z" transform="translate(-0.26 -3.93)"></path><path class="cls-6" d="M799.72,26h-4.17l-8.39-14h-.08V26h-4.17V5.23h4.17l8.38,14,.09,0v-14h4.17Z" transform="translate(-0.26 -3.93)"></path><path class="cls-6" d="M324.43,38.48v8.2A4.1,4.1,0,0,1,323,50a5.4,5.4,0,0,1-3.64,1.2,5.32,5.32,0,0,1-3.61-1.2,4.13,4.13,0,0,1-1.39-3.31v-8.2h2.52v8.2a2.56,2.56,0,0,0,.67,1.92,2.46,2.46,0,0,0,1.81.66,2.33,2.33,0,0,0,2.52-2.58v-8.2Z" transform="translate(-0.26 -3.93)"></path><path class="cls-6" d="M328.72,41.7l.11,1.33A3.55,3.55,0,0,1,330,41.92a3,3,0,0,1,1.52-.39,2.8,2.8,0,0,1,2.21.9,4.37,4.37,0,0,1,.79,2.87V51H332v-5.7a2.22,2.22,0,0,0-.35-1.41,1.28,1.28,0,0,0-1.05-.42,2.17,2.17,0,0,0-1,.21,1.88,1.88,0,0,0-.7.58V51h-2.51V41.7Z" transform="translate(-0.26 -3.93)"></path><path class="cls-6" d="M336,46.43a6,6,0,0,1,.95-3.55,3.07,3.07,0,0,1,2.68-1.35,2.6,2.6,0,0,1,1.25.3,3.06,3.06,0,0,1,1,.86v-5.1h2.52V51h-2.14L342,49.86a3.18,3.18,0,0,1-1.05,1,2.81,2.81,0,0,1-1.37.34,3.14,3.14,0,0,1-2.66-1.26,5.32,5.32,0,0,1-.95-3.32Zm2.5.18a3.83,3.83,0,0,0,.41,1.92,1.43,1.43,0,0,0,1.34.7,1.93,1.93,0,0,0,.95-.22,1.69,1.69,0,0,0,.66-.64v-4a2,2,0,0,0-.66-.69,1.74,1.74,0,0,0-.93-.24,1.43,1.43,0,0,0-1.35.82,4.64,4.64,0,0,0-.42,2.13Z" transform="translate(-0.26 -3.93)"></path><path class="cls-6" d="M350.34,51.19a4.19,4.19,0,0,1-3.25-1.28,4.68,4.68,0,0,1-1.17-3.29v-.35a5.13,5.13,0,0,1,1.13-3.42,3.85,3.85,0,0,1,3.13-1.32,3.57,3.57,0,0,1,2.87,1.15,4.51,4.51,0,0,1,1,3.09v1.3h-5.55l0,0a2.59,2.59,0,0,0,.58,1.55,2,2,0,0,0,1.55.59,5.34,5.34,0,0,0,1.43-.17,6,6,0,0,0,1.22-.53l.68,1.55a4.69,4.69,0,0,1-1.52.77A6.87,6.87,0,0,1,350.34,51.19Zm-.16-7.73A1.41,1.41,0,0,0,349,44a2.59,2.59,0,0,0-.49,1.38v0h3.07v-.19a2.2,2.2,0,0,0-.34-1.29A1.23,1.23,0,0,0,350.18,43.46Z" transform="translate(-0.26 -3.93)"></path><path class="cls-6" d="M360.41,43.86l-.92,0a1.72,1.72,0,0,0-.92.23,1.55,1.55,0,0,0-.55.66V51h-2.5V41.7h2.33l.11,1.38a2.9,2.9,0,0,1,.85-1.14,1.84,1.84,0,0,1,1.2-.41,2,2,0,0,1,.35,0l.32.07Z" transform="translate(-0.26 -3.93)"></path><path class="cls-6" d="M366.75,48.43a.84.84,0,0,0-.4-.71,3.88,3.88,0,0,0-1.48-.52,5.93,5.93,0,0,1-2.48-1,2.16,2.16,0,0,1-.85-1.8,2.57,2.57,0,0,1,1-2,4.11,4.11,0,0,1,2.7-.84,4.44,4.44,0,0,1,2.83.84,2.45,2.45,0,0,1,1,2.1l0,.05h-2.42a1.21,1.21,0,0,0-.36-.91,1.7,1.7,0,0,0-2,0,.91.91,0,0,0-.35.74.85.85,0,0,0,.36.7,4.1,4.1,0,0,0,1.49.48,6.11,6.11,0,0,1,2.55,1,2.23,2.23,0,0,1,.84,1.84,2.47,2.47,0,0,1-1.08,2.06,4.66,4.66,0,0,1-2.84.8,4.31,4.31,0,0,1-2.94-.95,2.62,2.62,0,0,1-1-2.14v-.05h2.3a1.3,1.3,0,0,0,.49,1.08,2,2,0,0,0,1.21.34,1.8,1.8,0,0,0,1.07-.28A.92.92,0,0,0,366.75,48.43Z" transform="translate(-0.26 -3.93)"></path><path class="cls-6" d="M373.81,39.42V41.7h1.58v1.76h-1.58V48.2A1.12,1.12,0,0,0,374,49a.81.81,0,0,0,.6.23l.34,0,.34-.08.2,1.82a5.25,5.25,0,0,1-.73.19,3.84,3.84,0,0,1-.78.07,2.68,2.68,0,0,1-2-.72,3.11,3.11,0,0,1-.7-2.26V43.46H370V41.7h1.36V39.42Z" transform="translate(-0.26 -3.93)"></path><path class="cls-6" d="M382.42,51a4.94,4.94,0,0,1-.23-.68,4.18,4.18,0,0,1-.15-.72,3.25,3.25,0,0,1-1,1.13,2.54,2.54,0,0,1-1.51.45,3.12,3.12,0,0,1-2.26-.76,2.71,2.71,0,0,1-.79-2,2.44,2.44,0,0,1,1.06-2.12,5.25,5.25,0,0,1,3.07-.75H382v-.74a1.47,1.47,0,0,0-.35-1,1.39,1.39,0,0,0-1-.37,1.34,1.34,0,0,0-.94.3,1,1,0,0,0-.33.81h-2.42l0,0a2.36,2.36,0,0,1,1-2,4.47,4.47,0,0,1,2.84-.85,4.19,4.19,0,0,1,2.72.84,2.94,2.94,0,0,1,1,2.42v3.84a7.85,7.85,0,0,0,.1,1.23,6,6,0,0,0,.32,1.15Zm-2.29-1.68A2.15,2.15,0,0,0,381.3,49a1.73,1.73,0,0,0,.7-.76V46.93h-1.41a1.69,1.69,0,0,0-1.21.39,1.33,1.33,0,0,0-.41,1,1,1,0,0,0,.31.75A1.19,1.19,0,0,0,380.13,49.33Z" transform="translate(-0.26 -3.93)"></path><path class="cls-6" d="M388.69,41.7l.12,1.33A3.55,3.55,0,0,1,390,41.92a3,3,0,0,1,1.52-.39,2.76,2.76,0,0,1,2.2.9,4.31,4.31,0,0,1,.8,2.87V51H392v-5.7a2.22,2.22,0,0,0-.35-1.41,1.29,1.29,0,0,0-1.05-.42,2.17,2.17,0,0,0-1,.21,1.81,1.81,0,0,0-.7.58V51h-2.52V41.7Z" transform="translate(-0.26 -3.93)"></path><path class="cls-6" d="M396,46.43a6.06,6.06,0,0,1,.95-3.55,3.1,3.1,0,0,1,2.68-1.35,2.61,2.61,0,0,1,1.26.3,3.06,3.06,0,0,1,1,.86v-5.1h2.52V51H402.2L402,49.86a3.15,3.15,0,0,1-1,1,2.81,2.81,0,0,1-1.37.34,3.15,3.15,0,0,1-2.67-1.26,5.38,5.38,0,0,1-.95-3.32Zm2.51.18a3.73,3.73,0,0,0,.41,1.92,1.42,1.42,0,0,0,1.34.7,1.93,1.93,0,0,0,1-.22,1.69,1.69,0,0,0,.66-.64v-4a2,2,0,0,0-.66-.69,1.79,1.79,0,0,0-.93-.24,1.42,1.42,0,0,0-1.35.82,4.64,4.64,0,0,0-.42,2.13Z" transform="translate(-0.26 -3.93)"></path><path class="cls-6" d="M413.68,39.42V41.7h1.57v1.76h-1.57V48.2a1.12,1.12,0,0,0,.23.78.81.81,0,0,0,.6.23l.34,0,.34-.08.2,1.82a5.25,5.25,0,0,1-.73.19,3.84,3.84,0,0,1-.78.07,2.66,2.66,0,0,1-2-.72,3.11,3.11,0,0,1-.7-2.26V43.46h-1.36V41.7h1.36V39.42Z" transform="translate(-0.26 -3.93)"></path><path class="cls-6" d="M419.25,42.88a3.31,3.31,0,0,1,1.08-1,2.89,2.89,0,0,1,1.41-.35,2.85,2.85,0,0,1,2.28,1,4.5,4.5,0,0,1,.83,3V51h-2.51V45.47a2.51,2.51,0,0,0-.35-1.54,1.23,1.23,0,0,0-1-.45,2.52,2.52,0,0,0-1,.18,1.78,1.78,0,0,0-.7.53V51h-2.51V37.59h2.51Z" transform="translate(-0.26 -3.93)"></path><path class="cls-6" d="M430.78,51.19a4.19,4.19,0,0,1-3.25-1.28,4.68,4.68,0,0,1-1.17-3.29v-.35a5.08,5.08,0,0,1,1.14-3.42,3.82,3.82,0,0,1,3.12-1.32,3.57,3.57,0,0,1,2.87,1.15,4.51,4.51,0,0,1,1,3.09v1.3H429l0,0a2.59,2.59,0,0,0,.58,1.55,2,2,0,0,0,1.55.59,5.34,5.34,0,0,0,1.43-.17,6,6,0,0,0,1.22-.53l.68,1.55a4.69,4.69,0,0,1-1.52.77A6.87,6.87,0,0,1,430.78,51.19Zm-.16-7.73a1.41,1.41,0,0,0-1.17.52,2.59,2.59,0,0,0-.49,1.38v0H432v-.19a2.2,2.2,0,0,0-.34-1.29A1.23,1.23,0,0,0,430.62,43.46Z" transform="translate(-0.26 -3.93)"></path><path class="cls-6" d="M448.44,47.55h.05l1.13-5.85h2.44L449.69,51H447.6l-1.73-5.37h-.05L444.09,51H442l-2.37-9.31h2.44l1.15,5.82h0L445,41.7h1.67Z" transform="translate(-0.26 -3.93)"></path><path class="cls-6" d="M455.76,42.88a3.18,3.18,0,0,1,1.07-1,3,3,0,0,1,1.41-.35,2.87,2.87,0,0,1,2.29,1,4.56,4.56,0,0,1,.83,3V51h-2.51V45.47a2.59,2.59,0,0,0-.35-1.54,1.24,1.24,0,0,0-1.05-.45,2.59,2.59,0,0,0-1,.18,1.83,1.83,0,0,0-.69.53V51h-2.51V37.59h2.51Z" transform="translate(-0.26 -3.93)"></path><path class="cls-6" d="M466.61,47.1l.1.52h.05l1.78-5.92h2.7l-3.77,10.7a5.17,5.17,0,0,1-1.08,1.68,2.73,2.73,0,0,1-2,.68,2.76,2.76,0,0,1-.59,0l-.66-.14.3-1.84.24,0,.23,0a1.42,1.42,0,0,0,1-.31,2,2,0,0,0,.51-.76l.29-.72-3.3-9.3H465Z" transform="translate(-0.26 -3.93)"></path><path class="cls-6" d="M477.28,48.43a.84.84,0,0,0-.4-.71,3.88,3.88,0,0,0-1.48-.52,6,6,0,0,1-2.49-1,2.18,2.18,0,0,1-.84-1.8,2.57,2.57,0,0,1,1-2,4.11,4.11,0,0,1,2.7-.84,4.44,4.44,0,0,1,2.83.84,2.45,2.45,0,0,1,1,2.1l0,.05h-2.42a1.22,1.22,0,0,0-.37-.91,1.69,1.69,0,0,0-2,0,.91.91,0,0,0-.35.74.85.85,0,0,0,.36.7,4,4,0,0,0,1.49.48,6.11,6.11,0,0,1,2.55,1,2.25,2.25,0,0,1,.83,1.84,2.46,2.46,0,0,1-1.07,2.06,4.66,4.66,0,0,1-2.84.8,4.31,4.31,0,0,1-2.94-.95,2.63,2.63,0,0,1-1-2.14l0-.05h2.3a1.3,1.3,0,0,0,.49,1.08,2,2,0,0,0,1.21.34,1.74,1.74,0,0,0,1.06-.28A.9.9,0,0,0,477.28,48.43Z" transform="translate(-0.26 -3.93)"></path><path class="cls-6" d="M491.21,51a3.91,3.91,0,0,1-.24-.68,4.17,4.17,0,0,1-.14-.72,3.38,3.38,0,0,1-1,1.13,2.54,2.54,0,0,1-1.51.45,3.08,3.08,0,0,1-2.25-.76,2.68,2.68,0,0,1-.8-2,2.46,2.46,0,0,1,1.06-2.12,5.27,5.27,0,0,1,3.07-.75h1.41v-.74a1.43,1.43,0,0,0-.35-1,1.36,1.36,0,0,0-1.05-.37,1.34,1.34,0,0,0-.94.3,1,1,0,0,0-.33.81h-2.42l0,0a2.38,2.38,0,0,1,1-2,4.5,4.5,0,0,1,2.85-.85,4.18,4.18,0,0,1,2.71.84,2.94,2.94,0,0,1,1,2.42v3.84a7.9,7.9,0,0,0,.09,1.23,6,6,0,0,0,.32,1.15Zm-2.3-1.68a2.15,2.15,0,0,0,1.17-.33,1.73,1.73,0,0,0,.7-.76V46.93h-1.41a1.67,1.67,0,0,0-1.2.39,1.29,1.29,0,0,0-.41,1,1,1,0,0,0,.3.75A1.21,1.21,0,0,0,488.91,49.33Z" transform="translate(-0.26 -3.93)"></path><path class="cls-6" d="M497.48,41.7l.11,1.33a3.55,3.55,0,0,1,1.14-1.11,3,3,0,0,1,1.52-.39,2.8,2.8,0,0,1,2.21.9,4.37,4.37,0,0,1,.79,2.87V51h-2.52v-5.7a2.22,2.22,0,0,0-.35-1.41,1.28,1.28,0,0,0-1.05-.42,2.17,2.17,0,0,0-1,.21,1.81,1.81,0,0,0-.7.58V51h-2.51V41.7Z" transform="translate(-0.26 -3.93)"></path><path class="cls-6" d="M504.74,46.43a6,6,0,0,1,.95-3.55,3.07,3.07,0,0,1,2.68-1.35,2.6,2.6,0,0,1,1.25.3,3.06,3.06,0,0,1,1,.86v-5.1h2.52V51H511l-.21-1.15a3.18,3.18,0,0,1-1,1,2.81,2.81,0,0,1-1.37.34,3.14,3.14,0,0,1-2.66-1.26,5.32,5.32,0,0,1-.95-3.32Zm2.5.18a3.83,3.83,0,0,0,.41,1.92,1.43,1.43,0,0,0,1.34.7,1.93,1.93,0,0,0,.95-.22,1.69,1.69,0,0,0,.66-.64v-4a2,2,0,0,0-.66-.69,1.74,1.74,0,0,0-.93-.24,1.43,1.43,0,0,0-1.35.82,4.64,4.64,0,0,0-.42,2.13Z" transform="translate(-0.26 -3.93)"></path><path class="cls-6" d="M521.9,42.88a3.21,3.21,0,0,1,1.08-1,2.89,2.89,0,0,1,1.41-.35,2.85,2.85,0,0,1,2.28,1,4.5,4.5,0,0,1,.83,3V51H525V45.47a2.51,2.51,0,0,0-.35-1.54,1.23,1.23,0,0,0-1-.45,2.52,2.52,0,0,0-1,.18,1.78,1.78,0,0,0-.7.53V51h-2.51V37.59h2.51Z" transform="translate(-0.26 -3.93)"></path><path class="cls-6" d="M529,46.27a5,5,0,0,1,1.16-3.41,4,4,0,0,1,3.22-1.33,4.1,4.1,0,0,1,3.23,1.32,5,5,0,0,1,1.17,3.42v.18a5,5,0,0,1-1.16,3.42,4.61,4.61,0,0,1-6.46,0A5,5,0,0,1,529,46.45Zm2.5.18a4,4,0,0,0,.45,2,1.72,1.72,0,0,0,2.87,0,4.06,4.06,0,0,0,.45-2v-.18a3.9,3.9,0,0,0-.46-2,1.69,1.69,0,0,0-2.86,0,4,4,0,0,0-.45,2Z" transform="translate(-0.26 -3.93)"></path><path class="cls-6" d="M547.43,47.55h.05l1.13-5.85h2.44L548.69,51h-2.1l-1.73-5.37h-.05L543.08,51H541l-2.37-9.31h2.45l1.14,5.82h0L544,41.7h1.68Z" transform="translate(-0.26 -3.93)"></path><path class="cls-6" d="M557.33,48.43a.84.84,0,0,0-.4-.71,3.81,3.81,0,0,0-1.48-.52,5.93,5.93,0,0,1-2.48-1,2.16,2.16,0,0,1-.85-1.8,2.56,2.56,0,0,1,1-2,4.08,4.08,0,0,1,2.7-.84,4.42,4.42,0,0,1,2.82.84,2.45,2.45,0,0,1,1,2.1l0,.05h-2.42a1.21,1.21,0,0,0-.36-.91,1.41,1.41,0,0,0-1-.35,1.43,1.43,0,0,0-1,.3.94.94,0,0,0-.35.74.85.85,0,0,0,.36.7,4.1,4.1,0,0,0,1.49.48,6.11,6.11,0,0,1,2.55,1,2.23,2.23,0,0,1,.84,1.84,2.47,2.47,0,0,1-1.08,2.06,4.64,4.64,0,0,1-2.84.8,4.3,4.3,0,0,1-2.93-.95,2.6,2.6,0,0,1-1-2.14l0-.05h2.29a1.3,1.3,0,0,0,.49,1.08,2.07,2.07,0,0,0,1.22.34,1.78,1.78,0,0,0,1.06-.28A.92.92,0,0,0,557.33,48.43Z" transform="translate(-0.26 -3.93)"></path><path class="cls-6" d="M657.31,45.5h-4.64v3.58h5.52V51h-8V38.48h8v1.94h-5.5v3.15h4.64Z" transform="translate(-0.26 -3.93)"></path><path class="cls-6" d="M663.27,44.66h.05l1.42-3h2.84l-2.8,4.6,2.9,4.71h-2.83l-1.52-3.09L661.8,51H659l2.9-4.71-2.81-4.6h2.82Z" transform="translate(-0.26 -3.93)"></path><path class="cls-6" d="M672.62,51.19a4.2,4.2,0,0,1-3.25-1.28,4.68,4.68,0,0,1-1.17-3.29v-.35a5.08,5.08,0,0,1,1.14-3.42,3.83,3.83,0,0,1,3.12-1.32,3.61,3.61,0,0,1,2.88,1.15,4.55,4.55,0,0,1,1,3.09v1.3h-5.55l0,0a2.53,2.53,0,0,0,.58,1.55,2,2,0,0,0,1.54.59,5.34,5.34,0,0,0,1.43-.17,6,6,0,0,0,1.22-.53l.68,1.55a4.63,4.63,0,0,1-1.51.77A6.94,6.94,0,0,1,672.62,51.19Zm-.16-7.73a1.44,1.44,0,0,0-1.17.52,2.67,2.67,0,0,0-.49,1.38l0,0h3.06v-.19a2.13,2.13,0,0,0-.34-1.29A1.23,1.23,0,0,0,672.46,43.46Z" transform="translate(-0.26 -3.93)"></path><path class="cls-6" d="M681.69,49.26a1.34,1.34,0,0,0,1.43-1.44h2.29v.06a2.88,2.88,0,0,1-1,2.36,4.4,4.4,0,0,1-5.87-.37,5,5,0,0,1-1.13-3.38v-.26a5.07,5.07,0,0,1,1.12-3.37,3.93,3.93,0,0,1,3.18-1.33,3.83,3.83,0,0,1,2.75,1,3.25,3.25,0,0,1,1,2.58v0h-2.29a1.84,1.84,0,0,0-.39-1.2,1.28,1.28,0,0,0-1.06-.48,1.43,1.43,0,0,0-1.38.78,4.29,4.29,0,0,0-.41,2v.26a4.25,4.25,0,0,0,.41,2A1.46,1.46,0,0,0,681.69,49.26Z" transform="translate(-0.26 -3.93)"></path><path class="cls-6" d="M692.59,49.63a3.18,3.18,0,0,1-1.09,1.15,2.93,2.93,0,0,1-1.54.41,2.84,2.84,0,0,1-2.3-1,4.77,4.77,0,0,1-.83-3.1V41.7h2.5v5.41a3,3,0,0,0,.33,1.67,1.19,1.19,0,0,0,1,.45,2.49,2.49,0,0,0,1-.19,1.7,1.7,0,0,0,.7-.57V41.7h2.52V51h-2.09Z" transform="translate(-0.26 -3.93)"></path><path class="cls-6" d="M699.84,39.42V41.7h1.57v1.76h-1.57V48.2a1.07,1.07,0,0,0,.23.78.81.81,0,0,0,.59.23l.35,0a2.61,2.61,0,0,0,.33-.08l.21,1.82a5.37,5.37,0,0,1-.74.19,3.67,3.67,0,0,1-.77.07,2.65,2.65,0,0,1-2-.72,3.11,3.11,0,0,1-.71-2.26V43.46H696V41.7h1.35V39.42Z" transform="translate(-0.26 -3.93)"></path><path class="cls-6" d="M707,51.19a4.21,4.21,0,0,1-3.26-1.28,4.68,4.68,0,0,1-1.17-3.29v-.35a5.08,5.08,0,0,1,1.14-3.42,3.85,3.85,0,0,1,3.12-1.32,3.61,3.61,0,0,1,2.88,1.15,4.5,4.5,0,0,1,1,3.09v1.3h-5.55l0,0a2.53,2.53,0,0,0,.58,1.55,2,2,0,0,0,1.54.59,5.34,5.34,0,0,0,1.43-.17,5.79,5.79,0,0,0,1.22-.53l.68,1.55a4.63,4.63,0,0,1-1.51.77A6.92,6.92,0,0,1,707,51.19Zm-.17-7.73a1.41,1.41,0,0,0-1.16.52,2.59,2.59,0,0,0-.5,1.38l0,0h3.06v-.19a2.2,2.2,0,0,0-.33-1.29A1.27,1.27,0,0,0,706.83,43.46Z" transform="translate(-0.26 -3.93)"></path><path class="cls-6" d="M719.57,39.42V41.7h1.57v1.76h-1.57V48.2a1.12,1.12,0,0,0,.23.78.81.81,0,0,0,.6.23l.34,0,.34-.08.2,1.82a5.63,5.63,0,0,1-.73.19,3.84,3.84,0,0,1-.78.07,2.66,2.66,0,0,1-2-.72,3.11,3.11,0,0,1-.7-2.26V43.46h-1.36V41.7h1.36V39.42Z" transform="translate(-0.26 -3.93)"></path><path class="cls-6" d="M725.14,42.88a3.21,3.21,0,0,1,1.08-1,2.89,2.89,0,0,1,1.41-.35,2.85,2.85,0,0,1,2.28,1,4.5,4.5,0,0,1,.83,3V51h-2.51V45.47a2.51,2.51,0,0,0-.35-1.54,1.23,1.23,0,0,0-1-.45,2.52,2.52,0,0,0-1,.18,1.78,1.78,0,0,0-.7.53V51h-2.51V37.59h2.51Z" transform="translate(-0.26 -3.93)"></path><path class="cls-6" d="M736.67,51.19a4.19,4.19,0,0,1-3.25-1.28,4.68,4.68,0,0,1-1.17-3.29v-.35a5.13,5.13,0,0,1,1.13-3.42,3.85,3.85,0,0,1,3.13-1.32,3.57,3.57,0,0,1,2.87,1.15,4.51,4.51,0,0,1,1,3.09v1.3h-5.55l0,0a2.59,2.59,0,0,0,.58,1.55,2,2,0,0,0,1.55.59,5.34,5.34,0,0,0,1.43-.17,6,6,0,0,0,1.22-.53l.68,1.55a4.69,4.69,0,0,1-1.52.77A6.87,6.87,0,0,1,736.67,51.19Zm-.16-7.73a1.41,1.41,0,0,0-1.17.52,2.59,2.59,0,0,0-.49,1.38v0h3.07v-.19a2.2,2.2,0,0,0-.34-1.29A1.23,1.23,0,0,0,736.51,43.46Z" transform="translate(-0.26 -3.93)"></path><path class="cls-6" d="M745.85,46.27A5,5,0,0,1,747,42.86a4,4,0,0,1,3.22-1.33,4.1,4.1,0,0,1,3.23,1.32,5,5,0,0,1,1.17,3.42v.18a5,5,0,0,1-1.17,3.42,4.6,4.6,0,0,1-6.45,0,5,5,0,0,1-1.16-3.42Zm2.5.18a4,4,0,0,0,.45,2,1.72,1.72,0,0,0,2.87,0,4.06,4.06,0,0,0,.45-2v-.18a3.9,3.9,0,0,0-.46-2,1.69,1.69,0,0,0-2.86,0,4,4,0,0,0-.45,2Z" transform="translate(-0.26 -3.93)"></path><path class="cls-6" d="M761.88,49.63a3.18,3.18,0,0,1-1.09,1.15,2.9,2.9,0,0,1-1.54.41,2.84,2.84,0,0,1-2.3-1,4.77,4.77,0,0,1-.83-3.1V41.7h2.5v5.41a3,3,0,0,0,.33,1.67,1.2,1.2,0,0,0,1,.45,2.46,2.46,0,0,0,1-.19,1.8,1.8,0,0,0,.71-.57V41.7h2.51V51h-2.08Z" transform="translate(-0.26 -3.93)"></path><path class="cls-6" d="M769.13,39.42V41.7h1.58v1.76h-1.58V48.2a1.12,1.12,0,0,0,.23.78.81.81,0,0,0,.6.23l.34,0,.34-.08.2,1.82a5.25,5.25,0,0,1-.73.19,3.84,3.84,0,0,1-.78.07,2.66,2.66,0,0,1-2-.72,3.11,3.11,0,0,1-.7-2.26V43.46h-1.36V41.7h1.36V39.42Z" transform="translate(-0.26 -3.93)"></path><path class="cls-6" d="M776.14,49.26a1.4,1.4,0,0,0,1-.39,1.42,1.42,0,0,0,.39-1h2.29l0,.06a2.94,2.94,0,0,1-1,2.36,4.41,4.41,0,0,1-5.88-.37,5,5,0,0,1-1.13-3.38v-.26A5,5,0,0,1,773,42.86a3.9,3.9,0,0,1,3.17-1.33,3.83,3.83,0,0,1,2.75,1,3.29,3.29,0,0,1,1,2.58l0,0h-2.29a1.89,1.89,0,0,0-.38-1.2,1.3,1.3,0,0,0-1.07-.48,1.45,1.45,0,0,0-1.38.78,4.3,4.3,0,0,0-.4,2v.26a4.26,4.26,0,0,0,.4,2A1.47,1.47,0,0,0,776.14,49.26Z" transform="translate(-0.26 -3.93)"></path><path class="cls-6" d="M781,46.27a5,5,0,0,1,1.16-3.41,4.05,4.05,0,0,1,3.22-1.33,4.1,4.1,0,0,1,3.23,1.32,5,5,0,0,1,1.17,3.42v.18a5,5,0,0,1-1.16,3.42,4.6,4.6,0,0,1-6.45,0A5,5,0,0,1,781,46.45Zm2.5.18a4,4,0,0,0,.45,2,1.55,1.55,0,0,0,1.45.77,1.54,1.54,0,0,0,1.42-.77,4.06,4.06,0,0,0,.45-2v-.18a3.9,3.9,0,0,0-.46-2,1.69,1.69,0,0,0-2.86,0,4,4,0,0,0-.45,2Z" transform="translate(-0.26 -3.93)"></path><path class="cls-6" d="M793.61,41.7l.1,1.23a3.21,3.21,0,0,1,1.13-1,3.27,3.27,0,0,1,1.56-.36,2.9,2.9,0,0,1,1.53.39,2.48,2.48,0,0,1,1,1.2A3.23,3.23,0,0,1,800,42a3.05,3.05,0,0,1,1.62-.42,2.65,2.65,0,0,1,2.17,1,4.67,4.67,0,0,1,.79,3V51h-2.51V45.48a2.6,2.6,0,0,0-.34-1.56,1.23,1.23,0,0,0-1-.44,1.74,1.74,0,0,0-.93.24,1.62,1.62,0,0,0-.62.65,2.27,2.27,0,0,0,0,.28V51h-2.5V45.48a2.63,2.63,0,0,0-.34-1.55,1.23,1.23,0,0,0-1-.45,1.91,1.91,0,0,0-.89.19,1.7,1.7,0,0,0-.64.55V51h-2.5V41.7Z" transform="translate(-0.26 -3.93)"></path><path class="cls-6" d="M810.56,51.19a4.21,4.21,0,0,1-3.26-1.28,4.68,4.68,0,0,1-1.17-3.29v-.35a5.08,5.08,0,0,1,1.14-3.42,3.85,3.85,0,0,1,3.12-1.32,3.61,3.61,0,0,1,2.88,1.15,4.5,4.5,0,0,1,1,3.09v1.3h-5.55l0,0a2.53,2.53,0,0,0,.58,1.55,2,2,0,0,0,1.54.59,5.34,5.34,0,0,0,1.43-.17,5.79,5.79,0,0,0,1.22-.53l.68,1.55a4.63,4.63,0,0,1-1.51.77A6.92,6.92,0,0,1,810.56,51.19Zm-.17-7.73a1.41,1.41,0,0,0-1.16.52,2.59,2.59,0,0,0-.5,1.38l0,0h3.06v-.19a2.2,2.2,0,0,0-.33-1.29A1.27,1.27,0,0,0,810.39,43.46Z" transform="translate(-0.26 -3.93)"></path><path class="cls-6" d="M183.26,214.21v-13.1h4.29a6.28,6.28,0,0,1,3.61.9,3.08,3.08,0,0,1,1.29,2.69,2.79,2.79,0,0,1-.47,1.61,2.84,2.84,0,0,1-1.36,1.07,2.81,2.81,0,0,1,1.84,1.06,3.22,3.22,0,0,1,.62,1.95,3.39,3.39,0,0,1-1.24,2.85,5.65,5.65,0,0,1-3.52,1Zm2.63-7.61h1.75a2.69,2.69,0,0,0,1.62-.43,1.49,1.49,0,0,0,.57-1.26,1.56,1.56,0,0,0-.58-1.34,2.76,2.76,0,0,0-1.7-.44h-1.66Zm0,1.81v3.78h2.43a2.48,2.48,0,0,0,1.6-.45,1.67,1.67,0,0,0,.54-1.35,1.92,1.92,0,0,0-.54-1.46,2.24,2.24,0,0,0-1.62-.52Z" transform="translate(-0.26 -3.93)"></path><path class="cls-6" d="M200.76,212.77a3.3,3.3,0,0,1-1.14,1.2,3,3,0,0,1-1.61.42,3,3,0,0,1-2.41-1,5,5,0,0,1-.86-3.24v-5.64h2.61v5.66a3.14,3.14,0,0,0,.35,1.75,1.23,1.23,0,0,0,1.07.47,2.54,2.54,0,0,0,1.08-.2,1.73,1.73,0,0,0,.74-.6v-7.08h2.63v9.74H201Z" transform="translate(-0.26 -3.93)"></path><path class="cls-6" d="M208,202.15h-2.63v-2H208Zm0,12.06h-2.63v-9.74H208Z" transform="translate(-0.26 -3.93)"></path><path class="cls-6" d="M212.88,214.21h-2.63v-14h2.63Z" transform="translate(-0.26 -3.93)"></path><path class="cls-6" d="M214.63,209.42a6.33,6.33,0,0,1,1-3.71,3.25,3.25,0,0,1,2.81-1.42,2.73,2.73,0,0,1,1.31.32,3.1,3.1,0,0,1,1,.9v-5.33h2.64v14h-2.24l-.22-1.2a3.32,3.32,0,0,1-1.09,1,2.85,2.85,0,0,1-1.44.35,3.29,3.29,0,0,1-2.79-1.31,5.6,5.6,0,0,1-1-3.47Zm2.62.19a4,4,0,0,0,.43,2,1.49,1.49,0,0,0,1.4.73,2,2,0,0,0,1-.23,1.77,1.77,0,0,0,.69-.67v-4.14a2.05,2.05,0,0,0-.68-.72,1.86,1.86,0,0,0-1-.25,1.49,1.49,0,0,0-1.41.85,4.91,4.91,0,0,0-.44,2.23Z" transform="translate(-0.26 -3.93)"></path><path class="cls-6" d="M233.17,202.09v2.38h1.64v1.85h-1.64v5a1.17,1.17,0,0,0,.23.81.86.86,0,0,0,.63.25,1.86,1.86,0,0,0,.36,0l.35-.07.22,1.89a6.37,6.37,0,0,1-.77.21,5.17,5.17,0,0,1-.82.06,2.79,2.79,0,0,1-2.09-.74,3.28,3.28,0,0,1-.73-2.37v-5h-1.42v-1.85h1.42v-2.38Z" transform="translate(-0.26 -3.93)"></path><path class="cls-6" d="M239,205.71a3.29,3.29,0,0,1,1.13-1,2.93,2.93,0,0,1,1.47-.38,3,3,0,0,1,2.39,1,4.69,4.69,0,0,1,.87,3.12v5.78h-2.63v-5.8a2.7,2.7,0,0,0-.36-1.6,1.28,1.28,0,0,0-1.09-.47,2.59,2.59,0,0,0-1.05.19,1.84,1.84,0,0,0-.73.55v7.13h-2.62v-14H239Z" transform="translate(-0.26 -3.93)"></path><path class="cls-6" d="M251.05,214.39a4.37,4.37,0,0,1-3.4-1.33,4.88,4.88,0,0,1-1.23-3.44v-.36a5.33,5.33,0,0,1,1.19-3.58,4.06,4.06,0,0,1,3.27-1.39,3.76,3.76,0,0,1,3,1.2,4.77,4.77,0,0,1,1.05,3.24v1.36h-5.8l0,0a2.68,2.68,0,0,0,.61,1.62,2,2,0,0,0,1.62.62,5.38,5.38,0,0,0,1.49-.18,6,6,0,0,0,1.28-.55l.71,1.62a4.91,4.91,0,0,1-1.59.8A6.86,6.86,0,0,1,251.05,214.39Zm-.17-8.07a1.46,1.46,0,0,0-1.22.54,2.73,2.73,0,0,0-.52,1.45l0,0h3.2v-.2a2.29,2.29,0,0,0-.35-1.34A1.29,1.29,0,0,0,250.88,206.32Z" transform="translate(-0.26 -3.93)"></path><path class="cls-7" d="M9.47,267.73h0l1.18-6.12h2.56l-2.48,9.73H8.59l-1.81-5.61h0l-1.81,5.61H2.73L.26,261.61H2.81L4,267.7h.06l1.81-6.09H7.64Z" transform="translate(-0.26 -3.93)"></path><path class="cls-7" d="M17.32,259.28H14.7v-2h2.62Zm0,12.06H14.7v-9.73h2.62Z" transform="translate(-0.26 -3.93)"></path><path class="cls-7" d="M22.63,259.23v2.38h1.64v1.84H22.63v5a1.12,1.12,0,0,0,.24.81.83.83,0,0,0,.62.24l.36,0a3.34,3.34,0,0,0,.35-.08l.22,1.9a4.87,4.87,0,0,1-.77.2,4.18,4.18,0,0,1-.82.07,2.8,2.8,0,0,1-2.09-.75,3.28,3.28,0,0,1-.73-2.36v-5H18.59v-1.84H20v-2.38Z" transform="translate(-0.26 -3.93)"></path><path class="cls-7" d="M28.46,262.84a3.36,3.36,0,0,1,1.12-1,3.25,3.25,0,0,1,3.86.64,4.74,4.74,0,0,1,.87,3.13v5.77H31.69v-5.79a2.72,2.72,0,0,0-.37-1.61,1.3,1.3,0,0,0-1.09-.47,2.62,2.62,0,0,0-1.05.2,1.66,1.66,0,0,0-.72.55v7.12H25.83v-14h2.63Z" transform="translate(-0.26 -3.93)"></path><path class="cls-7" d="M43.64,271.34H41v-14h2.63Z" transform="translate(-0.26 -3.93)"></path><path class="cls-7" d="M50,271.53a4.36,4.36,0,0,1-3.4-1.34,4.9,4.9,0,0,1-1.22-3.44v-.35a5.36,5.36,0,0,1,1.19-3.59,4,4,0,0,1,3.26-1.38,3.78,3.78,0,0,1,3,1.2,4.74,4.74,0,0,1,1,3.23v1.36H48.1l0,.06a2.67,2.67,0,0,0,.61,1.62,2,2,0,0,0,1.61.62,5.4,5.4,0,0,0,1.5-.18,6.26,6.26,0,0,0,1.27-.55l.71,1.62a5.06,5.06,0,0,1-1.58.8A7.17,7.17,0,0,1,50,271.53Zm-.17-8.08a1.49,1.49,0,0,0-1.22.55,2.75,2.75,0,0,0-.51,1.44l0,.05h3.2v-.2a2.33,2.33,0,0,0-.35-1.35A1.32,1.32,0,0,0,49.84,263.45Z" transform="translate(-0.26 -3.93)"></path><path class="cls-7" d="M61.17,271.34a4.81,4.81,0,0,1-.25-.7,4.87,4.87,0,0,1-.15-.76,3.57,3.57,0,0,1-1.07,1.18,2.68,2.68,0,0,1-1.58.47,3.27,3.27,0,0,1-2.36-.79,2.82,2.82,0,0,1-.83-2.14A2.58,2.58,0,0,1,56,266.38a5.51,5.51,0,0,1,3.21-.79h1.48v-.77a1.54,1.54,0,0,0-.37-1.09,1.48,1.48,0,0,0-1.1-.38,1.39,1.39,0,0,0-1,.31,1,1,0,0,0-.35.85H55.4l0-.06a2.49,2.49,0,0,1,1.08-2.13,4.71,4.71,0,0,1,3-.89,4.34,4.34,0,0,1,2.84.88,3.08,3.08,0,0,1,1.08,2.53v4a7.65,7.65,0,0,0,.11,1.29,5.67,5.67,0,0,0,.32,1.19Zm-2.4-1.75a2.31,2.31,0,0,0,1.22-.34,1.92,1.92,0,0,0,.74-.8v-1.37H59.25a1.75,1.75,0,0,0-1.26.41,1.36,1.36,0,0,0-.43,1,1,1,0,0,0,.32.79A1.29,1.29,0,0,0,58.77,269.59Z" transform="translate(-0.26 -3.93)"></path><path class="cls-7" d="M67.72,261.61l.12,1.39a3.59,3.59,0,0,1,1.2-1.16,3.14,3.14,0,0,1,1.59-.41,2.9,2.9,0,0,1,2.3.95,4.5,4.5,0,0,1,.83,3v6H71.12v-5.95a2.34,2.34,0,0,0-.36-1.48,1.34,1.34,0,0,0-1.09-.44,2.37,2.37,0,0,0-1,.22,2,2,0,0,0-.74.61v7H65.28v-9.73Z" transform="translate(-0.26 -3.93)"></path><path class="cls-7" d="M89.08,266.75a5.65,5.65,0,0,1-1,3.47,3.33,3.33,0,0,1-2.79,1.31,3.09,3.09,0,0,1-1.36-.28,2.74,2.74,0,0,1-1-.84v4.67H80.31V261.61h2.36l.15,1.15a3.22,3.22,0,0,1,1-1,2.85,2.85,0,0,1,1.42-.35,3.26,3.26,0,0,1,2.81,1.41,6.35,6.35,0,0,1,1,3.72Zm-2.62-.19a4.77,4.77,0,0,0-.46-2.23,1.5,1.5,0,0,0-1.4-.86,2,2,0,0,0-1,.24,1.85,1.85,0,0,0-.66.7v4.26a1.6,1.6,0,0,0,.66.63,2.3,2.3,0,0,0,1,.22,1.5,1.5,0,0,0,1.4-.75,3.9,3.9,0,0,0,.45-2Z" transform="translate(-0.26 -3.93)"></path><path class="cls-7" d="M95.82,263.87l-1,0a1.75,1.75,0,0,0-1,.24,1.51,1.51,0,0,0-.58.69v6.57H90.7v-9.73h2.44l.12,1.44a3,3,0,0,1,.88-1.19,2,2,0,0,1,1.26-.43,2,2,0,0,1,.36,0l.34.08Z" transform="translate(-0.26 -3.93)"></path><path class="cls-7" d="M96.6,266.39a5.24,5.24,0,0,1,1.22-3.57,4.22,4.22,0,0,1,3.36-1.39,4.27,4.27,0,0,1,3.38,1.38,5.21,5.21,0,0,1,1.23,3.58v.18a5.22,5.22,0,0,1-1.22,3.58,4.82,4.82,0,0,1-6.75,0,5.22,5.22,0,0,1-1.22-3.58Zm2.62.18a4.27,4.27,0,0,0,.47,2.14,1.79,1.79,0,0,0,3,0,4.27,4.27,0,0,0,.47-2.14v-.18a4.16,4.16,0,0,0-.48-2.12,1.63,1.63,0,0,0-1.5-.82,1.6,1.6,0,0,0-1.49.83,4.25,4.25,0,0,0-.47,2.11Z" transform="translate(-0.26 -3.93)"></path><path class="cls-7" d="M107,266.56a6.35,6.35,0,0,1,1-3.72,3.24,3.24,0,0,1,2.8-1.41,2.74,2.74,0,0,1,1.32.31,3.1,3.1,0,0,1,1,.9v-5.33h2.64v14h-2.24l-.23-1.19a3.2,3.2,0,0,1-1.08,1,3,3,0,0,1-1.44.35,3.31,3.31,0,0,1-2.79-1.31,5.65,5.65,0,0,1-1-3.47Zm2.62.19a4,4,0,0,0,.43,2,1.51,1.51,0,0,0,1.4.73,2.07,2.07,0,0,0,1-.23,1.84,1.84,0,0,0,.69-.67v-4.15a2,2,0,0,0-.69-.71,1.8,1.8,0,0,0-1-.26,1.49,1.49,0,0,0-1.41.86,4.78,4.78,0,0,0-.44,2.23Z" transform="translate(-0.26 -3.93)"></path><path class="cls-7" d="M123.76,269.9a3.33,3.33,0,0,1-1.14,1.21,3,3,0,0,1-1.61.42,3,3,0,0,1-2.4-1,5,5,0,0,1-.87-3.24v-5.64h2.61v5.66a3.16,3.16,0,0,0,.35,1.75,1.26,1.26,0,0,0,1.08.47,2.7,2.7,0,0,0,1.08-.2,1.93,1.93,0,0,0,.73-.6v-7.08h2.63v9.73H124Z" transform="translate(-0.26 -3.93)"></path><path class="cls-7" d="M132.26,269.52a1.47,1.47,0,0,0,1.09-.41,1.51,1.51,0,0,0,.41-1.1h2.39l0,.06a3.09,3.09,0,0,1-1.1,2.47,4.6,4.6,0,0,1-6.14-.39,5.23,5.23,0,0,1-1.18-3.53v-.27a5.29,5.29,0,0,1,1.17-3.53,4.1,4.1,0,0,1,3.33-1.39,4,4,0,0,1,2.86,1,3.41,3.41,0,0,1,1.06,2.69l0,.06h-2.39a2,2,0,0,0-.4-1.26,1.36,1.36,0,0,0-1.11-.5,1.52,1.52,0,0,0-1.45.82,4.49,4.49,0,0,0-.43,2.08v.27a4.55,4.55,0,0,0,.43,2.1A1.53,1.53,0,0,0,132.26,269.52Z" transform="translate(-0.26 -3.93)"></path><path class="cls-7" d="M140.84,259.23v2.38h1.65v1.84h-1.65v5a1.12,1.12,0,0,0,.24.81.85.85,0,0,0,.63.24l.36,0a3.34,3.34,0,0,0,.35-.08l.21,1.9a4.6,4.6,0,0,1-.77.2,4.07,4.07,0,0,1-.81.07,2.78,2.78,0,0,1-2.09-.75,3.24,3.24,0,0,1-.73-2.36v-5H136.8v-1.84h1.43v-2.38Z" transform="translate(-0.26 -3.93)"></path><path class="cls-7" d="M148.29,266.56a6.35,6.35,0,0,1,1-3.72,3.24,3.24,0,0,1,2.8-1.41,2.74,2.74,0,0,1,1.32.31,3.1,3.1,0,0,1,1,.9v-5.33h2.64v14h-2.24l-.23-1.19a3.2,3.2,0,0,1-1.08,1,3,3,0,0,1-1.44.35,3.31,3.31,0,0,1-2.79-1.31,5.65,5.65,0,0,1-1-3.47Zm2.62.19a4,4,0,0,0,.43,2,1.51,1.51,0,0,0,1.4.73,2.07,2.07,0,0,0,1-.23,1.84,1.84,0,0,0,.69-.67v-4.15a2.11,2.11,0,0,0-.68-.71,1.86,1.86,0,0,0-1-.26,1.49,1.49,0,0,0-1.41.86,4.91,4.91,0,0,0-.44,2.23Z" transform="translate(-0.26 -3.93)"></path><path class="cls-7" d="M163.31,271.53a4.36,4.36,0,0,1-3.4-1.34,4.86,4.86,0,0,1-1.22-3.44v-.35a5.36,5.36,0,0,1,1.18-3.59,4.06,4.06,0,0,1,3.27-1.38,3.78,3.78,0,0,1,3,1.2,4.73,4.73,0,0,1,1,3.23v1.36h-5.8l0,.06a2.66,2.66,0,0,0,.6,1.62,2.06,2.06,0,0,0,1.62.62,5.45,5.45,0,0,0,1.5-.18,6.51,6.51,0,0,0,1.27-.55l.71,1.62a5.17,5.17,0,0,1-1.58.8A7.27,7.27,0,0,1,163.31,271.53Zm-.17-8.08a1.46,1.46,0,0,0-1.22.55,2.67,2.67,0,0,0-.52,1.44l0,.05h3.2v-.2a2.25,2.25,0,0,0-.35-1.35A1.31,1.31,0,0,0,163.14,263.45Z" transform="translate(-0.26 -3.93)"></path><path class="cls-7" d="M172.12,267.72l.17.9h.06l.18-.9,1.6-6.11h2.74l-3.31,9.73h-2.51l-3.31-9.73h2.75Z" transform="translate(-0.26 -3.93)"></path><path class="cls-7" d="M182.12,271.53a4.33,4.33,0,0,1-3.4-1.34,4.87,4.87,0,0,1-1.23-3.44v-.35a5.36,5.36,0,0,1,1.19-3.59,4,4,0,0,1,3.26-1.38,3.78,3.78,0,0,1,3,1.2,4.74,4.74,0,0,1,1.05,3.23v1.36h-5.8l0,.06a2.67,2.67,0,0,0,.61,1.62,2,2,0,0,0,1.61.62,5.4,5.4,0,0,0,1.5-.18,6.26,6.26,0,0,0,1.27-.55l.72,1.62a5.12,5.12,0,0,1-1.59.8A7.16,7.16,0,0,1,182.12,271.53Zm-.18-8.08a1.46,1.46,0,0,0-1.21.55,2.67,2.67,0,0,0-.52,1.44l0,.05h3.2v-.2a2.33,2.33,0,0,0-.35-1.35A1.32,1.32,0,0,0,181.94,263.45Z" transform="translate(-0.26 -3.93)"></path><path class="cls-7" d="M190.29,271.34h-2.63v-14h2.63Z" transform="translate(-0.26 -3.93)"></path><path class="cls-7" d="M192,266.39a5.24,5.24,0,0,1,1.22-3.57,4.22,4.22,0,0,1,3.36-1.39,4.27,4.27,0,0,1,3.38,1.38,5.21,5.21,0,0,1,1.23,3.58v.18a5.22,5.22,0,0,1-1.22,3.58,4.82,4.82,0,0,1-6.75,0,5.22,5.22,0,0,1-1.22-3.58Zm2.62.18a4.27,4.27,0,0,0,.47,2.14,1.79,1.79,0,0,0,3,0,4.27,4.27,0,0,0,.47-2.14v-.18a4.16,4.16,0,0,0-.48-2.12,1.77,1.77,0,0,0-3,0,4.25,4.25,0,0,0-.47,2.11Z" transform="translate(-0.26 -3.93)"></path><path class="cls-7" d="M211.62,266.75a5.65,5.65,0,0,1-1,3.47,3.33,3.33,0,0,1-2.79,1.31,3.12,3.12,0,0,1-1.36-.28,2.82,2.82,0,0,1-1-.84v4.67h-2.61V261.61h2.36l.15,1.15a3.22,3.22,0,0,1,1-1,2.85,2.85,0,0,1,1.42-.35,3.26,3.26,0,0,1,2.81,1.41,6.35,6.35,0,0,1,1,3.72Zm-2.62-.19a4.65,4.65,0,0,0-.46-2.23,1.5,1.5,0,0,0-1.4-.86,2,2,0,0,0-1,.24,1.93,1.93,0,0,0-.66.7v4.26a1.66,1.66,0,0,0,.66.63,2.3,2.3,0,0,0,1,.22,1.5,1.5,0,0,0,1.4-.75,3.9,3.9,0,0,0,.45-2Z" transform="translate(-0.26 -3.93)"></path><path class="cls-7" d="M215.68,261.61l.11,1.29a3.29,3.29,0,0,1,1.17-1.09,3.44,3.44,0,0,1,1.63-.38,3.06,3.06,0,0,1,1.61.41,2.63,2.63,0,0,1,1,1.25,3.35,3.35,0,0,1,1.17-1.22,3.22,3.22,0,0,1,1.69-.44,2.76,2.76,0,0,1,2.27,1,4.84,4.84,0,0,1,.84,3.12v5.77h-2.63v-5.78a2.74,2.74,0,0,0-.36-1.63,1.27,1.27,0,0,0-1.07-.46,1.82,1.82,0,0,0-1,.25,1.73,1.73,0,0,0-.65.69,2.53,2.53,0,0,0,0,.29,2,2,0,0,1,0,.25v6.39h-2.62v-5.78a2.77,2.77,0,0,0-.36-1.62,1.28,1.28,0,0,0-1.08-.47,2.12,2.12,0,0,0-.93.2,1.76,1.76,0,0,0-.66.58v7.09h-2.62v-9.73Z" transform="translate(-0.26 -3.93)"></path><path class="cls-7" d="M233.4,271.53a4.34,4.34,0,0,1-3.4-1.34,4.86,4.86,0,0,1-1.22-3.44v-.35a5.36,5.36,0,0,1,1.18-3.59,4.05,4.05,0,0,1,3.27-1.38,3.79,3.79,0,0,1,3,1.2,4.78,4.78,0,0,1,1,3.23v1.36h-5.8l0,.06a2.66,2.66,0,0,0,.6,1.62,2.06,2.06,0,0,0,1.62.62,5.38,5.38,0,0,0,1.49-.18,6.58,6.58,0,0,0,1.28-.55l.71,1.62a5.12,5.12,0,0,1-1.59.8A7.16,7.16,0,0,1,233.4,271.53Zm-.17-8.08A1.46,1.46,0,0,0,232,264a2.67,2.67,0,0,0-.52,1.44l0,.05h3.2v-.2a2.33,2.33,0,0,0-.35-1.35A1.31,1.31,0,0,0,233.23,263.45Z" transform="translate(-0.26 -3.93)"></path><path class="cls-7" d="M241.21,261.61l.12,1.39a3.59,3.59,0,0,1,1.2-1.16,3.14,3.14,0,0,1,1.59-.41,2.9,2.9,0,0,1,2.3.95,4.5,4.5,0,0,1,.83,3v6h-2.64v-5.95a2.34,2.34,0,0,0-.36-1.48,1.34,1.34,0,0,0-1.09-.44,2.37,2.37,0,0,0-1,.22,2.09,2.09,0,0,0-.74.61v7h-2.62v-9.73Z" transform="translate(-0.26 -3.93)"></path><path class="cls-7" d="M252.36,259.23v2.38H254v1.84h-1.64v5a1.12,1.12,0,0,0,.24.81.81.81,0,0,0,.62.24l.36,0a3.34,3.34,0,0,0,.35-.08l.22,1.9a4.87,4.87,0,0,1-.77.2,4.18,4.18,0,0,1-.82.07,2.8,2.8,0,0,1-2.09-.75,3.24,3.24,0,0,1-.73-2.36v-5h-1.42v-1.84h1.42v-2.38Z" transform="translate(-0.26 -3.93)"></path><path class="cls-6" d="M84.64,238.57v8.31H80.47V226.09h7.2a8.6,8.6,0,0,1,5.56,1.62,5.48,5.48,0,0,1,2,4.52,4.51,4.51,0,0,1-.85,2.76,5.84,5.84,0,0,1-2.48,1.88,4.47,4.47,0,0,1,2.65,1.82,5.7,5.7,0,0,1,.81,3.14v1.53a8,8,0,0,0,.23,1.82,2.5,2.5,0,0,0,.81,1.4v.3h-4.3a2.3,2.3,0,0,1-.73-1.51,13.26,13.26,0,0,1-.17-2v-1.47a3.28,3.28,0,0,0-.85-2.42,3.2,3.2,0,0,0-2.4-.87Zm0-3.21h3a3.93,3.93,0,0,0,2.61-.74,2.77,2.77,0,0,0,.86-2.2,3,3,0,0,0-.86-2.27,3.48,3.48,0,0,0-2.54-.85h-3Z" transform="translate(-0.26 -3.93)"></path><path class="cls-6" d="M103.57,246.88H99.4V226.09h4.17Z" transform="translate(-0.26 -3.93)"></path><path class="cls-6" d="M123.63,244a7.83,7.83,0,0,1-2.9,2.21,11.45,11.45,0,0,1-5,.93,8.41,8.41,0,0,1-6.17-2.37,8.26,8.26,0,0,1-2.4-6.15v-4.34a8.41,8.41,0,0,1,2.33-6.15,8,8,0,0,1,6-2.38,8.48,8.48,0,0,1,5.84,1.81,5.92,5.92,0,0,1,2,4.82l0,.08h-3.92a3.42,3.42,0,0,0-1-2.58,3.88,3.88,0,0,0-2.78-.92,3.76,3.76,0,0,0-3.09,1.48,6,6,0,0,0-1.17,3.81v4.37a5.92,5.92,0,0,0,1.2,3.84,3.91,3.91,0,0,0,3.21,1.48,7.41,7.41,0,0,0,2.35-.29,3.84,3.84,0,0,0,1.34-.76v-4h-4V236h8.18Z" transform="translate(-0.26 -3.93)"></path><path class="cls-6" d="M144,246.88h-4.17v-8.64h-8.47v8.64h-4.17V226.09h4.17V235h8.47v-8.94H144Z" transform="translate(-0.26 -3.93)"></path><path class="cls-6" d="M161.89,229.3H156v17.58h-4.17V229.3h-5.85v-3.21h16Z" transform="translate(-0.26 -3.93)"></path><path class="cls-6" d="M186,229.3H180v17.58h-4.17V229.3H170v-3.21h16Z" transform="translate(-0.26 -3.93)"></path><path class="cls-6" d="M205.05,246.88h-4.17v-8.64h-8.47v8.64h-4.17V226.09h4.17V235h8.47v-8.94h4.17Z" transform="translate(-0.26 -3.93)"></path><path class="cls-6" d="M213.34,246.88h-4.17V226.09h4.17Z" transform="translate(-0.26 -3.93)"></path><path class="cls-6" d="M234.27,246.88H230.1l-8.38-14h-.09v14h-4.17V226.09h4.17l8.39,14h.08v-14h4.17Z" transform="translate(-0.26 -3.93)"></path><path class="cls-6" d="M254,244a7.83,7.83,0,0,1-2.9,2.21,11.48,11.48,0,0,1-5,.93,8.41,8.41,0,0,1-6.17-2.37,8.26,8.26,0,0,1-2.4-6.15v-4.34a8.41,8.41,0,0,1,2.33-6.15,8,8,0,0,1,6-2.38,8.46,8.46,0,0,1,5.84,1.81,5.9,5.9,0,0,1,2,4.82l0,.08h-3.93a3.42,3.42,0,0,0-.95-2.58A3.89,3.89,0,0,0,246,229a3.76,3.76,0,0,0-3.08,1.48,6,6,0,0,0-1.17,3.81v4.37a5.92,5.92,0,0,0,1.2,3.84,3.91,3.91,0,0,0,3.21,1.48,7.45,7.45,0,0,0,2.35-.29,3.7,3.7,0,0,0,1.33-.76v-4h-4V236H254Z" transform="translate(-0.26 -3.93)"></path><path class="cls-6" d="M910.26,214.21v-13.1h4.29a6.28,6.28,0,0,1,3.61.9,3.08,3.08,0,0,1,1.29,2.69,2.87,2.87,0,0,1-.47,1.61,2.84,2.84,0,0,1-1.36,1.07,2.81,2.81,0,0,1,1.84,1.06,3.22,3.22,0,0,1,.62,1.95,3.39,3.39,0,0,1-1.24,2.85,5.65,5.65,0,0,1-3.52,1Zm2.63-7.61h1.75a2.69,2.69,0,0,0,1.62-.43,1.49,1.49,0,0,0,.57-1.26,1.56,1.56,0,0,0-.58-1.34,2.78,2.78,0,0,0-1.7-.44h-1.66Zm0,1.81v3.78h2.43a2.48,2.48,0,0,0,1.6-.45,1.67,1.67,0,0,0,.54-1.35,1.92,1.92,0,0,0-.54-1.46,2.24,2.24,0,0,0-1.62-.52Z" transform="translate(-0.26 -3.93)"></path><path class="cls-6" d="M927.76,212.77a3.3,3.3,0,0,1-1.14,1.2,3,3,0,0,1-1.61.42,3,3,0,0,1-2.41-1,5,5,0,0,1-.86-3.24v-5.64h2.61v5.66a3.14,3.14,0,0,0,.35,1.75,1.23,1.23,0,0,0,1.07.47,2.54,2.54,0,0,0,1.08-.2,1.73,1.73,0,0,0,.74-.6v-7.08h2.63v9.74H928Z" transform="translate(-0.26 -3.93)"></path><path class="cls-6" d="M935,202.15h-2.63v-2H935Zm0,12.06h-2.63v-9.74H935Z" transform="translate(-0.26 -3.93)"></path><path class="cls-6" d="M939.88,214.21h-2.63v-14h2.63Z" transform="translate(-0.26 -3.93)"></path><path class="cls-6" d="M941.63,209.42a6.33,6.33,0,0,1,1-3.71,3.25,3.25,0,0,1,2.81-1.42,2.73,2.73,0,0,1,1.31.32,3.1,3.1,0,0,1,1,.9v-5.33h2.64v14h-2.24l-.22-1.2a3.32,3.32,0,0,1-1.09,1,2.85,2.85,0,0,1-1.44.35,3.29,3.29,0,0,1-2.79-1.31,5.6,5.6,0,0,1-1-3.47Zm2.62.19a4,4,0,0,0,.43,2,1.49,1.49,0,0,0,1.4.73,2,2,0,0,0,1-.23,1.77,1.77,0,0,0,.69-.67v-4.14a2,2,0,0,0-.68-.72,1.86,1.86,0,0,0-1-.25,1.49,1.49,0,0,0-1.41.85,4.91,4.91,0,0,0-.44,2.23Z" transform="translate(-0.26 -3.93)"></path><path class="cls-6" d="M960.17,202.09v2.38h1.64v1.85h-1.64v5a1.17,1.17,0,0,0,.23.81.86.86,0,0,0,.63.25,1.86,1.86,0,0,0,.36,0l.35-.07.22,1.89a6.37,6.37,0,0,1-.77.21,5.17,5.17,0,0,1-.82.06,2.79,2.79,0,0,1-2.09-.74,3.28,3.28,0,0,1-.73-2.37v-5h-1.42v-1.85h1.42v-2.38Z" transform="translate(-0.26 -3.93)"></path><path class="cls-6" d="M966,205.71a3.29,3.29,0,0,1,1.13-1,2.93,2.93,0,0,1,1.47-.38,3,3,0,0,1,2.39,1,4.69,4.69,0,0,1,.87,3.12v5.78h-2.63v-5.8a2.7,2.7,0,0,0-.36-1.6,1.28,1.28,0,0,0-1.09-.47,2.59,2.59,0,0,0-1,.19,1.84,1.84,0,0,0-.73.55v7.13h-2.62v-14H966Z" transform="translate(-0.26 -3.93)"></path><path class="cls-6" d="M978.05,214.39a4.37,4.37,0,0,1-3.4-1.33,4.88,4.88,0,0,1-1.23-3.44v-.36a5.33,5.33,0,0,1,1.19-3.58,4.06,4.06,0,0,1,3.27-1.39,3.76,3.76,0,0,1,3,1.2,4.77,4.77,0,0,1,1,3.24v1.36h-5.8l0,0a2.68,2.68,0,0,0,.61,1.62,2,2,0,0,0,1.62.62,5.38,5.38,0,0,0,1.49-.18,6,6,0,0,0,1.28-.55l.71,1.62a4.91,4.91,0,0,1-1.59.8A6.86,6.86,0,0,1,978.05,214.39Zm-.17-8.07a1.46,1.46,0,0,0-1.22.54,2.73,2.73,0,0,0-.52,1.45l0,0h3.2v-.2a2.29,2.29,0,0,0-.35-1.34A1.28,1.28,0,0,0,977.88,206.32Z" transform="translate(-0.26 -3.93)"></path><path class="cls-6" d="M914.3,268.72l.17.9h0l.18-.9,1.6-6.11H919l-3.3,9.73h-2.51l-3.31-9.73h2.74Z" transform="translate(-0.26 -3.93)"></path><path class="cls-6" d="M923,260.28h-2.63v-2H923Zm0,12.06h-2.63v-9.73H923Z" transform="translate(-0.26 -3.93)"></path><path class="cls-6" d="M930.84,272.34a6.37,6.37,0,0,1-.24-.7,4.87,4.87,0,0,1-.15-.76,3.57,3.57,0,0,1-1.07,1.18,2.68,2.68,0,0,1-1.58.47,3.27,3.27,0,0,1-2.36-.79,2.82,2.82,0,0,1-.83-2.14,2.59,2.59,0,0,1,1.1-2.22,5.56,5.56,0,0,1,3.22-.79h1.47v-.77a1.54,1.54,0,0,0-.36-1.09,1.5,1.5,0,0,0-1.1-.38,1.42,1.42,0,0,0-1,.31,1.07,1.07,0,0,0-.34.85h-2.53l0-.06a2.49,2.49,0,0,1,1.08-2.13,4.69,4.69,0,0,1,3-.89,4.36,4.36,0,0,1,2.84.88,3.08,3.08,0,0,1,1.08,2.53v4a7.67,7.67,0,0,0,.1,1.29,6.39,6.39,0,0,0,.33,1.19Zm-2.4-1.75a2.32,2.32,0,0,0,1.23-.34,1.83,1.83,0,0,0,.73-.8v-1.37h-1.47a1.75,1.75,0,0,0-1.26.41,1.36,1.36,0,0,0-.43,1,1,1,0,0,0,.32.79A1.28,1.28,0,0,0,928.44,270.59Z" transform="translate(-0.26 -3.93)"></path><path class="cls-6" d="M943.65,270.52a1.47,1.47,0,0,0,1.09-.41,1.5,1.5,0,0,0,.4-1.1h2.4v.06a3.05,3.05,0,0,1-1.09,2.47,4.6,4.6,0,0,1-6.14-.39,5.23,5.23,0,0,1-1.18-3.53v-.27a5.29,5.29,0,0,1,1.17-3.53,4.09,4.09,0,0,1,3.32-1.39,4,4,0,0,1,2.87,1,3.37,3.37,0,0,1,1,2.69v.06h-2.4a1.94,1.94,0,0,0-.4-1.26,1.33,1.33,0,0,0-1.11-.5,1.51,1.51,0,0,0-1.44.82,4.49,4.49,0,0,0-.43,2.08v.27a4.55,4.55,0,0,0,.43,2.1A1.52,1.52,0,0,0,943.65,270.52Z" transform="translate(-0.26 -3.93)"></path><path class="cls-6" d="M948.68,267.39a5.24,5.24,0,0,1,1.21-3.57,4.23,4.23,0,0,1,3.37-1.39,4.29,4.29,0,0,1,3.38,1.38,5.2,5.2,0,0,1,1.22,3.58v.18a5.17,5.17,0,0,1-1.22,3.58,4.8,4.8,0,0,1-6.74,0,5.22,5.22,0,0,1-1.22-3.58Zm2.62.18a4.27,4.27,0,0,0,.46,2.14,1.63,1.63,0,0,0,1.52.81,1.59,1.59,0,0,0,1.48-.81,4.16,4.16,0,0,0,.48-2.14v-.18a4.16,4.16,0,0,0-.48-2.12,1.63,1.63,0,0,0-1.5-.82,1.59,1.59,0,0,0-1.49.83,4.15,4.15,0,0,0-.47,2.11Z" transform="translate(-0.26 -3.93)"></path><path class="cls-6" d="M961.88,262.61,962,264a3.59,3.59,0,0,1,1.2-1.16,3.14,3.14,0,0,1,1.59-.41,2.9,2.9,0,0,1,2.3.95,4.5,4.5,0,0,1,.83,3v6h-2.64v-5.95a2.34,2.34,0,0,0-.36-1.48,1.34,1.34,0,0,0-1.09-.44,2.45,2.45,0,0,0-1,.22,2.06,2.06,0,0,0-.73.61v7h-2.62v-9.73Z" transform="translate(-0.26 -3.93)"></path><path class="cls-6" d="M973,260.23v2.38h1.64v1.84H973v5a1.17,1.17,0,0,0,.23.81.85.85,0,0,0,.63.24l.36,0a3.34,3.34,0,0,0,.35-.08l.22,1.9a5.16,5.16,0,0,1-.77.2,4.18,4.18,0,0,1-.82.07,2.8,2.8,0,0,1-2.09-.75,3.24,3.24,0,0,1-.73-2.36v-5H969v-1.84h1.42v-2.38Z" transform="translate(-0.26 -3.93)"></path><path class="cls-6" d="M979.05,260.28h-2.62v-2h2.62Zm0,12.06h-2.62v-9.73h2.62Z" transform="translate(-0.26 -3.93)"></path><path class="cls-6" d="M983.61,262.61l.12,1.39a3.66,3.66,0,0,1,1.19-1.16,3.2,3.2,0,0,1,1.6-.41,2.9,2.9,0,0,1,2.3.95,4.5,4.5,0,0,1,.83,3v6H987v-5.95a2.34,2.34,0,0,0-.36-1.48,1.37,1.37,0,0,0-1.1-.44,2.4,2.4,0,0,0-1,.22,2.06,2.06,0,0,0-.73.61v7h-2.62v-9.73Z" transform="translate(-0.26 -3.93)"></path><path class="cls-6" d="M997.57,270.9a3.33,3.33,0,0,1-1.14,1.21,3,3,0,0,1-1.61.42,3,3,0,0,1-2.41-1,5,5,0,0,1-.87-3.24v-5.64h2.62v5.66a3.16,3.16,0,0,0,.35,1.75,1.25,1.25,0,0,0,1.07.47,2.7,2.7,0,0,0,1.08-.2,1.89,1.89,0,0,0,.74-.6v-7.08H1000v9.73h-2.18Z" transform="translate(-0.26 -3.93)"></path><path class="cls-6" d="M1001.6,267.39a5.24,5.24,0,0,1,1.21-3.57,4.23,4.23,0,0,1,3.37-1.39,4.29,4.29,0,0,1,3.38,1.38,5.25,5.25,0,0,1,1.22,3.58v.18a5.17,5.17,0,0,1-1.22,3.58,4.8,4.8,0,0,1-6.74,0,5.22,5.22,0,0,1-1.22-3.58Zm2.62.18a4.27,4.27,0,0,0,.46,2.14,1.63,1.63,0,0,0,1.52.81,1.59,1.59,0,0,0,1.48-.81,4.16,4.16,0,0,0,.48-2.14v-.18a4.16,4.16,0,0,0-.48-2.12,1.63,1.63,0,0,0-1.5-.82,1.59,1.59,0,0,0-1.49.83,4.15,4.15,0,0,0-.47,2.11Z" transform="translate(-0.26 -3.93)"></path><path class="cls-6" d="M1018.36,270.9a3.33,3.33,0,0,1-1.14,1.21,3,3,0,0,1-1.61.42,3,3,0,0,1-2.4-1,5,5,0,0,1-.87-3.24v-5.64H1015v5.66a3.18,3.18,0,0,0,.34,1.75,1.26,1.26,0,0,0,1.08.47,2.7,2.7,0,0,0,1.08-.2,1.93,1.93,0,0,0,.73-.6v-7.08h2.63v9.73h-2.18Z" transform="translate(-0.26 -3.93)"></path><path class="cls-6" d="M1028.06,269.64a.9.9,0,0,0-.42-.74,4.13,4.13,0,0,0-1.55-.54,6.26,6.26,0,0,1-2.6-1,2.26,2.26,0,0,1-.88-1.88,2.68,2.68,0,0,1,1.06-2.13,4.27,4.27,0,0,1,2.82-.88,4.62,4.62,0,0,1,3,.88,2.58,2.58,0,0,1,1.06,2.2v.05H1028a1.27,1.27,0,0,0-.38-.95,1.47,1.47,0,0,0-1.09-.37,1.45,1.45,0,0,0-1,.31,1,1,0,0,0-.37.78.85.85,0,0,0,.38.73,4.18,4.18,0,0,0,1.55.51,6.45,6.45,0,0,1,2.67,1.05,2.34,2.34,0,0,1,.87,1.92,2.55,2.55,0,0,1-1.12,2.15,4.84,4.84,0,0,1-3,.84,4.54,4.54,0,0,1-3.07-1,2.76,2.76,0,0,1-1.07-2.25v-.05h2.41a1.32,1.32,0,0,0,.51,1.13,2.12,2.12,0,0,0,1.27.35,1.86,1.86,0,0,0,1.11-.29A1,1,0,0,0,1028.06,269.64Z" transform="translate(-0.26 -3.93)"></path><path class="cls-6" d="M1039.64,260.28H1037v-2h2.62Zm0,12.06H1037v-9.73h2.62Z" transform="translate(-0.26 -3.93)"></path><path class="cls-6" d="M1044.2,262.61l.12,1.39a3.59,3.59,0,0,1,1.2-1.16,3.14,3.14,0,0,1,1.59-.41,2.9,2.9,0,0,1,2.3.95,4.5,4.5,0,0,1,.83,3v6h-2.64v-5.95a2.34,2.34,0,0,0-.36-1.48,1.35,1.35,0,0,0-1.1-.44,2.35,2.35,0,0,0-1,.22,2,2,0,0,0-.74.61v7h-2.62v-9.73Z" transform="translate(-0.26 -3.93)"></path><path class="cls-6" d="M1055.35,260.23v2.38H1057v1.84h-1.64v5a1.17,1.17,0,0,0,.23.81.85.85,0,0,0,.63.24l.36,0a3.34,3.34,0,0,0,.35-.08l.22,1.9a4.87,4.87,0,0,1-.77.2,4.18,4.18,0,0,1-.82.07,2.8,2.8,0,0,1-2.09-.75,3.24,3.24,0,0,1-.73-2.36v-5h-1.42v-1.84h1.42v-2.38Z" transform="translate(-0.26 -3.93)"></path><path class="cls-6" d="M1062.83,272.53a4.34,4.34,0,0,1-3.4-1.34,4.86,4.86,0,0,1-1.22-3.44v-.35a5.36,5.36,0,0,1,1.18-3.59,4.05,4.05,0,0,1,3.27-1.38,3.79,3.79,0,0,1,3,1.2,4.73,4.73,0,0,1,1,3.23v1.36h-5.8l0,.06a2.66,2.66,0,0,0,.6,1.62,2.06,2.06,0,0,0,1.62.62,5.45,5.45,0,0,0,1.5-.18,6.51,6.51,0,0,0,1.27-.55l.71,1.62a5.17,5.17,0,0,1-1.58.8A7.27,7.27,0,0,1,1062.83,272.53Zm-.17-8.08a1.46,1.46,0,0,0-1.22.55,2.67,2.67,0,0,0-.52,1.44l0,.05h3.2v-.2a2.25,2.25,0,0,0-.35-1.35A1.31,1.31,0,0,0,1062.66,264.45Z" transform="translate(-0.26 -3.93)"></path><path class="cls-6" d="M1067.86,267.56a6.35,6.35,0,0,1,1-3.72,3.26,3.26,0,0,1,2.81-1.41,2.71,2.71,0,0,1,1.44.37,3.22,3.22,0,0,1,1.06,1.05l.21-1.24h2.25v9.69a3.6,3.6,0,0,1-1.24,2.93,5.18,5.18,0,0,1-3.46,1,6.81,6.81,0,0,1-1.56-.2,7.45,7.45,0,0,1-1.53-.55l.44-2a6.29,6.29,0,0,0,1.24.43,6.17,6.17,0,0,0,1.39.15,2.36,2.36,0,0,0,1.59-.45,1.78,1.78,0,0,0,.51-1.4v-.88a2.88,2.88,0,0,1-2.36,1.12,3.33,3.33,0,0,1-2.79-1.31,5.65,5.65,0,0,1-1-3.47Zm2.62.19a4,4,0,0,0,.43,2,1.5,1.5,0,0,0,1.4.73,2.14,2.14,0,0,0,1-.22,1.72,1.72,0,0,0,.67-.64v-4.22a1.88,1.88,0,0,0-.67-.7,2,2,0,0,0-1-.24,1.48,1.48,0,0,0-1.41.86,4.91,4.91,0,0,0-.44,2.23Z" transform="translate(-0.26 -3.93)"></path><path class="cls-6" d="M1083.76,264.87l-1,0a1.78,1.78,0,0,0-1,.24,1.56,1.56,0,0,0-.57.69v6.57h-2.62v-9.73h2.44l.11,1.44a3.08,3.08,0,0,1,.89-1.19,1.94,1.94,0,0,1,1.25-.43,2.05,2.05,0,0,1,.37,0l.34.08Z" transform="translate(-0.26 -3.93)"></path><path class="cls-6" d="M1090.86,272.34a4.8,4.8,0,0,1-.24-.7,4.87,4.87,0,0,1-.15-.76,3.57,3.57,0,0,1-1.07,1.18,2.71,2.71,0,0,1-1.59.47,3.24,3.24,0,0,1-2.35-.79,2.82,2.82,0,0,1-.83-2.14,2.59,2.59,0,0,1,1.1-2.22,5.56,5.56,0,0,1,3.22-.79h1.47v-.77a1.5,1.5,0,0,0-.37-1.09,1.46,1.46,0,0,0-1.09-.38,1.42,1.42,0,0,0-1,.31,1.08,1.08,0,0,0-.35.85h-2.52l0-.06a2.5,2.5,0,0,1,1.07-2.13,4.72,4.72,0,0,1,3-.89,4.31,4.31,0,0,1,2.83.88,3.06,3.06,0,0,1,1.09,2.53v4a7.67,7.67,0,0,0,.1,1.29,6.39,6.39,0,0,0,.33,1.19Zm-2.4-1.75a2.28,2.28,0,0,0,1.22-.34,1.86,1.86,0,0,0,.74-.8v-1.37H1089a1.79,1.79,0,0,0-1.27.41,1.39,1.39,0,0,0-.42,1,1,1,0,0,0,.32.79A1.26,1.26,0,0,0,1088.46,270.59Z" transform="translate(-0.26 -3.93)"></path><path class="cls-6" d="M1098.17,260.23v2.38h1.64v1.84h-1.64v5a1.12,1.12,0,0,0,.23.81.85.85,0,0,0,.63.24l.36,0a3.34,3.34,0,0,0,.35-.08l.22,1.9a4.87,4.87,0,0,1-.77.2,4.18,4.18,0,0,1-.82.07,2.8,2.8,0,0,1-2.09-.75,3.24,3.24,0,0,1-.73-2.36v-5h-1.42v-1.84h1.42v-2.38Z" transform="translate(-0.26 -3.93)"></path><path class="cls-6" d="M1104.19,260.28h-2.63v-2h2.63Zm0,12.06h-2.63v-9.73h2.63Z" transform="translate(-0.26 -3.93)"></path><path class="cls-6" d="M1106,267.39a5.24,5.24,0,0,1,1.21-3.57,4.22,4.22,0,0,1,3.36-1.39,4.27,4.27,0,0,1,3.38,1.38,5.21,5.21,0,0,1,1.23,3.58v.18a5.22,5.22,0,0,1-1.22,3.58,4.82,4.82,0,0,1-6.75,0,5.21,5.21,0,0,1-1.21-3.58Zm2.61.18a4.27,4.27,0,0,0,.47,2.14,1.79,1.79,0,0,0,3,0,4.27,4.27,0,0,0,.47-2.14v-.18a4.27,4.27,0,0,0-.47-2.12,1.63,1.63,0,0,0-1.51-.82,1.59,1.59,0,0,0-1.48.83,4.14,4.14,0,0,0-.48,2.11Z" transform="translate(-0.26 -3.93)"></path><path class="cls-6" d="M1119.15,262.61l.11,1.39a3.78,3.78,0,0,1,1.2-1.16,3.14,3.14,0,0,1,1.59-.41,2.92,2.92,0,0,1,2.31.95,4.5,4.5,0,0,1,.82,3v6h-2.63v-5.95a2.27,2.27,0,0,0-.37-1.48,1.33,1.33,0,0,0-1.09-.44,2.4,2.4,0,0,0-1,.22,2,2,0,0,0-.73.61v7h-2.63v-9.73Z" transform="translate(-0.26 -3.93)"></path><path class="cls-6" d="M1137.47,272.34a4.81,4.81,0,0,1-.25-.7,4.87,4.87,0,0,1-.15-.76,3.46,3.46,0,0,1-1.07,1.18,2.68,2.68,0,0,1-1.58.47,3.29,3.29,0,0,1-2.36-.79,2.81,2.81,0,0,1-.82-2.14,2.57,2.57,0,0,1,1.1-2.22,5.51,5.51,0,0,1,3.21-.79H1137v-.77a1.54,1.54,0,0,0-.37-1.09,1.48,1.48,0,0,0-1.1-.38,1.41,1.41,0,0,0-1,.31,1.08,1.08,0,0,0-.35.85h-2.53v-.06a2.45,2.45,0,0,1,1.07-2.13,4.71,4.71,0,0,1,3-.89,4.34,4.34,0,0,1,2.84.88,3.08,3.08,0,0,1,1.08,2.53v4a7.65,7.65,0,0,0,.11,1.29,6.39,6.39,0,0,0,.33,1.19Zm-2.4-1.75a2.31,2.31,0,0,0,1.22-.34,1.86,1.86,0,0,0,.74-.8v-1.37h-1.48a1.77,1.77,0,0,0-1.26.41,1.36,1.36,0,0,0-.43,1,1,1,0,0,0,.32.79A1.29,1.29,0,0,0,1135.07,270.59Z" transform="translate(-0.26 -3.93)"></path><path class="cls-6" d="M1144,262.61l.11,1.39a3.59,3.59,0,0,1,1.2-1.16,3.14,3.14,0,0,1,1.59-.41,2.9,2.9,0,0,1,2.3.95,4.5,4.5,0,0,1,.83,3v6h-2.64v-5.95a2.34,2.34,0,0,0-.36-1.48,1.34,1.34,0,0,0-1.09-.44,2.37,2.37,0,0,0-1,.22,2,2,0,0,0-.73.61v7h-2.63v-9.73Z" transform="translate(-0.26 -3.93)"></path><path class="cls-6" d="M1151.62,267.56a6.35,6.35,0,0,1,1-3.72,3.23,3.23,0,0,1,2.8-1.41,2.7,2.7,0,0,1,1.31.31,3.13,3.13,0,0,1,1,.9v-5.33h2.63v14h-2.23l-.23-1.19a3.23,3.23,0,0,1-1.09,1,3,3,0,0,1-1.44.35,3.3,3.3,0,0,1-2.78-1.31,5.65,5.65,0,0,1-1-3.47Zm2.61.19a4.05,4.05,0,0,0,.43,2,1.53,1.53,0,0,0,1.41.73,2.07,2.07,0,0,0,1-.23,1.84,1.84,0,0,0,.69-.67v-4.15a2,2,0,0,0-.69-.71,1.83,1.83,0,0,0-1-.26,1.48,1.48,0,0,0-1.41.86,4.78,4.78,0,0,0-.45,2.23Z" transform="translate(-0.26 -3.93)"></path><path class="cls-6" d="M1166.6,267.56a6.35,6.35,0,0,1,1-3.72,3.24,3.24,0,0,1,2.8-1.41,2.74,2.74,0,0,1,1.32.31,3.1,3.1,0,0,1,1,.9v-5.33h2.64v14h-2.24l-.23-1.19a3.2,3.2,0,0,1-1.08,1,3,3,0,0,1-1.44.35,3.31,3.31,0,0,1-2.79-1.31,5.65,5.65,0,0,1-1-3.47Zm2.62.19a4,4,0,0,0,.43,2,1.51,1.51,0,0,0,1.4.73,2.07,2.07,0,0,0,1-.23,1.84,1.84,0,0,0,.69-.67v-4.15a2,2,0,0,0-.69-.71,1.8,1.8,0,0,0-1-.26,1.49,1.49,0,0,0-1.41.86,4.91,4.91,0,0,0-.44,2.23Z" transform="translate(-0.26 -3.93)"></path><path class="cls-6" d="M1181.62,272.53a4.36,4.36,0,0,1-3.4-1.34,4.86,4.86,0,0,1-1.22-3.44v-.35a5.36,5.36,0,0,1,1.18-3.59,4.05,4.05,0,0,1,3.27-1.38,3.79,3.79,0,0,1,3,1.2,4.78,4.78,0,0,1,1,3.23v1.36h-5.8l0,.06a2.66,2.66,0,0,0,.6,1.62,2.06,2.06,0,0,0,1.62.62,5.33,5.33,0,0,0,1.49-.18,6.33,6.33,0,0,0,1.28-.55l.71,1.62a5.12,5.12,0,0,1-1.59.8A7.16,7.16,0,0,1,1181.62,272.53Zm-.17-8.08a1.46,1.46,0,0,0-1.22.55,2.67,2.67,0,0,0-.52,1.44l0,.05h3.2v-.2a2.33,2.33,0,0,0-.35-1.35A1.31,1.31,0,0,0,1181.45,264.45Z" transform="translate(-0.26 -3.93)"></path><path class="cls-6" d="M1189.79,272.34h-2.62v-14h2.62Z" transform="translate(-0.26 -3.93)"></path><path class="cls-6" d="M1194.71,260.28h-2.62v-2h2.62Zm0,12.06h-2.62v-9.73h2.62Z" transform="translate(-0.26 -3.93)"></path><path class="cls-6" d="M1200.39,268.72l.17.9h0l.18-.9,1.6-6.11h2.75l-3.31,9.73h-2.51l-3.31-9.73h2.74Z" transform="translate(-0.26 -3.93)"></path><path class="cls-6" d="M1210.38,272.53a4.36,4.36,0,0,1-3.4-1.34,4.9,4.9,0,0,1-1.22-3.44v-.35a5.31,5.31,0,0,1,1.19-3.59,4,4,0,0,1,3.26-1.38,3.78,3.78,0,0,1,3,1.2,4.74,4.74,0,0,1,1,3.23v1.36h-5.81l0,.06a2.66,2.66,0,0,0,.6,1.62,2.07,2.07,0,0,0,1.62.62,5.4,5.4,0,0,0,1.5-.18,6.51,6.51,0,0,0,1.27-.55l.71,1.62a5.17,5.17,0,0,1-1.58.8A7.22,7.22,0,0,1,1210.38,272.53Zm-.17-8.08a1.48,1.48,0,0,0-1.22.55,2.75,2.75,0,0,0-.52,1.44l0,.05h3.2v-.2a2.25,2.25,0,0,0-.35-1.35A1.31,1.31,0,0,0,1210.21,264.45Z" transform="translate(-0.26 -3.93)"></path><path class="cls-6" d="M1220.91,264.87l-1,0a1.75,1.75,0,0,0-1,.24,1.58,1.58,0,0,0-.58.69v6.57h-2.62v-9.73h2.44l.12,1.44a3,3,0,0,1,.89-1.19,1.94,1.94,0,0,1,1.25-.43,2,2,0,0,1,.36,0l.34.08Z" transform="translate(-0.26 -3.93)"></path><path class="cls-6" d="M1226,268.26l.11.54h0l1.86-6.19h2.83l-4,11.19a5.23,5.23,0,0,1-1.13,1.76,2.9,2.9,0,0,1-2.13.71,3.86,3.86,0,0,1-.61,0l-.69-.16.3-1.91.26,0h.24a1.42,1.42,0,0,0,1-.32,2.14,2.14,0,0,0,.54-.79l.3-.76-3.45-9.72h2.82Z" transform="translate(-0.26 -3.93)"></path><path class="cls-6" d="M925,229.3H919v17.58h-4.17V229.3H909v-3.21h16Z" transform="translate(-0.26 -3.93)"></path><path class="cls-6" d="M944.06,246.88h-4.17v-8.64h-8.47v8.64h-4.17V226.09h4.17V235h8.47v-8.94h4.17Z" transform="translate(-0.26 -3.93)"></path><path class="cls-6" d="M952.35,246.88h-4.17V226.09h4.17Z" transform="translate(-0.26 -3.93)"></path><path class="cls-6" d="M973.28,246.88h-4.17l-8.38-14h-.09v14h-4.17V226.09h4.17l8.39,14h.08v-14h4.17Z" transform="translate(-0.26 -3.93)"></path><path class="cls-6" d="M993.05,244a7.83,7.83,0,0,1-2.9,2.21,11.45,11.45,0,0,1-5,.93,8.41,8.41,0,0,1-6.17-2.37,8.26,8.26,0,0,1-2.4-6.15v-4.34a8.41,8.41,0,0,1,2.33-6.15,8,8,0,0,1,6-2.38,8.5,8.5,0,0,1,5.85,1.81,5.92,5.92,0,0,1,2,4.82l0,.08h-3.92a3.42,3.42,0,0,0-1-2.58A3.89,3.89,0,0,0,985,229a3.76,3.76,0,0,0-3.08,1.48,6,6,0,0,0-1.17,3.81v4.37a5.92,5.92,0,0,0,1.2,3.84,3.91,3.91,0,0,0,3.21,1.48,7.45,7.45,0,0,0,2.35-.29,3.84,3.84,0,0,0,1.34-.76v-4h-4V236h8.18Z" transform="translate(-0.26 -3.93)"></path><path class="cls-6" d="M1008.05,238.57v8.31h-4.17V226.09h7.19a8.65,8.65,0,0,1,5.57,1.62,5.51,5.51,0,0,1,2,4.52,4.51,4.51,0,0,1-.85,2.76,5.81,5.81,0,0,1-2.47,1.88,4.44,4.44,0,0,1,2.64,1.82,5.7,5.7,0,0,1,.81,3.14v1.53a7.47,7.47,0,0,0,.24,1.82,2.44,2.44,0,0,0,.8,1.4v.3h-4.29a2.26,2.26,0,0,1-.74-1.51,13.21,13.21,0,0,1-.16-2v-1.47a3.32,3.32,0,0,0-.85-2.42,3.22,3.22,0,0,0-2.41-.87Zm0-3.21h3a4,4,0,0,0,2.62-.74,2.76,2.76,0,0,0,.85-2.2,3,3,0,0,0-.86-2.27,3.47,3.47,0,0,0-2.54-.85h-3Z" transform="translate(-0.26 -3.93)"></path><path class="cls-6" d="M1027,246.88h-4.17V226.09H1027Z" transform="translate(-0.26 -3.93)"></path><path class="cls-6" d="M1047,244a7.91,7.91,0,0,1-2.9,2.21,11.51,11.51,0,0,1-5,.93,8.4,8.4,0,0,1-6.17-2.37,8.26,8.26,0,0,1-2.4-6.15v-4.34a8.41,8.41,0,0,1,2.32-6.15,8,8,0,0,1,6-2.38,8.48,8.48,0,0,1,5.84,1.81,6,6,0,0,1,2,4.82l0,.08h-3.93a3.42,3.42,0,0,0-1-2.58A3.85,3.85,0,0,0,1039,229a3.76,3.76,0,0,0-3.09,1.48,6,6,0,0,0-1.17,3.81v4.37a5.92,5.92,0,0,0,1.2,3.84,3.92,3.92,0,0,0,3.22,1.48,7.45,7.45,0,0,0,2.35-.29,3.79,3.79,0,0,0,1.33-.76v-4h-4V236H1047Z" transform="translate(-0.26 -3.93)"></path><path class="cls-6" d="M1067.39,246.88h-4.17v-8.64h-8.47v8.64h-4.17V226.09h4.17V235h8.47v-8.94h4.17Z" transform="translate(-0.26 -3.93)"></path><path class="cls-6" d="M1085.3,229.3h-5.94v17.58h-4.18V229.3h-5.85v-3.21h16Z" transform="translate(-0.26 -3.93)"></path><path class="cls-6" d="M637.17,237.54H631.6v4.51h6.56v1.89h-8.93V229.72h8.86v1.91H631.6v4h5.57Z" transform="translate(-0.26 -3.93)"></path><path class="cls-6" d="M643.85,237l1.95-3.63h2.72l-3.32,5.23,3.42,5.34h-2.69l-2-3.71-2,3.71h-2.71l3.42-5.34-3.32-5.23h2.69Z" transform="translate(-0.26 -3.93)"></path><path class="cls-6" d="M659.45,239a6,6,0,0,1-1.08,3.72,3.94,3.94,0,0,1-4.61,1.09,3.27,3.27,0,0,1-1.19-.94V248h-2.38V233.37h2l.23,1.33a3.57,3.57,0,0,1,1.23-1.13,3.39,3.39,0,0,1,1.66-.39,3.48,3.48,0,0,1,3,1.55,6.9,6.9,0,0,1,1.09,4.07Zm-2.36-.21a5.22,5.22,0,0,0-.61-2.65,2,2,0,0,0-1.82-1,2.36,2.36,0,0,0-1.26.32,2.2,2.2,0,0,0-.83.88v4.78a2.12,2.12,0,0,0,.83.85,2.5,2.5,0,0,0,1.28.3,2.05,2.05,0,0,0,1.81-.89,4.16,4.16,0,0,0,.6-2.35Z" transform="translate(-0.26 -3.93)"></path><path class="cls-6" d="M664.05,243.94h-2.37V228.71h2.37Z" transform="translate(-0.26 -3.93)"></path><path class="cls-6" d="M666.27,238.56a5.72,5.72,0,0,1,1.29-3.87,4.94,4.94,0,0,1,7.11,0,5.72,5.72,0,0,1,1.29,3.87v.2a5.76,5.76,0,0,1-1.29,3.89,5,5,0,0,1-7.11,0,5.73,5.73,0,0,1-1.29-3.88Zm2.37.2a4.61,4.61,0,0,0,.61,2.52,2.28,2.28,0,0,0,3.73,0,4.66,4.66,0,0,0,.62-2.52v-.2a4.65,4.65,0,0,0-.62-2.5,2.08,2.08,0,0,0-1.88-1,2,2,0,0,0-1.85,1,4.65,4.65,0,0,0-.61,2.5Z" transform="translate(-0.26 -3.93)"></path><path class="cls-6" d="M683.3,235.51l-1,0a2.07,2.07,0,0,0-1.15.3,1.89,1.89,0,0,0-.72.83v7.34H678V233.37h2.16l.16,1.54a3.37,3.37,0,0,1,1-1.27,2.37,2.37,0,0,1,1.45-.46,2.5,2.5,0,0,1,.4,0,1.69,1.69,0,0,1,.34.09Z" transform="translate(-0.26 -3.93)"></path><path class="cls-6" d="M689.35,244.15a4.59,4.59,0,0,1-3.61-1.46,5.49,5.49,0,0,1-1.31-3.79v-.39a5.63,5.63,0,0,1,1.31-3.83,4.17,4.17,0,0,1,3.36-1.5,4,4,0,0,1,3.22,1.31,5.32,5.32,0,0,1,1.1,3.51v1.28h-6.54l0,.05a3.48,3.48,0,0,0,.69,2.11,2.32,2.32,0,0,0,1.94.81,5.64,5.64,0,0,0,1.68-.23,4.67,4.67,0,0,0,1.31-.68l.77,1.56a5,5,0,0,1-1.6.88A6.76,6.76,0,0,1,689.35,244.15Zm-.25-9.07a1.84,1.84,0,0,0-1.48.67,3.26,3.26,0,0,0-.7,1.74l0,0h4.13v-.18a2.71,2.71,0,0,0-.47-1.65A1.77,1.77,0,0,0,689.1,235.08Z" transform="translate(-0.26 -3.93)"></path><path class="cls-6" d="M785.7,240.29l0,.06a4.36,4.36,0,0,1-1.4,3.47,5.49,5.49,0,0,1-3.87,1.33,5.22,5.22,0,0,1-4-1.68,6.06,6.06,0,0,1-1.54-4.28v-2.71a6.16,6.16,0,0,1,1.52-4.28,5.12,5.12,0,0,1,4-1.68,5.71,5.71,0,0,1,4,1.28,4.35,4.35,0,0,1,1.4,3.5l0,.06h-2.3a2.89,2.89,0,0,0-.77-2.18,3.07,3.07,0,0,0-2.26-.76,2.67,2.67,0,0,0-2.29,1.15,4.7,4.7,0,0,0-.85,2.89v2.73a4.72,4.72,0,0,0,.86,2.91,2.77,2.77,0,0,0,2.35,1.15,2.65,2.65,0,0,0,3-3Z" transform="translate(-0.26 -3.93)"></path><path class="cls-6" d="M793,236.51l-1,0a2.11,2.11,0,0,0-1.16.3,1.89,1.89,0,0,0-.72.83v7.34h-2.37V234.37h2.17l.15,1.54a3.37,3.37,0,0,1,1-1.27,2.39,2.39,0,0,1,1.45-.46,2.41,2.41,0,0,1,.4,0,1.79,1.79,0,0,1,.35.09Z" transform="translate(-0.26 -3.93)"></path><path class="cls-6" d="M799.08,245.15a4.62,4.62,0,0,1-3.62-1.46,5.49,5.49,0,0,1-1.3-3.79v-.39a5.63,5.63,0,0,1,1.3-3.83,4.19,4.19,0,0,1,3.36-1.5,4,4,0,0,1,3.23,1.31,5.32,5.32,0,0,1,1.09,3.51v1.28h-6.53l0,.05a3.41,3.41,0,0,0,.68,2.11,2.33,2.33,0,0,0,1.94.81,5.54,5.54,0,0,0,1.68-.23,4.67,4.67,0,0,0,1.31-.68l.77,1.56a4.92,4.92,0,0,1-1.6.88A6.71,6.71,0,0,1,799.08,245.15Zm-.26-9.07a1.85,1.85,0,0,0-1.48.67,3.34,3.34,0,0,0-.69,1.74l0,0h4.13v-.18a2.65,2.65,0,0,0-.48-1.65A1.74,1.74,0,0,0,798.82,236.08Z" transform="translate(-0.26 -3.93)"></path><path class="cls-6" d="M811.43,244.94q-.12-.41-.21-.78a7,7,0,0,1-.11-.76,4.1,4.1,0,0,1-1.28,1.24,3.25,3.25,0,0,1-1.79.51,3.53,3.53,0,0,1-2.53-.85,3.1,3.1,0,0,1-.89-2.34,2.77,2.77,0,0,1,1.22-2.39,5.81,5.81,0,0,1,3.4-.85h1.85v-.93a1.75,1.75,0,0,0-.48-1.3,2,2,0,0,0-1.4-.47,2,2,0,0,0-1.29.39,1.23,1.23,0,0,0-.48,1h-2.29v-.06a2.62,2.62,0,0,1,1.12-2.21,4.7,4.7,0,0,1,3.09-1,4.49,4.49,0,0,1,3,.94,3.3,3.3,0,0,1,1.13,2.69v4.7a8.45,8.45,0,0,0,.09,1.25,6.75,6.75,0,0,0,.28,1.18Zm-2.9-1.7a3,3,0,0,0,1.61-.45,2.28,2.28,0,0,0,1-1V240.2h-1.88a2.35,2.35,0,0,0-1.63.52,1.54,1.54,0,0,0-.58,1.2,1.21,1.21,0,0,0,.39,1A1.66,1.66,0,0,0,808.53,243.24Z" transform="translate(-0.26 -3.93)"></path><path class="cls-6" d="M819,231.81v2.56h1.9v1.76H819V242a1.29,1.29,0,0,0,.28.93,1,1,0,0,0,.76.28,2.43,2.43,0,0,0,.38,0,3.58,3.58,0,0,0,.35-.09l.25,1.73a2.64,2.64,0,0,1-.72.26,4,4,0,0,1-.86.1,2.76,2.76,0,0,1-2.06-.77,3.39,3.39,0,0,1-.74-2.41v-5.84H815v-1.76h1.61v-2.56Z" transform="translate(-0.26 -3.93)"></path><path class="cls-6" d="M827.27,245.15a4.62,4.62,0,0,1-3.62-1.46,5.49,5.49,0,0,1-1.3-3.79v-.39a5.63,5.63,0,0,1,1.3-3.83,4.19,4.19,0,0,1,3.37-1.5,4,4,0,0,1,3.22,1.31,5.32,5.32,0,0,1,1.09,3.51v1.28H824.8l0,.05a3.54,3.54,0,0,0,.68,2.11,2.34,2.34,0,0,0,1.95.81,5.52,5.52,0,0,0,1.67-.23,4.87,4.87,0,0,0,1.32-.68l.77,1.56a5.14,5.14,0,0,1-1.6.88A6.76,6.76,0,0,1,827.27,245.15Zm-.25-9.07a1.86,1.86,0,0,0-1.49.67,3.34,3.34,0,0,0-.69,1.74l0,0H829v-.18a2.71,2.71,0,0,0-.47-1.65A1.77,1.77,0,0,0,827,236.08Z" transform="translate(-0.26 -3.93)"></path><path class="cls-6" d="M335.69,230.24v9.37a4.65,4.65,0,0,1-1.55,3.71,5.92,5.92,0,0,1-4,1.34,5.73,5.73,0,0,1-3.95-1.34,4.69,4.69,0,0,1-1.52-3.71v-9.37H327v9.37a2.9,2.9,0,0,0,3.1,3.16,3.25,3.25,0,0,0,2.32-.83,3,3,0,0,0,.88-2.33v-9.37Z" transform="translate(-0.26 -3.93)"></path><path class="cls-6" d="M340.37,233.89l.14,1.53a3.76,3.76,0,0,1,1.3-1.27,3.53,3.53,0,0,1,1.77-.45,3.34,3.34,0,0,1,2.58,1,4.66,4.66,0,0,1,.92,3.18v6.57h-2.37v-6.55a2.54,2.54,0,0,0-.48-1.75,1.86,1.86,0,0,0-1.45-.52,2.84,2.84,0,0,0-1.31.29,2.23,2.23,0,0,0-.89.8v7.73H338.2V233.89Z" transform="translate(-0.26 -3.93)"></path><path class="cls-6" d="M349.11,239.32a6.9,6.9,0,0,1,1.09-4.07,3.47,3.47,0,0,1,3-1.55,3.32,3.32,0,0,1,1.54.34,3.62,3.62,0,0,1,1.18,1v-5.81h2.37v15.23h-1.92l-.29-1.34a3.37,3.37,0,0,1-1.23,1.15,3.46,3.46,0,0,1-1.67.39,3.59,3.59,0,0,1-3-1.41,5.94,5.94,0,0,1-1.09-3.72Zm2.37.21a4.21,4.21,0,0,0,.57,2.33,2,2,0,0,0,1.78.87,2.42,2.42,0,0,0,1.27-.32,2.47,2.47,0,0,0,.86-.92v-4.61a2.51,2.51,0,0,0-.86-.91,2.31,2.31,0,0,0-1.25-.33,1.92,1.92,0,0,0-1.79,1,5.43,5.43,0,0,0-.58,2.66Z" transform="translate(-0.26 -3.93)"></path><path class="cls-6" d="M365.36,244.66a4.59,4.59,0,0,1-3.62-1.46,5.44,5.44,0,0,1-1.3-3.78V239a5.63,5.63,0,0,1,1.3-3.83,4.19,4.19,0,0,1,3.37-1.5,4,4,0,0,1,3.22,1.31,5.32,5.32,0,0,1,1.09,3.51v1.28h-6.53l0,0a3.48,3.48,0,0,0,.69,2.11,2.31,2.31,0,0,0,1.94.81,5.52,5.52,0,0,0,1.67-.23,5,5,0,0,0,1.32-.68l.77,1.55a5,5,0,0,1-1.6.89A6.77,6.77,0,0,1,365.36,244.66Zm-.25-9.06a1.83,1.83,0,0,0-1.49.67,3.34,3.34,0,0,0-.69,1.74l0,.05h4.13v-.18a2.71,2.71,0,0,0-.47-1.65A1.77,1.77,0,0,0,365.11,235.6Z" transform="translate(-0.26 -3.93)"></path><path class="cls-6" d="M376.61,236l-1,0a2.08,2.08,0,0,0-1.16.3,1.89,1.89,0,0,0-.72.83v7.34h-2.37V233.89h2.17l.15,1.54a3.37,3.37,0,0,1,1-1.27,2.39,2.39,0,0,1,1.45-.46,2.41,2.41,0,0,1,.4,0l.35.08Z" transform="translate(-0.26 -3.93)"></path><path class="cls-6" d="M384.31,241.57a1.08,1.08,0,0,0-.47-.9,4.58,4.58,0,0,0-1.75-.64,7.17,7.17,0,0,1-2.85-1.13,2.36,2.36,0,0,1-1-2,2.87,2.87,0,0,1,1.13-2.27,4.41,4.41,0,0,1,2.95-.94,4.6,4.6,0,0,1,3.06,1,2.8,2.8,0,0,1,1.1,2.34v.06H384.2a1.47,1.47,0,0,0-.51-1.12,1.89,1.89,0,0,0-1.36-.47,1.87,1.87,0,0,0-1.3.39,1.2,1.2,0,0,0-.45.95,1,1,0,0,0,.42.86,4.47,4.47,0,0,0,1.73.58,7,7,0,0,1,2.92,1.15,2.41,2.41,0,0,1,1,2,2.8,2.8,0,0,1-1.18,2.33,4.94,4.94,0,0,1-3.1.9,4.76,4.76,0,0,1-3.25-1,3,3,0,0,1-1.13-2.42l0-.06h2.21a1.56,1.56,0,0,0,.66,1.34,2.66,2.66,0,0,0,1.52.42,2.37,2.37,0,0,0,1.41-.36A1.13,1.13,0,0,0,384.31,241.57Z" transform="translate(-0.26 -3.93)"></path><path class="cls-6" d="M391.81,231.32v2.57h1.89v1.76h-1.89v5.84a1.25,1.25,0,0,0,.28.93,1,1,0,0,0,.75.28,2.34,2.34,0,0,0,.38,0,1.79,1.79,0,0,0,.35-.1l.26,1.74a2.64,2.64,0,0,1-.72.26,4,4,0,0,1-.86.09,2.74,2.74,0,0,1-2.06-.76,3.35,3.35,0,0,1-.75-2.41v-5.84h-1.61v-1.76h1.61v-2.57Z" transform="translate(-0.26 -3.93)"></path><path class="cls-6" d="M402,244.46q-.12-.41-.21-.78a7,7,0,0,1-.11-.76,4,4,0,0,1-1.28,1.24,3.24,3.24,0,0,1-1.79.5,3.49,3.49,0,0,1-2.53-.85,3.06,3.06,0,0,1-.88-2.33,2.76,2.76,0,0,1,1.21-2.39,5.83,5.83,0,0,1,3.41-.85h1.84v-.93a1.74,1.74,0,0,0-.48-1.3,1.94,1.94,0,0,0-1.4-.47,2,2,0,0,0-1.29.39,1.23,1.23,0,0,0-.48,1H395.7v-.06a2.65,2.65,0,0,1,1.12-2.22,4.76,4.76,0,0,1,3.09-1,4.49,4.49,0,0,1,3,.94,3.27,3.27,0,0,1,1.13,2.69V242a8.45,8.45,0,0,0,.09,1.25,6,6,0,0,0,.29,1.18Zm-2.9-1.7a3,3,0,0,0,1.61-.45,2.28,2.28,0,0,0,.95-1v-1.57h-1.88a2.34,2.34,0,0,0-1.62.52,1.52,1.52,0,0,0-.59,1.2,1.21,1.21,0,0,0,.39,1A1.66,1.66,0,0,0,399.08,242.76Z" transform="translate(-0.26 -3.93)"></path><path class="cls-6" d="M408.64,233.89l.14,1.53a3.76,3.76,0,0,1,1.3-1.27,3.54,3.54,0,0,1,1.78-.45,3.32,3.32,0,0,1,2.57,1,4.66,4.66,0,0,1,.92,3.18v6.57H413v-6.55a2.54,2.54,0,0,0-.48-1.75,1.85,1.85,0,0,0-1.44-.52,2.86,2.86,0,0,0-1.32.29,2.29,2.29,0,0,0-.89.8v7.73h-2.37V233.89Z" transform="translate(-0.26 -3.93)"></path><path class="cls-6" d="M417.38,239.32a6.9,6.9,0,0,1,1.09-4.07,3.48,3.48,0,0,1,3-1.55,3.32,3.32,0,0,1,1.54.34,3.62,3.62,0,0,1,1.18,1v-5.81h2.37v15.23h-1.92l-.28-1.34a3.48,3.48,0,0,1-1.24,1.15,3.43,3.43,0,0,1-1.67.39,3.59,3.59,0,0,1-3-1.41,5.94,5.94,0,0,1-1.09-3.72Zm2.38.21a4.21,4.21,0,0,0,.56,2.33,2,2,0,0,0,1.78.87,2.39,2.39,0,0,0,1.27-.32,2.47,2.47,0,0,0,.86-.92v-4.61a2.51,2.51,0,0,0-.86-.91,2.31,2.31,0,0,0-1.25-.33,1.92,1.92,0,0,0-1.79,1,5.44,5.44,0,0,0-.57,2.66Z" transform="translate(-0.26 -3.93)"></path><path class="cls-6" d="M462.75,244.94V230.72h4.7a6,6,0,0,1,4.4,1.69,5.89,5.89,0,0,1,1.69,4.35v2.15a5.85,5.85,0,0,1-1.69,4.35,6,6,0,0,1-4.4,1.68Zm2.38-12.31v10.42h2.32a3.44,3.44,0,0,0,2.72-1.16,4.37,4.37,0,0,0,1-3v-2.17a4.35,4.35,0,0,0-1-3,3.44,3.44,0,0,0-2.72-1.15Z" transform="translate(-0.26 -3.93)"></path><path class="cls-6" d="M480.39,245.15a4.62,4.62,0,0,1-3.62-1.46,5.49,5.49,0,0,1-1.3-3.79v-.39a5.63,5.63,0,0,1,1.3-3.83,4.19,4.19,0,0,1,3.37-1.5,4,4,0,0,1,3.22,1.31,5.32,5.32,0,0,1,1.09,3.51v1.28h-6.53l0,.05a3.48,3.48,0,0,0,.68,2.11,2.34,2.34,0,0,0,1.95.81,5.52,5.52,0,0,0,1.67-.23,4.67,4.67,0,0,0,1.31-.68l.78,1.56a5.09,5.09,0,0,1-1.61.88A6.66,6.66,0,0,1,480.39,245.15Zm-.25-9.07a1.86,1.86,0,0,0-1.49.67,3.34,3.34,0,0,0-.69,1.74l0,0h4.13v-.18a2.65,2.65,0,0,0-.48-1.65A1.73,1.73,0,0,0,480.14,236.08Z" transform="translate(-0.26 -3.93)"></path><path class="cls-6" d="M487,244.94v-8.81h-1.61v-1.76H487v-.89a3.83,3.83,0,0,1,1.12-2.94,4.48,4.48,0,0,1,3.15-1,6.66,6.66,0,0,1,1.4.15c.46.1,1,.25,1.59.44l-.36,2a11.43,11.43,0,0,0-1.2-.34,5.6,5.6,0,0,0-1.26-.13,2.25,2.25,0,0,0-1.57.47,1.9,1.9,0,0,0-.5,1.43v.89h2.08v1.76h-2.08v8.81Zm8.38,0H493V234.37h2.37Z" transform="translate(-0.26 -3.93)"></path><path class="cls-6" d="M500.17,234.37l.13,1.53a3.87,3.87,0,0,1,1.31-1.27,3.48,3.48,0,0,1,1.77-.45,3.31,3.31,0,0,1,2.57,1,4.61,4.61,0,0,1,.92,3.18v6.57H504.5v-6.55a2.54,2.54,0,0,0-.48-1.75,1.85,1.85,0,0,0-1.44-.52,2.86,2.86,0,0,0-1.32.29,2.29,2.29,0,0,0-.89.8v7.73H498V234.37Z" transform="translate(-0.26 -3.93)"></path><path class="cls-6" d="M513.83,245.15a4.61,4.61,0,0,1-3.62-1.46,5.49,5.49,0,0,1-1.3-3.79v-.39a5.63,5.63,0,0,1,1.3-3.83,4.19,4.19,0,0,1,3.36-1.5,4,4,0,0,1,3.23,1.31,5.32,5.32,0,0,1,1.09,3.51v1.28h-6.53l0,.05a3.41,3.41,0,0,0,.68,2.11,2.33,2.33,0,0,0,1.94.81,5.54,5.54,0,0,0,1.68-.23,4.67,4.67,0,0,0,1.31-.68l.77,1.56a4.92,4.92,0,0,1-1.6.88A6.71,6.71,0,0,1,513.83,245.15Zm-.26-9.07a1.85,1.85,0,0,0-1.48.67,3.34,3.34,0,0,0-.69,1.74l0,0h4.13v-.18a2.65,2.65,0,0,0-.48-1.65A1.74,1.74,0,0,0,513.57,236.08Z" transform="translate(-0.26 -3.93)"></path></g></g></svg>