<svg xmlns="http://www.w3.org/2000/svg" viewBox="0 0 35 35"><defs><style>.cls-1{fill:#e81f38;}.cls-2{fill:#f6a5af;}.cls-3{fill:#f9fafa;}</style></defs><g id="Layer_2" data-name="Layer 2"><g id="Layer_1-2" data-name="Layer 1"><rect class="cls-1" width="35" height="35" rx="3.14"></rect><path class="cls-2" d="M14.63,26.35a.77.77,0,0,0-.29.1,5.31,5.31,0,0,1-.88.41,1.6,1.6,0,0,1-1.36-.09,2,2,0,0,1-.77-2.8c.69-1.19,2-1,3-.4a.74.74,0,0,0,1.11-.46V18.66h0v-.12h0v.1H10.89a.73.73,0,0,1-.54-.77.62.62,0,0,1,.09-.37A3.19,3.19,0,0,0,11,16.1a1.5,1.5,0,0,0-.2-.77A2.05,2.05,0,0,0,8,14.55,1.65,1.65,0,0,0,7.08,16a2.93,2.93,0,0,0,.49,1.51.78.78,0,0,1,.11.46.75.75,0,0,1-.56.71H3.2a.21.21,0,0,0,0,.06A.84.84,0,0,0,3.4,20a5.74,5.74,0,0,1,.94.7A.82.82,0,0,1,4.47,22c-.37.62-.37.64.21,1.08.15.12.31.2.1.43a.55.55,0,0,0,.06.88,1.22,1.22,0,0,1,.37,1.24c-.06.42-.15.83-.23,1.25-.21,1.12.08,1.64,1.09,1.93a8.25,8.25,0,0,0,3.17-.06,6.29,6.29,0,0,1,2.12-.14,1,1,0,0,1,.79.93c.09.77.31,1.5.44,2.25s.38.81.93.79,1.13,0,1.9,0V26.91A.74.74,0,0,0,14.63,26.35Z"></path><path class="cls-3" d="M19.24,8.1a.73.73,0,0,0,1.18.19c.85-.86,2-1.29,3-.3a2.07,2.07,0,0,1-.11,2.91,1.62,1.62,0,0,1-1.3.4,6,6,0,0,1-1-.2.77.77,0,0,0-.3,0,.73.73,0,0,0-.64.73l.62,2.57h0l.41,1.72h0l0,.06v.06h0l4.44-1.06a.74.74,0,0,1,.63.94,2.14,2.14,0,0,0,.19,2.25,2.07,2.07,0,0,0,2.91.11c1-1,.56-2.15-.3-3a.73.73,0,0,1,.12-1.14l2.71-.65a9.44,9.44,0,0,0,0-2.91A9.76,9.76,0,0,0,29,5.19a11.53,11.53,0,0,0-10.1-2.91,8.68,8.68,0,0,0-1,.23l.71,3Z"></path><path class="cls-3" d="M23.79,32.54c.66,0,.34-.45,0-1.09a9.63,9.63,0,0,1,1-10,10.71,10.71,0,0,0,1.66-2.82H23.65a.74.74,0,0,0-.38,1.09c.64,1,.78,2.29-.4,3A2.06,2.06,0,0,1,20.06,22a2.15,2.15,0,0,1,.33-2.23A.74.74,0,0,0,20,18.66H15.44v4.28a.88.88,0,0,1,0,.17v0a.74.74,0,0,1-1.11.45c-1-.64-2.29-.79-3,.4a2.05,2.05,0,0,0,.83,2.78,1.51,1.51,0,0,0,1.3.1,4.35,4.35,0,0,0,.87-.42.86.86,0,0,1,.3-.09.66.66,0,0,1,.79.55h0a1,1,0,0,1,0,.17V32.5C18.42,32.49,23,32.58,23.79,32.54Z"></path><path class="cls-3" d="M19.51,11.19c-.69-1.19-2-1-3-.4a.74.74,0,0,1-1.11-.46.88.88,0,0,1,0-.17V4.58A11.34,11.34,0,0,0,11,5.8c-.38.19-.76.4-1.13.61A7.26,7.26,0,0,0,5.89,13.5a5.49,5.49,0,0,1-2,4.38,4.32,4.32,0,0,0-.62.66.36.36,0,0,0-.07.1H7.12a.75.75,0,0,0,.56-.71.76.76,0,0,0-.11-.4A2.87,2.87,0,0,1,7.08,16,1.65,1.65,0,0,1,8,14.55a2.05,2.05,0,0,1,2.8.78,1.5,1.5,0,0,1,.2.77,3,3,0,0,1-.53,1.46.59.59,0,0,0-.09.31.73.73,0,0,0,.54.77H15.4V14.3a1,1,0,0,1,0-.17.74.74,0,0,1,.79-.56.75.75,0,0,1,.29.09,4.94,4.94,0,0,0,.87.42A1.62,1.62,0,0,0,18.74,14,2.06,2.06,0,0,0,19.51,11.19Z"></path></g></g></svg>