<svg xmlns="http://www.w3.org/2000/svg" viewBox="0 0 35 35"><defs><style>.cls-1{fill:#e81f38;}.cls-2{fill:#f9fafa;}.cls-3{fill:none;}.cls-4{fill:#f6a5af;}.cls-5{fill:#ea8193;}</style></defs><g id="Layer_2" data-name="Layer 2"><g id="Layer_1-2" data-name="Layer 1"><rect class="cls-1" width="35" height="35" rx="3.35"></rect><polygon class="cls-2" points="28.7 23.69 27.96 25.07 26.52 25.38 27.48 26.37 27.12 27.91 28.49 27.12 29.83 27.82 29.64 26.25 30.8 25.09 29.28 24.98 28.7 23.69"></polygon><polygon class="cls-2" points="26.23 21.7 25.76 22.59 24.84 22.79 25.45 23.42 25.22 24.41 26.1 23.9 26.96 24.35 26.84 23.34 27.59 22.6 26.61 22.53 26.23 21.7"></polygon><path class="cls-3" d="M11,17.5a.63.63,0,0,0-.55.62v.5a.64.64,0,0,0,.57.62A6,6,0,0,1,11,18.5a4.49,4.49,0,0,1,0-.64C11,17.74,11,17.62,11,17.5Z"></path><path class="cls-3" d="M22.65,16.89c-2.26-.17-8.49-1.63-8.49-1.63A8.11,8.11,0,0,1,12,17.33c0,.12,0,.24-.07.36a5.42,5.42,0,0,0-.07.81,5.3,5.3,0,0,0,0,.57,5.71,5.71,0,0,0,.2.95,5.67,5.67,0,0,0,10.75,0,5.71,5.71,0,0,0,.2-.95,5.3,5.3,0,0,0,0-.57,5.42,5.42,0,0,0-.07-.81,5.35,5.35,0,0,0-.19-.79Z"></path><path class="cls-3" d="M24.56,18.62v-.5a.64.64,0,0,0-.49-.61,2.76,2.76,0,0,1-.08.27,5.52,5.52,0,0,1,.06.72,6,6,0,0,1-.05.74A.64.64,0,0,0,24.56,18.62Z"></path><path class="cls-3" d="M9.1,6.58a2.54,2.54,0,1,0,3.52.87A2.56,2.56,0,0,0,9.1,6.58Z"></path><path class="cls-4" d="M18.29,26.58l.77,5.1H20l1.45-7.59a3,3,0,0,0-.43,0h-.46a6.76,6.76,0,0,1-6.11,0H14a3,3,0,0,0-.43,0L15,31.68h.93l.77-5.1h0L16,25.17h3l-.76,1.41Z"></path><path class="cls-2" d="M20,31.68H15l-1.45-7.59a5.71,5.71,0,0,0-5.29,5.69v2.77H26.73V29.78a5.71,5.71,0,0,0-5.29-5.69Z"></path><polygon class="cls-5" points="15.93 31.68 19.06 31.68 18.29 26.57 18.26 26.57 19.02 25.17 15.97 25.17 16.73 26.57 16.7 26.57 15.93 31.68"></polygon><path class="cls-4" d="M14.79,9.64a1.41,1.41,0,0,1,.24-.2,5.24,5.24,0,0,1,1.57-.63h0a.89.89,0,0,1,.53.27,7.66,7.66,0,0,0,0-1.07L16,7.74a5.5,5.5,0,0,0-.25-.88L16.54,6a5.75,5.75,0,0,0-.34-.65,4.89,4.89,0,0,0-.41-.6l-1.11.33A5.61,5.61,0,0,0,14,4.48l.31-1.12a6.68,6.68,0,0,0-1.27-.72l-.8.85a5.54,5.54,0,0,0-.89-.23l-.29-1.13a6.48,6.48,0,0,0-1.46,0L9.36,3.28a5.5,5.5,0,0,0-.88.25L7.66,2.7A5.75,5.75,0,0,0,7,3a6.25,6.25,0,0,0-.6.4l.33,1.12a5.61,5.61,0,0,0-.64.65L5,4.9a6.68,6.68,0,0,0-.72,1.27l.85.8a5.54,5.54,0,0,0-.23.89l-1.12.29a6.48,6.48,0,0,0,0,1.46l1.13.27a5.81,5.81,0,0,0,.25.88l-.83.82a5.62,5.62,0,0,0,.34.64,6.41,6.41,0,0,0,.4.61l1.12-.33a5.61,5.61,0,0,0,.65.64l-.31,1.12A7.21,7.21,0,0,0,7.79,15l.8-.84a6.84,6.84,0,0,0,.89.23l.29,1.12.65,0v0A6.08,6.08,0,0,1,14.79,9.64Zm-3.06,1.28a2.54,2.54,0,1,1,.89-3.47A2.54,2.54,0,0,1,11.73,10.92Z"></path><path class="cls-2" d="M9.49,18.12v.5a1.57,1.57,0,0,0,1.6,1.54h.09a6.38,6.38,0,0,0,3.26,3.9,6.76,6.76,0,0,0,6.11,0,6.38,6.38,0,0,0,3.26-3.9h.09a1.57,1.57,0,0,0,1.6-1.54v-.5a1.56,1.56,0,0,0-1.26-1.51,4.91,4.91,0,0,0,.05-.67v-.07a4.52,4.52,0,0,0,0-.51h0a6.17,6.17,0,0,0-1-2.86,6.62,6.62,0,0,0-1-1.15,6.13,6.13,0,0,0-3.86-1.5l-.07-.06a.22.22,0,0,0-.18-.08.4.4,0,0,0-.25.13h0c-.12-.11-.23-.22-.33-.3A.89.89,0,0,0,17,9.27h0a5.24,5.24,0,0,0-1.57.63,1.41,1.41,0,0,0-.24.2,6.08,6.08,0,0,0-4.37,5.84v.12a3.33,3.33,0,0,0,0,.55A1.55,1.55,0,0,0,9.49,18.12Zm14.58-.61a.64.64,0,0,1,.49.61v.5a.64.64,0,0,1-.56.62,6,6,0,0,0,.05-.74,5.52,5.52,0,0,0-.06-.72A2.76,2.76,0,0,0,24.07,17.51ZM12,17.69c0-.12,0-.24.07-.36a8.11,8.11,0,0,0,2.13-2.07s6.23,1.46,8.49,1.63h.19a5.35,5.35,0,0,1,.19.79,5.42,5.42,0,0,1,.07.81,5.3,5.3,0,0,1,0,.57,5.71,5.71,0,0,1-.2.95,5.67,5.67,0,0,1-10.75,0,5.71,5.71,0,0,1-.2-.95,5.3,5.3,0,0,1,0-.57A5.42,5.42,0,0,1,12,17.69Zm-1.53.43A.63.63,0,0,1,11,17.5c0,.12,0,.24,0,.36a4.49,4.49,0,0,0,0,.64,6,6,0,0,0,.05.74.64.64,0,0,1-.57-.62Z"></path></g></g></svg>