<svg xmlns="http://www.w3.org/2000/svg" viewBox="0 0 35 35"><defs><style>.cls-1{fill:#e81f38;}.cls-2{fill:#f9fafa;}.cls-3{fill:#ea8193;}.cls-4{fill:#1a2e35;}.cls-5{fill:#f6a5af;}</style></defs><g id="Layer_2" data-name="Layer 2"><g id="Layer_1-2" data-name="Layer 1"><rect class="cls-1" width="35" height="35" rx="3.1"></rect><polygon class="cls-2" points="17.24 21.95 19.15 32.03 20.89 28.8 24.2 30.74 20.69 20.93 17.24 21.95"></polygon><path class="cls-3" d="M17.88,25.34a1.15,1.15,0,0,0,1-.31c.17-.18.29-.43.51-.55a.86.86,0,0,1,.65,0c.22.06.42.16.64.22A1.66,1.66,0,0,0,22,24.48L21.42,23l-2.55-.32-1.22,1.46Z"></path><path class="cls-3" d="M20.77,28.4s-.3-1-.64-2.33-.6-2.35-.59-2.35.29,1,.63,2.34S20.78,28.4,20.77,28.4Z"></path><polygon class="cls-2" points="17.52 22.47 15.61 32.55 13.87 29.33 10.57 31.27 14.07 21.45 17.52 22.47"></polygon><path class="cls-3" d="M13,24.39a1.36,1.36,0,0,0,1.19.24c.65-.21,1-.25,1.4,0s1.3,1.06,1.3,1.06l.22-1.16-1.27-1.75-1.33.27-.95.09-.35.67Z"></path><path class="cls-2" d="M28.71,13.37c0,.73-.93,1.35-1.06,2s.47,1.64.2,2.28-1.36.88-1.76,1.47-.18,1.68-.68,2.19-1.6.29-2.19.68-.8,1.49-1.46,1.76-1.58-.35-2.28-.21-1.31,1.06-2,1.06-1.35-.92-2-1.06-1.63.48-2.28.21-.88-1.37-1.47-1.76-1.68-.18-2.18-.68-.29-1.6-.69-2.19S7.32,18.34,7,17.68s.35-1.57.21-2.28-1.06-1.3-1.06-2,.92-1.34,1.06-2S6.77,9.71,7,9.06,8.41,8.18,8.8,7.6,9,5.91,9.49,5.41s1.59-.29,2.18-.68S12.48,3.24,13.14,3s1.57.34,2.28.21,1.3-1.06,2-1.06,1.34.92,2,1.06S21.11,2.7,21.76,3s.88,1.37,1.46,1.76,1.69.18,2.19.68.29,1.6.68,2.19,1.49.81,1.76,1.46-.34,1.58-.2,2.29S28.71,12.65,28.71,13.37Z"></path><path class="cls-4" d="M15.81,6.68l0-.08-.07-.23c-.05-.2-.11-.48-.17-.78s-.09-.59-.11-.79,0-.18,0-.24V4.47a.66.66,0,0,1,0,.09l0,.24c0,.2.08.48.13.78s.12.58.16.78l.05.24C15.81,6.65,15.82,6.68,15.81,6.68Z"></path><path class="cls-4" d="M27.07,9.75s-.71.27-1.6.58-1.61.56-1.61.55.71-.27,1.6-.58Z"></path><path class="cls-4" d="M24.82,20.93s-.54-.6-1.18-1.36-1.15-1.38-1.14-1.38.54.6,1.17,1.36S24.82,20.92,24.82,20.93Z"></path><path class="cls-4" d="M21.58,23.13l0,0,0-.09c-.05-.08-.1-.2-.17-.35s-.32-.71-.5-1.18-.3-.9-.38-1.22l-.09-.37,0-.11a.08.08,0,0,1,0,0l0,0,0,.1.11.37c.09.32.22.75.39,1.22s.35.88.48,1.18l.16.35,0,.1Z"></path><path class="cls-4" d="M19.06,21.91s0-.1,0-.26,0-.39-.09-.64-.08-.47-.12-.63-.06-.26-.06-.26,0,0,0,.07,0,.1.06.18.09.38.13.63.07.48.08.64,0,.15,0,.2S19.07,21.91,19.06,21.91Z"></path><path class="cls-4" d="M12.4,18.26s-.47.56-1.06,1.23-1.07,1.22-1.08,1.22.46-.57,1.05-1.24S12.39,18.25,12.4,18.26Z"></path><path class="cls-4" d="M11.76,17.31a5.63,5.63,0,0,1-.58.51,6.92,6.92,0,0,1-.61.48,5.63,5.63,0,0,1,.58-.51C11.48,17.52,11.76,17.31,11.76,17.31Z"></path><path class="cls-4" d="M10.72,15.18l-.06,0-.19,0-.64.09c-.24,0-.47,0-.63,0H8.93l.27,0,.63-.05a6.26,6.26,0,0,0,.63-.08Z"></path><path class="cls-4" d="M11,10.9h0l-.1,0-.36-.12c-.31-.12-.73-.29-1.17-.51a11.44,11.44,0,0,1-1.12-.62L7.84,9.4l-.08-.06,0,0,0,0,.09.05.33.21c.28.17.67.39,1.11.61s.86.39,1.17.51l.36.14.1,0Z"></path><path class="cls-4" d="M11.67,9.69a9.89,9.89,0,0,1-.86-.58c-.47-.33-.85-.61-.84-.62s.39.25.86.58S11.67,9.68,11.67,9.69Z"></path><path class="cls-5" d="M9.49,5.41l3.3,2.9.83-.66L11.7,4.71a1.85,1.85,0,0,1-.53.22C10.8,5,9.71,5.06,9.49,5.41Z"></path><path class="cls-5" d="M13.17,3,14.78,7l1-.33-.34-3.5a1.86,1.86,0,0,1-.57,0C14.52,3.12,13.59,2.76,13.17,3Z"></path><path class="cls-5" d="M17.47,2.12l.11,4.39,1,0,1-3.37A1.49,1.49,0,0,1,19,3C18.62,2.73,17.94,2.08,17.47,2.12Z"></path><path class="cls-5" d="M21.69,3l-1.6,4,.87.42,2.21-2.72a1.94,1.94,0,0,1-.42-.5C22.54,3.85,22.18,3.08,21.69,3Z"></path><path class="cls-5" d="M25.46,5.47l-3,3.12.67.9,2.92-1.95A1.88,1.88,0,0,1,25.87,7,3.43,3.43,0,0,0,25.46,5.47Z"></path><path class="cls-5" d="M27.82,9l-4,1.66.33,1,3.5-.38a2.06,2.06,0,0,1,0-.5C27.7,10.41,28.1,9.55,27.82,9Z"></path><path class="cls-5" d="M28.71,13.37l-4.39.16,0,1,3.34,1a1.85,1.85,0,0,1,.14-.4C28,14.61,28.71,14,28.71,13.37Z"></path><path class="cls-5" d="M27.9,17.52l-4-1.57-.41.88L26.2,19a2.24,2.24,0,0,1,.48-.36C27,18.43,27.81,18.09,27.9,17.52Z"></path><path class="cls-5" d="M22,17.46l-1,.84c.08.08,1.41,2.35,2.23,3.75l0,0c.54-.36,1.51-.22,2.05-.57Z"></path><path class="cls-5" d="M20.12,19.05l-1.49.51.71,4.05.14,0c.7-.14,1.63.48,2.28.21a1,1,0,0,0,.24-.15Z"></path><path class="cls-5" d="M17.4,24.63l.23-5.3L16.34,19l-1,4.56h0C16.08,23.71,16.69,24.59,17.4,24.63Z"></path><path class="cls-5" d="M14.15,18.44s-1.71,2.28-2.6,3.51l.12.07c.59.39.81,1.49,1.47,1.76l.09,0,2.38-4.51Z"></path><path class="cls-5" d="M12.4,16.6,8.76,19.1l0,0c.4.59.19,1.68.69,2.19a.58.58,0,0,0,.15.11c1.29-1.44,3.59-4.05,3.68-4.14Z"></path><path class="cls-5" d="M11.56,14.81l-4.3.7c.07.69-.47,1.56-.22,2.17l.06.11c1.5-.75,4.65-2.31,4.78-2.31Z"></path><path class="cls-5" d="M11.33,12.41,7.26,11.24a.41.41,0,0,1,0,.11c-.14.68-1.06,1.3-1.06,2a.76.76,0,0,0,0,.15h5Z"></path><path class="cls-5" d="M7.06,9c1.52.82,4.49,2.46,4.49,2.46l.73-1.38L8.85,7.52l0,.08C8.42,8.17,7.36,8.4,7.06,9Z"></path><path class="cls-3" d="M15.34,23.82s-.27,1.14-.63,2.54-.66,2.54-.67,2.53.27-1.14.63-2.54S15.32,23.82,15.34,23.82Z"></path></g></g></svg>