<svg xmlns="http://www.w3.org/2000/svg" viewBox="0 0 35 35"><defs><style>.cls-1{fill:#e81f38;}.cls-2{fill:#f9fafa;}.cls-3{fill:#f6a5af;}</style></defs><g id="Layer_2" data-name="Layer 2"><g id="Layer_1-2" data-name="Layer 1"><rect class="cls-1" width="35" height="35" rx="3.31"></rect><path class="cls-2" d="M23.13,11l-1-.43a.6.6,0,0,1-.36-.48A.61.61,0,0,1,22,9.52l.83-.69a0,0,0,0,0,0,0L21.57,6.05l0,0-1.06.18a.61.61,0,0,1-.68-.79l.32-1s0,0,0,0L17.57,2.73h0l-.79.72a.59.59,0,0,1-.41.16.6.6,0,0,1-.59-.45l-.28-1,0,0h-3s0,0,0,0l-.28,1a.61.61,0,0,1-.59.45.57.57,0,0,1-.41-.16l-.8-.72h0L7.72,4.36a0,0,0,0,0,0,0l.33,1A.6.6,0,0,1,8,6a.62.62,0,0,1-.59.24L6.29,6l0,0L5,8.8s0,0,0,0l.83.69a.61.61,0,0,1,.21.55.62.62,0,0,1-.36.48l-1,.43,0,0,.43,3s0,0,0,0l1.07.13a.63.63,0,0,1,.48.35.61.61,0,0,1,0,.6l-.6.89a0,0,0,0,0,0,0l2,2.29h0l1-.47a.63.63,0,0,1,.27-.06.58.58,0,0,1,.43.18.6.6,0,0,1,.18.44l0,1.08a0,0,0,0,0,0,0l2.9.86s0,0,0,0l.57-.92a.6.6,0,0,1,.52-.29.61.61,0,0,1,.52.29l.56.92s0,0,0,0h0l2.9-.86a0,0,0,0,0,0,0l0-1.08A.64.64,0,0,1,18.1,18a.62.62,0,0,1,.44-.18.58.58,0,0,1,.26.06l1,.47h0l2-2.29a0,0,0,0,0,0,0l-.6-.89a.61.61,0,0,1-.05-.6.63.63,0,0,1,.48-.35L22.69,14l0,0,.43-3S23.14,11,23.13,11Zm-9.21,4.61a4.36,4.36,0,1,1,4.36-4.36A4.36,4.36,0,0,1,13.92,15.59Z"></path><path class="cls-2" d="M31.12,27.65,30.54,27a.48.48,0,0,1-.11-.47.46.46,0,0,1,.34-.33L31.6,26a0,0,0,0,0,0,0l0-2.43,0,0-.83-.22a.5.5,0,0,1-.36-.37.49.49,0,0,1,.12-.43l.57-.64a0,0,0,0,0,0,0l-1.32-2h0l-.82.26a.47.47,0,0,1-.35,0,.48.48,0,0,1-.29-.52l.14-.86v0l-2.22-1a0,0,0,0,0,0,0l-.55.67a.48.48,0,0,1-.58.14.49.49,0,0,1-.24-.25l-.35-.79s0,0,0,0L22,17.74h0l-.09.86a.47.47,0,0,1-.25.37.49.49,0,0,1-.51,0l-.72-.48h0l-1.83,1.6s0,0,0,0l.38.78a.44.44,0,0,1,0,.47.47.47,0,0,1-.42.23h-.86a0,0,0,0,0,0,0l-.67,2.33a0,0,0,0,0,0,0l.74.44a.51.51,0,0,1,.24.42.49.49,0,0,1-.24.42l-.73.46s0,0,0,0l.7,2.33s0,0,0,0l.87,0a.52.52,0,0,1,.21,0,.48.48,0,0,1,.26.28.46.46,0,0,1,0,.38l-.37.78a0,0,0,0,0,0,0l1.84,1.58h0l.72-.49a.47.47,0,0,1,.47,0A.48.48,0,0,1,22,31l.11.86v0h0l2.41.33h0l.34-.8a.48.48,0,0,1,.27-.27.5.5,0,0,1,.38,0,.7.7,0,0,1,.17.13l.56.67s0,0,0,0l2.21-1a0,0,0,0,0,0,0L28.34,30a.48.48,0,0,1,.16-.45.5.5,0,0,1,.47-.1l.83.26h0l1.3-2.06S31.13,27.65,31.12,27.65ZM22.85,28a3.51,3.51,0,1,1,4.63-1.77A3.51,3.51,0,0,1,22.85,28Z"></path><path class="cls-3" d="M16,27.26l-.38-.41a.31.31,0,0,1-.07-.29.31.31,0,0,1,.22-.22l.53-.15a0,0,0,0,0,0,0V24.62a0,0,0,0,0,0,0l-.53-.14a.31.31,0,0,1-.23-.24.32.32,0,0,1,.07-.27l.37-.42s0,0,0,0l-.85-1.31h0l-.53.17a.33.33,0,0,1-.22,0,.31.31,0,0,1-.18-.34l.08-.55h0l-1.41-.64s0,0,0,0l-.35.43a.31.31,0,0,1-.37.08A.28.28,0,0,1,12,21.2l-.22-.5h0l-1.54.23h0l-.06.55a.31.31,0,0,1-.16.24.33.33,0,0,1-.33,0l-.46-.31h0L8,22.43a0,0,0,0,0,0,0l.25.5a.31.31,0,0,1,0,.31.3.3,0,0,1-.27.14H7.35l-.42,1.49s0,0,0,0l.48.28a.32.32,0,0,1,0,.54L6.94,26s0,0,0,0l.45,1.48a0,0,0,0,0,0,0H8a.35.35,0,0,1,.14,0,.33.33,0,0,1,.16.17.31.31,0,0,1,0,.25l-.24.5a0,0,0,0,0,0,0l1.18,1s0,0,0,0l.45-.32a.31.31,0,0,1,.31,0,.28.28,0,0,1,.18.24l.07.55a0,0,0,0,0,0,0h0l1.54.21h0l.22-.51a.29.29,0,0,1,.17-.17.33.33,0,0,1,.24,0,.24.24,0,0,1,.11.09l.36.42a0,0,0,0,0,0,0l1.41-.65a0,0,0,0,0,0,0l-.09-.54a.31.31,0,0,1,.1-.29.34.34,0,0,1,.3-.07l.53.17h0L16,27.28Zm-5.29.23a2.24,2.24,0,1,1,3-1.13A2.24,2.24,0,0,1,10.72,27.49Z"></path><path class="cls-3" d="M7.31,30.1a0,0,0,0,0-.08,0l-.51,1h0c-.39-.32-.78-.62-1.13-1a8.91,8.91,0,0,1-1-1.2A10.53,10.53,0,0,1,3.22,26.2a13.46,13.46,0,0,1-.12-7.26c0-.16-.21-.23-.25-.07a13.55,13.55,0,0,0-.14,7.47,10.89,10.89,0,0,0,1.34,2.92,8.36,8.36,0,0,0,2.23,2.36l-.79.52a0,0,0,0,0,0,.09l2.33.32a.05.05,0,0,0,0-.06Z"></path><path class="cls-3" d="M31.13,11.25a10.73,10.73,0,0,0-1.84-2.63,8.25,8.25,0,0,0-2.61-1.93L27.36,6a0,0,0,0,0,0-.08L25,6.05a0,0,0,0,0,0,.06l1,2.26a0,0,0,0,0,.09,0l.31-1.1h0c.44.24.87.47,1.29.75a9.64,9.64,0,0,1,1.2,1,10.09,10.09,0,0,1,1.83,2.47,13.48,13.48,0,0,1,1.41,7.12.13.13,0,0,0,.26,0A13.62,13.62,0,0,0,31.13,11.25Z"></path></g></g></svg>