<svg xmlns="http://www.w3.org/2000/svg" viewBox="0 0 35 35"><defs><style>.cls-1{fill:#e81f38;}.cls-2{fill:#f9fafa;}.cls-3{fill:#f6a5af;}.cls-4{fill:#ea8193;}</style></defs><g id="Layer_2" data-name="Layer 2"><g id="Layer_1-2" data-name="Layer 1"><rect class="cls-1" width="35" height="35" rx="3.14"></rect><path class="cls-2" d="M28.32,11.61c0,.42-.82,15.15-.82,15.15L11.6,27,8.83,17.69l8.82-8,2.47-2.3Z"></path><path class="cls-3" d="M16.05,16.5c-.39-1.13.88-3.52.32-3.07l2.24-2.33.3,1.63,9.33.58,0,.77Z"></path><path class="cls-2" d="M28.7,27.67a1.93,1.93,0,0,1-1.17.46L13,28.87a2,2,0,1,1-.2-3.93l14.5-.74a2,2,0,0,1,1.37,3.47Z"></path><path class="cls-2" d="M29.46,24.4a1.93,1.93,0,0,1-1.17.46l-14.5.74a2,2,0,1,1-.21-3.92l14.51-.74a2,2,0,0,1,1.37,3.46Z"></path><path class="cls-2" d="M29.75,20.94a2,2,0,0,1-1.17.46l-14.51.75a2,2,0,0,1-.2-3.93l14.51-.74a2,2,0,0,1,1.37,3.46Z"></path><path class="cls-2" d="M30,17.54a1.9,1.9,0,0,1-1.16.46l-14.51.74a2,2,0,0,1-.2-3.92l1.6-2.33,1.38,1.63,11.53,0a2,2,0,0,1,2.06,1.86A1.94,1.94,0,0,1,30,17.54Z"></path><path class="cls-2" d="M23.51,26.23l0-.39-.44-.44.42-.36-.08-2.45-.53-.48.49-.44-.08-2.49-.63-.48.59-.6,0-1.4-11-2.63s-3.42,3.1-4.88,3.66,2.06,10.92,5.09,10.85S23.51,26.23,23.51,26.23Z"></path><path class="cls-3" d="M22.53,27a2.3,2.3,0,0,0-1.83-.83,2.26,2.26,0,0,0-1.35.48,2.76,2.76,0,0,0-.3-.29,2.28,2.28,0,0,0-1.68-.51,2.33,2.33,0,0,0-1.25.53l-.21.2a2.29,2.29,0,0,0-2.82.1,2.29,2.29,0,0,0-.79,2.06,2,2,0,0,0,.73.1l13-.66a2.3,2.3,0,0,0-2-1.59A2.31,2.31,0,0,0,22.53,27Z"></path><path class="cls-3" d="M17.09,14.15l-1.38-1.62-.49.72-.15-.18-.36.53-1-1.16-1.2,1.74-.29-.07-.19.16-.15.09L9.29,16.5a2.21,2.21,0,0,0,.19.66l.49.9,2.6,4.41c2.06,3.56,5.33-1.66,4.05-3.83l-1.37-2.32,1.85-2.17Z"></path><path class="cls-2" d="M14.9,22.37c-1.09.79-1.54,0-2.06-.85l-2.6-4.41a1.86,1.86,0,0,1,0-1.92L13,10.06a2,2,0,0,1,.67-.65L18,7.29a1.87,1.87,0,0,1,1.86,3.24l-3.3,2.63-2.57,3L15.4,18.5A2.79,2.79,0,0,1,14.9,22.37Z"></path><path class="cls-2" d="M18.84,31.26a1.58,1.58,0,0,1-2.58-1.05l-.21-1.9A1.57,1.57,0,0,1,19.18,28l.21,1.9A1.59,1.59,0,0,1,18.84,31.26Z"></path><path class="cls-2" d="M21.82,31a1.54,1.54,0,0,1-1,.38,1.58,1.58,0,0,1-1.62-1.53l0-1.28a1.57,1.57,0,1,1,3.14-.09l0,1.28A1.53,1.53,0,0,1,21.82,31Z"></path><path class="cls-2" d="M24.78,30.61a1.53,1.53,0,0,1-1.14.37,1.57,1.57,0,0,1-1.44-1.7l.1-.52a1.57,1.57,0,0,1,3.14.25l-.1.53A1.59,1.59,0,0,1,24.78,30.61Z"></path><path class="cls-2" d="M15.92,31.2a1.54,1.54,0,0,1-.73.34,1.57,1.57,0,0,1-1.83-1.26L13,28.74a1.58,1.58,0,0,1,3.1-.56l.33,1.54A1.57,1.57,0,0,1,15.92,31.2Z"></path><path class="cls-3" d="M16.06,27.93a1.58,1.58,0,0,0-.52-.72l.4,4a1.63,1.63,0,0,0,.41-.57,1.59,1.59,0,0,0,.56.72l-.43-4.27A1.59,1.59,0,0,0,16.06,27.93Z"></path><path class="cls-3" d="M19.22,28.32l0-.32a1.59,1.59,0,0,0-.49-1l.21,4.2a1.6,1.6,0,0,0,.46-.82,1.59,1.59,0,0,0,.49.63l-.19-3.63A1.56,1.56,0,0,0,19.22,28.32Z"></path><path class="cls-3" d="M22.35,28.47v0a1.59,1.59,0,0,0-.51-1.12l.06,3.57a1.58,1.58,0,0,0,.44-.81,1.67,1.67,0,0,0,.51.61l-.05-3A1.61,1.61,0,0,0,22.35,28.47Z"></path><path class="cls-3" d="M29.68,17.47l-4.6.21a.49.49,0,0,0-.45.5.48.48,0,0,0,.5.46l4.6-.21a.45.45,0,0,0,.28-.12.08.08,0,0,0,0,0,2,2,0,0,0-.49-.47,2,2,0,0,0,.39-.26A.47.47,0,0,0,29.68,17.47Z"></path><path class="cls-3" d="M29.7,21.65a1.9,1.9,0,0,0-.45-.4,2,2,0,0,0,.5-.31,1.59,1.59,0,0,0,.13-.13.48.48,0,0,0-.31-.1l-4.93.17a.48.48,0,0,0,0,.95l4.93-.17Z"></path><path class="cls-3" d="M29.49,24.37a.49.49,0,0,0-.3-.1L26,24.32a.48.48,0,1,0,0,1l3.13-.05a2.25,2.25,0,0,0-.34-.47,1.81,1.81,0,0,0,.65-.36Z"></path><polygon class="cls-2" points="18.51 7.39 20.47 5.1 28.99 9.79 28.31 11.96 18.51 7.39"></polygon><polygon class="cls-2" points="7.33 17.73 4.68 18.69 8.27 29.07 11.39 27.96 7.33 17.73"></polygon><path class="cls-3" d="M30.62,12.46a.71.71,0,0,0,.93-.22L33,10a.62.62,0,0,0-.2-.88L22,2.77a.71.71,0,0,0-.93.22L19.62,5.24a.62.62,0,0,0,.2.88Z"></path><rect class="cls-4" x="25.04" y="-0.41" width="3.29" height="14.94" rx="0.66" transform="translate(7.1 26.51) rotate(-59.6)"></rect><path class="cls-3" d="M10,29.94a.69.69,0,0,1-.37.88L7.15,31.9a.62.62,0,0,1-.84-.35L1.84,19.86A.69.69,0,0,1,2.21,19L4.66,17.9a.63.63,0,0,1,.84.35Z"></path><rect class="cls-4" x="3.65" y="17.71" width="3.29" height="14.94" rx="0.66" transform="translate(-8.64 3.55) rotate(-20.93)"></rect></g></g></svg>