<svg xmlns="http://www.w3.org/2000/svg" viewBox="0 0 35 35"><defs><style>.cls-1{fill:#e81f38;}.cls-2{fill:#f6a5af;}.cls-3{fill:#ea8193;}.cls-4,.cls-5{fill:#f9fafa;}.cls-5{opacity:0.6;}</style></defs><g id="Layer_2" data-name="Layer 2"><g id="Layer_1-2" data-name="Layer 1"><rect class="cls-1" width="35" height="35" rx="3.35"></rect><path class="cls-2" d="M17.5,28C9,28,2.28,25.47,2.28,22.21c0-1.79,1.65-3.23,4.91-4.28a.19.19,0,0,1,.12.36c-3.09,1-4.65,2.32-4.65,3.92,0,3,6.66,5.42,14.84,5.42s14.84-2.43,14.84-5.42c0-1.34-1.4-2.64-3.94-3.66a.19.19,0,0,1-.11-.25.2.2,0,0,1,.25-.1c2.7,1.07,4.18,2.5,4.18,4C32.72,25.47,26,28,17.5,28Z"></path><polygon class="cls-2" points="8.41 17.39 6.33 20.09 5.01 17.32 8.41 17.39 8.41 17.39"></polygon><path class="cls-2" d="M17.56,32.55c-1.52,0-2.94-1.49-4-4.19a.19.19,0,0,1,.11-.25.2.2,0,0,1,.25.11c1,2.55,2.31,4,3.66,4,3,0,5.42-6.66,5.42-14.84S20.55,2.48,17.56,2.48c-1.61,0-2.93,1.57-3.92,4.66A.19.19,0,0,1,13.27,7c1.06-3.27,2.5-4.92,4.29-4.92,3.25,0,5.8,6.69,5.8,15.23S20.81,32.55,17.56,32.55Z"></path><polygon class="cls-2" points="12.74 8.24 15.44 6.16 12.67 4.83 12.74 8.24 12.74 8.24"></polygon><path class="cls-3" d="M16.27,24.56a.2.2,0,0,1-.13,0,.2.2,0,0,1-.06-.15V13.19a.19.19,0,0,1,.16-.19l10.44-1.43a.2.2,0,0,1,.15,0,.21.21,0,0,1,.07.15V23a.19.19,0,0,1-.17.19L16.29,24.56Zm.19-11.21v10.8l10.05-1.3V12Z"></path><polygon class="cls-4" points="16.27 13.19 9.14 9.51 19.65 8.08 26.7 11.76 16.27 13.19"></polygon><path class="cls-3" d="M16.27,13.38l-.09,0L9.05,9.68A.19.19,0,0,1,9,9.47a.18.18,0,0,1,.16-.15L19.62,7.89l.12,0,7.05,3.68a.18.18,0,0,1,.1.2.19.19,0,0,1-.16.16L16.3,13.38ZM9.77,9.62,16.3,13l9.78-1.34L19.61,8.28Z"></path><polygon class="cls-4" points="9.14 9.51 9.14 20.47 16.27 24.37 16.27 13.19 9.14 9.51"></polygon><path class="cls-3" d="M16.27,24.56a.15.15,0,0,1-.09,0l-7.13-3.9a.18.18,0,0,1-.1-.17v-11A.2.2,0,0,1,9,9.34a.21.21,0,0,1,.19,0L16.36,13a.18.18,0,0,1,.1.17V24.37a.2.2,0,0,1-.09.17Zm-6.94-4.2,6.75,3.69V13.3L9.33,9.82Z"></path><path class="cls-3" d="M9.33,20.66l-.05-.38,10-1.34V8.08h.38v11a.19.19,0,0,1-.16.19Z"></path><rect class="cls-3" x="22.92" y="16.97" width="0.38" height="8.19" transform="translate(-6.44 31.28) rotate(-61.42)"></rect><polygon class="cls-5" points="17.5 14.28 26.7 13.1 26.7 23.02 17.5 24.21 17.5 14.28"></polygon></g></g></svg>