<svg xmlns="http://www.w3.org/2000/svg" xmlns:xlink="http://www.w3.org/1999/xlink" id="Layer_1" x="0px" y="0px" viewBox="0 0 455 422" style="enable-background:new 0 0 455 422;" xml:space="preserve"><style type="text/css">	.st0{fill:none;}	.st1{clip-path:url(#SVGID_00000089557920189124505510000017225690816761207187_);}	.st2{fill:#F2F3F4;}	.st3{fill:#F2F3F4;fill-opacity:0.56;}	.st4{fill:#001F8A;}	.st5{fill:#99A5D0;}	.st6{fill:#6678B9;}	.st7{fill:#F9FAFA;}	.st8{fill:#001F8A;stroke:#001F8A;stroke-width:4;stroke-miterlimit:10;}	.st9{fill:#FFFFFF;}	.st10{fill:none;stroke:#001F8A;stroke-width:4;stroke-linecap:round;stroke-linejoin:round;stroke-miterlimit:10;}	.st11{fill:#1F1E1F;}</style><rect x="126.5" y="10.3" class="st0" width="216" height="342"></rect><g>	<defs>					<rect id="SVGID_1_" x="41.3" y="50.9" transform="matrix(0.9479 -0.3186 0.3186 0.9479 -55.3494 83.3913)" width="372" height="320"></rect>	</defs>	<clipPath id="SVGID_00000182494051026802715720000000554850255610920104_">		<use xlink:href="#SVGID_1_" style="overflow:visible;"></use>	</clipPath>	<g style="clip-path:url(#SVGID_00000182494051026802715720000000554850255610920104_);">		<g>			<path class="st2" d="M195,328c58.3-27.2,104.9,9.9,146.2-2.5c40.4-12.1,52-54.9,18.8-106.5c-37.7-58.6-18.2-101.3-38.6-152.5    c-8.6-21.5-40.9-45.4-67-33.3c-34.3,15.9-34.9,61.7-56.9,100.5c-19.7,34.8-62.9,68.9-86.3,97.3c-22.9,27.8-52.7,52.5-42.3,92.4    C75.9,349.8,107.6,368.8,195,328z"></path>		</g>		<g>			<path class="st3" d="M82.4,215.7c8.4-37.3,49.7-37.1,81.9-44.8c63.1-15.2,77.3-110.6,155.8-90.2    c86.9,22.7,115.8,107.3,55.9,163.6C208.3,402.2,74.7,249.6,82.4,215.7z"></path>		</g>	</g></g><g>	<g>					<image style="overflow:visible;opacity:0.75;" width="57" height="105" xlink:href="3422A97E.png" transform="matrix(1.9884 0 0 1.9884 127.5961 8)">		</image>		<g>			<g>				<polygon class="st4" points="146.9,186.8 146.5,26.4 211,26.4 211,34.4 154.4,34.4 154.8,186.8     "></polygon>			</g>		</g>	</g>	<g>		<path class="st5" d="M162.6,176c-0.4-6.9-0.7-14-1-20.9c0-8.4,0-37.1,0-46c0,0-0.1-66.9-0.1-66.9s0-1,0-1c4.8,0,11.2-0.1,15.9,0.3   c5,0.2,9.9,0.4,14.9,0.7c-9.8,0.5-20,1.2-29.8,1c0,0,1-1,1-1l0.1,66.9c0,9,0,37.4,0.1,46C163.3,162,163,169.1,162.6,176L162.6,176   z"></path>	</g>	<g>		<g>			<rect x="147" y="228.5" transform="matrix(1 -2.441399e-03 2.441399e-03 1 -0.5622 0.3692)" class="st6" width="8" height="4"></rect>		</g>		<g>			<path class="st6" d="M147,220.9l0-7.5l8,0l0,7.5L147,220.9z M146.9,205.8l0-7.5l8,0l0,7.5L146.9,205.8z"></path>		</g>		<g>							<rect x="146.9" y="186.8" transform="matrix(1 -2.685537e-03 2.685537e-03 1 -0.5064 0.4058)" class="st6" width="8" height="4"></rect>		</g>	</g>	<g>					<rect x="147.1" y="232.5" transform="matrix(1 -2.505630e-03 2.505630e-03 1 -0.7179 0.3795)" class="st4" width="8" height="108.5"></rect>	</g>	<g>		<g>			<rect x="201.1" y="337" class="st6" width="4" height="8"></rect>		</g>		<g>			<path class="st6" d="M191.9,344.9h-9.2v-8h9.2V344.9z M173.6,344.9h-9.2v-8h9.2V344.9z"></path>		</g>		<g>			<rect x="151.2" y="337" class="st6" width="4" height="8"></rect>		</g>	</g>	<g>		<path class="st4" d="M201.1,341l-0.8-122.3h43.8c1.8,0,3.6,0,5.4-0.1l0.3,7.9c-1.9,0.1-3.8,0.1-5.7,0.1h-35.8l0.8,114.3L201.1,341   z"></path>	</g>	<g>		<path class="st5" d="M238,232.5c-4.6,0.5-10.2,0.8-14.8,1.1c-1.9,0-6.9,0-8.9,0c0,0,1-1,1-1l0.2,45.3c0,13.3,0.5,32.2-0.8,45.3   c-1.5-13-1.1-32-1.2-45.3c0,0-0.2-45.3-0.2-45.3s0-1,0-1s1,0,1,0c2,0,7,0,8.9,0C228.1,231.8,233,232.3,238,232.5L238,232.5z"></path>	</g>	<g>		<g>			<path class="st6" d="M287.5,219.3l-2.9-7.4c1.2-0.5,2.4-0.9,3.5-1.4l3.2,7.3C290.1,218.3,288.8,218.8,287.5,219.3z"></path>		</g>		<g>			<path class="st6" d="M260.7,225.8l-0.9-7.9c2.2-0.2,4.3-0.6,6.4-0.9l1.3,7.8C265.3,225.2,263,225.5,260.7,225.8z M274.2,223.4    l-1.8-7.7c2.1-0.5,4.2-1.1,6.2-1.7l2.3,7.6C278.7,222.3,276.5,222.9,274.2,223.4z"></path>		</g>		<g>			<path class="st6" d="M249.7,226.6l-0.3-7.9c1.3,0,2.6-0.1,3.9-0.2l0.5,7.9C252.5,226.4,251.1,226.5,249.7,226.6z"></path>		</g>	</g>	<g>		<path class="st4" d="M291.3,217.8l-3.2-7.3c8.4-3.7,16-8.8,22.5-15c15.9-15.4,23.9-38.5,23.9-68.7c0-30.2-8.1-53.4-24-68.9   c-14.8-14.5-35.2-22.3-60.6-23.3l0.3-7.9c27.4,1.1,49.6,9.7,65.8,25.6c17.5,17.1,26.4,42.2,26.4,74.6c0,32.4-8.9,57.5-26.4,74.4   C309,208.1,300.6,213.7,291.3,217.8z"></path>	</g>	<g>		<path class="st5" d="M303.4,54.9c20.5,17.4,26.1,46,26.2,71.7c0,19.5-3.2,39.8-13.3,56.9c-3.6,5.5-7.9,10.6-12.9,14.8   c8.7-9.7,14.9-21.2,18.9-33.4c3.9-12.3,5.2-25.3,5.3-38.2C327.8,100.9,321,74.4,303.4,54.9L303.4,54.9z"></path>	</g>	<g>		<g>			<rect x="211" y="26.4" class="st6" width="4" height="8"></rect>		</g>		<g>			<path class="st6" d="M239.9,34.4h-6.2v-8h6.2V34.4z M227.5,34.4h-6.2v-8h6.2V34.4z"></path>		</g>		<g>			<path class="st6" d="M250,34.5c-1.3-0.1-2.6-0.1-3.9-0.1l0.1-8c1.4,0,2.7,0.1,4.1,0.1L250,34.5z"></path>		</g>	</g>	<g>		<path class="st4" d="M243.7,177.5h-39.4v-8h39.4c12.3,0,21.1-3.9,27-11.8c6.1-8.2,9.2-19.4,9.2-33.3c0-13.5-3-23.8-9-30.7   c-5.8-6.7-15-10.1-27.2-10.1h-39.4v-8h39.4c14.7,0,25.8,4.3,33.2,12.9c7.2,8.4,10.9,20.5,10.9,35.9c0,15.6-3.6,28.4-10.7,38.1   C269.7,172.4,258.5,177.5,243.7,177.5z"></path>	</g>	<g>		<path class="st6" d="M247.5,192.7h-53c-1.6,0-3-1.3-3-3c0-1.6,1.3-3,3-3h53c17.1,0,30-5.7,38.2-16.9c8.5-11.5,12.8-27,12.8-46.2   c0-18.7-4.3-33.2-12.7-42.9c-8.3-9.6-21.2-14.4-38.4-14.4h-53c-1.6,0-3-1.3-3-3c0-1.6,1.3-3,3-3h53c19,0,33.4,5.6,42.9,16.5   c9.4,10.8,14.1,26.6,14.1,46.8c0,20.5-4.7,37.3-14,49.8C281.1,186.2,266.6,192.7,247.5,192.7z"></path>	</g>	<g>		<path class="st6" d="M253.4,204.5h-58.9c-1.6,0-3-1.3-3-3s1.3-3,3-3h58.9c20.5,0,35.9-6.8,45.8-20.3   c10.1-13.7,15.3-32.3,15.3-55.2c0-22.4-5.1-39.6-15.1-51.2c-9.9-11.5-25.4-17.3-45.9-17.3h-58.9c-1.6,0-3-1.3-3-3s1.3-3,3-3h58.9   c22.4,0,39.4,6.5,50.5,19.4c11,12.8,16.6,31.3,16.6,55.1c0,24.2-5.5,43.9-16.5,58.7C292.9,196.9,275.9,204.5,253.4,204.5z"></path>	</g>	<g>		<g>			<rect x="200.3" y="79.5" class="st6" width="8" height="4"></rect>		</g>		<g>			<path class="st6" d="M208.3,161.7h-8v-7.8h8V161.7z M208.3,146.1h-8v-7.8h8V146.1z M208.3,130.4h-8v-7.8h8V130.4z M208.3,114.8    h-8V107h8V114.8z M208.3,99.1h-8v-7.8h8V99.1z"></path>		</g>		<g>			<rect x="200.3" y="169.6" class="st6" width="8" height="4"></rect>		</g>	</g>	<g>		<circle class="st4" cx="250.9" cy="29.9" r="9.9"></circle>	</g>	<g>		<circle class="st4" cx="203.2" cy="29.9" r="9.9"></circle>	</g>	<g>		<circle class="st7" cx="205.1" cy="79.6" r="8"></circle>		<path class="st4" d="M205.1,90.5c-6,0-10.9-4.9-10.9-10.9s4.9-10.9,10.9-10.9s10.9,4.9,10.9,10.9S211.2,90.5,205.1,90.5z    M205.1,74.6c-2.7,0-5,2.2-5,5c0,2.7,2.2,5,5,5c2.7,0,5-2.2,5-5C210.1,76.8,207.9,74.6,205.1,74.6z"></path>	</g>	<g>		<circle class="st4" cx="205.1" cy="173" r="9.9"></circle>	</g>	<g>		<circle class="st4" cx="151.5" cy="188.9" r="8"></circle>		<path class="st4" d="M151.5,198.9c-5.5,0-9.9-4.5-9.9-9.9s4.5-9.9,9.9-9.9c5.5,0,9.9,4.5,9.9,9.9S156.9,198.9,151.5,198.9z    M151.5,183c-3.3,0-6,2.7-6,6c0,3.3,2.7,6,6,6c3.3,0,6-2.7,6-6C157.4,185.7,154.7,183,151.5,183z"></path>	</g>	<g>		<circle class="st4" cx="248.9" cy="222.7" r="8"></circle>		<path class="st4" d="M248.9,232.7c-5.5,0-9.9-4.5-9.9-9.9s4.5-9.9,9.9-9.9s9.9,4.5,9.9,9.9S254.4,232.7,248.9,232.7z M248.9,216.8   c-3.3,0-6,2.7-6,6s2.7,6,6,6c3.3,0,6-2.7,6-6S252.2,216.8,248.9,216.8z"></path>	</g>	<g>		<circle class="st4" cx="151.5" cy="340.1" r="8"></circle>		<path class="st4" d="M151.5,350c-5.5,0-9.9-4.5-9.9-9.9c0-5.5,4.5-9.9,9.9-9.9c5.5,0,9.9,4.5,9.9,9.9   C161.4,345.5,156.9,350,151.5,350z M151.5,334.1c-3.3,0-6,2.7-6,6s2.7,6,6,6c3.3,0,6-2.7,6-6S154.7,334.1,151.5,334.1z"></path>	</g>	<g>		<circle class="st4" cx="205.1" cy="340.1" r="8"></circle>		<path class="st4" d="M205.1,350c-5.5,0-9.9-4.5-9.9-9.9c0-5.5,4.5-9.9,9.9-9.9s9.9,4.5,9.9,9.9C215.1,345.5,210.6,350,205.1,350z    M205.1,334.1c-3.3,0-6,2.7-6,6s2.7,6,6,6c3.3,0,6-2.7,6-6S208.4,334.1,205.1,334.1z"></path>	</g>	<g>		<path class="st6" d="M173.3,331.1c-1.6,0-3-1.3-3-3V53.7c0-1.6,1.3-3,3-3s3,1.3,3,3v274.4C176.3,329.8,175,331.1,173.3,331.1z"></path>	</g>	<g>		<path class="st6" d="M185.3,331.1c-1.6,0-3-1.3-3-3V53.7c0-1.6,1.3-3,3-3c1.6,0,3,1.3,3,3v274.4   C188.2,329.8,186.9,331.1,185.3,331.1z"></path>	</g></g><g>	<g>		<g>			<g>									<ellipse transform="matrix(6.331492e-03 -1 1 6.331492e-03 -520.7554 343.5539)" class="st0" cx="-87.5" cy="433.8" rx="50" ry="50"></ellipse>				<path class="st8" d="M-87.5,485.4c-28.4,0-51.5-23.1-51.5-51.5c0-28.4,23.1-51.5,51.5-51.5c28.4,0,51.5,23.1,51.5,51.5     C-36,462.2-59.1,485.4-87.5,485.4z M-87.5,385.4c-26.7,0-48.4,21.7-48.4,48.4c0,26.7,21.7,48.4,48.4,48.4s48.4-21.7,48.4-48.4     C-39.1,407.1-60.8,385.4-87.5,385.4z"></path>			</g>		</g>		<g>			<g>				<path class="st9" d="M-61.7,433.8c0,14.3-11.6,25.8-25.8,25.8c-14.3,0-25.8-11.6-25.8-25.8c0-14.3,11.6-25.8,25.8-25.8     C-73.2,408-61.7,419.5-61.7,433.8z"></path>				<path class="st4" d="M-87.5,461.2c-15.1,0-27.4-12.3-27.4-27.4s12.3-27.4,27.4-27.4s27.4,12.3,27.4,27.4S-72.4,461.2-87.5,461.2     z M-87.5,409.5c-13.4,0-24.3,10.9-24.3,24.3c0,13.4,10.9,24.3,24.3,24.3s24.3-10.9,24.3-24.3C-63.2,420.4-74.1,409.5-87.5,409.5     z"></path>			</g>		</g>		<g>			<g>				<path class="st0" d="M-47.8,414c0,3.1-2.5,5.6-5.6,5.6c-3.1,0-5.7-2.5-5.7-5.6c0-3.1,2.5-5.6,5.7-5.6     C-50.4,408.3-47.8,410.8-47.8,414z"></path>				<path class="st4" d="M-54.2,422c-4,0-7.2-3.2-7.2-7.2s3.2-7.2,7.2-7.2c4,0,7.2,3.2,7.2,7.2S-50.2,422-54.2,422z M-54.2,410.7     c-2.2,0-4.1,1.8-4.1,4.1c0,2.2,1.8,4.1,4.1,4.1c2.2,0,4.1-1.8,4.1-4.1C-50.2,412.5-52,410.7-54.2,410.7z"></path>			</g>		</g>		<g>			<g>				<path class="st0" d="M-62.6,396.9c1.6,2.7,0.6,6.2-2.1,7.7c-2.7,1.6-6.2,0.6-7.7-2.1c-1.6-2.7-0.6-6.2,2.1-7.7     C-67.6,393.2-64.2,394.2-62.6,396.9z"></path>				<path class="st4" d="M-68.3,407.7c-2.6,0-5-1.4-6.3-3.6c-1-1.7-1.2-3.6-0.7-5.5c0.5-1.9,1.7-3.4,3.4-4.4c1.1-0.6,2.3-1,3.6-1     c2.6,0,5,1.4,6.3,3.6c2,3.5,0.8,7.9-2.6,9.9C-65.8,407.3-67,407.7-68.3,407.7z M-68.3,396.4c-0.7,0-1.4,0.2-2,0.5     c-0.9,0.5-1.6,1.4-1.9,2.5c-0.3,1-0.1,2.1,0.4,3.1c1.1,1.9,3.7,2.6,5.6,1.5c1.9-1.1,2.6-3.6,1.5-5.6     C-65.5,397.2-66.8,396.4-68.3,396.4z"></path>			</g>		</g>		<g>			<g>				<path class="st0" d="M-84,389.5c2.7,1.6,3.6,5,2.1,7.7c-1.6,2.7-5,3.6-7.7,2.1c-2.7-1.6-3.6-5-2.1-7.7     C-90.2,388.8-86.7,387.9-84,389.5z"></path>				<path class="st4" d="M-87.6,402.3c-1.3,0-2.5-0.3-3.6-1c-1.7-1-2.9-2.5-3.4-4.4c-0.5-1.9-0.2-3.8,0.7-5.5     c1.3-2.2,3.7-3.6,6.3-3.6c1.3,0,2.5,0.3,3.6,1c3.5,2,4.6,6.4,2.6,9.9C-82.6,401-85,402.3-87.6,402.3z M-87.6,391     c-1.5,0-2.8,0.8-3.5,2c-0.5,0.9-0.7,2-0.4,3.1c0.3,1,1,1.9,1.9,2.5c1.9,1.1,4.5,0.4,5.6-1.5c1.1-1.9,0.5-4.4-1.5-5.6     C-86.2,391.2-86.9,391-87.6,391z"></path>			</g>		</g>		<g>			<g>				<path class="st0" d="M-106.2,393.7c3.1,0,5.6,2.5,5.6,5.6c0,3.1-2.5,5.7-5.6,5.7c-3.1,0-5.6-2.5-5.6-5.7     C-111.9,396.3-109.3,393.7-106.2,393.7z"></path>				<path class="st4" d="M-107,407.4L-107,407.4c-4,0-7.2-3.2-7.2-7.2c0-4,3.2-7.2,7.2-7.2c4,0,7.2,3.2,7.2,7.2     C-99.7,404.1-103,407.4-107,407.4z M-107,396.1c-2.2,0-4.1,1.8-4.1,4.1c0,2.2,1.8,4.1,4.1,4.1c2.2,0,4.1-1.8,4.1-4.1     C-102.9,397.9-104.7,396.1-107,396.1z"></path>			</g>		</g>		<g>			<g>				<path class="st0" d="M-123.3,408.5c2.7-1.6,6.2-0.6,7.7,2.1c1.6,2.7,0.6,6.2-2.1,7.7c-2.7,1.6-6.2,0.6-7.7-2.1     C-126.9,413.6-126,410.1-123.3,408.5z"></path>				<path class="st4" d="M-121.2,421.4c-2.6,0-5-1.4-6.3-3.6c-1-1.7-1.2-3.6-0.7-5.5c0.5-1.9,1.7-3.4,3.4-4.4c1.1-0.6,2.3-1,3.6-1     c2.6,0,5,1.4,6.3,3.6c1,1.7,1.2,3.6,0.7,5.5c-0.5,1.9-1.7,3.4-3.4,4.4C-118.7,421.1-120,421.4-121.2,421.4z M-121.3,410.1     c-0.7,0-1.4,0.2-2,0.5c-0.9,0.5-1.6,1.4-1.9,2.5c-0.3,1-0.1,2.1,0.4,3.1c1.1,1.9,3.7,2.6,5.6,1.5c0.9-0.5,1.6-1.4,1.9-2.5     c0.3-1,0.1-2.1-0.4-3.1C-118.5,410.9-119.8,410.1-121.3,410.1z"></path>			</g>		</g>		<g>			<g>				<path class="st0" d="M-130.7,429.9c1.6-2.7,5-3.6,7.7-2.1c2.7,1.6,3.6,5,2.1,7.7c-1.6,2.7-5,3.6-7.7,2.1     C-131.4,436.1-132.3,432.6-130.7,429.9z"></path>				<path class="st4" d="M-126.6,440.7c-1.3,0-2.5-0.3-3.6-1c-1.7-1-2.9-2.5-3.4-4.4c-0.5-1.9-0.2-3.8,0.7-5.5     c1.3-2.2,3.7-3.6,6.3-3.6c1.3,0,2.5,0.3,3.6,1c1.7,1,2.9,2.5,3.4,4.4c0.5,1.9,0.2,3.8-0.7,5.5     C-121.6,439.3-124,440.7-126.6,440.7z M-126.6,429.4c-1.5,0-2.8,0.8-3.5,2c-0.5,0.9-0.7,2-0.4,3.1c0.3,1,1,1.9,1.9,2.5     c1.9,1.1,4.5,0.4,5.6-1.5c0.5-0.9,0.7-2,0.4-3.1c-0.3-1-1-1.9-1.9-2.5C-125.2,429.6-125.9,429.4-126.6,429.4z"></path>			</g>		</g>		<g>			<g>				<path class="st0" d="M-126.4,452.1c0-3.1,2.5-5.6,5.7-5.6c3.1,0,5.6,2.5,5.6,5.6c0,3.1-2.5,5.6-5.6,5.6     C-123.9,457.8-126.4,455.3-126.4,452.1z"></path>				<path class="st4" d="M-121.6,460.1c-4,0-7.2-3.2-7.2-7.2c0-4,3.2-7.2,7.2-7.2c4,0,7.2,3.2,7.2,7.2     C-114.3,456.9-117.6,460.1-121.6,460.1z M-121.6,448.8c-2.2,0-4.1,1.8-4.1,4.1c0,2.2,1.8,4.1,4.1,4.1c2.2,0,4.1-1.8,4.1-4.1     C-117.5,450.7-119.3,448.8-121.6,448.8z"></path>			</g>		</g>		<g>			<g>				<path class="st0" d="M-111.6,469.2c-1.6-2.7-0.6-6.2,2.1-7.7c2.7-1.6,6.2-0.6,7.7,2.1c1.6,2.7,0.6,6.2-2.1,7.7     C-106.6,472.9-110.1,471.9-111.6,469.2z"></path>				<path class="st4" d="M-107.5,474.4c-2.6,0-5-1.4-6.3-3.6c-2-3.5-0.8-7.9,2.6-9.9c1.1-0.6,2.3-1,3.6-1c2.6,0,5,1.4,6.3,3.6     c1,1.7,1.2,3.6,0.7,5.5c-0.5,1.9-1.7,3.4-3.4,4.4C-105,474.1-106.2,474.4-107.5,474.4z M-107.5,463.1c-0.7,0-1.4,0.2-2,0.5     c-1.9,1.1-2.6,3.6-1.5,5.6c1.1,1.9,3.7,2.6,5.6,1.5c0.9-0.5,1.6-1.4,1.9-2.5c0.3-1,0.1-2.1-0.4-3.1     C-104.7,463.9-106.1,463.1-107.5,463.1z"></path>			</g>		</g>		<g>			<g>				<path class="st0" d="M-91,477.4c-2.7-1.6-3.6-5-2.1-7.7c1.6-2.7,5-3.6,7.7-2.1c2.7,1.6,3.6,5,2.1,7.7     C-84.9,478-88.3,479-91,477.4z"></path>				<path class="st4" d="M-88.2,479.7c-1.3,0-2.5-0.3-3.6-1c-3.5-2-4.6-6.4-2.6-9.9c1.3-2.2,3.7-3.6,6.3-3.6c1.3,0,2.5,0.3,3.6,1     c3.5,2,4.6,6.4,2.6,9.9C-83.2,478.4-85.6,479.7-88.2,479.7z M-88.2,468.4c-1.5,0-2.8,0.8-3.5,2c-1.1,1.9-0.5,4.4,1.5,5.6     c1.9,1.1,4.5,0.4,5.6-1.5c1.1-1.9,0.5-4.4-1.5-5.6C-86.8,468.6-87.5,468.4-88.2,468.4z"></path>			</g>		</g>		<g>			<g>				<path class="st0" d="M-68.8,473.1c-3.1,0-5.7-2.5-5.7-5.6c0-3.1,2.5-5.6,5.7-5.6c3.1,0,5.6,2.5,5.6,5.6     C-63.2,470.6-65.7,473.1-68.8,473.1z"></path>				<path class="st4" d="M-68.8,474.7c-4,0-7.2-3.2-7.2-7.2c0-4,3.2-7.2,7.2-7.2c4,0,7.2,3.2,7.2,7.2     C-61.6,471.5-64.8,474.7-68.8,474.7z M-68.8,463.4c-2.2,0-4.1,1.8-4.1,4.1c0,2.2,1.8,4.1,4.1,4.1c2.2,0,4.1-1.8,4.1-4.1     C-64.7,465.2-66.6,463.4-68.8,463.4z"></path>			</g>		</g>		<g>			<g>				<path class="st9" d="M-35.8,447.8l-8.8,15.3l-13.9-7.5c0,0-4.5-2.8-2.3-6.6c2.2-3.8,5.8-2.3,6.7-1.1c1.9,2.3-0.2,4.9-0.2,4.9     l8.4,4.3l5.6-9.7C-40.3,447.4-39.2,445.6-35.8,447.8z"></path>				<path class="st4" d="M-44.6,464.7c-0.3,0-0.5-0.1-0.7-0.2l-13.9-7.5c-2.1-1.3-5.2-4.7-2.9-8.8c1.6-2.8,3.8-3.2,5-3.2     c1.9,0,3.5,0.9,4.3,1.9c1.5,1.8,1.3,3.8,0.7,5.3l5.6,2.9l4.8-8.4c0.4-0.7,1.5-1.5,3-1.5c1.1,0,2.4,0.4,3.7,1.3     c0.7,0.5,0.9,1.4,0.5,2.1l-8.7,15.3C-43.5,464.4-44,464.7-44.6,464.7z M-57.1,448.1c-0.9,0-1.6,0.5-2.3,1.6     c-1.4,2.5,1.6,4.4,1.8,4.5l12.5,6.7l7.2-12.5c-0.7-0.2-0.9-0.1-1-0.1l-5.5,9.6c-0.4,0.7-1.3,1-2.1,0.6l-8.4-4.3     c-0.4-0.2-0.7-0.6-0.8-1.1c-0.1-0.5,0-0.9,0.3-1.3c0.1-0.2,1.3-1.7,0.3-2.9C-55.4,448.6-56.2,448.1-57.1,448.1z"></path>			</g>		</g>	</g>	<g>		<g>			<path class="st4" d="M-99.3,430.8c0,0.7-0.1,1.4-0.4,2.1c-0.2,0.7-0.6,1.4-0.9,2c-0.4,0.7-0.8,1.3-1.3,1.9    c-0.5,0.6-0.9,1.2-1.4,1.7l-1.1,0.8v0.1l1.4-0.3h3.8v2.2h-8.4v-1.3c0.3-0.3,0.7-0.7,1.1-1.2c0.4-0.4,0.8-0.9,1.2-1.4    c0.4-0.5,0.8-1,1.2-1.6c0.4-0.5,0.7-1.1,1-1.6c0.3-0.5,0.6-1.1,0.7-1.6c0.2-0.5,0.3-1,0.3-1.4c0-0.5-0.2-1-0.5-1.4    c-0.3-0.4-0.8-0.5-1.5-0.5c-0.4,0-0.9,0.1-1.3,0.3c-0.4,0.2-0.8,0.4-1.1,0.7l-1-1.8c0.5-0.4,1.1-0.8,1.8-1    c0.7-0.3,1.4-0.4,2.3-0.4c0.6,0,1.1,0.1,1.6,0.2c0.5,0.2,0.9,0.4,1.2,0.7c0.3,0.3,0.6,0.7,0.8,1.2    C-99.4,429.7-99.3,430.2-99.3,430.8z"></path>		</g>		<g>			<path class="st4" d="M-86.4,437.5h-2.2v3.9H-91v-3.9H-97V436l6.3-8.7h2.1v8.1h2.2V437.5z M-91,432.4l0.2-1.7h-0.1l-0.7,1.4    l-2.1,2.7l-1,0.8l1.3-0.2h2.4V432.4z"></path>		</g>		<g>			<path class="st4" d="M-79.4,427.2l2,0.9l-7.1,16.2l-2-0.9L-79.4,427.2z"></path>		</g>		<g>			<path class="st4" d="M-75.8,441.4l4.6-10.8l0.9-1l-1.2,0.2h-5.1v-2.4h9v0.8l-5.6,13.3H-75.8z"></path>		</g>	</g></g><path class="st4" d="M186.3,178.8l-20.5-35.6c-1.2-2.1-4.2-2.9-6.3-1.7c-0.2,0.1-0.4,0.3-0.5,0.4c-0.9,0.4-3.2,1.7-8.7,4.9 c-4.8,2.8-7.4,5.7-8.9,8c-3.5-4.7-9.7-14.8-14.7-23.9c-5.4-8.9-11.1-19.3-13.3-24.6c2.5-0.1,6.4-0.9,11.3-3.7 c4.3-2.4,7.3-4.1,8.8-5.1l0.4-0.2c2.2-1.3,3-4.1,1.7-6.3L115,55.4c-0.8-1.4-2.3-2.3-4-2.3c-0.8,0-1.6,0.2-2.1,0.5 c-0.5,0.2-12.7,5.9-20.6,13.2c-9,8.3-13.1,20.2-11.5,33.6c1.7,14.5,20.7,45.7,21.4,46.9c0.7,1.4,18.3,33.4,30,42.1 c7.5,5.6,15.8,8.5,24.1,8.5c3.6,0,7.3-0.6,10.8-1.7c10.3-3.2,21.3-11,21.5-11.2C186.8,183.8,187.5,181,186.3,178.8z"></path><path class="st10" d="M93.4,71.3c0,0-33.5-6.4-17.7-27.4c1-1.4,3.3-2.7,4.4-3.1c7.1-2.1,10.8,10.8,3.9,13.3 C73,58.2,55.8,56.6,52.7,36c-2.1-14.3,4.8-18.7,10.1-22c7.5-4.6,15.1,6.3,8.1,11.8c-5.7,4.6-14.2,7-26.1,0.5 c-26-14.3-20.6,5.6-20.6,5.6"></path><g>	<g>		<polygon class="st4" points="325.6,243.7 284.9,239.3 291.5,250.9 267.3,264.7 277.6,282.9 301.9,269.2 308.5,280.9   "></polygon>		<path class="st4" d="M277.6,285.6c-0.2,0-0.5,0-0.7-0.1c-0.7-0.2-1.3-0.6-1.6-1.3L264.9,266c-0.7-1.3-0.3-2.9,1-3.7l21.9-12.4   l-5.3-9.3c-0.5-0.9-0.5-2,0.1-2.8c0.6-0.8,1.5-1.3,2.5-1.2l40.7,4.4c0.9,0.1,1.6,0.6,2.1,1.3c0.4,0.8,0.5,1.7,0.1,2.5L310.9,282   c-0.4,0.9-1.3,1.5-2.3,1.6c-1,0-2-0.5-2.5-1.4l-5.3-9.3l-21.9,12.4C278.5,285.5,278.1,285.6,277.6,285.6z M270.9,265.7l7.7,13.5   l21.9-12.4c0.6-0.4,1.4-0.4,2.1-0.3c0.7,0.2,1.3,0.6,1.6,1.3l4,7.1l13.3-29l-31.7-3.4l4,7.1c0.7,1.3,0.3,2.9-1,3.7L270.9,265.7z"></path>	</g>	<g>		<polygon class="st4" points="250,326.9 267.1,289.7 273.7,301.4 298,287.6 308.3,305.9 284.1,319.6 290.7,331.3   "></polygon>		<path class="st4" d="M290.7,334c-0.1,0-0.2,0-0.3,0l-40.7-4.4c-0.9-0.1-1.6-0.6-2.1-1.3c-0.4-0.8-0.5-1.7-0.1-2.5l17.1-37.2   c0.4-0.9,1.3-1.5,2.3-1.6c1,0,2,0.5,2.5,1.4l5.3,9.3l21.9-12.4c0.6-0.4,1.4-0.4,2.1-0.3c0.7,0.2,1.3,0.6,1.6,1.3l10.3,18.2   c0.7,1.3,0.3,2.9-1,3.7l-21.9,12.4l5.1,8.9c0.4,0.5,0.6,1.1,0.6,1.7C293.5,332.8,292.2,334.1,290.7,334   C290.7,334,290.7,334,290.7,334z M254,324.6l31.7,3.4l-4-7.1c-0.4-0.6-0.4-1.4-0.3-2c0.2-0.7,0.6-1.3,1.3-1.6l21.9-12.4l-7.7-13.5   l-21.9,12.4c-0.6,0.4-1.4,0.4-2,0.3c-0.7-0.2-1.3-0.6-1.6-1.3l-4-7.1L254,324.6z"></path>	</g></g><g>	<g>		<g>			<path class="st9" d="M290.7,442.1h-33.9c-4.8,0-8.6,3.9-8.6,8.6v54.7c0,4.8,3.9,8.6,8.6,8.6h11.8l-5.9,16.3l22.8-16.3h5.3    c4.8,0,8.6-3.9,8.6-8.6v-54.7C299.3,446,295.4,442.1,290.7,442.1z"></path>			<path class="st11" d="M262.6,531.8c-0.3,0-0.6-0.1-0.9-0.3c-0.5-0.4-0.7-1-0.5-1.6l5.2-14.4h-9.8c-5.6,0-10.1-4.5-10.1-10.1    v-54.7c0-5.6,4.5-10.1,10.1-10.1h33.9c5.6,0,10.1,4.5,10.1,10.1v54.7c0,5.6-4.5,10.1-10.1,10.1h-4.8l-22.4,16.1    C263.2,531.7,262.9,531.8,262.6,531.8z M256.7,443.5c-4,0-7.2,3.2-7.2,7.2v54.7c0,4,3.2,7.2,7.2,7.2h11.8c0.5,0,0.9,0.2,1.2,0.6    c0.3,0.4,0.3,0.9,0.2,1.3l-4.3,12l19-13.6c0.2-0.2,0.5-0.3,0.8-0.3h5.3c4,0,7.2-3.2,7.2-7.2v-54.7c0-4-3.2-7.2-7.2-7.2H256.7z"></path>		</g>		<g>			<g>				<rect x="269" y="456.3" class="st9" width="9.5" height="25.7"></rect>				<path class="st11" d="M278.5,483.5H269c-0.8,0-1.4-0.6-1.4-1.4v-25.7c0-0.8,0.6-1.4,1.4-1.4h9.5c0.8,0,1.4,0.6,1.4,1.4V482     C279.9,482.8,279.2,483.5,278.5,483.5z M270.4,480.6h6.6v-22.8h-6.6V480.6z"></path>			</g>			<g>				<rect x="269" y="490.2" class="st9" width="9.5" height="8.6"></rect>				<path class="st11" d="M278.5,500.2H269c-0.8,0-1.4-0.6-1.4-1.4v-8.6c0-0.8,0.6-1.4,1.4-1.4h9.5c0.8,0,1.4,0.6,1.4,1.4v8.6     C279.9,499.6,279.2,500.2,278.5,500.2z M270.4,497.4h6.6v-5.7h-6.6V497.4z"></path>			</g>		</g>	</g>	<g>		<g>			<g>				<g>					<path class="st9" d="M331.2,496.9c3.7-4,5.9-9.1,5.9-14.6c0-12.9-12-23.3-26.7-23.3c-14.8,0-26.7,10.4-26.7,23.3      c0,12.9,12,23.3,26.7,23.3c3.8,0,7.4-0.7,10.7-1.9l13.9,6.9L331.2,496.9z"></path>					<path class="st11" d="M334.9,511.9c-0.2,0-0.4,0-0.6-0.1l-13.4-6.6c-3.4,1.2-6.9,1.8-10.6,1.8c-15.5,0-28.2-11.1-28.2-24.8      s12.6-24.8,28.2-24.8c15.5,0,28.2,11.1,28.2,24.8c0,5.4-2,10.7-5.8,15l3.5,12.9c0.2,0.5,0,1.1-0.5,1.5      C335.6,511.8,335.2,511.9,334.9,511.9z M321,502.2c0.2,0,0.4,0,0.6,0.1l11,5.4l-2.9-10.5c-0.1-0.5,0-1,0.3-1.4      c3.6-3.9,5.6-8.6,5.6-13.7c0-12.1-11.4-21.9-25.3-21.9c-14,0-25.3,9.8-25.3,21.9s11.4,21.9,25.3,21.9c3.5,0,6.9-0.6,10.2-1.8      C320.7,502.2,320.8,502.2,321,502.2z"></path>				</g>			</g>		</g>		<g>			<g>				<g>					<g>						<g>							<path class="st9" d="M301.8,482.2c0,2.4-2,4.4-4.4,4.4c-2.4,0-4.4-2-4.4-4.4s2-4.4,4.4-4.4        C299.8,477.8,301.8,479.8,301.8,482.2z"></path>							<path class="st11" d="M297.4,488.1c-3.2,0-5.9-2.6-5.9-5.9c0-3.2,2.6-5.9,5.9-5.9c3.2,0,5.9,2.6,5.9,5.9        C303.3,485.5,300.6,488.1,297.4,488.1z M297.4,479.2c-1.6,0-3,1.3-3,3c0,1.6,1.3,3,3,3c1.6,0,3-1.3,3-3        C300.4,480.6,299,479.2,297.4,479.2z"></path>						</g>					</g>				</g>			</g>			<g>				<g>					<g>						<g>							<path class="st9" d="M314.8,482.2c0,2.4-2,4.4-4.4,4.4c-2.4,0-4.4-2-4.4-4.4s2-4.4,4.4-4.4        C312.8,477.8,314.8,479.8,314.8,482.2z"></path>							<path class="st11" d="M310.4,488.1c-3.2,0-5.9-2.6-5.9-5.9c0-3.2,2.6-5.9,5.9-5.9c3.2,0,5.9,2.6,5.9,5.9        C316.2,485.5,313.6,488.1,310.4,488.1z M310.4,479.2c-1.6,0-3,1.3-3,3c0,1.6,1.3,3,3,3c1.6,0,3-1.3,3-3        C313.3,480.6,312,479.2,310.4,479.2z"></path>						</g>					</g>				</g>			</g>			<g>				<g>					<g>						<g>							<path class="st9" d="M327.7,482.2c0,2.4-2,4.4-4.4,4.4c-2.4,0-4.4-2-4.4-4.4s2-4.4,4.4-4.4        C325.8,477.8,327.7,479.8,327.7,482.2z"></path>							<path class="st11" d="M323.3,488.1c-3.2,0-5.9-2.6-5.9-5.9c0-3.2,2.6-5.9,5.9-5.9c3.2,0,5.9,2.6,5.9,5.9        C329.2,485.5,326.5,488.1,323.3,488.1z M323.3,479.2c-1.6,0-3,1.3-3,3c0,1.6,1.3,3,3,3c1.6,0,3-1.3,3-3        C326.3,480.6,325,479.2,323.3,479.2z"></path>						</g>					</g>				</g>			</g>		</g>	</g></g></svg>