<svg xmlns="http://www.w3.org/2000/svg" xmlns:xlink="http://www.w3.org/1999/xlink" transform="scale(1)" id="Layer_1" x="0px" y="0px" viewBox="0 0 500 500" xml:space="preserve" class="show_show__wrapper__graphic__5Waiy "><title>React</title><style type="text/css">	.st0{fill:#D1D3D4;}	.st1{fill:#ff0000;}	.st2{fill:#FFFFFF;}	.st3{fill:#0d2690;}</style><g id="lines"><path class="st0" d="M332.7,285.8c-0.2,0-0.5-0.1-0.6-0.3l-23.5-33.8c-0.2-0.3-0.2-0.8,0.2-1c0.3-0.2,0.8-0.2,1,0.2l23.5,33.8  c0.2,0.3,0.1,0.8-0.2,1C333,285.7,332.9,285.8,332.7,285.8z"></path><path class="st0" d="M333.4,92.2c-0.2,0-0.3-0.1-0.5-0.2c-0.3-0.3-0.3-0.7-0.1-1l25.3-32.8c0.2-0.3,0.7-0.4,1-0.1c0,0,0,0,0,0  c0.3,0.3,0.4,0.7,0.1,1L334,91.9C333.9,92.1,333.6,92.2,333.4,92.2z"></path><path class="st0" d="M176.3,283.7c-0.2,0-0.3-0.1-0.5-0.2c-0.3-0.2-0.4-0.7-0.1-1l16-20.6c0.2-0.3,0.7-0.4,1-0.2s0.4,0.7,0.2,1  c0,0,0,0.1-0.1,0.1l-16,20.6C176.7,283.6,176.5,283.7,176.3,283.7z"></path><path class="st0" d="M260.5,348.8c-0.4,0-0.7-0.3-0.8-0.7l-4.7-83.5c0-0.4,0.3-0.8,0.7-0.8c0.4,0,0.8,0.3,0.8,0.7l4.7,83.5  C261.3,348.4,260.9,348.7,260.5,348.8C260.5,348.7,260.5,348.8,260.5,348.8L260.5,348.8z"></path><path class="st0" d="M248.1,97.5c-0.4,0-0.8-0.3-0.8-0.8V47.7c0-0.4,0.3-0.8,0.8-0.8s0.8,0.3,0.8,0.8v49.1  C248.9,97.1,248.6,97.5,248.1,97.5z"></path><path class="st0" d="M151.8,89.4c-0.2,0-0.5-0.1-0.6-0.3l-14.3-19.6c-0.3-0.3-0.2-0.8,0.1-1.1c0.3-0.3,0.8-0.2,1.1,0.1  c0,0,0,0.1,0.1,0.1l14.3,19.6c0.2,0.3,0.2,0.8-0.2,1c0,0,0,0,0,0C152.1,89.4,152,89.4,151.8,89.4z"></path></g><g id="Character_man_and_puzzle"><polygon class="st1" points="137.6,240 178.2,411.7 142.9,420.2 104.1,281.5 92.9,423.8 56.3,421.9 55,223.1  "></polygon><path class="st2" d="M126.6,151.7c-0.2,0.9,71.3,11.3,71.3,11.3l-5.2,22.8c0,0-46.9-5.2-71.8-9.1L126.6,151.7z"></path><path class="st1" d="M192.7,186.4L192.7,186.4c-0.6,0-47.3-5.2-71.9-9.1c-0.2,0-0.4-0.2-0.5-0.3c-0.1-0.2-0.2-0.4-0.1-0.6l5.6-24.9  l0,0c0.1-0.4,0.5-0.6,0.9-0.6c0.1,0,0.2,0.1,0.3,0.2c2.8,1,43.8,7.2,70.9,11.1c0.2,0,0.4,0.1,0.5,0.3c0.1,0.2,0.2,0.4,0.1,0.6  l-5.2,22.8C193.3,186.2,193,186.4,192.7,186.4z M121.8,175.9c23.1,3.7,64.5,8.3,70.3,9l4.9-21.4c-53.4-7.7-66.5-10.1-69.8-11  L121.8,175.9z M127.3,151.7c0,0.1,0,0.1,0,0.2l0,0C127.3,151.8,127.3,151.7,127.3,151.7L127.3,151.7z"></path><path class="st3" d="M85.5,142.5c0.3-0.9,43.6,8.4,43.6,8.4l-1.6,32.5l-29.7-10.6C97.9,172.8,83.6,148.5,85.5,142.5z"></path><path class="st3" d="M114.1,162c-0.6-1.8-8.9-19.9-32.8-20.5s-33.8-1.6-38.9,28.5c-5.3,31.8,11.3,87.6,11.3,87.6L145,237  C145,237,120.4,179.1,114.1,162z"></path><path class="st2" d="M232.4,119.1l3.4,27.5c-13-1.7-23.4,3-28.7,13.1c-5.5,10.4-4,23.1,3.8,32c7.9,8.8,19.2,11.1,31.4,6.2l4.1,33.1  l-122.4,15.3l-14-112c1.9-0.2,29.1-3.6,38.8-4.8c4.7-0.5,8.1-4.7,7.5-9.4c0-0.4-0.1-0.8-0.2-1.1c-0.5-1.7-1.1-3.3-1.9-4.9  c-3.9-7.6-2.8-16.2,3.1-22.1c5.7-5.8,14.6-7.2,21.8-3.5c7.4,3.8,11.5,12,10,20.3c-0.3,1.6-0.6,3.1-0.9,4.7  c-0.8,5.3,3.9,11.4,10.3,10C204.7,122.2,225.7,120,232.4,119.1z"></path><path class="st1" d="M123.9,247.1c-0.2,0-0.3-0.1-0.5-0.1c-0.2-0.1-0.3-0.3-0.3-0.5l-14-112c0-0.2,0-0.4,0.2-0.6  c0.1-0.2,0.3-0.3,0.5-0.3l2.1-0.3l36.7-4.6c2.3-0.3,4.3-1.5,5.6-3.4c1.2-1.8,1.6-4.1,1.1-6.2c-0.4-1.7-1.1-3.2-1.8-4.8  c-4.1-7.9-2.8-16.9,3.2-23c6-6.1,15.2-7.5,22.7-3.6c7.7,4,11.9,12.5,10.4,21.1c-0.1,0.7-0.3,1.4-0.4,2.1c-0.2,0.9-0.4,1.8-0.5,2.6  c-0.3,2.7,0.6,5.4,2.6,7.3c1.8,1.8,4.4,2.5,6.8,1.9c4.7-1,17.4-2.4,26.7-3.5c3-0.3,5.6-0.6,7.3-0.8c0.4-0.1,0.8,0.2,0.8,0.6  c0,0,0,0,0,0l3.4,27.5c0,0.2-0.1,0.5-0.2,0.6c-0.2,0.2-0.4,0.2-0.6,0.2c-12.6-1.7-22.8,3-28,12.8c-5.3,10.2-3.9,22.5,3.6,31.2  c7.6,8.6,18.8,10.8,30.6,6c0.2-0.1,0.5-0.1,0.7,0.1c0.2,0.1,0.3,0.3,0.4,0.6L247,231c0.1,0.4-0.2,0.8-0.6,0.8c0,0,0,0,0,0  L123.9,247.1L123.9,247.1z M110.8,135l13.8,110.5l120.9-15l-3.9-31.4c-12.1,4.5-23.4,2-31.3-6.8c-7.9-9.1-9.4-22.2-3.9-32.9  c5.4-10.1,15.7-15.1,28.5-13.6l-3.2-25.8l-6.6,0.8c-8.7,1-21.9,2.5-26.5,3.5c-2.9,0.7-6-0.2-8.1-2.3c-2.3-2.2-3.5-5.4-3.1-8.6  c0.1-0.9,0.3-1.8,0.5-2.7c0.1-0.7,0.3-1.3,0.4-2c1.4-7.9-2.5-15.8-9.6-19.5c-7-3.6-15.5-2.3-21,3.3c-5.6,5.7-6.8,13.8-3,21.3  c0.8,1.6,1.5,3.3,2,5.1c0.7,2.5,0.2,5.3-1.3,7.4c-1.5,2.3-3.9,3.7-6.6,4.1c-8.4,1.1-29.7,3.7-36.7,4.6L110.8,135z"></path><path class="st2" d="M92.5,153.8v-10.7c0,0,15.4,3.1,13.4-14.3s-8.6-24.4-9.7-24.1l-21.5,6.4L72.6,152  C72.6,152,83.3,168.6,92.5,153.8z"></path><path class="st1" d="M83.9,160.7c-6.5,0-11.7-8-12-8.3c-0.1-0.1-0.1-0.3-0.1-0.4l2.1-40.8c0-0.3,0.2-0.6,0.5-0.7L96,104  c0.5-0.1,0.9,0,1.3,0.3c2.8,1.8,7.8,10.1,9.4,24.4c0.7,5.7-0.5,9.9-3.3,12.5c-3.4,3.1-8.2,3-10.1,2.7v9.8c0,0.1,0,0.3-0.1,0.4  C90.5,158.4,87.4,160.6,83.9,160.7L83.9,160.7z M73.4,151.7c0.8,1.2,5.4,7.4,10.6,7.4l0,0c2.8,0,5.4-1.9,7.8-5.6v-10.4  c0-0.2,0.1-0.4,0.3-0.6c0.2-0.1,0.4-0.2,0.6-0.2c0.1,0,6,1.2,9.7-2.2c2.4-2.2,3.4-6,2.8-11.2c-1.9-16.8-7.9-23-8.9-23.4l-20.9,6.3  L73.4,151.7z M92.5,153.7L92.5,153.7z"></path><path class="st2" d="M75.6,122.6c-0.7-3.3-5.6-4.4-8.1-2.1s-1.9,6.8,0.8,8.9c2.7,2.1,6.7,1.9,9.4-0.1"></path><path class="st1" d="M72.8,131.6c-1.8,0-3.6-0.6-5-1.7c-1.6-1.3-2.5-3.2-2.6-5.2c-0.1-1.8,0.5-3.5,1.8-4.8c1.5-1.4,3.7-1.8,5.7-1.2  c1.8,0.5,3.2,1.9,3.7,3.7c0.1,0.4-0.2,0.8-0.6,0.9c-0.4,0.1-0.8-0.2-0.9-0.6c-0.3-1.3-1.3-2.2-2.6-2.5c-1.4-0.5-3-0.2-4.2,0.8  c-0.9,1-1.4,2.3-1.3,3.7c0.1,1.6,0.8,3.1,2,4.1c2.6,1.8,6,1.7,8.5-0.1c0.3-0.2,0.8-0.1,1,0.2c0.2,0.3,0.1,0.8-0.2,1  C76.5,131,74.7,131.6,72.8,131.6z"></path><path class="st2" d="M89.9,118.5c1.3,1.7,2.5,3.4,3.7,5.2c0.7,0.8,0.9,1.8,0.7,2.8c-0.4,0.8-1.1,1.3-2,1.5c-0.7,0.3-1.5,0-2-0.5"></path><path class="st1" d="M91.6,128.8c-0.8,0.1-1.6-0.3-2-1c-0.2-0.4-0.1-0.8,0.3-1s0.8-0.1,1,0.3c0.2,0.2,0.7,0.3,1.2,0.2  c0.6-0.1,1.2-0.4,1.5-1c0.2-0.6-0.2-1.4-0.7-2.1c-1.1-1.8-2.3-3.5-3.6-5.1c-0.2-0.3-0.2-0.7,0.1-1c0.3-0.2,0.7-0.2,1,0.1  c1.3,1.7,2.6,3.4,3.7,5.2c0.8,1,1.1,2.2,0.8,3.4c-0.5,1-1.5,1.8-2.6,1.9C92.1,128.8,91.8,128.8,91.6,128.8z"></path><ellipse class="st1" transform="matrix(1 -1.047197e-03 1.047197e-03 1 -0.1229 8.925720e-02)" cx="85.2" cy="117.4" rx="0.9" ry="1.3"></ellipse><ellipse class="st1" transform="matrix(0.9961 -8.854660e-02 8.854660e-02 0.9961 -9.9409 8.9085)" cx="95.4" cy="116.5" rx="0.9" ry="1.3"></ellipse><path class="st1" d="M62.7,124.7c-1.1,0-2.5-0.6-3.9-3.1c-1.5-2.4-2.6-5.1-3.2-7.9c-0.6-3,0.2-6.1,2.2-8.4c1.8-1.9,4.5-2.5,7-1.6  c-0.2-3.9,1.1-7.8,3.7-10.8c3-3.6,7.1-6,10.4-7.7c4.6-2.4,9.5-4.3,14.5-5.8c3.2-0.9,6.7-1.7,9.9-0.7c5.6,1.7,8.4,7.8,8.7,12.8  c0.4,7.5-3.3,14.5-9.5,18.6c-0.4,0.2-0.8,0.1-1-0.2c-0.2-0.4-0.1-0.8,0.2-1c5.8-3.8,9.1-10.4,8.8-17.3c-0.3-4.5-2.8-10-7.6-11.4  c-2.9-0.9-6.1-0.2-9.1,0.7c-4.9,1.4-9.7,3.3-14.3,5.7c-3.1,1.6-7.1,3.9-9.9,7.3s-3.9,7.6-3.1,11.2c0.1,0.3-0.1,0.7-0.3,0.8  c-0.3,0.2-0.6,0.1-0.9-0.1c-1.7-1.5-4.7-1.2-6.5,0.7c-1.7,2-2.4,4.6-1.8,7.1c0.6,2.6,1.6,5.1,3.1,7.4c0.7,1.2,1.7,2.5,2.8,2.3  c0.4-0.1,0.8,0.2,0.9,0.6c0.1,0.4-0.2,0.8-0.6,0.9C63.1,124.8,62.9,124.8,62.7,124.7z"></path><path class="st1" d="M92.5,143.1c0,0-6.7-1.7-10.9-4.3c0,0-0.2,7.1,10.7,10.5L92.5,143.1z"></path><path class="st1" d="M92.4,150c-0.1,0-0.1,0-0.2,0C80.9,146.5,81,139.1,81,138.8c0-0.4,0.3-0.7,0.7-0.7c0.1,0,0.2,0,0.3,0.1  c4,2.5,10.6,4.2,10.7,4.2c0.3,0.1,0.5,0.4,0.5,0.7l-0.1,6.2c0,0.2-0.1,0.4-0.3,0.6C92.7,150,92.5,150,92.4,150z M82.5,140.1  c0.5,2,2.3,5.9,9.2,8.3l0.1-4.8C88.6,142.8,85.5,141.6,82.5,140.1L82.5,140.1z"></path><path class="st2" d="M64.1,195c0,0,37.8,43.5,61.3,32.7s58.2-53.5,58.2-53.5s10.9-11.4,8.8-12s-9.4,6.3-9.4,6.3s8.1-9.7,5-9.7  s-9.1,7.2-9.1,7.2s9.7-10.9,5.6-10.3s-9.1,6.6-9.1,6.6s9.7-9.4,5.9-9.1s-13.8,9.7-13.8,9.7s4.1-9.4,0.9-9.1s-3.8,8.8-8.4,13.1  s-35,33.5-40.7,33.1s-30.7-27.2-30.7-27.2"></path><path class="st1" d="M117.1,230.1c-23.1,0-52.2-33.1-53.6-34.7c-0.3-0.3-0.2-0.8,0.1-1.1c0.3-0.3,0.8-0.2,1.1,0.1l0,0  c0.4,0.4,37.7,42.9,60.4,32.5c23-10.6,57.6-52.8,57.9-53.3c4-4.2,8.3-9.3,8.8-10.9c-1.4,0.2-5.3,3.2-8.3,6.1  c-0.3,0.2-0.8,0.2-1.1-0.2c-0.2-0.2-0.2-0.6,0-0.8c3.1-3.6,5.5-7.4,5.6-8.4c-1.8,0.1-5,3.1-7.3,5.6c-0.4,0.5-0.8,0.9-1.2,1.4  c-0.3,0.3-0.8,0.3-1.1,0.1c-0.3-0.3-0.3-0.8-0.1-1.1c0.1-0.2,0.5-0.6,1.1-1.3c3-3.5,5.2-6.8,5.4-7.8h-0.1c-1.9,0.3-4.1,1.9-5.7,3.4  c-0.9,1-2,2-2.9,3c-0.3,0.3-0.8,0.2-1.1-0.1c-0.2-0.3-0.2-0.6,0-0.9c0.9-1,1.8-2,2.8-2.9c1.9-2.1,3.6-4.1,3.8-5l0,0  c-2.9,0.2-10.6,6.9-13.3,9.5c-0.3,0.3-0.7,0.3-1,0.1c-0.3-0.2-0.4-0.6-0.2-0.9c1.4-3.2,2.5-7.2,1.9-8c0,0,0,0-0.2,0  c-1.1,0.1-2.1,2.3-3.1,4.7c-1.1,2.7-2.5,6-4.9,8.2l-1.6,1.5c-23,21.7-35.6,31.8-39.5,31.9h-0.1c-5.8-0.3-28.6-24.7-31.2-27.4  c-0.3-0.3-0.3-0.8,0-1.1c0.3-0.3,0.8-0.3,1.1,0c10,10.7,26.2,26.8,30.1,27c2.2,0.1,10.7-5.2,38.5-31.4l1.6-1.5  c2.2-2.1,3.5-5.1,4.6-7.7c1.3-3,2.3-5.4,4.3-5.6c0.6-0.1,1.2,0.2,1.6,0.6c0.9,1.2,0.2,4.1-0.6,6.5c3.3-2.9,9-7.5,11.9-7.8  c0.6-0.1,1.3,0.2,1.6,0.7c0.3,0.6,0,1.4-0.7,2.5c0.7-0.3,1.4-0.6,2.2-0.7c0.6-0.2,1.3,0.1,1.7,0.6c0.4,0.7-0.1,2-1,3.5  c0.8-0.6,1.8-1,2.8-1.1c0.6,0,1.1,0.3,1.3,0.8c0.4,0.9-0.4,2.8-1.7,4.8c1.9-1.4,3.8-2.4,5-2.1c0.4,0.1,0.7,0.4,0.8,0.8  c0.5,2-5.5,8.7-9.2,12.5c0,0.1-8.8,10.8-20.3,22.7c-15.5,16-28.3,26.4-38.1,30.9C123,229.6,120.1,230.2,117.1,230.1z"></path><path class="st1" d="M97.2,135c-0.2,0.2-0.3,0.5-0.5,0.7c-4.3,5.1-9.4,0.4-12.2-3.4c0.3,0.4,6.1-1.3,6.7-1.4l7.2-1.5  C98.9,131,98.2,133.4,97.2,135z"></path><path class="st2" d="M142.9,418.8l1.2,13.2c0,0,61.7-8.7,59.1-11.3s-25-9.1-25-9.1"></path><path class="st1" d="M144.1,432.8c-0.2,0-0.3-0.1-0.5-0.2c-0.2-0.1-0.3-0.3-0.3-0.5l-1.2-13.3c0-0.4,0.3-0.8,0.7-0.8  s0.8,0.3,0.8,0.7l1.1,12.5c20.7-2.9,52.9-8.1,57.4-10.3c-3.1-2-15.8-6.1-24.2-8.5c-0.4-0.1-0.6-0.5-0.5-0.9  c0.1-0.4,0.5-0.6,0.9-0.5c2.3,0.7,22.7,6.6,25.3,9.3c0.3,0.3,0.4,0.6,0.2,1c-0.3,0.8-0.7,2.2-30.5,7.1c-14.5,2.4-29.1,4.4-29.2,4.5  L144.1,432.8z"></path><path class="st2" d="M92.9,423.8v10.8L37,435c0,0,9.8-9.4,19.2-13.1"></path><path class="st1" d="M37,435.8c-0.3,0-0.6-0.2-0.7-0.5c-0.1-0.3-0.1-0.6,0.2-0.8c0.4-0.4,10.1-9.5,19.5-13.3c0.4-0.2,0.8,0,1,0.4  c0,0,0,0,0,0c0.2,0.4,0,0.8-0.4,1c0,0,0,0-0.1,0c-7,2.8-14.5,9-17.5,11.7l53.1-0.5v-10.1c0-0.4,0.3-0.8,0.8-0.8s0.8,0.3,0.8,0.8  v10.8c0,0.4-0.3,0.7-0.8,0.8L37,435.8z"></path><path class="st2" d="M97.2,280.5c-4.2,0-6.9-0.1-6.9-0.1c-0.4,0-0.7-0.4-0.7-0.8c0,0,0,0,0,0c0-0.4,0.4-0.7,0.8-0.7c0,0,0,0,0,0  c7.7,0.3,15.4,0.1,23-0.6c0.4-0.1,0.8,0.2,0.9,0.6s-0.2,0.8-0.6,0.9c0,0-0.1,0-0.1,0C107.3,280.3,101.5,280.5,97.2,280.5z"></path><path class="st1" d="M60.2,191.6c-0.2,0-0.5-0.1-0.6-0.3c-6.1-8.1-10.9-15.6-11-15.7c-0.2-0.4-0.1-0.8,0.2-1c0.4-0.2,0.8-0.1,1,0.2  c0,0.1,4.9,7.6,10.9,15.6c0.2,0.3,0.2,0.8-0.2,1C60.5,191.5,60.3,191.6,60.2,191.6z"></path></g><g id="Character_women_and_puzzle"><path class="st2" d="M369.6,284.8l-34.2,124.3c0,0-27,6.3-26.4,8s42.5,7.4,42.5,7.4l42.6-128.8"></path><path class="st1" d="M351.6,425.3h-0.1c-42.4-5.7-43-7.4-43.1-7.9c-0.1-0.3,0-0.5,0.1-0.8c1.1-2,18.5-6.2,26.4-8.1l34.1-123.9  c0.1-0.4,0.6-0.6,1-0.4c0.3,0.1,0.5,0.5,0.5,0.8l-34.2,124.3c-0.1,0.3-0.3,0.5-0.6,0.5c-10.8,2.5-22.5,5.7-25.3,7.1  c4.4,1.5,26.5,4.8,40.8,6.7l42.4-128.2c0.1-0.4,0.5-0.6,0.9-0.5c0.4,0.1,0.6,0.5,0.5,0.9c0,0,0,0.1,0,0.1l-42.6,128.8  C352.2,425.1,351.9,425.3,351.6,425.3z"></path><path class="st2" d="M442.6,279.6l8.9,144.9c0,0-42.2,9.1-42.3,8s22.7-17.4,22.7-17.4l-17.2-133.8"></path><path class="st1" d="M409.5,433.4c-0.2,0-0.5,0-0.7-0.1c-0.2-0.1-0.3-0.3-0.4-0.5c-0.1-0.5-0.2-1.5,22.7-17.8l-17.2-133.4  c-0.1-0.4,0.2-0.8,0.6-0.8c0,0,0,0,0,0c0.4-0.1,0.8,0.2,0.8,0.6c0,0,0,0,0,0l17.2,133.9c0,0.3-0.1,0.5-0.3,0.7  c-7.1,5-18,13-21.4,16c5.8-0.7,26.3-5,39.8-7.9l-8.8-144.3c0-0.4,0.3-0.8,0.7-0.8c0.4,0,0.8,0.3,0.8,0.7l8.9,145  c0,0.4-0.2,0.7-0.6,0.8C426.9,430.6,412.7,433.4,409.5,433.4z"></path><path class="st2" d="M374.4,158.7c-2.2,0.7-4.3,1.3-6.5,1.9c-17.4,4.6-35.2,7.3-53.2,6.8c-6-0.1-14,0-19.5-2.6  c-4.3-2-8.3-5.6-12.3-8.2c-1-0.7-2.6-1.2-3.2-0.1c-0.4,0.8,0.2,1.8,0.9,2.4c2.3,2.3,4.8,4.5,7.4,6.4c-5.1-0.9-10.3-1.3-15.5-1.4  c-0.2,0-0.5,0-0.7,0.1c-0.6,0.4,0.2,1.3,0.9,1.6c1.6,0.6,3.2,1.2,4.9,1.6c-1.6-0.5-3.2-0.8-4.8-0.8c-0.7,0-1.6,0.1-1.9,0.7  c-0.4,0.9,0.7,1.8,1.6,2.2c1.5,0.6,3.1,1.2,4.7,1.6c-1.9,0-3.7,0.2-5.5,0.7c-0.3,0.1-0.6,0.2-0.8,0.5c-0.2,0.2-0.2,0.5-0.2,0.8  c0.1,1.5,1.7,2.6,3.2,2.9c1.5,0.2,3.1,0.5,4.6,0.8c-1.4,0.1-2.8-0.4-4.2-0.3s-2.9,1.2-2.6,2.6c0.2,1.2,1.7,1.7,2.8,1.9  c23.3,5.2,47.2,7.3,71.1,6c11.9-0.6,23.8-2,35.5-4.2c10.6-2,21.5-3.7,28.6-12.6c0.5-0.7,1-1.4,1.5-2.1c1.6-2.4,2.9-5.2,2.3-8  c-1.8-8.6-13.2-7.8-19.7-6.6S380.8,156.7,374.4,158.7z"></path><path class="st1" d="M331.7,187.8c-19.3,0-38.6-2.1-57.4-6.4c-1.3-0.3-3.1-0.9-3.4-2.5c-0.1-0.7,0-1.4,0.5-2  c0.3-0.4,0.7-0.7,1.1-0.9c-1.4-0.5-2.3-1.7-2.5-3.2c-0.1-0.5,0-0.9,0.3-1.3c0.3-0.4,0.7-0.6,1.2-0.7c0.6-0.2,1.3-0.3,1.9-0.4  c-0.4-0.1-0.8-0.3-1.2-0.4c-0.9-0.3-1.6-1-2.1-1.8c-0.2-0.4-0.2-0.9,0-1.4c0.3-0.5,0.8-0.9,1.3-1c-0.3-0.3-0.5-0.7-0.6-1.1  c-0.1-0.4,0.1-0.9,0.5-1.2c0.3-0.2,0.7-0.3,1.1-0.3c4.2,0,8.5,0.4,12.7,0.9c-1.8-1.4-3.5-3-5.1-4.6c-1.5-1.5-1.4-2.6-1-3.3  c0.2-0.5,0.7-0.8,1.2-0.9c1.1-0.1,2.2,0.2,3.1,0.8c1.4,0.9,2.7,1.9,4.1,2.9c2.5,2,5.2,3.7,8.1,5.2c4.7,2.2,11.5,2.3,17,2.4h2.2  c16.7,0.4,34.1-1.8,53-6.8c1.9-0.5,3.9-1.1,6.5-1.9l0,0c1.2-0.4,2.5-0.8,3.7-1.2c5.1-1.7,10.4-3.2,15.7-4.3  c5.5-1.1,18.6-2.5,20.6,7.2c0.5,2.6-0.3,5.5-2.4,8.6c-0.5,0.7-1,1.4-1.6,2.1c-7.1,8.7-17.6,10.7-27.8,12.6l-1.3,0.2  c-11.8,2.2-23.7,3.6-35.6,4.2C340.9,187.7,336.3,187.8,331.7,187.8z M274.6,177h-0.3c-0.7,0.1-1.3,0.4-1.7,0.9  c-0.2,0.2-0.3,0.5-0.2,0.8c0.1,0.6,0.9,1.1,2.3,1.4c23.2,5.2,47.1,7.3,70.9,6c11.9-0.6,23.7-2,35.4-4.2l1.3-0.2  c9.9-1.9,20.1-3.8,26.9-12.1c0.5-0.6,1-1.3,1.5-2c1.9-2.8,2.6-5.3,2.2-7.5c-1.7-8.3-13.8-7-18.9-6c-5.3,1.1-10.4,2.5-15.5,4.3  c-1.2,0.4-2.5,0.8-3.7,1.2c-2.6,0.8-4.6,1.4-6.5,1.9c-19.1,5-36.6,7.2-53.5,6.8h-2.2c-5.6-0.1-12.6-0.2-17.6-2.6  c-2.9-1.5-5.7-3.3-8.3-5.4c-1.4-1-2.7-2-4-2.9c-0.5-0.4-1.2-0.6-1.9-0.6c-0.1,0-0.2,0.1-0.2,0.2c-0.2,0.3,0.1,0.9,0.8,1.5  c2.3,2.3,4.7,4.4,7.3,6.3c0.3,0.2,0.4,0.6,0.3,0.9c-0.1,0.3-0.5,0.5-0.8,0.4c-5.1-0.9-10.2-1.3-15.3-1.4c0.1,0.1,0.3,0.2,0.4,0.3  c1.1,0.4,2.1,0.8,3.2,1.1c0.5,0.1,1.1,0.3,1.6,0.4c0.4,0.1,0.6,0.5,0.5,0.9c-0.1,0.4-0.5,0.6-0.9,0.5c-0.5-0.1-1-0.3-1.5-0.4  c-1-0.2-2.1-0.4-3.1-0.4c-0.6,0-1.1,0.1-1.2,0.3c0,0.1,0,0.1,0,0.2c0.3,0.5,0.7,0.8,1.3,1c1.5,0.6,3.1,1.1,4.6,1.6  c0.4,0.1,0.6,0.5,0.5,0.8c-0.1,0.4-0.4,0.6-0.8,0.6c-1.8,0-3.6,0.2-5.3,0.7c-0.2,0-0.3,0.1-0.4,0.2c0,0.1,0,0.2,0,0.3  c0.1,1.1,1.4,2,2.6,2.3c0.6,0.1,1.2,0.2,1.8,0.3c0.9,0.1,1.9,0.3,2.8,0.6c0.3,0.1,0.5,0.5,0.5,0.8c-0.1,0.3-0.3,0.6-0.7,0.6  c-0.8,0-1.5,0-2.2-0.2C275.7,177.1,275.1,177,274.6,177z"></path><path class="st1" d="M326.5,408.6l5.7,8.7l22.2,2.6l-2.2,8.5c0,0-48.9-6.1-50-10.6S326.5,408.6,326.5,408.6z"></path><path class="st3" d="M386.4,145.8c0,0-15.4,3.6-20,13.2s0.9,60.5,0.9,60.5l68.2,2.9c0,0,7-37.5,3.6-53.6S422,131.2,386.4,145.8z"></path><path class="st2" d="M388.4,137.2l-4.4,14.3c0,0,0.1,8.4,9.4,7.5c5.6-0.6,10.6-3.7,13.6-8.5l3.3-25.5c-1.5-1.2-2.4-2.9-2.7-4.8  c-0.2-1.4-0.2-2.8,0-4.2c0.1-0.5,0.7-3.7,1.3-3.8c-3.6,0.6-7.2-0.7-9.8-3.3c-1.3-1.5-2.4-3.2-3.2-5.1c-0.6-1.2-1.2-2.5-0.8-3.8  c-2.9,1.9-5.8,3.9-8.5,6c-1.5,1.1-2.9,2.4-4.1,3.8c-2,2.6-2.5,6.1-3,9.2c-0.6,3.7-0.9,7.5-0.8,11.2  C379.1,137.3,388.4,137.2,388.4,137.2z"></path><path class="st1" d="M392,159.7c-2.2,0.1-4.3-0.6-5.9-2c-1.7-1.6-2.7-3.9-2.8-6.2c0-0.1,0-0.1,0-0.2l4.1-13.4  c-3.6-0.2-9.1-2-9.3-7.7c-0.1-3.8,0.2-7.6,0.8-11.3c0.5-3,1-6.8,3.1-9.6c1.2-1.5,2.7-2.9,4.2-4c2.8-2.1,5.6-4.2,8.6-6  c0.2-0.2,0.6-0.2,0.8,0c0.2,0.2,0.3,0.5,0.2,0.8c-0.1,1.1,0.1,2.3,0.8,3.3c0.8,1.8,1.8,3.4,3.1,4.9c2.4,2.4,5.8,3.6,9.1,3.1  c0.4-0.1,0.8,0.2,0.8,0.6c0.1,0.3-0.1,0.6-0.4,0.8c-0.4,1-0.8,2.1-0.9,3.3c-0.2,1.3-0.2,2.7,0,4c0.2,1.7,1.1,3.2,2.4,4.3  c0.2,0.2,0.3,0.4,0.3,0.7l-3.3,25.5c0,0.1,0,0.2-0.1,0.3c-3.1,4.9-8.4,8.2-14.2,8.8C393,159.7,392.5,159.7,392,159.7z M384.8,151.6  c0.1,1.9,0.9,3.7,2.3,5.1c1.5,1.3,3.6,1.9,6.3,1.6c5.3-0.6,10.1-3.6,13-8l3.2-25c-1.4-1.3-2.3-3.1-2.6-5c-0.3-1.5-0.3-3,0-4.5  c0.1-1,0.4-1.9,0.7-2.8c-3.4,0.1-6.6-1.2-9-3.7c-1.4-1.6-2.5-3.3-3.3-5.2c-0.5-0.9-0.8-1.8-1-2.8c-2.5,1.6-4.9,3.4-7.3,5.2  c-1.5,1.1-2.8,2.3-4,3.7c-1.9,2.4-2.4,5.9-2.8,8.9c-0.6,3.7-0.9,7.4-0.8,11.1c0.2,6.4,8.5,6.3,8.8,6.3c0.2,0,0.4,0.1,0.6,0.3  c0.1,0.2,0.2,0.4,0.1,0.6L384.8,151.6z"></path><path class="st2" d="M405.4,122.8c0.4-1,1.2-1.9,2.1-2.5c0.9-0.5,1.9-0.8,2.9-1c0.6-0.2,1.1-0.2,1.7-0.1c0.4,0.1,0.8,0.3,1.1,0.6  c0.8,0.5,1.4,1.3,1.6,2.2c0.1,0.8,0,1.5-0.2,2.3c-0.2,0.8-0.5,1.6-0.9,2.3c-1.8,3-5.6,4-8.6,2.2c0,0-0.1,0-0.1-0.1"></path><path class="st1" d="M408.3,130.4c-1.3,0-2.6-0.3-3.7-1c-0.3-0.2-0.4-0.7-0.2-1c0.2-0.3,0.6-0.4,1-0.2c2.6,1.6,6,0.8,7.6-1.8  c0,0,0,0,0-0.1c0.4-0.7,0.7-1.4,0.9-2.1c0.2-0.6,0.3-1.3,0.2-1.9c-0.2-0.7-0.7-1.4-1.4-1.8c-0.2-0.2-0.5-0.3-0.8-0.4  c-0.5-0.1-0.9,0-1.4,0.1c-0.9,0.2-1.9,0.5-2.7,0.9c-0.8,0.5-1.5,1.3-1.8,2.2c-0.1,0.4-0.6,0.6-1,0.4c0,0,0,0,0,0  c-0.4-0.1-0.6-0.5-0.4-0.9c0,0,0,0,0-0.1c0.5-1.2,1.3-2.2,2.4-2.9c1-0.6,2.1-0.9,3.2-1.1c0.7-0.2,1.3-0.2,2-0.1  c0.5,0.1,0.9,0.4,1.3,0.7c0.9,0.6,1.6,1.6,1.9,2.7c0.1,0.9,0.1,1.8-0.2,2.6c-0.2,0.9-0.6,1.7-1,2.5c-1,1.6-2.5,2.8-4.4,3.2  C409.4,130.3,408.8,130.4,408.3,130.4z"></path><path class="st1" d="M386.2,143.8c3.3,0.8,6.8,0.2,9.7-1.8c4.5-3.3,4.6-7.4,4.6-7.4s-7,4.5-12.8,2.5L386.2,143.8z"></path><path class="st1" d="M389.1,144.8c-1.1,0-2.1-0.1-3.1-0.4c-0.3-0.1-0.5-0.5-0.5-0.8l1.5-6.6c0-0.2,0.2-0.4,0.3-0.5  c0.2-0.1,0.4-0.1,0.6-0.1c5.4,1.9,12.2-2.4,12.2-2.4c0.2-0.1,0.5-0.1,0.7,0c0.2,0.1,0.4,0.4,0.4,0.6c0,0.2-0.2,4.5-4.9,7.9  C394.2,144.1,391.7,144.9,389.1,144.8z M387,143.2c2.9,0.6,6-0.1,8.4-1.8c1.9-1.3,3.4-3.3,4.1-5.5c-2.2,1.2-7,3.2-11.4,2L387,143.2  z"></path><path class="st2" d="M394.1,112.7c0,0-5.9,6.2-5,7.6s4.2,1.1,4.2,1.1"></path><path class="st1" d="M392.6,122.2c-1.2,0-3.3-0.2-4.1-1.5c-1-1.6,2.2-5.5,5.1-8.6c0.3-0.3,0.8-0.2,1.1,0.1c0.2,0.3,0.2,0.6,0,0.9  c-2.7,2.9-5,6-4.9,6.8c0.5,0.7,2.5,0.8,3.5,0.7c0.4,0,0.8,0.3,0.8,0.7c0,0,0,0,0,0c0,0.4-0.3,0.8-0.7,0.8c0,0,0,0,0,0  C393.2,122.2,393,122.2,392.6,122.2z"></path><ellipse class="st1" transform="matrix(0.3733 -0.9277 0.9277 0.3733 145.7237 444.4608)" cx="401.8" cy="114.4" rx="1.7" ry="1.2"></ellipse><ellipse class="st1" transform="matrix(0.3733 -0.9277 0.9277 0.3733 137.2896 430.3421)" cx="387.2" cy="113.6" rx="1.7" ry="1.2"></ellipse><path class="st1" d="M385.1,125.2l11.7-0.4c0,0-0.3,8-7.1,8.5S385.1,125.2,385.1,125.2z"></path><path class="st1" d="M428.6,221.7c0,0,16.5,18.3,21,38.5c9.6,42.5,9.9,107.4,9.9,107.4l-124.9-8.9l29.6-140.4L428.6,221.7z"></path><path class="st1" d="M451.5,212.1c-2.5,0-5-0.4-7.3-1.2c-0.4-0.1-0.6-0.6-0.5-1c0.1-0.4,0.6-0.6,1-0.5c8.6,3,19.3-0.2,25.3-7.6  c5.7-7.1,7.2-17.8,3.6-26.7s-11.3-15.4-18.7-21.6c-1.3-1.1-2.6-2.2-3.9-3.3c-9.3-8-14.3-15.9-16.7-26.4c-2.3-9.8-5-20-10.3-27.5  c-4.5-6.2-15.3-13.3-23.4-10c-2.5,1.2-4.8,2.7-6.8,4.5c-0.2,0.1-0.4,0.2-0.6,0.2c-4.4-0.8-8.8-0.8-13.2-0.1  c-4.3,0.7-8.2,3-10.8,6.4c-2.7,3.8-3,8.8-2.8,12.2c0,0.4,0.2,2.8,1.5,2.9c0.4,0,0.7,0.4,0.7,0.8c0,0.4-0.4,0.7-0.8,0.7  c-1.6-0.2-2.7-1.8-2.8-4.3c-0.3-5.3,0.7-9.8,3-13.1c2.5-3.6,6.7-6.1,11.7-7.1c4.4-0.7,8.9-0.7,13.3,0c2.1-1.9,4.4-3.4,7-4.6  c8.9-3.6,20.3,3.8,25.2,10.6c5.5,7.7,8.2,18,10.6,28c2.4,10.1,7.2,17.8,16.3,25.6c1.3,1.1,2.6,2.2,3.9,3.3  c7.6,6.4,15.4,13,19.1,22.2c3.8,9.5,2.4,20.6-3.8,28.2C466.3,208.6,459.1,212,451.5,212.1z"></path><path class="st1" d="M455.4,426.5l-1.3-8.8l-25.7,7.1l-5-6.6c0,0-18.9,13.7-16.3,16.6S437.5,432.4,455.4,426.5z"></path><path class="st2" d="M257.6,118.3l33.6,1.5c-3.7,12.7-0.8,23.1,8.3,30c9.6,7,22.4,7.5,32.5,1.3c9.4-6,13.2-16.2,10.7-29l26.9,1.2  l-4.9,111.9l-112-4.9c0-0.9,0.1-1.7,0.1-2.6c0.5-10.9,1-21.7,1.4-32.6c0.1-1.7-0.2-3.3-0.8-4.9c-1.1-2.7-3.7-3.6-6.4-2.3  c-7.4,3.5-16.8,1.1-22.1-5.7c-5.3-6.9-5.2-16.4,0.2-23.2c5.2-6.6,14.3-8.7,21.9-5c5.3,2.6,8.9,0.6,9.2-5.4  c0.5-9.4,0.9-18.9,1.3-28.3C257.6,119.7,257.6,119.2,257.6,118.3z"></path><path class="st1" d="M364.7,235.8L364.7,235.8l-112-4.9c-0.2,0-0.4-0.1-0.5-0.2c-0.1-0.1-0.2-0.3-0.2-0.5l0.5-10.6  c0.4-8.1,0.7-16.4,1-24.6c0.1-1.6-0.2-3.1-0.7-4.6c-0.3-1-1.1-1.7-2-2.1c-1.1-0.4-2.3-0.3-3.4,0.2c-7.8,3.6-17.4,1.2-23-5.9  c-5.5-7.1-5.4-17.1,0.2-24.1c5.4-6.9,14.9-9.1,22.8-5.2c2.4,1.2,4.4,1.3,5.8,0.5s2.2-2.6,2.3-5.2c0.4-6.6,0.6-13.4,0.9-19.9  c0.1-2.8,0.2-5.6,0.4-8.4l0.1-2c0-0.4,0.3-0.7,0.7-0.7c0,0,0,0,0,0l33.6,1.5c0.2,0,0.4,0.1,0.6,0.3c0.1,0.2,0.2,0.4,0.1,0.7  c-3.6,12.4-0.9,22.5,8,29.2c9.3,6.8,21.8,7.3,31.7,1.3c9.1-5.8,12.8-15.8,10.3-28.3c0-0.2,0-0.5,0.2-0.6c0.2-0.2,0.4-0.3,0.6-0.3  l26.9,1.2c0.4,0,0.7,0.4,0.7,0.8c0,0,0,0,0,0l-4.9,111.8C365.4,235.5,365.1,235.8,364.7,235.8z M253.5,229.5l110.5,4.8l4.8-110.3  l-25.2-1.1c2.2,12.7-1.7,22.9-11.2,28.9c-10.4,6.4-23.5,5.8-33.4-1.3c-9.2-6.9-12.2-17.2-8.8-29.9l-31.9-1.4l0,1.2l-0.4,8.4  c-0.3,6.5-0.5,13.3-0.9,19.9c-0.2,3.1-1.2,5.4-3.1,6.4s-4.3,0.9-7.2-0.5c-7.3-3.6-16-1.6-21,4.8c-5.2,6.5-5.3,15.7-0.2,22.3  c5.1,6.5,14,8.8,21.2,5.4c1.4-0.7,3.1-0.8,4.6-0.3c1.3,0.6,2.4,1.6,2.8,3c0.6,1.6,0.9,3.4,0.9,5.1c-0.3,8.2-0.7,16.6-1,24.6  L253.5,229.5z"></path><path class="st2" d="M410.2,156.3c-0.9,1.5-1.7,3.1-2.5,4.7c-6.9,14.6-15.9,32.6-33.9,35.2c-12.6,1.8-25.5-0.6-37.4-4.8  c-3.7-1.2-7.2-3-10.4-5.2c-3.8-2.9-7-7.2-10.3-10.6c-0.9-0.9-2.3-1.7-3.1-0.8c-0.6,0.7-0.1,1.8,0.3,2.5c1.7,2.8,3.7,5.4,5.9,7.8  c-2.7-1.1-5.4-2-8.2-2.9c-1.3-0.4-6.1-2.1-7.4-2c-0.5,0-0.9,0.2-1.3,0.4c-0.4,0.3-0.5,0.8-0.3,1.2c0.1,0.2,0.3,0.3,0.5,0.4  c1.9,1.2,3.9,2.2,6.1,2.8c-1.9-0.9-3.9-1.5-6-1.6c-0.9,0-2,0.1-2.3,1s0.6,1.8,1.4,2.3c1.8,1.1,3.8,2,5.9,2.7  c-1.6-0.8-3.3-1.5-5-2.1c-1.1-0.4-2.5-0.6-3.1,0.4c-0.4,0.6-0.4,1.4,0,2c0.4,0.6,1,1.1,1.6,1.4c1.7,1,3.4,1.9,5.3,2.5l-5.2-1.7  c-0.7-0.4-1.6-0.4-2.3,0c-0.8,0.6-0.5,2,0.1,2.8c1.1,1.6,3,2.2,4.7,3.1c2.3,1.1,4.7,2.1,7.1,3c16.2,6.3,30.3,15.3,48,16.8  c19.6,1.6,41.6-3.7,56.2-17.4c8.8-8.3,18-22.7,16.4-35.5c-0.5-4.2-1.2-10-4.9-12.7c-3.9-2.9-11.1-1.5-14.3,1.9  C411.4,154.6,410.8,155.4,410.2,156.3z"></path><path class="st1" d="M365.8,218.6c-2.4,0-4.8-0.1-7.2-0.3c-12.8-1.1-23.5-5.9-34.8-11c-4.4-2-8.9-4-13.5-5.8l-1.5-0.6  c-1.9-0.7-3.8-1.5-5.7-2.4c-0.3-0.2-0.6-0.3-0.9-0.5c-1.6-0.6-2.9-1.6-4-2.9c-0.9-1.2-1.1-2.9,0-3.9c0.3-0.2,0.7-0.4,1.1-0.4  c-0.3-0.2-0.5-0.5-0.7-0.8c-0.6-0.9-0.6-2,0-2.9c0.3-0.4,0.8-0.7,1.3-0.9c-0.6-0.6-0.8-1.4-0.5-2.2c0.4-0.9,1.3-1.5,2.2-1.5  c-0.2-0.1-0.3-0.3-0.5-0.5c-0.4-0.7-0.2-1.7,0.4-2.2c0.5-0.4,1.1-0.6,1.8-0.6c1-0.1,3.6,0.8,6.3,1.6c0.6,0.2,1,0.3,1.3,0.4  c1.8,0.6,3.7,1.2,5.5,1.8c-1.5-1.8-2.8-3.7-4-5.6c-1.1-1.8-0.8-2.9-0.3-3.4c0.3-0.4,0.8-0.6,1.4-0.6c1.1,0.1,2.1,0.6,2.9,1.4  c1.1,1.2,2.3,2.4,3.4,3.7c2.1,2.5,4.3,4.8,6.8,6.8c3.1,2.2,6.6,3.9,10.2,5.1c13.5,4.8,26,6.4,37.1,4.8c18.1-2.6,27.2-22,33.3-34.8  c0.7-1.6,1.6-3.2,2.5-4.8l0,0c0.6-0.9,1.2-1.8,2-2.6c3.4-3.5,10.9-5.2,15.3-1.9c3.9,2.9,4.6,8.8,5.1,13v0.2  c1.6,12.7-7.2,27.3-16.6,36.2C403.2,212.2,385.1,218.6,365.8,218.6z M299.7,192.4c-0.2,0-0.3,0-0.5,0.1c-0.4,0.3-0.2,1.2,0.3,1.8  c0.9,1.1,2.1,1.9,3.4,2.4l1,0.5c1.8,0.9,3.6,1.7,5.5,2.3l1.5,0.6c4.6,1.8,9.2,3.9,13.5,5.8c11.2,5.1,21.7,9.9,34.3,10.9  c21.5,1.8,42.3-4.6,55.6-17.2c9.1-8.6,17.7-22.7,16.2-34.9v-0.2c-0.5-4-1.2-9.5-4.5-12c-3.7-2.7-10.4-1.3-13.3,1.8  c-0.7,0.7-1.3,1.5-1.8,2.4l0,0c-0.9,1.5-1.7,3-2.4,4.6c-6.2,13.1-15.6,32.9-34.5,35.7c-11.3,1.6-24,0-37.8-4.8  c-3.8-1.3-7.3-3.1-10.6-5.4c-2.5-2.1-4.9-4.5-7-7c-1.1-1.3-2.2-2.5-3.3-3.6c-0.4-0.5-1.1-0.9-1.7-1c-0.1,0-0.2,0-0.3,0.1  c-0.2,0.3-0.1,0.9,0.4,1.6c1.7,2.7,3.7,5.3,5.9,7.7c0.3,0.3,0.3,0.8,0,1.1c-0.2,0.2-0.5,0.3-0.8,0.1c-2.7-1.1-5.4-2-8.1-2.8  l-1.4-0.4c-1.9-0.7-3.8-1.2-5.8-1.6c-0.3,0-0.6,0.1-0.9,0.2c-0.1,0.1-0.1,0.2-0.1,0.3c0.1,0.1,0.2,0.1,0.3,0.2  c0.9,0.6,1.7,1.1,2.7,1.5c1.2,0.3,2.3,0.7,3.4,1.2c0.4,0.2,0.5,0.6,0.3,1c-0.2,0.3-0.5,0.5-0.9,0.4c-1.1-0.3-2.2-0.7-3.3-1.2  c-0.8-0.2-1.7-0.3-2.5-0.4c-0.7,0-1.4,0.1-1.6,0.5s0.5,1,1.1,1.4c0.4,0.2,0.8,0.4,1.2,0.7c1.6,0.6,3.2,1.2,4.7,2  c0.4,0.2,0.5,0.6,0.3,1c-0.2,0.3-0.5,0.5-0.9,0.4c-1.6-0.5-3.2-1.2-4.7-2l-0.3-0.1c-0.5-0.2-1.8-0.5-2.3,0.1  c-0.2,0.4-0.2,0.8,0.1,1.2c0.4,0.5,0.8,0.9,1.4,1.2c1.5,1,3.2,1.7,4.9,2.3l0.2,0.1c0.4,0.1,0.6,0.6,0.5,0.9  c-0.1,0.4-0.6,0.6-0.9,0.5l-0.2-0.1l-4.9-1.6C300.5,192.5,300.1,192.4,299.7,192.4z"></path><path class="st2" d="M446.5,338.6c-0.4,0-0.7-0.3-0.8-0.7c-0.1-0.6-7.2-58.4-10.1-72.5c-0.1-0.4,0.2-0.8,0.6-0.9  c0.4-0.1,0.8,0.2,0.9,0.6c3,14.1,10,72,10.1,72.6C447.3,338.2,447,338.6,446.5,338.6L446.5,338.6z"></path></g></svg>