<svg xmlns="http://www.w3.org/2000/svg" xmlns:xlink="http://www.w3.org/1999/xlink" transform="scale(1)" id="_x30_583_x5F_Sales_Promotion_1" x="0px" y="0px" viewBox="0 0 500 500" xml:space="preserve" class="show_show__wrapper__graphic__5Waiy "><title>React</title><style type="text/css">	.st0{fill:#f70000;}	.st1{fill:#0d2690;}	.st2{fill:#FFFFFF;}</style><g id="calendar"><path class="st0" d="M408.7,134.4l-277.9-24.8c-4.9-0.4-9.4,3.1-10,8l-3.2,26.1l0,0L89.7,374.8l295.8,26.3l27.1-224.6l0,0l3.9-32.6  c0.5-4.7-2.9-9-7.6-9.5C408.9,134.4,408.8,134.4,408.7,134.4z"></path><path class="st1" d="M385.5,401.7L385.5,401.7L89.7,375.4c-0.1,0-0.3-0.1-0.4-0.2c-0.1-0.1-0.1-0.3-0.1-0.4l31.1-257.1  c0.7-5.2,5.4-8.9,10.6-8.5l277.9,24.7l0,0c2.5,0.2,4.8,1.4,6.4,3.4c1.6,1.9,2.3,4.4,2,6.9l-31,257.1  C386,401.5,385.8,401.7,385.5,401.7z M90.4,374.3L385,400.5l31-256.6c0.3-2.2-0.3-4.3-1.7-6c-1.4-1.7-3.4-2.8-5.7-3l-277.8-24.8  c-4.7-0.4-8.8,2.9-9.4,7.5L90.4,374.3z"></path><path class="st0" d="M402.7,125.9l-277.9-24.7c-4.9-0.4-9.4,3.1-10,8l-3.2,26l0,0L83.8,366.4l295.8,26.3l27.1-224.6l0,0l3.9-32.6  c0.6-4.7-2.8-9-7.5-9.6C403,126,402.8,125.9,402.7,125.9z"></path><path class="st1" d="M379.5,393.2L379.5,393.2L83.7,366.9c-0.3,0-0.5-0.3-0.5-0.6l31.1-257.1c0.7-5.2,5.4-9,10.6-8.5l277.9,24.7  l0,0c2.5,0.2,4.8,1.4,6.4,3.4c1.6,1.9,2.3,4.4,2,6.9l-31.1,257.1C380,393,379.8,393.2,379.5,393.2z M84.4,365.9L379,392.1l31-256.6  c0.3-2.2-0.4-4.3-1.7-6c-1.4-1.7-3.4-2.8-5.7-3l-277.9-24.7c-4.7-0.4-8.8,2.9-9.4,7.5L84.4,365.9z"></path><polygon class="st2" points="104.7,126.2 400.4,152.5 372.5,383.6 76.8,357.3  "></polygon><path class="st1" d="M372.5,384.1L372.5,384.1L76.7,357.8c-0.1,0-0.3-0.1-0.4-0.2c-0.1-0.1-0.1-0.3-0.1-0.4l27.9-231.1  c0-0.3,0.3-0.5,0.6-0.5l295.8,26.3c0.1,0,0.3,0.1,0.4,0.2c0.1,0.1,0.1,0.3,0.1,0.4l-27.9,231.1C373,383.9,372.8,384.1,372.5,384.1z   M77.4,356.8L372,383l27.8-230l-294.7-26.2L77.4,356.8z"></path><path class="st0" d="M117.8,92.1l277.9,24.7c4.7,0.4,8.3,4.5,7.9,9.3c0,0.1,0,0.3,0,0.4l-3.9,32.6l-295.8-26.3l3.9-32.6  C108.5,95.2,112.9,91.7,117.8,92.1z"></path><path class="st1" d="M399.7,159.5L399.7,159.5l-295.9-26.3c-0.1,0-0.3-0.1-0.4-0.2c-0.1-0.1-0.1-0.3-0.1-0.4l3.9-32.6  c0.7-5.2,5.4-9,10.6-8.5l277.9,24.7c2.5,0.2,4.8,1.4,6.4,3.4c1.6,1.9,2.3,4.4,2,6.9l-3.9,32.6C400.2,159.3,400,159.5,399.7,159.5z   M104.5,132.2l294.7,26.2l3.8-32c0.3-2.2-0.4-4.3-1.7-6c-1.4-1.7-3.4-2.8-5.7-3L117.8,92.6l0,0c-4.6-0.4-8.8,2.9-9.4,7.5  L104.5,132.2z"></path><ellipse class="st2" transform="matrix(0.862 -0.5069 0.5069 0.862 -37.5392 92.7887)" cx="151.6" cy="115.3" rx="6.2" ry="6"></ellipse><path class="st1" d="M151.5,121.9c-0.2,0-0.4,0-0.6,0c-1.8-0.1-3.4-1-4.5-2.4c-1.1-1.3-1.6-3.1-1.4-4.8c0.5-3.6,3.7-6.3,7.4-5.9  c1.8,0.1,3.4,1,4.5,2.4c1.1,1.3,1.6,3.1,1.4,4.8l0,0C157.8,119.4,154.9,121.9,151.5,121.9z M151.8,109.9c-2.9,0-5.3,2.1-5.7,5  c-0.2,1.4,0.2,2.8,1.1,4c0.9,1.1,2.3,1.8,3.7,2c3.1,0.3,5.8-1.9,6.2-5c0.2-1.4-0.2-2.8-1.1-4c-0.9-1.1-2.3-1.8-3.7-2L151.8,109.9z   M157.7,115.9L157.7,115.9z"></path><path class="st1" d="M170.7,96.8l-4.2-0.4c-0.7-8.7-4.6-13.9-10.8-14.4c-6.8-0.6-13.2,5.9-14.2,14.6c-1,8.6,3.6,16.2,10.4,16.8  c1.1,0.1,1.9,1,1.8,2.1c0,0,0,0.1,0,0.1c-0.1,1.1-1.2,1.9-2.3,1.9c-9.1-0.8-15.4-10.3-14-21.2s9.7-19.1,18.8-18.2  C164.6,78.7,170,85.7,170.7,96.8z"></path><ellipse class="st2" transform="matrix(0.8601 -0.5101 0.5101 0.8601 -33.9004 111.2642)" cx="185.9" cy="117.4" rx="6.2" ry="6"></ellipse><path class="st1" d="M185.7,125h-0.6c-1.8-0.1-3.4-1-4.5-2.4c-1.1-1.3-1.6-3.1-1.4-4.8c0.5-3.6,3.7-6.3,7.4-5.9  c1.8,0.1,3.4,1,4.5,2.4c1.1,1.3,1.6,3.1,1.4,4.8l0,0C192,122.4,189.1,124.9,185.7,125z M186,112.9c-2.9,0-5.3,2.1-5.7,5  c-0.2,1.4,0.2,2.8,1.1,4c0.9,1.1,2.3,1.8,3.7,2c3.1,0.3,5.8-1.9,6.2-5c0.2-1.4-0.2-2.8-1.1-4c-0.9-1.1-2.3-1.8-3.7-2L186,112.9z   M191.9,118.9L191.9,118.9z"></path><path class="st1" d="M204.9,99.8l-4.2-0.4c-0.7-8.7-4.6-13.9-10.8-14.4c-6.8-0.6-13.2,5.9-14.2,14.6c-1,8.6,3.6,16.1,10.4,16.8  c1.1,0.1,1.9,1,1.8,2.1c0,0,0,0.1,0,0.1c-0.1,1.1-1.2,1.9-2.3,1.9c-9.1-0.8-15.4-10.3-14.1-21.2s9.8-19.1,18.8-18.3  C198.8,81.7,204.2,88.8,204.9,99.8z"></path><ellipse class="st2" transform="matrix(0.862 -0.5069 0.5069 0.862 -31.178 128.3031)" cx="220" cy="121.4" rx="6.2" ry="6"></ellipse><path class="st1" d="M219.9,128c-0.2,0-0.4,0-0.6,0c-1.8-0.1-3.4-1-4.5-2.4c-1.1-1.3-1.6-3.1-1.4-4.8c0.5-3.6,3.7-6.2,7.4-5.9  c1.8,0.1,3.4,1,4.5,2.4c1.1,1.3,1.6,3.1,1.4,4.8l0,0C226.2,125.5,223.3,128,219.9,128z M220.2,116c-2.9,0-5.3,2.1-5.7,5  c-0.2,1.4,0.2,2.8,1.1,4c0.9,1.1,2.3,1.8,3.7,2c3.1,0.3,5.8-1.9,6.2-5c0.2-1.4-0.2-2.8-1.1-4c-0.9-1.1-2.3-1.8-3.7-2  C220.6,116,220.4,116,220.2,116z M226.1,122L226.1,122z"></path><path class="st1" d="M239.1,102.9l-4.2-0.4c-0.7-8.7-4.6-13.9-10.8-14.4c-6.8-0.6-13.2,5.9-14.2,14.6c-1,8.6,3.6,16.1,10.4,16.8  c1.1,0.1,1.9,1,1.8,2.1c0,0,0,0.1,0,0.1c-0.2,1.1-1.2,1.9-2.3,1.9c-9.1-0.8-15.4-10.3-14.1-21.2s9.7-19.1,18.8-18.3  C233,84.8,238.4,91.8,239.1,102.9z"></path><ellipse class="st2" transform="matrix(0.862 -0.5069 0.5069 0.862 -28.0017 146.0611)" cx="254.2" cy="124.5" rx="6.2" ry="6"></ellipse><path class="st1" d="M254.1,131.1c-0.2,0-0.4,0-0.6,0c-1.8-0.1-3.4-1-4.5-2.4c-1.1-1.3-1.6-3.1-1.4-4.8c0.5-3.6,3.7-6.2,7.4-5.9  c1.8,0.1,3.4,1,4.5,2.4c1.1,1.3,1.6,3.1,1.4,4.8C260.4,128.6,257.5,131.1,254.1,131.1z M254.4,119.1c-2.9,0-5.3,2.1-5.7,5  c-0.2,1.4,0.2,2.8,1.1,4c0.9,1.1,2.3,1.8,3.7,2c3.1,0.3,5.8-1.9,6.2-5c0.2-1.4-0.2-2.8-1.1-4c-0.9-1.1-2.3-1.8-3.7-2  C254.8,119,254.6,119,254.4,119.1L254.4,119.1z"></path><path class="st1" d="M273.3,105.9l-4.2-0.4c-0.7-8.7-4.6-13.9-10.8-14.4c-6.8-0.6-13.2,5.9-14.2,14.6c-1,8.6,3.6,16.1,10.4,16.8  c1.1,0.1,1.9,1,1.8,2.1c0,0,0,0.1,0,0.1c-0.2,1.1-1.2,1.9-2.3,1.9c-9.1-0.8-15.4-10.3-14-21.2s9.7-19.1,18.8-18.3  C267.2,87.8,272.6,94.8,273.3,105.9z"></path><ellipse class="st2" transform="matrix(0.862 -0.5069 0.5069 0.862 -24.8198 163.8176)" cx="288.4" cy="127.5" rx="6.2" ry="6"></ellipse><path class="st1" d="M288.3,134.1h-0.6c-1.8-0.1-3.4-1-4.5-2.4c-1.1-1.3-1.6-3.1-1.4-4.8c0.5-3.6,3.7-6.2,7.4-5.9  c1.7,0.2,3.4,1,4.5,2.4c1.1,1.3,1.6,3.1,1.4,4.8C294.6,131.5,291.7,134.1,288.3,134.1z M288.6,122.1c-2.9,0-5.3,2.1-5.7,5  c-0.2,1.4,0.2,2.8,1.1,4c0.9,1.1,2.3,1.8,3.7,2c3.1,0.3,5.8-1.9,6.2-5l0,0c0.2-1.4-0.2-2.8-1.1-4c-0.9-1.1-2.3-1.8-3.7-2  L288.6,122.1z"></path><path class="st1" d="M307.5,109l-4.2-0.4c-0.7-8.7-4.6-13.9-10.8-14.4c-6.8-0.6-13.2,5.9-14.2,14.6c-1,8.6,3.6,16.1,10.4,16.8  c1.1,0.1,1.9,1,1.8,2.1c0,0,0,0.1,0,0.1c-0.1,1.1-1.2,2-2.3,1.9c-9.1-0.8-15.4-10.3-14.1-21.2c1.3-10.9,9.8-19.1,18.8-18.3  C301.4,90.9,306.8,97.9,307.5,109z"></path><ellipse class="st2" transform="matrix(0.862 -0.5069 0.5069 0.862 -21.6405 181.5756)" cx="322.6" cy="130.5" rx="6.2" ry="6"></ellipse><path class="st1" d="M322.5,137.1h-0.6c-1.8-0.1-3.4-1-4.5-2.4c-1.1-1.3-1.6-3.1-1.4-4.8c0.5-3.6,3.7-6.3,7.4-5.9  c1.7,0.1,3.4,1,4.5,2.4c1.1,1.3,1.6,3.1,1.4,4.8C328.8,134.6,325.9,137.1,322.5,137.1z M322.8,125.1c-2.9,0-5.3,2.1-5.7,5  c-0.2,1.4,0.2,2.8,1.1,4c0.9,1.1,2.3,1.8,3.7,2c3.1,0.3,5.8-1.9,6.2-5l0,0c0.2-1.4-0.2-2.8-1.1-4c-0.9-1.1-2.3-1.8-3.7-2  L322.8,125.1z"></path><path class="st1" d="M341.7,112l-4.2-0.4c-0.7-8.7-4.6-13.9-10.8-14.4c-6.8-0.6-13.1,5.9-14.2,14.6c-1,8.6,3.6,16.1,10.4,16.8  c1.1,0.1,1.9,1,1.8,2.1c0,0,0,0.1,0,0.1c-0.1,1.1-1.2,1.9-2.3,1.9c-9.1-0.8-15.4-10.3-14.1-21.2c1.3-10.9,9.8-19.1,18.8-18.3  C335.6,93.9,341,100.9,341.7,112z"></path><ellipse class="st2" transform="matrix(0.862 -0.5069 0.5069 0.862 -18.4642 199.3336)" cx="356.8" cy="133.6" rx="6.2" ry="6"></ellipse><path class="st1" d="M356.7,140.2h-0.6c-1.8-0.1-3.4-1-4.5-2.4c-1.1-1.3-1.6-3.1-1.4-4.8c0.5-3.6,3.7-6.3,7.4-5.9  c1.8,0.1,3.4,1,4.5,2.4c1.1,1.3,1.6,3.1,1.4,4.8C363,137.6,360.1,140.2,356.7,140.2z M357.1,128.1c-2.9,0-5.3,2.1-5.7,5  c-0.2,1.4,0.2,2.8,1.1,3.9c0.9,1.1,2.3,1.8,3.7,2c3.1,0.3,5.8-1.9,6.2-5l0,0c0.2-1.4-0.2-2.8-1.1-4c-0.9-1.1-2.3-1.8-3.7-2  L357.1,128.1z"></path><path class="st1" d="M375.9,115.1l-4.2-0.4c-0.7-8.7-4.6-13.9-10.8-14.4c-6.8-0.6-13.2,5.9-14.2,14.6c-1,8.6,3.6,16.1,10.4,16.8  c1.1,0.1,1.9,1,1.8,2.1c0,0,0,0.1,0,0.1c-0.2,1.1-1.2,1.9-2.3,1.9c-9.1-0.8-15.4-10.3-14-21.2c1.3-10.9,9.7-19.1,18.8-18.3  C369.8,96.9,375.2,104,375.9,115.1z"></path><path class="st2" d="M159.2,197.4l-33.9-3c-2.8-0.2-4.8-2.6-4.6-5.4c0-0.1,0-0.2,0-0.2l3.3-27.7c0.4-2.9,3-4.9,5.8-4.7l33.9,3  c2.8,0.2,4.8,2.6,4.6,5.4c0,0.1,0,0.1,0,0.2l-3.3,27.7C164.7,195.6,162.1,197.7,159.2,197.4z"></path><path class="st1" d="M159.6,198h-0.5l0,0l-33.9-3c-1.5-0.1-2.9-0.9-3.9-2.1c-1-1.2-1.4-2.7-1.2-4.2l3.3-27.7  c0.4-3.2,3.3-5.4,6.4-5.2l33.9,3c1.5,0.1,2.9,0.9,3.9,2.1c1,1.2,1.4,2.7,1.2,4.2l-3.3,27.7C165.1,195.8,162.6,198,159.6,198z   M159.2,196.9c2.6,0.2,4.9-1.6,5.2-4.2l3.3-27.7c0.1-1.2-0.2-2.4-0.9-3.3c-0.8-1-1.9-1.6-3.2-1.7l-33.9-3c-2.6-0.2-4.9,1.6-5.3,4.2  l-3.3,27.7c-0.1,1.2,0.2,2.4,1,3.3c0.8,1,1.9,1.6,3.1,1.7L159.2,196.9z"></path><path class="st2" d="M225.4,203.3l-33.9-3c-2.8-0.2-4.8-2.6-4.6-5.4c0-0.1,0-0.2,0-0.2l3.3-27.7c0.4-2.9,3-4.9,5.8-4.7l33.9,3  c2.8,0.2,4.8,2.7,4.6,5.4c0,0.1,0,0.1,0,0.2l-3.3,27.7C230.9,201.5,228.3,203.6,225.4,203.3z"></path><path class="st1" d="M225.9,203.9h-0.5l0,0l-33.9-3c-1.5-0.1-2.9-0.9-3.9-2.1c-1-1.2-1.4-2.7-1.2-4.2l3.3-27.7  c0.4-3.2,3.3-5.4,6.4-5.2l33.9,3c1.5,0.1,2.9,0.9,3.9,2.1c1,1.2,1.4,2.7,1.2,4.2l-3.3,27.7C231.4,201.7,228.9,203.9,225.9,203.9z   M225.5,202.8c2.6,0.2,4.9-1.6,5.2-4.2l3.3-27.7c0.1-1.2-0.2-2.4-0.9-3.3c-0.8-1-1.9-1.6-3.2-1.7l-33.9-3c-2.6-0.2-4.9,1.6-5.3,4.2  l-3.3,27.7c-0.1,1.2,0.2,2.4,0.9,3.3c0.8,1,1.9,1.6,3.2,1.7L225.5,202.8z"></path><path class="st2" d="M291.7,209.2l-33.9-3c-2.8-0.2-4.8-2.6-4.6-5.4c0-0.1,0-0.2,0-0.2l3.3-27.7c0.4-2.9,3-4.9,5.8-4.7l33.9,3  c2.8,0.2,4.8,2.7,4.6,5.4c0,0.1,0,0.1,0,0.2l-3.3,27.7C297.2,207.4,294.6,209.5,291.7,209.2z"></path><path class="st1" d="M292.2,209.8h-0.5l0,0l-33.9-3c-1.5-0.1-2.9-0.9-3.9-2.1c-1-1.2-1.4-2.7-1.2-4.2l3.3-27.7  c0.4-3.2,3.3-5.4,6.4-5.2l33.9,3c3.1,0.2,5.4,2.9,5.1,6c0,0.1,0,0.2,0,0.2l-3.3,27.7C297.7,207.6,295.2,209.8,292.2,209.8z   M291.8,208.7c2.6,0.2,4.9-1.6,5.2-4.2l3.3-27.7c0.1-1.2-0.2-2.4-0.9-3.3c-0.8-1-1.9-1.6-3.2-1.7l-33.9-3c-2.6-0.2-4.9,1.6-5.3,4.2  l-3.3,27.7c-0.1,1.2,0.2,2.4,0.9,3.3c0.8,1,1.9,1.6,3.2,1.7L291.8,208.7z"></path><path class="st2" d="M358,215.1l-33.9-3c-2.8-0.2-4.8-2.6-4.6-5.4c0-0.1,0-0.2,0-0.2l3.3-27.7c0.4-2.9,3-4.9,5.8-4.7l33.9,3  c2.8,0.2,4.8,2.7,4.6,5.4c0,0.1,0,0.1,0,0.2l-3.3,27.7C363.5,213.3,360.9,215.4,358,215.1z"></path><path class="st1" d="M358.5,215.7H358l0,0l-33.9-3.1c-1.5-0.1-2.9-0.9-3.9-2.1c-1-1.2-1.4-2.7-1.2-4.2l3.3-27.7  c0.4-3.2,3.3-5.5,6.4-5.2l33.9,3c3.1,0.2,5.4,2.9,5.1,6c0,0.1,0,0.2,0,0.2l-3.3,27.7C364,213.5,361.5,215.7,358.5,215.7z   M358.1,214.6c2.6,0.2,4.9-1.6,5.2-4.2l3.3-27.7c0.1-1.2-0.2-2.4-0.9-3.3c-0.8-1-1.9-1.6-3.2-1.7l-33.9-3c-2.6-0.2-4.9,1.6-5.3,4.2  l-3.3,27.7c-0.1,1.2,0.2,2.4,0.9,3.3c0.8,1,1.9,1.6,3.2,1.7L358.1,214.6z"></path><path class="st2" d="M153.2,246.9l-33.9-3c-2.8-0.2-4.8-2.6-4.6-5.4c0-0.1,0-0.1,0-0.2l3.3-27.7c0.4-2.9,3-4.9,5.9-4.7l33.9,3  c2.8,0.2,4.8,2.6,4.6,5.4c0,0.1,0,0.1,0,0.2l-3.3,27.7C158.7,245.1,156.1,247.2,153.2,246.9z"></path><path class="st1" d="M153.7,247.5h-0.5l-33.9-3c-1.5-0.1-2.9-0.9-3.9-2.1c-1-1.2-1.4-2.7-1.2-4.2l3.3-27.7c0.4-3.2,3.2-5.5,6.4-5.2  l33.9,3c1.5,0.1,2.9,0.9,3.9,2.1c0.9,1.2,1.4,2.7,1.2,4.2l-3.3,27.7C159.2,245.3,156.6,247.5,153.7,247.5z M123.4,206.4  c-2.4,0-4.5,1.8-4.8,4.2l-3.3,27.7c-0.1,1.2,0.2,2.4,0.9,3.3c0.8,1,1.9,1.6,3.2,1.7l33.9,3l0,0c2.6,0.2,4.9-1.6,5.3-4.2l3.3-27.7  c0.1-1.2-0.2-2.4-0.9-3.3c-0.8-1-1.9-1.6-3.2-1.7l-33.9-3C123.7,206.4,123.5,206.4,123.4,206.4z"></path><path class="st2" d="M219.5,252.8l-33.9-3c-2.8-0.2-4.8-2.6-4.6-5.4c0-0.1,0-0.1,0-0.2l3.3-27.7c0.4-2.9,3-4.9,5.9-4.7l33.9,3  c2.8,0.2,4.8,2.6,4.6,5.4c0,0.1,0,0.2,0,0.2l-3.3,27.7C225,251,222.4,253.1,219.5,252.8z"></path><path class="st1" d="M219.9,253.4h-0.5l-33.9-3c-1.5-0.1-2.9-0.9-3.9-2.1c-1-1.2-1.4-2.7-1.2-4.2l3.3-27.7c0.4-3.2,3.2-5.5,6.4-5.2  l33.9,3c1.5,0.1,2.9,0.9,3.9,2.1c1,1.2,1.4,2.7,1.2,4.2l-3.3,27.7C225.4,251.2,222.9,253.4,219.9,253.4z M189.7,212.4  c-2.4,0-4.5,1.8-4.8,4.2l-3.3,27.7c-0.1,1.2,0.2,2.4,0.9,3.3c0.8,1,1.9,1.6,3.2,1.7l33.9,3.1l0,0c2.6,0.2,4.9-1.6,5.3-4.2l3.3-27.7  c0.1-1.2-0.2-2.4-0.9-3.3c-0.8-1-1.9-1.6-3.2-1.7l-33.9-3C189.9,212.4,189.8,212.4,189.7,212.4L189.7,212.4z"></path><path class="st2" d="M285.7,258.7l-33.9-3c-2.8-0.2-4.8-2.6-4.6-5.4c0-0.1,0-0.1,0-0.2l3.3-27.7c0.4-2.9,3-4.9,5.9-4.7l33.9,3  c2.8,0.2,4.8,2.6,4.6,5.4c0,0.1,0,0.2,0,0.2l-3.3,27.7C291.2,256.9,288.6,259,285.7,258.7z"></path><path class="st1" d="M286.2,259.3h-0.5l-33.9-3c-3.1-0.2-5.4-2.9-5.1-6c0-0.1,0-0.1,0-0.2l3.3-27.7c0.4-3.2,3.2-5.5,6.4-5.2l33.9,3  c1.5,0.1,2.9,0.9,3.9,2.1c1,1.2,1.4,2.7,1.2,4.2l-3.3,27.7C291.7,257.1,289.2,259.3,286.2,259.3z M255.9,218.2  c-2.4,0-4.5,1.8-4.8,4.2l-3.3,27.7c-0.1,1.2,0.2,2.4,0.9,3.3c0.8,1,1.9,1.6,3.2,1.7l33.9,3l0,0c2.6,0.2,4.9-1.6,5.3-4.2l3.3-27.7  c0.1-1.2-0.2-2.4-0.9-3.3c-0.8-1-1.9-1.6-3.2-1.7l-33.8-3L255.9,218.2z"></path><path class="st2" d="M352,264.6l-33.9-3c-2.8-0.2-4.8-2.7-4.6-5.4c0-0.1,0-0.1,0-0.2l3.3-27.7c0.4-2.9,3-4.9,5.9-4.7l33.9,3  c2.8,0.2,4.8,2.6,4.6,5.4c0,0.1,0,0.2,0,0.2l-3.3,27.7C357.5,262.8,354.9,264.9,352,264.6z"></path><path class="st1" d="M352.5,265.2H352l-33.9-3c-1.5-0.1-3-0.9-3.9-2.1c-1-1.2-1.4-2.7-1.2-4.2l3.3-27.7c0.4-3.2,3.3-5.4,6.4-5.2  l34,3.1c3.1,0.2,5.4,2.9,5.1,6c0,0.1,0,0.1,0,0.2l-3.3,27.7C358.1,263,355.5,265.2,352.5,265.2z M322.2,224.1  c-2.4,0-4.5,1.8-4.8,4.2l-3.3,27.7c-0.1,1.2,0.2,2.4,0.9,3.3c0.8,1,1.9,1.6,3.2,1.7l33.9,3l0,0c2.6,0.2,4.9-1.6,5.2-4.2l3.3-27.7  c0.1-1.2-0.2-2.4-0.9-3.3c-0.8-1-1.9-1.6-3.2-1.7l-33.9-3L322.2,224.1z"></path><path class="st2" d="M147.2,296.4l-33.9-3c-2.8-0.2-4.8-2.6-4.6-5.4c0-0.1,0-0.2,0-0.2l3.3-27.7c0.4-2.9,3-4.9,5.8-4.7l33.9,3  c2.8,0.2,4.8,2.6,4.6,5.4c0,0.1,0,0.2,0,0.2l-3.3,27.7C152.7,294.6,150.1,296.7,147.2,296.4z"></path><path class="st1" d="M147.7,297h-0.5l0,0l-33.9-3c-1.5-0.1-2.9-0.9-3.9-2c-1-1.2-1.4-2.7-1.2-4.2l3.3-27.7c0.4-3.2,3.3-5.4,6.4-5.2  l33.9,3c1.5,0.1,2.9,0.9,3.9,2.1c1,1.2,1.4,2.7,1.2,4.2l-3.3,27.7C153.2,294.7,150.7,297,147.7,297z M147.2,295.9  c2.6,0.2,4.9-1.6,5.3-4.2l3.3-27.7c0.1-1.2-0.2-2.4-1-3.3c-0.8-1-1.9-1.6-3.1-1.7l-33.9-3c-2.6-0.2-4.9,1.6-5.2,4.2l-3.3,27.7  c-0.1,1.2,0.2,2.4,1,3.3c0.8,1,1.9,1.6,3.2,1.7L147.2,295.9z"></path><path class="st2" d="M213.5,302.3l-33.9-3c-2.8-0.2-4.8-2.6-4.6-5.4c0-0.1,0-0.1,0-0.2l3.3-27.7c0.4-2.9,3-4.9,5.8-4.7l33.9,3  c2.8,0.2,4.8,2.6,4.6,5.4c0,0.1,0,0.2,0,0.2l-3.3,27.7C218.9,300.5,216.3,302.6,213.5,302.3z"></path><path class="st1" d="M214,302.9c-0.2,0-0.4,0-0.5,0l0,0l-33.9-3c-1.5-0.1-2.9-0.9-3.9-2c-1-1.2-1.4-2.7-1.2-4.2l3.3-27.7  c0.4-3.2,3.3-5.5,6.4-5.2l33.9,3c1.5,0.1,2.9,0.9,3.9,2.1c1,1.2,1.4,2.7,1.2,4.2l-3.3,27.7C219.5,300.7,216.9,302.9,214,302.9z   M213.5,301.8c2.6,0.2,4.9-1.6,5.3-4.2l3.3-27.7c0.3-2.5-1.4-4.7-3.9-5c-0.1,0-0.1,0-0.2,0l-33.9-3c-2.6-0.2-4.9,1.6-5.2,4.2  l-3.3,27.7c-0.1,1.2,0.2,2.4,1,3.3c0.8,1,1.9,1.6,3.2,1.7L213.5,301.8z"></path><path class="st2" d="M279.8,308.2l-33.9-3c-2.8-0.2-4.8-2.6-4.6-5.4c0-0.1,0-0.1,0-0.2l3.3-27.7c0.4-2.9,3-4.9,5.9-4.7l33.9,3  c2.8,0.2,4.8,2.6,4.6,5.4c0,0.1,0,0.2,0,0.2l-3.3,27.7C285.2,306.4,282.7,308.5,279.8,308.2z"></path><path class="st1" d="M280.2,308.8c-0.2,0-0.4,0-0.5,0l0,0l-33.9-3c-1.5-0.1-2.9-0.9-3.9-2.1c-1-1.2-1.4-2.7-1.2-4.2l3.3-27.7  c0.4-3.2,3.3-5.4,6.4-5.2l33.9,3c1.5,0.1,2.9,0.9,3.9,2.1c1,1.2,1.4,2.7,1.2,4.2l-3.3,27.7C285.8,306.5,283.2,308.8,280.2,308.8z   M279.8,307.7c2.6,0.2,4.9-1.6,5.3-4.2l3.3-27.7c0.3-2.5-1.4-4.7-3.9-5c-0.1,0-0.1,0-0.2,0l-33.9-3c-2.6-0.2-4.9,1.6-5.2,4.2  l-3.3,27.7c-0.1,1.2,0.2,2.4,1,3.3c0.8,1,1.9,1.6,3.2,1.7L279.8,307.7z"></path><path class="st2" d="M346.1,314.1l-33.9-3c-2.8-0.2-4.8-2.6-4.6-5.4c0-0.1,0-0.1,0-0.2l3.3-27.7c0.4-2.9,3-4.9,5.9-4.7l33.9,3  c2.8,0.2,4.8,2.6,4.6,5.4c0,0.1,0,0.2,0,0.2l-3.3,27.7C351.5,312.3,349,314.3,346.1,314.1z"></path><path class="st1" d="M346.5,314.7c-0.2,0-0.4,0-0.5,0l0,0l-33.9-3c-1.5-0.1-2.9-0.9-3.9-2c-1-1.2-1.4-2.7-1.2-4.2l3.3-27.7  c0.4-3.2,3.3-5.5,6.4-5.2l33.9,3c1.5,0.1,2.9,0.9,3.9,2.1c1,1.2,1.4,2.7,1.2,4.2l-3.3,27.7C352.1,312.5,349.5,314.7,346.5,314.7z   M346.1,313.6c2.6,0.2,4.9-1.6,5.3-4.2l3.3-27.7c0.1-1.2-0.2-2.4-1-3.3c-0.8-1-1.9-1.6-3.1-1.7l-33.9-3c-2.6-0.2-4.9,1.6-5.2,4.2  l-3.3,27.7c-0.1,1.2,0.2,2.4,1,3.3c0.8,1,1.9,1.6,3.2,1.7L346.1,313.6z"></path><path class="st2" d="M141.2,345.9l-33.9-3c-2.8-0.2-4.8-2.6-4.6-5.4c0-0.1,0-0.2,0-0.2l3.3-27.7c0.4-2.9,3-4.9,5.8-4.7l33.9,3  c2.8,0.2,4.8,2.6,4.6,5.4c0,0.1,0,0.2,0,0.2l-3.3,27.7C146.7,344.1,144.1,346.1,141.2,345.9z"></path><path class="st1" d="M141.7,346.5c-0.2,0-0.4,0-0.5,0l-33.9-3c-1.5-0.1-2.9-0.9-3.9-2.1c-1-1.2-1.4-2.7-1.2-4.2l3.3-27.7  c0.4-3.2,3.3-5.4,6.4-5.2l33.9,3c1.5,0.1,2.9,0.9,3.9,2.1c1,1.2,1.4,2.7,1.2,4.2l-3.3,27.7C147.2,344.2,144.7,346.4,141.7,346.5z   M111.4,305.4c-2.5,0-4.5,1.8-4.9,4.2l-3.3,27.7c-0.1,1.2,0.2,2.4,1,3.3c0.8,1,1.9,1.6,3.1,1.7l33.9,3l0,0c2.6,0.2,4.9-1.6,5.2-4.2  l3.3-27.7c0.3-2.5-1.4-4.7-3.9-5c-0.1,0-0.1,0-0.2,0l-33.9-3L111.4,305.4z"></path><path class="st2" d="M207.5,351.8l-33.9-3c-2.8-0.2-4.8-2.6-4.6-5.4c0-0.1,0-0.2,0-0.2l3.3-27.7c0.4-2.9,3-5,5.9-4.7l33.9,3  c2.8,0.2,4.8,2.6,4.6,5.4c0,0.1,0,0.2,0,0.2l-3.3,27.7C213,349.9,210.4,352,207.5,351.8z"></path><path class="st1" d="M207.9,352.4h-0.5l-33.9-3.1c-1.5-0.1-2.9-0.9-3.9-2.1c-1-1.2-1.4-2.7-1.2-4.2l3.3-27.7  c0.4-3.2,3.3-5.4,6.4-5.2l33.9,3c1.5,0.1,2.9,0.9,3.9,2.1c1,1.2,1.4,2.7,1.2,4.2l-3.3,27.7C213.5,350.1,211,352.4,207.9,352.4z   M177.7,311.3c-2.4,0-4.5,1.8-4.8,4.2l-3.3,27.7c-0.3,2.5,1.4,4.7,3.9,5c0.1,0,0.1,0,0.2,0l33.9,3l0,0c2.6,0.2,4.9-1.6,5.2-4.2  l3.3-27.7c0.3-2.5-1.4-4.7-3.9-5c-0.1,0-0.1,0-0.2,0l-33.8-3L177.7,311.3z"></path><path class="st2" d="M273.8,357.7l-33.9-3c-2.8-0.2-4.8-2.6-4.6-5.4c0-0.1,0-0.2,0-0.2l3.3-27.7c0.4-2.9,3-4.9,5.8-4.7l33.9,3  c2.8,0.2,4.8,2.6,4.6,5.4c0,0.1,0,0.2,0,0.2l-3.3,27.7C279.3,355.9,276.7,357.9,273.8,357.7z"></path><path class="st1" d="M274.3,358.2h-0.5l-33.9-3c-1.5-0.1-2.9-0.9-3.9-2.1c-1-1.2-1.4-2.7-1.2-4.2l3.3-27.7c0.4-3.2,3.3-5.4,6.4-5.2  l34,3c1.5,0.1,2.9,0.9,3.9,2.1c1,1.2,1.4,2.7,1.2,4.2l-3.3,27.7C279.9,356,277.3,358.3,274.3,358.2z M244,317.2  c-2.4,0-4.5,1.8-4.8,4.2l-3.3,27.7c-0.1,1.2,0.2,2.4,1,3.3c0.8,1,1.9,1.6,3.1,1.7l33.9,3l0,0c2.6,0.2,4.9-1.6,5.2-4.2l3.3-27.7  c0.3-2.5-1.4-4.7-3.9-5c-0.1,0-0.1,0-0.2,0l-33.9-3L244,317.2z"></path><path class="st2" d="M340.1,363.6l-33.9-3c-2.8-0.2-4.8-2.6-4.6-5.4c0-0.1,0-0.2,0-0.2l3.4-27.7c0.4-2.9,3-4.9,5.8-4.7l33.9,3  c2.8,0.2,4.8,2.6,4.6,5.4c0,0.1,0,0.2,0,0.2l-3.3,27.7C345.6,361.8,343,363.9,340.1,363.6z"></path><path class="st1" d="M340.6,364.1H340l-33.9-3c-1.5-0.1-2.9-0.9-3.9-2.1c-1-1.2-1.4-2.7-1.2-4.2l3.3-27.7c0.4-3.2,3.3-5.4,6.4-5.2  l33.9,3c1.5,0.1,2.9,0.9,3.9,2.1c1,1.2,1.4,2.7,1.2,4.2l-3.3,27.7C346.1,361.9,343.6,364.2,340.6,364.1z M310.3,323.1  c-2.4,0-4.5,1.8-4.8,4.2l-3.3,27.7c-0.1,1.2,0.2,2.4,1,3.3c0.8,1,1.9,1.6,3.1,1.7l33.9,3.1l0,0c2.6,0.2,4.9-1.6,5.2-4.2l3.3-27.7  c0.1-1.2-0.2-2.4-1-3.3c-0.8-1-1.9-1.6-3.2-1.7l-33.9-3L310.3,323.1z"></path></g><g id="discount"><path class="st2" d="M343.3,292.5l5.7-3.1c6.8-3.7,15.3-1.3,19.1,5.5c0.1,0.3,0.3,0.5,0.4,0.8l2.8,5.9c2,4.4,6.2,7.4,11,8l6.5,0.8  c7.7,1,13.1,8,12.2,15.7c0,0.3-0.1,0.6-0.1,0.8l-1.2,6.4c-0.9,4.7,0.7,9.6,4.2,12.9l4.8,4.5c5.7,5.3,5.9,14.2,0.6,19.9  c-0.2,0.2-0.4,0.4-0.6,0.6l-4.8,4.4c-3.5,3.3-5.1,8.2-4.2,12.9l1.2,6.4c1.4,7.6-3.6,15-11.2,16.4c-0.3,0.1-0.5,0.1-0.8,0.1  l-6.5,0.8c-4.8,0.6-8.9,3.6-11,8l-2.8,5.9c-3.3,7-11.7,10-18.7,6.7c-0.3-0.1-0.5-0.3-0.8-0.4l-5.7-3.1c-4.2-2.3-9.3-2.3-13.5,0  l-5.7,3.1c-6.8,3.7-15.3,1.3-19.1-5.5c-0.1-0.3-0.3-0.5-0.4-0.8l-2.8-5.9c-2-4.4-6.2-7.4-11-8l-6.5-0.8c-7.7-1-13.1-8-12.2-15.7  c0-0.3,0.1-0.6,0.1-0.8l1.2-6.4c0.9-4.7-0.7-9.6-4.2-12.9l-4.8-4.4c-5.7-5.3-5.9-14.2-0.6-19.9c0.2-0.2,0.4-0.4,0.6-0.6l4.8-4.5  c3.5-3.3,5.1-8.2,4.2-12.9l-1.2-6.4c-1.4-7.6,3.6-15,11.2-16.4c0.3-0.1,0.6-0.1,0.8-0.1l6.5-0.8c4.8-0.6,8.9-3.6,11-8l2.8-5.9  c3.3-7,11.7-10,18.7-6.7c0.3,0.1,0.5,0.3,0.8,0.4l5.7,3.1C334,294.8,339.1,294.8,343.3,292.5z"></path><path class="st1" d="M317.3,434.8c-1.5,0-3.1-0.2-4.5-0.7c-3.9-1.2-7-4-8.7-7.7l-2.8-5.9c-2-4.2-5.9-7.1-10.5-7.6l-6.5-0.8  c-8-1-13.7-8.3-12.7-16.3c0-0.3,0.1-0.6,0.1-0.9l1.2-6.4c0.9-4.5-0.6-9.2-4-12.4l-4.8-4.5c-5.9-5.5-6.2-14.8-0.7-20.6  c0.2-0.2,0.4-0.4,0.7-0.7l4.8-4.5c3.3-3.2,4.8-7.8,4-12.3l-1.2-6.4c-1.5-7.9,3.7-15.6,11.6-17.1c0.3-0.1,0.6-0.1,0.9-0.1l6.5-0.8  c4.6-0.6,8.6-3.5,10.5-7.6l2.8-5.9c3.4-7.3,12.1-10.5,19.4-7c0.3,0.1,0.6,0.3,0.8,0.4l5.7,3.1c4,2.2,9,2.2,13,0l0,0l5.7-3.1  c7.1-3.9,16-1.3,19.8,5.8c0.1,0.3,0.3,0.5,0.4,0.8l2.8,5.9c2,4.2,5.9,7.1,10.5,7.6l6.5,0.8c8,1,13.7,8.3,12.7,16.3  c0,0.3-0.1,0.6-0.1,0.9l-1.2,6.4c-0.9,4.5,0.6,9.2,4,12.4l4.8,4.5c5.9,5.5,6.2,14.8,0.7,20.6c-0.2,0.2-0.4,0.4-0.7,0.7l-4.8,4.5  c-3.4,3.2-4.9,7.8-4,12.4l1.2,6.4c1.6,7.9-3.6,15.6-11.5,17.1c-0.3,0.1-0.6,0.1-1,0.2l-6.5,0.8c-4.6,0.6-8.6,3.5-10.5,7.6l-2.8,5.9  c-3.4,7.3-12.1,10.5-19.4,7c-0.3-0.1-0.6-0.3-0.8-0.4l-5.7-3.1c-4-2.2-9-2.2-13,0l-5.7,3.1C322.2,434.2,319.8,434.8,317.3,434.8z   M317.3,288.1c-5.2,0-10,3-12.2,7.8l-2.8,5.9c-2.1,4.5-6.4,7.7-11.4,8.3l-6.5,0.8c-7.4,0.9-12.6,7.7-11.7,15.1  c0,0.3,0.1,0.6,0.1,0.9l1.2,6.4c0.9,4.9-0.7,10-4.4,13.4l-4.8,4.5c-5.4,5.1-5.7,13.7-0.6,19.1c0.2,0.2,0.4,0.4,0.6,0.6l4.8,4.5  c3.6,3.4,5.3,8.5,4.3,13.4l-1.2,6.4c-1.4,7.3,3.3,14.4,10.6,15.8c0.3,0.1,0.6,0.1,1,0.2l6.5,0.8c5,0.6,9.3,3.7,11.4,8.3l2.8,5.9  c3.2,6.7,11.2,9.7,17.9,6.5c0.3-0.1,0.5-0.3,0.8-0.4l5.7-3.1c4.4-2.4,9.7-2.4,14.1,0l5.7,3.1c6.5,3.6,14.7,1.2,18.3-5.3  c0.1-0.3,0.3-0.5,0.4-0.8l2.8-5.9c2.1-4.5,6.4-7.6,11.4-8.3l6.4-0.8c7.4-0.9,12.6-7.7,11.7-15.1c0-0.3-0.1-0.6-0.1-0.9l-1.2-6.4  c-0.9-4.9,0.7-10,4.4-13.4l4.8-4.5c5.4-5.1,5.7-13.7,0.6-19.1c-0.2-0.2-0.4-0.4-0.6-0.6l-4.8-4.5c-3.7-3.4-5.3-8.5-4.4-13.4  l1.2-6.4c1.4-7.3-3.3-14.4-10.6-15.8c-0.3-0.1-0.6-0.1-0.9-0.1l-6.5-0.8c-5-0.6-9.3-3.7-11.4-8.3l-2.8-5.9  c-3.2-6.7-11.2-9.7-17.9-6.5c-0.3,0.1-0.5,0.3-0.8,0.4l-5.7,3.1c-4.4,2.4-9.7,2.4-14.1,0l-5.7-3.2  C321.8,288.7,319.6,288.1,317.3,288.1z"></path><path class="st1" d="M327.9,346.2c-2.4,0.1-4.7-0.7-6.5-2.2c-1.6-1.5-2.5-3.6-2.4-5.8v-6.9c-0.1-2.4,0.8-4.7,2.4-6.3  c3.8-3.1,9.3-3.1,13.1,0c1.7,1.7,2.6,4,2.4,6.3v6.9c0.1,2.2-0.8,4.3-2.4,5.8C332.6,345.6,330.3,346.4,327.9,346.2z M321.7,394.1  l23.5-68.6c0.5-1.3,1.7-2.2,3.1-2.2l0,0c1.8,0,3.3,1.5,3.3,3.3c0,0.4-0.1,0.7-0.2,1.1l-23.5,68.6c-0.5,1.3-1.7,2.2-3.1,2.2l0,0  c-1.8,0-3.3-1.5-3.3-3.3C321.5,394.9,321.6,394.5,321.7,394.1L321.7,394.1z M327.9,339.9c0.7,0,1.4-0.3,1.9-0.8  c0.5-0.5,0.8-1.2,0.8-2v-5.4c0-0.7-0.3-1.4-0.8-2c-1-1-2.6-1.1-3.6-0.1c0,0-0.1,0.1-0.1,0.1c-0.5,0.5-0.8,1.2-0.8,2v5.4  c0,0.7,0.3,1.4,0.8,2C326.5,339.6,327.2,339.9,327.9,339.9z M345.2,399.1c-2.4,0.1-4.7-0.7-6.5-2.2c-1.6-1.5-2.5-3.6-2.4-5.8v-6.9  c-0.1-2.4,0.8-4.7,2.4-6.3c3.8-3.1,9.3-3.1,13.1,0c1.7,1.7,2.5,4,2.4,6.3v6.9c0.1,2.2-0.8,4.3-2.4,5.8  C349.9,398.5,347.6,399.3,345.2,399.1L345.2,399.1z M342.6,390.1c0,0.7,0.3,1.4,0.8,2c1,1,2.6,1.1,3.6,0.1c0,0,0.1-0.1,0.1-0.1  c0.5-0.5,0.8-1.2,0.8-1.9v-5.4c0-0.7-0.3-1.4-0.8-2c-1-1-2.6-1.1-3.6-0.1c0,0-0.1,0.1-0.1,0.1c-0.5,0.5-0.8,1.2-0.8,2L342.6,390.1z  "></path></g></svg>