<svg xmlns="http://www.w3.org/2000/svg" xmlns:xlink="http://www.w3.org/1999/xlink" transform="scale(1)" id="Layer_1" x="0px" y="0px" viewBox="0 0 500 500" xml:space="preserve" class="show_show__wrapper__graphic__5Waiy "><title>React</title><style type="text/css">	.st0{fill:#D1D3D4;}	.st1{fill:#ff000098;}	.st2{fill:#08218e;}	.st3{fill:#FFFFFF;}</style><path class="st0" id="Floor" d="M477.1,379.1H18.8c-0.4,0-0.7-0.3-0.7-0.7c0-0.4,0.3-0.7,0.7-0.7h458.3c0.4,0,0.7,0.3,0.7,0.7 C477.8,378.7,477.5,379.1,477.1,379.1L477.1,379.1z"></path><g id="Tripod"><path class="st1" d="M82,159.7L82,159.7c-0.5-0.1-0.7-0.4-0.7-0.8l1.2-8.5c0-0.3,0.3-0.6,0.7-0.6h23.7c0.4,0,0.7,0.3,0.7,0.7  c0,0.4-0.3,0.7-0.7,0.7H83.8l-1.2,7.9C82.6,159.5,82.3,159.7,82,159.7L82,159.7z"></path><path class="st1" d="M68.4,161.7c-0.2,0-0.5-0.1-0.6-0.3c-1.4-2.4-2.9-4.7-4.5-6.9c-1-0.1-6.8-0.1-12,0.1c-0.4,0-0.7-0.3-0.7-0.7  c0-0.4,0.3-0.7,0.7-0.7c0,0,0,0,0,0c7.9-0.2,12.2-0.2,12.7,0.1c0.2,0.1,0.8,0.4,5.1,7.4c0.2,0.3,0.1,0.7-0.2,1c0,0,0,0-0.1,0  C68.7,161.7,68.5,161.7,68.4,161.7L68.4,161.7z"></path><rect class="st1" x="79.1" y="190.2" width="12.5" height="34.1"></rect><path class="st1" d="M91.6,224.9H79.1c-0.3,0-0.6-0.3-0.6-0.6v-34.1c0-0.3,0.3-0.6,0.6-0.6h12.5c0.3,0,0.6,0.3,0.6,0.6v34.1  C92.2,224.6,91.9,224.9,91.6,224.9z M79.7,223.7H91v-32.8H79.7V223.7z"></path><path class="st1" d="M45.9,390.9c-0.1,0-0.2,0-0.3,0c-0.8-0.2-1.3-0.9-1.1-1.6c0,0,0,0,0,0L77.7,224c0.2-0.8,0.9-1.3,1.7-1.1  c0.8,0.2,1.3,0.9,1.1,1.6L47.3,389.7C47.1,390.4,46.6,390.9,45.9,390.9L45.9,390.9z"></path><path class="st1" d="M124.8,390.9c-0.7,0-1.2-0.5-1.4-1.1L90.2,224.6c-0.2-0.8,0.3-1.5,1.1-1.7s1.5,0.3,1.7,1.1l0,0l33.2,165.2  c0.2,0.8-0.3,1.5-1.1,1.6c0,0,0,0,0,0C125,390.9,124.9,390.9,124.8,390.9L124.8,390.9z"></path><path class="st1" d="M85.3,390.9c-0.8,0-1.4-0.6-1.4-1.4V224.3c0-0.8,0.6-1.4,1.4-1.4s1.4,0.6,1.4,1.4v165.2  C86.7,390.2,86.1,390.9,85.3,390.9z"></path><rect class="st1" x="72.5" y="187.6" width="25.6" height="15.5"></rect><path class="st1" d="M98.2,203.7H72.5c-0.3,0-0.6-0.3-0.6-0.6v-15.5c0-0.3,0.3-0.6,0.6-0.6h25.6c0.3,0,0.6,0.3,0.6,0.6V203  C98.8,203.3,98.5,203.6,98.2,203.7C98.2,203.7,98.2,203.7,98.2,203.7z M73.2,202.4h24.4v-14.3H73.1L73.2,202.4z"></path><rect class="st2" x="55" y="158.6" width="56.5" height="31"></rect><path class="st1" d="M111.5,190.3H55c-0.4,0-0.7-0.3-0.7-0.7v-31c0-0.4,0.3-0.7,0.7-0.7h56.5c0.4,0,0.7,0.3,0.7,0.7v31  C112.2,190,111.9,190.3,111.5,190.3L111.5,190.3z M55.7,188.9h55.1v-29.6H55.7L55.7,188.9z"></path><rect class="st1" x="111.5" y="164.1" width="14.3" height="20.1"></rect><path class="st1" d="M125.8,184.8h-14.3c-0.3,0-0.6-0.3-0.6-0.6v-20.1c0-0.3,0.3-0.6,0.6-0.6h14.3c0.3,0,0.6,0.3,0.6,0.6v20.1  C126.5,184.5,126.2,184.8,125.8,184.8z M112.1,183.6h13.1v-18.9h-13.1V183.6z"></path><polygon class="st2" points="140.9,189.9 125.8,184.2 125.8,164.1 140.9,158.4  "></polygon><path class="st1" d="M140.9,190.6c-0.1,0-0.2,0-0.2-0.1l-15.1-5.7c-0.3-0.1-0.5-0.4-0.4-0.6v-20.1c0-0.3,0.2-0.5,0.4-0.6l15.1-5.7  c0.4-0.1,0.8,0.1,0.9,0.4c0,0.1,0,0.2,0,0.2v31.5C141.6,190.3,141.3,190.6,140.9,190.6C140.9,190.6,140.9,190.6,140.9,190.6  L140.9,190.6z M126.5,183.7l13.7,5.1v-29.4l-13.7,5.1V183.7z"></path><rect class="st1" x="47.5" y="162.1" width="7.4" height="22.1"></rect><path class="st1" d="M55,184.8h-7.5c-0.3,0-0.6-0.3-0.6-0.6v-22.1c0-0.3,0.3-0.6,0.6-0.6H55c0.3,0,0.6,0.3,0.6,0.6v22.1  C55.6,184.5,55.3,184.8,55,184.8z M48.2,183.6h6.2v-20.9h-6.2L48.2,183.6z"></path><path class="st1" d="M90.7,147.7h23c0.9,0,1.7,0.8,1.7,1.7v1.4c0,0.9-0.8,1.7-1.7,1.7h-23c-0.9,0-1.7-0.8-1.7-1.7v-1.4  C89,148.5,89.8,147.7,90.7,147.7z"></path><path class="st1" d="M113,153.2H91.4c-1.7,0-3-1.4-3-3s1.4-3,3-3H113c1.7,0,3,1.4,3,3S114.7,153.2,113,153.2z M91.4,148.4  c-1,0.1-1.7,0.9-1.7,1.9c0.1,0.9,0.8,1.6,1.7,1.7H113c1-0.1,1.7-0.9,1.7-1.9c-0.1-0.9-0.8-1.6-1.7-1.7H91.4z"></path><path class="st2" d="M68.1,171.2h34.4v22.2H68.1c-3.7,0-6.7-3-6.7-6.7V178C61.4,174.3,64.4,171.3,68.1,171.2  C68.1,171.3,68.1,171.2,68.1,171.2z"></path><path class="st1" d="M102.6,194.2H70.8c-5.6,0-10.1-4.5-10.1-10.1v-3.5c0-5.6,4.5-10.1,10.1-10.1h31.7c0.4,0,0.7,0.3,0.7,0.7v22.3  C103.2,193.9,102.9,194.2,102.6,194.2z M70.8,172c-4.8,0-8.7,3.9-8.7,8.7v3.5c0,4.8,3.9,8.7,8.7,8.7h0h31V172H70.8z"></path><path class="st1" d="M86.2,164.8H64.8c-0.4,0-0.7-0.3-0.7-0.7c0-0.4,0.3-0.7,0.7-0.7c0,0,0,0,0,0h21.4c0.4,0,0.7,0.3,0.7,0.7  C86.9,164.4,86.6,164.7,86.2,164.8C86.2,164.8,86.2,164.8,86.2,164.8z"></path></g><g id="Smartphone"><path class="st1" d="M424.6,389.7H286.4c-4.8,0.1-8.8-3.8-8.8-8.6c0-0.2,0-0.4,0-0.7l13.9-263.6c0.3-5.2,4.6-9.2,9.8-9.3h138.2  c4.8-0.1,8.8,3.8,8.8,8.6c0,0.2,0,0.4,0,0.7l-13.9,263.7C434,385.6,429.8,389.6,424.6,389.7z"></path><path class="st1" d="M424.6,390.3H286.4c-5.2,0-9.4-4.1-9.4-9.3c0-0.2,0-0.5,0-0.7l13.9-263.6c0.3-5.5,4.9-9.8,10.4-9.9h138.2  c5.2,0,9.4,4.1,9.4,9.3c0,0.2,0,0.5,0,0.7L435,380.5C434.7,386,430.1,390.3,424.6,390.3L424.6,390.3z M301.2,108.1  c-4.9,0.1-8.9,3.8-9.2,8.7l-13.9,263.7c-0.3,4.5,3.1,8.3,7.6,8.6c0.2,0,0.4,0,0.6,0h138.2c4.9-0.1,8.9-3.8,9.2-8.7l13.9-263.6  c0.3-4.5-3.1-8.3-7.6-8.6c-0.2,0-0.4,0-0.6,0L301.2,108.1z"></path><path class="st3" d="M414.4,389.2H276.1c-4.8,0.1-8.8-3.8-8.8-8.6c0-0.2,0-0.4,0-0.7l13.9-263.6c0.3-5.2,4.6-9.2,9.8-9.3h138.2  c4.8-0.1,8.8,3.8,8.8,8.6c0,0.2,0,0.4,0,0.7L424.1,380C423.8,385.2,419.5,389.2,414.4,389.2L414.4,389.2z"></path><path class="st1" d="M414.4,389.9H276.1c-5.2,0.1-9.5-4.1-9.5-9.3c0-0.2,0-0.5,0-0.7l13.9-263.6c0.3-5.6,4.9-9.9,10.5-10h138.2  c5.2-0.1,9.5,4.1,9.5,9.3c0,0.2,0,0.5,0,0.7L424.8,380C424.5,385.5,419.9,389.9,414.4,389.9L414.4,389.9z M291,107.7  c-4.8,0.1-8.8,3.8-9.1,8.6L268,380c-0.3,4.4,3,8.2,7.4,8.5c0.2,0,0.4,0,0.7,0h138.2c4.8-0.1,8.8-3.8,9.1-8.6l13.9-263.7  c0.3-4.4-3-8.2-7.4-8.5c-0.2,0-0.4,0-0.7,0C429.2,107.7,291,107.7,291,107.7z"></path><path class="st0" d="M362.7,117.6h-26c-0.4,0-0.7-0.3-0.7-0.7c0-0.4,0.3-0.7,0.7-0.7h26c0.4,0,0.7,0.3,0.7,0.7  C363.4,117.3,363,117.6,362.7,117.6z"></path><path class="st0" d="M371,117.6h-4.5c-0.4,0-0.7-0.3-0.7-0.7c0-0.4,0.3-0.7,0.7-0.7h4.5c0.4,0,0.7,0.3,0.7,0.7  C371.8,117.3,371.4,117.6,371,117.6z"></path><path class="st0" d="M440.8,170.5L440.8,170.5c-0.4,0-0.7-0.4-0.7-0.7c0,0,0,0,0,0l1.4-27.3c0-0.4,0.3-0.7,0.7-0.7c0,0,0.1,0,0.1,0  c0.4,0,0.7,0.4,0.7,0.7c0,0,0,0,0,0l-1.4,27.3C441.5,170.2,441.2,170.5,440.8,170.5L440.8,170.5z"></path><path class="st0" d="M342.6,382.7c-5.3,0.1-9.6-4.1-9.7-9.4c0-0.3,0-0.5,0-0.8c0.4-5.7,5.1-10.1,10.7-10.1c5.3-0.1,9.6,4.2,9.7,9.4  c0,0.3,0,0.5,0,0.8C353,378.2,348.3,382.7,342.6,382.7z M343.8,363.7c-4.9,0.1-9,3.9-9.3,8.8c-0.3,4.5,3,8.4,7.5,8.7  c0.2,0,0.5,0,0.7,0c4.9-0.1,9-3.9,9.3-8.8l0,0c0.3-4.5-3-8.4-7.5-8.7C344.2,363.7,344,363.7,343.8,363.7z"></path></g><g id="Screen"><polygon class="st3" points="415.3,357.8 276.1,357.8 290.1,125.3 429.2,125.3  "></polygon><path class="st1" d="M415.3,358.5H276.1c-0.2,0-0.4-0.1-0.5-0.2c-0.1-0.1-0.2-0.3-0.2-0.5l14-232.4c0-0.4,0.3-0.7,0.7-0.7h139.1  c0.2,0,0.4,0.1,0.5,0.2c0.1,0.1,0.2,0.3,0.2,0.5L416,357.8C416,358.2,415.7,358.5,415.3,358.5z M276.9,357.1h137.7l13.9-231H290.7  L276.9,357.1z"></path><polygon class="st2" points="424.2,208.2 285.1,208.2 290.1,125.3 429.2,125.3  "></polygon><path class="st1" d="M424.2,208.9H285.1c-0.2,0-0.4-0.1-0.5-0.2c-0.1-0.1-0.2-0.3-0.2-0.5l5-82.9c0-0.4,0.3-0.7,0.7-0.7h139.1  c0.2,0,0.4,0.1,0.5,0.2c0.1,0.1,0.2,0.3,0.2,0.5l-5,82.9C424.9,208.6,424.6,208.9,424.2,208.9L424.2,208.9z M285.9,207.5h137.7  l4.9-81.5H290.8L285.9,207.5z"></path><polygon class="st3" points="343.8,184.6 345.9,150.1 372.2,167.4  "></polygon><ellipse class="st0" transform="matrix(0.7176 -0.6964 0.6964 0.7176 -77.5439 275.2303)" cx="300.6" cy="233.2" rx="9.2" ry="8.7"></ellipse><ellipse class="st0" transform="matrix(0.7176 -0.6964 0.6964 0.7176 -151.5914 300.1983)" cx="294.4" cy="337" rx="9.2" ry="8.7"></ellipse><path class="st0" d="M393.4,229.6h-72.1c-0.4,0-0.7-0.3-0.7-0.7c0-0.4,0.3-0.7,0.7-0.7h72.1c0.4,0,0.7,0.3,0.7,0.7  S393.8,229.6,393.4,229.6C393.4,229.6,393.4,229.6,393.4,229.6z"></path><path class="st0" d="M378.7,238.2h-57.9c-0.4,0-0.7-0.3-0.7-0.7s0.3-0.7,0.7-0.7c0,0,0,0,0,0h58c0.4,0,0.7,0.3,0.7,0.7  C379.4,237.9,379.1,238.2,378.7,238.2L378.7,238.2z"></path><polygon class="st0" points="415.4,229.3 412.2,229.3 412.4,226.2 415.5,226.2  "></polygon><polygon class="st0" points="415.1,234.5 411.9,234.5 412.1,231.4 415.2,231.4  "></polygon><polygon class="st0" points="414.8,239.7 411.6,239.7 411.8,236.5 414.9,236.5  "></polygon><polygon class="st3" points="424,213 284.8,213 285.1,208.2 424.2,208.2  "></polygon><path class="st1" d="M424,213.7H284.8c-0.2,0-0.4-0.1-0.5-0.2c-0.1-0.1-0.2-0.3-0.2-0.5l0.3-4.8c0-0.4,0.3-0.7,0.7-0.7h139.1  c0.2,0,0.4,0.1,0.5,0.2c0.1,0.1,0.2,0.3,0.2,0.5l-0.3,4.8C424.6,213.4,424.4,213.7,424,213.7z M285.6,212.3h137.7l0.2-3.4H285.8  L285.6,212.3z"></path><polygon class="st1" points="336.9,213 284.8,213 285.1,208.2 337.1,208.2  "></polygon><path class="st1" d="M336.9,213.6h-52c-0.2,0-0.3-0.1-0.5-0.2c-0.1-0.1-0.2-0.3-0.2-0.5l0.3-4.8c0-0.3,0.3-0.6,0.6-0.6h52  c0.2,0,0.3,0.1,0.5,0.2c0.1,0.1,0.2,0.3,0.2,0.5l-0.3,4.8C337.4,213.3,337.2,213.6,336.9,213.6z M285.5,212.4h50.8l0.2-3.5h-50.8  L285.5,212.4z"></path><path class="st1" d="M421.7,251.9H282.5c-0.4,0-0.7-0.3-0.7-0.7s0.3-0.7,0.7-0.7c0,0,0,0,0,0h139.1c0.4,0,0.7,0.3,0.7,0.7  C422.4,251.6,422.1,251.9,421.7,251.9z"></path><ellipse class="st0" transform="matrix(0.7176 -0.6964 0.6964 0.7176 -107.7331 285.4103)" cx="298.1" cy="275.6" rx="9.2" ry="8.7"></ellipse><path class="st0" d="M411.3,271.9h-95.5c-0.4,0-0.7-0.3-0.7-0.7c0-0.4,0.3-0.7,0.7-0.7h95.4c0.4,0,0.7,0.3,0.7,0.7  C412,271.6,411.7,271.9,411.3,271.9L411.3,271.9z"></path><path class="st0" d="M399.9,280.6h-84.6c-0.4,0-0.7-0.3-0.7-0.7c0-0.4,0.3-0.7,0.7-0.7h84.6c0.4,0,0.7,0.3,0.7,0.7  C400.6,280.3,400.3,280.6,399.9,280.6z"></path><ellipse class="st0" transform="matrix(0.7176 -0.6964 0.6964 0.7176 -127.8681 292.2011)" cx="296.4" cy="303.8" rx="9.2" ry="8.7"></ellipse><path class="st0" d="M398.7,300.1h-84.6c-0.4,0-0.7-0.3-0.7-0.7s0.3-0.7,0.7-0.7c0,0,0,0,0,0h84.6c0.4,0,0.7,0.3,0.7,0.7  S399.1,300.1,398.7,300.1C398.7,300.1,398.7,300.1,398.7,300.1z"></path><path class="st0" d="M377,308.9h-63.4c-0.4,0-0.7-0.3-0.7-0.7s0.3-0.7,0.7-0.7c0,0,0,0,0,0H377c0.4,0,0.7,0.3,0.7,0.7  S377.4,308.9,377,308.9C377,308.9,377,308.9,377,308.9z"></path><path class="st0" d="M394.5,346h-74.2c-4.6,0.1-8.4-3.6-8.4-8.2c0-0.3,0-0.5,0-0.8l0,0c0.3-5,4.5-8.9,9.5-9h74.2  c4.6-0.1,8.4,3.6,8.4,8.2c0,0.3,0,0.5,0,0.8l0,0C403.7,342,399.5,345.9,394.5,346z"></path></g><g id="Character"><path class="st3" d="M222.7,132.3c-0.3,2.3,0.5,4.5,2.1,6.2c-0.2-1.9,0.5-3.8,1.9-5.1c1.4-1.1,3-1.8,4.8-2c-0.3,1-0.5,2.1-0.5,3.2  c0,1.1,0.6,2.1,1.5,2.6c0.7,0.3,1.5,0.3,2.2,0.1c3.2-0.6,6.3-1.8,9.5-1.6s6.7,2,7.6,5.4c1.5,0.7,2.6,1.9,3.1,3.5  c1.1,2.7,1.4,5.8,0.8,8.6c-0.5,2.2-1.4,4.2-2.6,6.1c-1.7,3.2-4.2,6-7.3,8c-1.3,0.8-2.8,1.3-4.3,1.3c-5.4-0.3-10.9-6.9-14.8-10.6  c-4.1-4-6.7-9.3-7.4-14.9C219.1,139.1,220,134.9,222.7,132.3L222.7,132.3z"></path><path class="st1" d="M241.9,169.1h-0.3c-4.7-0.2-9.3-4.9-13.1-8.6c-0.8-0.8-1.5-1.5-2.2-2.2c-4.2-4.1-6.9-9.5-7.6-15.3  c-0.4-4.6,0.9-8.8,3.4-11.2c0.3-0.3,0.7-0.3,1,0c0.1,0.2,0.2,0.4,0.2,0.6c-0.2,1.4,0.1,2.8,0.8,4.1c0.3-1.4,1-2.7,2.1-3.6  c1.5-1.2,3.3-2,5.2-2.2c0.2,0,0.5,0.1,0.6,0.2c0.2,0.2,0.2,0.4,0.2,0.6c-0.3,1-0.5,2-0.4,3c0,0.8,0.4,1.6,1.1,2.1  c0.6,0.2,1.2,0.2,1.8,0c0.9-0.2,1.8-0.4,2.7-0.6c2.2-0.7,4.6-1,6.9-1c3.2,0.1,7,1.9,8.2,5.6c1.5,0.8,2.7,2.2,3.2,3.8  c1.2,2.9,1.5,6,0.8,9.1c-0.6,2.2-1.5,4.4-2.7,6.3c-2.3,3.9-4.8,6.6-7.5,8.2C245,168.7,243.4,169.2,241.9,169.1L241.9,169.1z   M222,134.1c-1.6,2.6-2.2,5.6-1.8,8.6c0.7,5.5,3.2,10.6,7.1,14.5c0.7,0.7,1.4,1.4,2.2,2.2c3.6,3.6,8,8,12.1,8.2  c1.4,0,2.7-0.4,3.9-1.2c2.5-1.5,4.8-4,7-7.7c1.2-1.8,2-3.8,2.5-5.9c0.6-2.8,0.3-5.6-0.7-8.2c-0.4-1-1.3-2.6-2.7-3.1  c-0.2-0.1-0.4-0.2-0.4-0.5c-0.9-3.2-4.2-4.8-7-4.9c-2.2,0-4.4,0.4-6.5,1c-0.9,0.2-1.9,0.5-2.8,0.6c-0.9,0.3-1.8,0.2-2.7-0.1  c-1.1-0.7-1.8-1.9-1.9-3.2c0-0.8,0-1.6,0.2-2.4c-1.3,0.3-2.4,0.8-3.4,1.7c-1.3,1.1-1.9,2.8-1.7,4.5c0,0.3-0.1,0.6-0.4,0.7  c-0.3,0.1-0.6,0.1-0.8-0.1C222.9,137.7,222.1,136,222,134.1L222,134.1z"></path><path class="st1" d="M256.8,249.5c0,0,0,19,0.6,33.9s-4,95.6-4,95.6l-14.5,0.4l-10.8-96.1l-18.8,97.3l-18.4-1.5  c0,0,9.7-121,10.1-133.9L256.8,249.5L256.8,249.5z"></path><path class="st1" d="M209.3,381.1L209.3,381.1l-18.5-1.5c-0.2,0-0.3-0.1-0.4-0.2c-0.1-0.1-0.2-0.3-0.1-0.5  c0.1-1.2,9.7-121.1,10.1-133.9c0-0.2,0.1-0.3,0.2-0.4c0.1-0.1,0.3-0.2,0.5-0.2l55.8,4.4c0.3,0,0.6,0.3,0.6,0.6  c0,0.2,0,19.1,0.6,33.9s-4,94.9-4,95.6c0,0.3-0.3,0.6-0.6,0.6L239,380c-0.3,0-0.6-0.2-0.6-0.5L228,287.3l-18.1,93.3  C209.9,380.9,209.6,381.1,209.3,381.1L209.3,381.1z M191.6,378.4l17.3,1.4l18.7-96.7c0.1-0.3,0.3-0.5,0.6-0.5  c0.3,0,0.6,0.2,0.6,0.5l10.8,95.6l13.3-0.3c0.4-7.2,4.6-80.9,4-95c-0.6-13.3-0.6-30.1-0.6-33.3l-54.6-4.4  C201,260.9,192.3,369.2,191.6,378.4L191.6,378.4z"></path><path class="st3" d="M253.4,379c0,0,13.9,9.5,11.6,10.5s-27,0-27,0l0.9-10.1"></path><path class="st1" d="M256.8,390.6c-7.4,0-17.1-0.4-18.7-0.4c-0.4,0-0.7-0.3-0.7-0.7c0,0,0,0,0,0l0.9-10.1c0-0.4,0.4-0.7,0.8-0.6  c0.4,0,0.7,0.4,0.6,0.8l-0.8,9.4c9.2,0.4,23.2,0.6,25.7,0.1c-0.8-1.4-6.4-5.8-11.5-9.3c-0.3-0.2-0.3-0.7-0.1-1  c0.2-0.3,0.6-0.3,0.9-0.2c4.6,3.2,12.4,8.8,12.2,10.8c0,0.4-0.3,0.7-0.7,0.9C264.5,390.5,261,390.6,256.8,390.6L256.8,390.6z   M264.6,389.1L264.6,389.1z"></path><path class="st3" d="M209.3,380.5c0,0-0.6,8.4-1.8,8.5s-30.6,1.5-29.4-0.3s12.7-9.7,12.7-9.7"></path><path class="st1" d="M188.2,390.4c-5.5,0-10.2-0.3-10.7-1.1c-0.2-0.3-0.2-0.7,0-0.9c1.3-1.9,11.7-9.1,12.9-9.9  c0.3-0.2,0.7-0.2,1,0.1c0.2,0.3,0.2,0.7-0.1,1c0,0-0.1,0-0.1,0.1c-4.1,2.8-10.2,7.2-12.1,9c4.1,0.8,25.3,0,28.2-0.2  c0.5-0.7,1.1-4.6,1.3-7.9c0-0.4,0.4-0.7,0.8-0.6s0.7,0.4,0.6,0.8c-0.6,9-1.9,9.1-2.4,9.2C207.5,389.7,196.8,390.4,188.2,390.4  L188.2,390.4z"></path><path class="st2" d="M210,177.9c0,0,9.4-8,26.3-5.5c8.7,1.3,13.7,0.9,21.9,7.5l-1.4,69.6c0,0-40.5,5.9-58.2-2.9L210,177.9z"></path><path class="st3" d="M228.9,172.6l-1.7,9.5c0,0,0.4,4.6,7.1,4.2s8.4-4.5,8.4-4.5l2.6-17.8c0,0-2.6-5.3,0.7-15.2c0,0-11.2,3-20.4,0  c0,0-2.3,11.5-2.5,16.6S228.9,172.6,228.9,172.6L228.9,172.6z"></path><path class="st1" d="M233.5,187.1c-6.5,0-7.1-4.8-7.1-4.9V182l1.6-9c-1.6-0.7-6-3.1-5.8-7.7c0.2-5.1,2.4-16.2,2.5-16.7  c0-0.2,0.2-0.4,0.3-0.5c0.2-0.1,0.4-0.1,0.6-0.1c8.9,2.9,19.9,0,20,0c0.2-0.1,0.5,0,0.7,0.2c0.2,0.2,0.2,0.5,0.1,0.7  c-3.2,9.5-0.8,14.6-0.7,14.7c0.1,0.1,0.1,0.3,0.1,0.4l-2.6,17.9c0,0.1,0,0.1-0.1,0.2c-0.1,0.2-2,4.6-9,5L233.5,187.1L233.5,187.1z   M227.8,182.1c0.1,0.6,0.9,3.8,6.4,3.5c5.7-0.3,7.5-3.5,7.8-4l2.5-17.6c-0.4-1.1-2.1-5.9,0.4-14.4c-3.1,0.7-11.4,2.1-18.9-0.1  c-0.5,2.6-2.2,11.5-2.3,15.7c-0.1,4.5,5.4,6.6,5.4,6.6c0.3,0.1,0.5,0.4,0.4,0.8L227.8,182.1L227.8,182.1z"></path><path class="st3" d="M242.3,162.9c0.4-0.8,1-1.5,1.8-1.9c0.8-0.4,1.6-0.6,2.4-0.7c0.5-0.1,0.9-0.1,1.4,0c0.3,0.1,0.6,0.3,0.8,0.5  c0.6,0.5,1.1,1.1,1.2,1.9c0.1,0.6,0,1.3-0.3,1.8c-0.2,0.6-0.5,1.3-0.9,1.8c-1.6,2.3-4.7,3-7.1,1.4c0,0,0,0-0.1,0"></path><path class="st1" d="M244.6,169.3c-1.2,0-2.3-0.3-3.3-1c-0.3-0.2-0.5-0.6-0.3-1c0.2-0.3,0.6-0.5,1-0.3c0,0,0.1,0,0.1,0.1  c2,1.4,4.8,0.9,6.1-1.1c0,0,0,0,0-0.1c0.3-0.5,0.6-1.1,0.8-1.7c0.2-0.5,0.3-1,0.2-1.5c-0.2-0.6-0.5-1.1-1-1.5  c-0.2-0.2-0.4-0.3-0.6-0.4c-0.4-0.1-0.7-0.1-1.1,0c-0.8,0.1-1.5,0.3-2.2,0.6c-0.7,0.4-1.2,0.9-1.5,1.6c-0.2,0.4-0.6,0.5-0.9,0.4  c-0.4-0.2-0.5-0.6-0.3-0.9c0.4-1,1.2-1.8,2.1-2.3c0.8-0.4,1.7-0.7,2.7-0.8c0.6-0.1,1.1-0.1,1.7,0c0.4,0.1,0.8,0.4,1.1,0.6  c0.8,0.6,1.3,1.4,1.5,2.3c0.1,0.7,0,1.5-0.3,2.2c-0.2,0.7-0.5,1.4-0.9,2c-0.9,1.3-2.2,2.2-3.7,2.5  C245.3,169.2,245,169.3,244.6,169.3L244.6,169.3z"></path><path class="st3" d="M228.8,157.2c0,0-4.4,4.2-3.8,5.2s2.9,1,2.9,1"></path><path class="st1" d="M227.7,164.1c-0.7,0-2.7-0.1-3.4-1.3c-0.6-1,0.8-3,3.9-6.1c0.3-0.3,0.7-0.3,1,0s0.3,0.7,0,1  c-1.9,1.8-3.6,3.9-3.7,4.5c0.2,0.3,1.4,0.5,2.2,0.5c0.4,0,0.7,0.3,0.7,0.7c0,0.4-0.3,0.7-0.7,0.7L227.7,164.1L227.7,164.1z"></path><path class="st3" d="M236.2,155.3c0,0-1.4-2.7-3.7-0.7"></path><path class="st1" d="M236.2,156c-0.3,0-0.5-0.1-0.6-0.4l0,0c-0.3-0.5-0.7-0.8-1.2-1c-0.5,0-1,0.2-1.4,0.6c-0.3,0.2-0.8,0.1-1-0.2  c-0.1-0.2-0.1-0.5,0-0.8c0.7-0.7,1.6-1,2.6-0.9c0.9,0.3,1.7,0.9,2.2,1.8c0.2,0.3,0,0.8-0.3,0.9C236.4,156,236.3,156.1,236.2,156  L236.2,156z"></path><path class="st3" d="M229.3,154.2c0,0-0.6-1.7-3.1-0.1"></path><path class="st1" d="M229.3,154.9c-0.3,0-0.6-0.2-0.7-0.5c-0.1-0.1-0.2-0.2-0.3-0.3c-0.2-0.1-0.7-0.1-1.8,0.5  c-0.3,0.2-0.8,0.1-1-0.2c0,0,0,0,0,0c-0.2-0.3-0.1-0.8,0.2-1c0,0,0,0,0,0c0.8-0.7,2-0.9,3-0.7c0.6,0.2,1,0.7,1.2,1.2  c0.1,0.4-0.1,0.8-0.4,0.9L229.3,154.9L229.3,154.9z"></path><path class="st1" d="M228.9,172.6c0,0,5,0.8,7.5-0.2c0,0-2.8,5.4-8.4,5.9L228.9,172.6L228.9,172.6z"></path><path class="st1" d="M227.9,179.1c-0.2,0-0.4-0.1-0.5-0.2c-0.2-0.2-0.2-0.4-0.2-0.6l0.9-5.7c0.1-0.4,0.4-0.6,0.8-0.6  c0,0,4.8,0.7,7.1-0.2c0.3-0.1,0.6,0,0.8,0.2c0.2,0.2,0.2,0.5,0.1,0.8C236.8,172.9,234,178.4,227.9,179.1L227.9,179.1L227.9,179.1z   M229.4,173.4l-0.7,4.1c2.4-0.6,4.5-2,6-4C233,173.7,231.2,173.6,229.4,173.4z"></path><path class="st3" d="M195.1,176.9l-0.7,11.3L185,189l1.3-18.4c0,0,9.9-3.4,11-3.1S195.1,176.9,195.1,176.9L195.1,176.9z"></path><path class="st1" d="M185,189.7c-0.4,0-0.7-0.3-0.7-0.7c0,0,0,0,0-0.1l1.3-18.4c0-0.3,0.2-0.5,0.4-0.6c3.8-1.3,10.3-3.5,11.5-3.1  c0.3,0.1,0.5,0.3,0.6,0.5c0.6,1.3-1.2,6.5-2.3,9.6l-0.7,11.2c0,0.3-0.3,0.6-0.6,0.6L185,189.7L185,189.7L185,189.7z M187,171.1  l-1.2,17.1l8-0.7l0.7-10.7c0-0.1,0-0.1,0-0.2c1.2-3.3,2.4-7.2,2.4-8.4C193.5,169,190.2,170,187,171.1L187,171.1z M194.4,188.1  L194.4,188.1z"></path><path class="st3" d="M205.9,167c0,0-1.2,2.8-3,3.2s-5.7-1.5-6.1-1.2s-10.7,7.9-11.7,8.2s-2.8-2.2-3.6-5.1c0,0,10-6.8,10.6-7.5  s1.4-5,2.4-6.6L205.9,167L205.9,167z"></path><path class="st1" d="M185,177.8c-1.5,0-3.4-2.8-4.2-5.6c-0.1-0.3,0-0.6,0.3-0.8c3.8-2.6,10-6.9,10.5-7.4c0.4-0.8,0.7-1.7,0.9-2.6  c0.3-1.4,0.8-2.7,1.4-3.9c0.1-0.2,0.3-0.3,0.5-0.3c0.2,0,0.4,0,0.6,0.1l11.4,9c0.3,0.2,0.3,0.5,0.2,0.8c-0.1,0.3-1.4,3.1-3.5,3.6  c-1.3,0.4-3.3-0.3-4.8-0.8c-0.4-0.1-1-0.3-1.2-0.4l-2.3,1.6c-6.6,4.8-8.9,6.4-9.5,6.5C185.2,177.8,185.1,177.8,185,177.8L185,177.8  z M182.3,172.3c0.8,2.4,2.2,4.1,2.7,4.1c0.7-0.3,6.3-4.3,8.9-6.3c1.9-1.4,2.4-1.7,2.5-1.8c0.4-0.2,1-0.1,2.2,0.4s3.1,1,4,0.8  s1.9-1.5,2.3-2.4l-10.3-8.1c-0.4,0.9-0.7,1.9-0.9,2.9c-0.2,1.1-0.6,2.2-1.2,3.1C192,165.7,184.6,170.7,182.3,172.3L182.3,172.3z"></path><path class="st1" d="M195,160.5c0.1,0.7-0.1,1.5-0.4,2.1c-0.6,1-3,2.4-3,2.4l-1.7-3.5l3.4-2.4L195,160.5z"></path><path class="st1" d="M191.6,165.7c-0.1,0-0.1,0-0.2,0c-0.2-0.1-0.3-0.2-0.4-0.4l-1.7-3.5c-0.2-0.3-0.1-0.7,0.2-0.9l3.4-2.4  c0.3-0.2,0.6-0.2,0.9,0l1.8,1.5c0.1,0.1,0.2,0.3,0.2,0.4c0.1,0.9-0.1,1.8-0.5,2.6c-0.6,1.1-2.9,2.4-3.3,2.6  C191.8,165.6,191.7,165.7,191.6,165.7L191.6,165.7z M190.7,161.7l1.1,2.3c0.8-0.4,1.5-1,2.1-1.7c0.2-0.4,0.3-0.9,0.3-1.4l-1.1-0.9  L190.7,161.7L190.7,161.7z"></path><path class="st3" d="M184.2,170.2c0,0-0.9-2.9,0.7-3.1c0-0.8,0.7-1.4,1.6-1.4c0.2,0,0.5,0.1,0.7,0.2c0,0,0.5-2.1,2.2-1.7  s3,4.4,2.8,5.4s-1.5,0.4-2.2-0.6c0,0,0.9,1.6,0.3,2c-0.8,0.6-1.7-0.5-2.4-1.3c0,0,1,1.9-0.5,2c-1.2,0.1-2.3-2.3-2.3-2.3  L184.2,170.2L184.2,170.2z"></path><path class="st1" d="M187.1,172.6c-1.1,0-2-1.1-2.4-1.9l-0.1,0.1c-0.2,0.1-0.4,0.2-0.6,0.1c-0.2-0.1-0.4-0.2-0.4-0.4  c-0.1-0.4-0.6-2.1,0.1-3.2c0.2-0.3,0.4-0.5,0.7-0.6c0.2-0.5,0.5-1,1-1.3c0.4-0.2,0.9-0.3,1.4-0.2c0.2-0.5,0.6-1,1.1-1.3  c0.5-0.3,1.1-0.4,1.7-0.2c2.1,0.6,3.6,5,3.3,6.3c-0.1,0.5-0.5,0.9-1,1c-0.2,0-0.5,0-0.7,0c0,0.3-0.2,0.6-0.5,0.9  c-0.6,0.4-1.3,0.4-1.9,0c0,0,0,0.1,0,0.1c-0.3,0.5-0.8,0.8-1.3,0.8L187.1,172.6L187.1,172.6z M185,169c0.1,0,0.1,0,0.2,0  c0.2,0.1,0.4,0.2,0.4,0.4c0.4,0.9,1.2,1.9,1.6,1.9c0.1,0,0.1,0,0.2-0.1c0-0.3-0.1-0.6-0.2-0.9c-0.2-0.3-0.1-0.7,0.2-0.9  c0.3-0.2,0.7-0.2,0.9,0.1l0.1,0.2c0.4,0.4,1,1,1.2,1c-0.1-0.4-0.2-0.8-0.4-1.1c-0.2-0.3,0-0.8,0.3-0.9c0.3-0.2,0.7-0.1,0.9,0.2  c0.4,0.5,0.9,0.8,1,0.8c0.1-0.7-1.1-4.3-2.4-4.6c-0.2-0.1-0.4,0-0.6,0.1c-0.4,0.3-0.6,0.7-0.7,1.1c-0.1,0.2-0.2,0.4-0.4,0.5  c-0.2,0.1-0.4,0.1-0.6,0c-0.3-0.1-0.6-0.2-0.8-0.1c-0.2,0.2-0.4,0.4-0.4,0.7c-0.1,0.3-0.3,0.5-0.6,0.6c-0.1,0-0.2,0-0.2,0.1  c-0.1,0.3-0.2,0.7-0.1,1.1C184.7,169,184.9,169,185,169z"></path><path class="st3" d="M191.6,161.6c0,0,1-1.6,2-0.2s2.2,4.2,0.5,4.4S191.1,163.1,191.6,161.6z"></path><path class="st1" d="M193.8,166.6c-0.7,0-1.4-0.4-1.8-0.9c-1-1.2-1.4-2.7-1.1-4.3l0.1-0.1c0.3-0.6,0.9-1,1.6-1.1  c0.6,0,1.2,0.4,1.5,0.9c0.2,0.3,2,3,1.3,4.6c-0.2,0.5-0.7,0.9-1.3,1C194.1,166.6,193.9,166.6,193.8,166.6L193.8,166.6z   M192.2,161.9c-0.1,1,0.2,2.1,0.9,2.9c0.2,0.3,0.5,0.4,0.8,0.4c0.2,0,0.2-0.1,0.2-0.1c0.2-0.5-0.4-2-1.2-3.2  c-0.2-0.2-0.3-0.3-0.3-0.3l0,0C192.5,161.5,192.3,161.7,192.2,161.9L192.2,161.9z"></path><path class="st3" d="M195.1,176.9c0,0,2.5-5.2,2.6-6.2c0.2-1.6-0.2-4.1-1.6-4.4s-4.6-0.8-4.1,0.6s3.3,1.5,3.3,1.5s-1.9,1.9-1.6,3.9  "></path><path class="st1" d="M195.1,177.6c-0.1,0-0.2,0-0.3-0.1c-0.3-0.2-0.5-0.6-0.3-0.9c0,0,0,0,0,0c1-1.9,1.8-3.9,2.5-5.9  c0.2-1.6-0.2-3.5-1.1-3.7c-1-0.3-2.1-0.4-3.2-0.2c0.3,0.6,1.7,0.9,2.6,1c0.3,0,0.5,0.2,0.6,0.5c0.1,0.3,0,0.5-0.2,0.7  c-0.5,0.5-1.6,2-1.4,3.3c0.1,0.4-0.2,0.7-0.6,0.8c0,0,0,0,0,0c-0.4,0.1-0.7-0.2-0.8-0.6c-0.1-1.2,0.3-2.5,1-3.5  c-1.1-0.1-2.1-0.8-2.6-1.8c-0.2-0.4-0.1-1,0.2-1.3c1.1-1.2,4.6-0.2,4.7-0.2c1.9,0.5,2.3,3.5,2.1,5.2c-0.1,1-2.1,5.1-2.7,6.4  C195.5,177.4,195.3,177.5,195.1,177.6L195.1,177.6z"></path><path class="st3" d="M176,157c0,0,11.6-1.1,16.3,1.6c1.2,0.7,2.3,1.5,3.4,2.4c2.6,2,5,4.3,6.8,5.5c3.7,2.5,7.3,3,9.8-1  c2.1-3.4,0.9-5-1.9-8c-1.4-1.5-4.3-4-6.9-6.7c-1.5-1.5-2.8-3.2-3.7-5.1c-2.1-4.5-1.5-11.4-1.5-11.4L176,157z"></path><path class="st1" d="M207.7,169.1c-2-0.1-4-0.8-5.6-2.1c-1.3-1-2.6-2-3.9-3.1c-1-0.8-2-1.7-3-2.5c-1.1-0.8-2.2-1.6-3.3-2.3  c-4.5-2.6-15.7-1.5-15.8-1.5c-0.3,0-0.6-0.1-0.7-0.4c-0.1-0.3-0.1-0.6,0.1-0.8l22.2-22.7c0.3-0.3,0.7-0.3,1,0  c0.2,0.1,0.2,0.4,0.2,0.6c0,0.1-0.6,6.8,1.5,11c0.9,1.8,2.2,3.5,3.6,5c1.4,1.6,3,3,4.4,4.3c1,0.9,1.9,1.7,2.5,2.4  c2.9,3.1,4.4,5,2,8.9c-0.8,1.6-2.3,2.7-4,3.1C208.4,169.1,208,169.1,207.7,169.1L207.7,169.1z M181.4,156.1c3.7,0,8.5,0.4,11.2,1.9  c1.2,0.7,2.4,1.5,3.5,2.4c1.1,0.8,2.1,1.7,3.1,2.5c1.2,1.1,2.4,2.1,3.7,3c2.2,1.5,4.1,2.1,5.7,1.7c1.3-0.4,2.4-1.3,3.1-2.5  c1.8-2.9,1-4.1-1.9-7.2c-0.6-0.6-1.4-1.4-2.4-2.3c-1.4-1.3-3-2.8-4.5-4.4c-1.6-1.6-2.9-3.4-3.9-5.4c-1.5-3.2-1.7-7.5-1.7-9.9  l-19.6,20.1C178.7,156.1,180,156,181.4,156.1L181.4,156.1z"></path><path class="st1" d="M195,160.5c2.6,2,5.6,4.6,7.4,6c4.1,3.1,6.7,3.4,9.4-0.4s1.2-5.6-1.6-8.6c-1.4-1.5-4.3-3.9-6.9-6.7  c-0.4,2.3-1.4,4.5-3,6.3C199,158.8,197.1,160,195,160.5z"></path><path class="st1" d="M207.7,169.6c-1.6,0-3.3-0.8-5.6-2.5c-1-0.7-2.3-1.9-3.8-3c-1.2-1-2.5-2.1-3.7-3c-0.3-0.2-0.4-0.7-0.1-1  c0.1-0.1,0.3-0.2,0.4-0.3c2-0.5,3.7-1.6,5-3.1c1.5-1.7,2.5-3.7,2.8-5.9c0-0.3,0.2-0.5,0.5-0.6c0.3-0.1,0.6,0,0.8,0.2  c1.4,1.6,3,3,4.4,4.3c1,0.9,1.9,1.7,2.5,2.4c2.9,3.1,4.8,5.1,1.7,9.4c-1.3,1.8-2.6,2.8-4.1,3C208.1,169.5,207.9,169.6,207.7,169.6  L207.7,169.6z M196.5,160.8c0.9,0.7,1.8,1.4,2.6,2.2c1.4,1.2,2.8,2.3,3.7,3c2.3,1.7,3.9,2.4,5.3,2.2c1.1-0.2,2.1-0.9,3.1-2.4  c2.4-3.4,1.3-4.7-1.5-7.6c-0.6-0.6-1.4-1.4-2.4-2.4s-2.3-2.2-3.5-3.4c-0.6,1.9-1.6,3.7-2.9,5.3C199.8,159,198.3,160.1,196.5,160.8  L196.5,160.8z"></path><path class="st3" d="M172.8,156c2.6,2.3,8.3,0.4,13.9-4.3c1.4-1.2,2.8-2.5,4-3.9c1.2-1.4,2.4-2.8,3.4-4.3c4.1-6.1,5.5-12,2.9-14.4  c-3.2-2.9-11.2,0.8-17.9,8.2S169.5,153.1,172.8,156L172.8,156z"></path><path class="st1" d="M175.7,157.7c-1.2,0.1-2.5-0.4-3.4-1.2c-1.8-1.6-2.1-4.6-0.8-8.4c1.6-4.2,3.9-8,7-11.3  c7-7.9,15.4-11.5,18.9-8.3c2.8,2.5,1.7,8.7-2.7,15.3c-2.1,3.1-4.7,6-7.6,8.4C182.9,155.8,178.8,157.7,175.7,157.7L175.7,157.7z   M194,128.8c-3.7,0-9.5,3.5-14.5,9c-2.9,3.1-5.2,6.8-6.7,10.8c-1.1,3.2-0.9,5.7,0.4,6.9l0,0c2.2,2,7.6,0.2,13-4.3  c1.4-1.2,2.8-2.5,4-3.9c1.2-1.3,2.3-2.8,3.3-4.3c4-5.9,5.2-11.4,3-13.5C195.9,129,195,128.7,194,128.8L194,128.8z"></path><path class="st1" d="M182.1,145.9l4.6,5.8c1.4-1.2,2.8-2.5,4-3.9c1.2-1.4,2.4-2.8,3.4-4.3l-6.7-4.1L182.1,145.9L182.1,145.9z"></path><path class="st1" d="M186.7,152.4L186.7,152.4c-0.3,0-0.4-0.1-0.6-0.3l-4.6-5.8c-0.2-0.3-0.2-0.6,0-0.9l5.4-6.6  c0.2-0.3,0.6-0.3,0.9-0.1l6.7,4.1c0.2,0.1,0.3,0.3,0.3,0.4c0,0.2,0,0.4-0.1,0.5c-2.1,3.1-4.7,6-7.6,8.4  C187,152.4,186.8,152.4,186.7,152.4L186.7,152.4z M183,145.9l3.8,4.8c1.2-1.1,2.3-2.2,3.4-3.4c1-1.2,2-2.4,2.9-3.7l-5.5-3.4  L183,145.9L183,145.9z"></path><ellipse class="st1" transform="matrix(0.6347 -0.7727 0.7727 0.6347 -42.7312 194.8815)" cx="184.8" cy="142.6" rx="4.2" ry="2"></ellipse><path class="st1" d="M182.8,146.9c-0.4,0-0.8-0.1-1.2-0.4c-1.2-1-0.7-3.3,1.1-5.5c0.7-0.9,1.6-1.6,2.6-2.1c0.9-0.7,2.2-0.6,2.9,0.3  c0.5,0.6,0.6,1.5,0.2,2.2c-0.3,1.1-0.9,2.1-1.6,3c-0.7,0.9-1.6,1.6-2.6,2.1C183.8,146.8,183.3,146.9,182.8,146.9L182.8,146.9z   M186.8,139.9c-0.3,0-0.6,0.1-0.8,0.2c-0.8,0.4-1.5,1-2.1,1.8c-1.4,1.7-1.6,3.3-1.3,3.6c0.1,0.1,0.6,0.1,1.1-0.2  c1.6-0.9,2.9-2.4,3.4-4.2c0.2-0.6,0.1-1-0.1-1.1C187,139.9,186.9,139.9,186.8,139.9L186.8,139.9z"></path><path class="st1" d="M187.7,170.6c-0.2,0-0.5-0.1-0.6-0.3c-0.4-0.6-0.8-1.2-1.3-1.6c-0.3-0.3-0.3-0.7-0.1-1s0.7-0.3,1-0.1l0,0  c0.6,0.6,1.2,1.3,1.6,2c0.2,0.3,0.1,0.7-0.2,1c0,0,0,0-0.1,0C188,170.6,187.9,170.7,187.7,170.6L187.7,170.6z"></path><path class="st1" d="M189.9,169.9c-0.3,0-0.6-0.2-0.7-0.6c-0.2-0.7-0.6-1.4-1.3-1.8c-0.3-0.2-0.4-0.7-0.1-1c0.2-0.3,0.7-0.4,1-0.1  c0.9,0.7,1.5,1.6,1.8,2.7c0.1,0.4-0.2,0.7-0.5,0.8c0,0,0,0,0,0L189.9,169.9L189.9,169.9z"></path><path class="st1" d="M185,170.4c-0.2,0-0.4-0.1-0.6-0.3l-0.5-0.7c-0.2-0.3-0.1-0.8,0.2-1s0.8-0.1,1,0.2l0.5,0.7  c0.2,0.3,0.2,0.8-0.2,1c0,0,0,0,0,0C185.3,170.3,185.2,170.4,185,170.4L185,170.4z"></path><ellipse class="st1" cx="228.6" cy="167.8" rx="0.7" ry="2.5"></ellipse><path class="st2" d="M210,177.9l-11.7,23.9v-22.1l-16.2,1.5c0,0-14.7,56.4-3.1,59.1c16.9,3.9,37.2-35.9,37.2-35.9L210,177.9z"></path><path class="st1" d="M196.4,215.7L196.4,215.7c-0.4,0-0.7-0.4-0.7-0.7c0,0,0,0,0,0l1.9-35.3c0-0.4,0.3-0.7,0.7-0.7c0,0,0,0,0,0  c0.4,0,0.7,0.4,0.7,0.7c0,0,0,0,0,0l-1.9,35.3C197.1,215.5,196.8,215.7,196.4,215.7L196.4,215.7z"></path><path class="st1" d="M199.7,241.1h-0.1c-0.4-0.1-0.6-0.4-0.6-0.8l8.6-52l1.4,0.2l-8.6,52C200.3,240.8,200,241.1,199.7,241.1  L199.7,241.1z"></path><rect class="st3" x="248.6" y="242.5" transform="matrix(0.1454 -0.9894 0.9894 0.1454 -35.9438 482.8745)" width="25.9" height="39.5"></rect><path class="st1" d="M279.2,278.6h-0.1l-39.1-5.8c-0.2,0-0.3-0.1-0.5-0.3c-0.1-0.1-0.2-0.3-0.1-0.5l3.8-25.6  c0.1-0.4,0.4-0.6,0.8-0.6l39.1,5.8c0.2,0,0.3,0.1,0.5,0.3c0.1,0.1,0.2,0.3,0.1,0.5l-3.7,25.6C279.9,278.3,279.6,278.6,279.2,278.6z   M240.9,271.6l37.7,5.5l3.6-24.2l-37.7-5.5L240.9,271.6L240.9,271.6z"></path><path class="st3" d="M261.6,253.4c-0.5,2.5-1.2,5-1.9,7.4c-0.7,1.6-5.6,7.8-5.3,9.4s2.7,1.9,2.7,1.9s-2.7,4.6-0.6,5.5  c2.1,0.9,7.6,2.5,9,0s5.5-21,5.5-21L261.6,253.4L261.6,253.4z"></path><path class="st1" d="M262.3,279.6c-2.1-0.1-4.2-0.6-6.1-1.4c-0.5-0.2-0.9-0.7-1.1-1.2c-0.4-1.3,0.4-3.4,1-4.5  c-1.1-0.3-2-1.1-2.4-2.2c-0.3-1.2,1.2-3.6,3.6-7.1c0.6-0.9,1.2-1.8,1.7-2.7c0.8-2.4,1.4-4.8,1.9-7.3c0-0.2,0.2-0.4,0.3-0.5  c0.2-0.1,0.4-0.1,0.6,0l9.4,3.2c0.3,0.1,0.5,0.5,0.5,0.8c-0.2,0.8-4.1,18.7-5.5,21.2C265.4,279.2,263.9,279.6,262.3,279.6  L262.3,279.6z M262.1,254.3c-0.5,2.3-1.1,4.6-1.8,6.8c-0.6,1-1.2,2-1.9,2.9c-1.1,1.7-3.5,5.2-3.4,6c0.2,1.1,2.1,1.4,2.2,1.4  c0.2,0,0.4,0.2,0.5,0.4c0.1,0.2,0.1,0.5,0,0.7c-0.7,1.1-1.6,3.2-1.3,4.1c0,0.2,0.2,0.3,0.3,0.3c2.2,0.9,7,2.2,8.1,0.3  s4-14.7,5.3-20.2L262.1,254.3L262.1,254.3z"></path><path class="st2" d="M258.2,179.9c0,0,17.5,21.4,21.7,34.5s-8.1,45.5-8.1,45.5l-13.6-1.8l3.4-35.6c-2.8-7.5-11.6-20.8-11.6-20.8  L258.2,179.9L258.2,179.9z"></path><polygon class="st1" points="233.7,186.4 229.7,188.4 231.7,191.6 222,228.5 227.9,235.7 233.6,228.3 234.1,192.2 235.9,190.1  "></polygon><path class="st1" d="M227.9,236.4c-0.2,0-0.4-0.1-0.5-0.3l-5.9-7.2c-0.1-0.2-0.2-0.4-0.1-0.6l9.6-36.6l-1.9-2.9  c-0.1-0.2-0.1-0.4-0.1-0.6c0.1-0.2,0.2-0.4,0.4-0.4l4-2c0.3-0.2,0.7-0.1,0.9,0.3l2.2,3.7c0.2,0.3,0.1,0.6-0.1,0.8l-1.6,1.9  l-0.5,35.8c0,0.1,0,0.3-0.1,0.4l-5.6,7.4C228.3,236.3,228.1,236.4,227.9,236.4L227.9,236.4L227.9,236.4z M222.8,228.4l5.1,6.2  l5-6.5l0.5-35.9c0-0.2,0.1-0.3,0.2-0.4l1.5-1.7l-1.6-2.7l-2.7,1.4l1.6,2.5c0.1,0.2,0.1,0.4,0.1,0.6L222.8,228.4L222.8,228.4z"></path><path class="st1" d="M261.6,223.3c-0.3,0-0.5-0.2-0.6-0.4c-1.6-3.5-12.7-23.1-12.8-23.3c-0.2-0.3,0-0.8,0.3-0.9  c0.3-0.1,0.7,0,0.9,0.3c0.5,0.8,11.2,19.9,12.8,23.4c0.2,0.3,0,0.8-0.3,0.9C261.9,223.3,261.8,223.3,261.6,223.3L261.6,223.3z"></path></g><g id="Plants"><path class="st1" d="M458.6,323.3c0.1-2.1-0.3-4.2-1.3-6.1c-0.8-1.4-2.1-2.4-2.7-3.9c-1.2-2.5-0.3-5.4-0.6-8.1  c-0.2-2.3-1.3-4.4-2.9-6c-1.4-1.4-3.2-2.4-4.6-3.9c-2.2-2.5-2.9-5.9-4.1-9c-1.8-4.3-4.9-8-8.9-10.5c2.4,4.9-3.1,11.1-0.6,15.9  c0.8,1.5,2.3,2.6,2.9,4.3c1.4,3.9-3.3,8.2-1.8,12.1c0.8,1.9,2.8,3.1,3.8,4.9c1.3,2.5,0.3,5.5,0.4,8.3c0.1,3.9,2.5,7.3,5.3,10  c1.8,1.7,3.7,3.1,5.6,4.6c2.3,1.8,3.2,3.7,5.2,0.8C457,332.8,458.5,328.1,458.6,323.3L458.6,323.3z"></path><path class="st1" d="M461.1,325.5c-0.7-3-1.2-6.2,0-9.1c1.4-3.2,4.8-5.5,5.2-8.9c0.3-2.3-0.9-4.6-0.4-6.8s2.3-3.8,3.8-5.4  c3.5-3.8,5.5-8.7,5.9-13.9c2.2,2.9,4.4,5.8,5.6,9.2s1.2,7.4-0.8,10.4c-0.6,0.7-1.1,1.5-1.4,2.3c-0.7,2.2,1.2,4.3,2.2,6.4  c1.2,2.4,0.9,5.3-0.7,7.5c-2,2.5-5.8,3.4-6.8,6.4c-0.2,1.1-0.4,2.3-0.3,3.4c-0.4,4.1-3.3,7.5-7.2,8.6c-2.3,0.6-2.3-0.4-2.7-2.3  C462.8,330.7,461.8,328.2,461.1,325.5L461.1,325.5z"></path><path class="st1" d="M453.7,304c-1.7-5.8-2.3-11.8-4.1-17.5c-1.5-4.5-3.3-8.8-5.5-13.1l7.1,3c2.3,1,4.8,2.1,5.9,4.3  c1.9,3.9-1.5,8.9,0.5,12.7c0.7,1.4,2,2.3,2.8,3.5c2.1,3,1.8,7,0.6,10.5c-0.5,1.5-2.7,9.1-4.6,7c-0.8-0.9-0.8-4-1.2-5.2  C454.8,307.5,454.2,305.8,453.7,304L453.7,304z"></path><path class="st1" d="M457.5,380.5c-1.4-9.4-5.9-42.6-5.9-42.9l1.4-0.2c0,0.3,4.5,33.5,5.9,42.9L457.5,380.5L457.5,380.5z"></path><path class="st1" d="M459.3,389.3h-1.4c0.1-11.2,4.8-53.9,7.5-56.9l1,1C464.4,335.6,459.4,376.9,459.3,389.3L459.3,389.3z"></path><path class="st1" d="M461.7,387.2l-1.4-0.1c1.1-24.1-4-74.7-4.1-75.2l1.4-0.1C457.7,312.3,462.8,363,461.7,387.2L461.7,387.2z"></path><path class="st3" d="M445.3,353.5h26.6l-1.9,30.2c-0.3,5.2-4.2,9.3-8.9,9.3h-5.1c-4.7,0-8.5-4-8.9-9.3L445.3,353.5L445.3,353.5z"></path><path class="st1" d="M461.2,393.7H456c-5,0-9.2-4.4-9.6-10l-1.9-30.2c0-0.4,0.3-0.7,0.7-0.8c0,0,0,0,0.1,0h26.6  c0.2,0,0.4,0.1,0.5,0.2c0.1,0.1,0.2,0.3,0.2,0.5l-1.9,30.2C470.4,389.3,466.2,393.7,461.2,393.7L461.2,393.7z M446.1,354.2  l1.8,29.4c0.3,4.8,3.9,8.6,8.1,8.6h5.1c4.3,0,7.8-3.8,8.1-8.6l1.8-29.4H446.1L446.1,354.2z"></path></g></svg>