<svg xmlns="http://www.w3.org/2000/svg" viewBox="0 0 79.58 100"><defs><style>.cls-1{fill:#99a5d0;}.cls-2{fill:#334ba1;}</style></defs><g id="Layer_2" data-name="Layer 2"><g id="Layer_1-2" data-name="Layer 1"><polygon class="cls-1" points="6.88 84.21 6.88 100 29.33 100 29.33 87.58 50.52 87.58 50.52 100 73.11 100 73.11 84.21 6.88 84.21"></polygon><rect class="cls-2" x="6.71" y="84.21" width="16.43" height="15.79"></rect><rect class="cls-2" x="56.67" y="84.21" width="16.43" height="15.79"></rect><rect class="cls-1" x="6.74" y="84.21" width="1.57" height="15.79"></rect><rect class="cls-1" x="20.96" y="84.21" width="1.57" height="15.79"></rect><rect class="cls-1" x="57.18" y="84.21" width="1.57" height="15.79"></rect><rect class="cls-1" x="71.57" y="84.21" width="1.57" height="15.79"></rect><path class="cls-1" d="M40.31,2.26a.76.76,0,0,0,.23-.54.74.74,0,0,0-.43-.67.57.57,0,0,0,.26-.47.58.58,0,1,0-1.16,0,.57.57,0,0,0,.26.47.74.74,0,0,0-.43.67.76.76,0,0,0,.23.54,1.07,1.07,0,1,0,1,0Z"></path><path class="cls-1" d="M35.84,2.26a.76.76,0,0,0,.23-.54.74.74,0,0,0-.43-.67A.57.57,0,0,0,35.9.58a.58.58,0,1,0-1.16,0,.57.57,0,0,0,.26.47.74.74,0,0,0-.43.67.76.76,0,0,0,.23.54,1.07,1.07,0,1,0,1,0Z"></path><path class="cls-1" d="M31.37,2.26a.76.76,0,0,0,.23-.54.74.74,0,0,0-.43-.67.57.57,0,0,0,.26-.47.58.58,0,0,0-1.16,0,.57.57,0,0,0,.26.47.74.74,0,0,0-.43.67.76.76,0,0,0,.23.54,1.07,1.07,0,1,0,1,0Z"></path><path class="cls-1" d="M49.25,2.26a.76.76,0,0,0,.22-.54.74.74,0,0,0-.42-.67.57.57,0,0,0,.26-.47.58.58,0,0,0-1.16,0,.57.57,0,0,0,.26.47.74.74,0,0,0-.43.67.76.76,0,0,0,.23.54,1,1,0,0,0-.55.92,1.07,1.07,0,1,0,2.13,0A1.05,1.05,0,0,0,49.25,2.26Z"></path><path class="cls-1" d="M44.78,2.26A.76.76,0,0,0,45,1.72a.74.74,0,0,0-.43-.67.57.57,0,0,0,.26-.47.58.58,0,0,0-1.16,0,.57.57,0,0,0,.26.47.74.74,0,0,0-.43.67.76.76,0,0,0,.23.54,1,1,0,0,0-.55.92,1.07,1.07,0,1,0,1.59-.92Z"></path><rect class="cls-1" x="26.48" y="3.82" width="26.62" height="5.08"></rect><rect class="cls-2" x="26.48" y="5.99" width="26.62" height="3.4"></rect><rect class="cls-1" x="25.73" y="9.21" width="28.11" height="3.4"></rect><rect class="cls-1" x="24.45" y="12.61" width="30.67" height="3.4"></rect><rect class="cls-1" x="22.96" y="15.53" width="33.66" height="3.4"></rect><rect class="cls-1" x="21.97" y="18.73" width="35.65" height="3.4"></rect><rect class="cls-1" x="18.98" y="27.97" width="41.64" height="3.4"></rect><rect class="cls-1" x="16.31" y="34.29" width="46.89" height="3.4"></rect><rect class="cls-1" x="13.44" y="40.27" width="52.71" height="3.4"></rect><rect class="cls-1" x="12.89" y="43.29" width="53.8" height="3.4"></rect><rect class="cls-2" x="12.42" y="46.24" width="54.75" height="3.4"></rect><rect class="cls-1" x="10.57" y="48.56" width="58.53" height="3.4"></rect><rect class="cls-1" x="11.09" y="51.95" width="57.69" height="2.9"></rect><rect class="cls-1" x="9.24" y="54.48" width="61.38" height="3.4"></rect><rect class="cls-1" x="7.58" y="60.24" width="64.7" height="3.4"></rect><rect class="cls-1" x="6.92" y="63.18" width="66.03" height="3.4"></rect><rect class="cls-1" x="5.55" y="66.19" width="68.53" height="3.4"></rect><rect class="cls-1" x="4" y="72.11" width="71.87" height="3.4"></rect><rect class="cls-1" x="2.06" y="77.87" width="75.75" height="3.4"></rect><rect class="cls-1" x="1.28" y="80.81" width="77.3" height="3.4"></rect><path class="cls-2" d="M28.2,9.21H26.48V1.63h0A1.72,1.72,0,0,1,28.2,3.35Z"></path><path class="cls-2" d="M51.38,9.21H53.1V1.63h0a1.72,1.72,0,0,0-1.72,1.72Z"></path><rect class="cls-2" x="25.38" y="9.21" width="28.82" height="1.34"></rect><rect class="cls-1" x="24.11" y="12.63" width="31.36" height="1.34"></rect><rect class="cls-1" x="21.56" y="18.31" width="36.45" height="1.34"></rect><rect class="cls-1" x="21.96" y="19.65" width="35.66" height="0.86"></rect><polygon class="cls-1" points="58.82 24.57 58.82 21.84 20.76 21.84 20.76 24.57 19.71 24.57 19.71 25.91 20.15 25.91 20.15 28.24 59.42 28.24 59.42 26.77 59.42 25.91 59.87 25.91 59.87 24.57 58.82 24.57"></polygon><polygon class="cls-1" points="64.89 37.08 14.69 37.08 14.69 38.42 15.21 38.42 15.21 40.61 64.65 40.61 64.65 38.42 64.89 38.42 64.89 37.08"></polygon><rect class="cls-1" x="12.08" y="43.33" width="55.41" height="1.34"></rect><rect class="cls-1" x="12.69" y="44.67" width="54.2" height="0.86"></rect><rect class="cls-1" x="9.83" y="48.45" width="59.92" height="1.34"></rect><rect class="cls-2" x="10.48" y="49.79" width="58.61" height="0.86"></rect><rect class="cls-1" x="25.73" y="10.55" width="28.11" height="0.67"></rect><rect class="cls-2" x="22.57" y="15.47" width="34.44" height="1.34"></rect><rect class="cls-1" x="22.99" y="16.81" width="33.59" height="0.67"></rect><rect class="cls-2" x="20.28" y="21.72" width="39.01" height="1.34"></rect><rect class="cls-1" x="20.76" y="23.06" width="38.05" height="0.67"></rect><rect class="cls-2" x="18.43" y="27.98" width="42.71" height="1.34"></rect><rect class="cls-1" x="18.96" y="29.32" width="41.66" height="0.67"></rect><rect class="cls-2" x="15.71" y="34.23" width="48.16" height="1.34"></rect><rect class="cls-1" x="16.3" y="35.57" width="46.97" height="0.67"></rect><rect class="cls-2" x="12.7" y="39.92" width="54.18" height="1.34"></rect><rect class="cls-2" x="11.69" y="46.18" width="56.19" height="1.34"></rect><rect class="cls-1" x="12.39" y="47.52" width="54.81" height="0.67"></rect><rect class="cls-1" x="6.4" y="56.41" width="66.78" height="1.34"></rect><polygon class="cls-2" points="72.45 57.75 71.55 57.75 71.55 57.54 8.32 57.54 8.32 57.75 7.13 57.75 7.13 58.61 8.32 58.61 8.32 60.94 71.55 60.94 71.55 58.61 72.45 58.61 72.45 57.75"></polygon><rect class="cls-2" x="8.48" y="54.14" width="62.94" height="1.34"></rect><rect class="cls-1" x="9.25" y="55.48" width="61.39" height="0.67"></rect><rect class="cls-1" x="5.97" y="62.1" width="67.64" height="1.34"></rect><rect class="cls-1" x="6.71" y="63.44" width="66.15" height="0.86"></rect><rect class="cls-2" x="6.74" y="59.83" width="66.44" height="1.34"></rect><rect class="cls-1" x="7.56" y="61.16" width="64.8" height="0.67"></rect><rect class="cls-1" x="4" y="68.36" width="71.58" height="1.34"></rect><polygon class="cls-1" points="4.98 69.08 4.98 69.69 4.78 69.69 4.78 70.55 4.98 70.55 4.98 72.48 74.89 72.48 74.89 69.08 4.98 69.08"></polygon><rect class="cls-2" x="4.41" y="66.08" width="70.77" height="1.34"></rect><rect class="cls-1" x="5.28" y="67.42" width="69.02" height="0.67"></rect><rect class="cls-1" x="1.64" y="74.04" width="76.31" height="1.34"></rect><polygon class="cls-1" points="77.11 75.38 76.95 75.38 76.95 75.17 2.92 75.17 2.92 75.38 2.47 75.38 2.47 76.24 2.92 76.24 2.92 78.57 76.95 78.57 76.95 76.24 77.11 76.24 77.11 75.38"></polygon><rect class="cls-2" x="3.21" y="71.77" width="73.16" height="1.34"></rect><rect class="cls-1" x="4.11" y="73.11" width="71.35" height="0.67"></rect><rect class="cls-2" y="79.73" width="79.58" height="1.34"></rect><rect class="cls-1" x="0.87" y="81.07" width="77.84" height="0.86"></rect><rect class="cls-2" x="0.94" y="77.45" width="77.69" height="1.34"></rect><rect class="cls-1" x="1.9" y="78.79" width="75.77" height="0.67"></rect><rect class="cls-1" x="25.73" y="8.28" width="28.11" height="1"></rect><rect class="cls-2" x="36.18" y="24.57" width="6.89" height="3.4"></rect><rect class="cls-1" x="36.89" y="24.57" width="5.47" height="3.4"></rect><rect class="cls-2" x="36.29" y="46.18" width="6.67" height="4.54"></rect><path class="cls-2" d="M43,16.13H41.29v-.67h1.22V12.77H42V10.91h0a4.85,4.85,0,0,0,.31-1.74c0-2.07-2.73-3.75-2.73-3.75S36.9,7.1,36.9,9.17a4.85,4.85,0,0,0,.31,1.74v1.86h-.47v2.69H38v.67H36.29v2.21H38V42.28h0s0,.06,0,.09c0,1.26,1.66,2.28,1.66,2.28s1.66-1,1.66-2.28c0,0,0-.06,0-.09h0V18.34H43Z"></path><path class="cls-1" d="M42.67,16.92H41.14V16.3h1.12V13.85h-.47v-1.7h0a4.25,4.25,0,0,0,.29-1.59c0-1.89-2.49-3.41-2.49-3.41s-2.49,1.52-2.49,3.41a4.46,4.46,0,0,0,.28,1.59v1.7H37V16.3h1.12v.62H36.58v2h1.54V40.76h0v.09c0,1.15,1.51,2.08,1.51,2.08s1.51-.93,1.51-2.08c0,0,0-.06,0-.09h0V18.93h1.53Z"></path><path class="cls-2" d="M35.84,26.14a.72.72,0,0,0,.23-.53.76.76,0,0,0-.43-.68.57.57,0,0,0,.26-.47.58.58,0,0,0-1.16,0,.57.57,0,0,0,.26.47.76.76,0,0,0-.43.68.72.72,0,0,0,.23.53,1.07,1.07,0,1,0,1,0Z"></path><path class="cls-2" d="M22.84,26.14a.72.72,0,0,0,.23-.53.76.76,0,0,0-.43-.68.57.57,0,0,0,.26-.47.58.58,0,0,0-1.16,0,.57.57,0,0,0,.26.47.76.76,0,0,0-.43.68.72.72,0,0,0,.23.53,1.07,1.07,0,1,0,1,0Z"></path><path class="cls-2" d="M17.72,38.65a.72.72,0,0,0,.23-.53.76.76,0,0,0-.43-.68.58.58,0,1,0-.64,0,.75.75,0,0,0-.42.68.72.72,0,0,0,.22.53,1.08,1.08,0,0,0-.54.93,1.07,1.07,0,1,0,1.58-.93Z"></path><path class="cls-2" d="M29.66,38.65a.72.72,0,0,0,.23-.53.74.74,0,0,0-.43-.68.55.55,0,0,0,.26-.47.58.58,0,0,0-1.15,0,.55.55,0,0,0,.26.47.74.74,0,0,0-.43.68.72.72,0,0,0,.23.53,1.07,1.07,0,1,0,1,0Z"></path><path class="cls-2" d="M35.92,38.65a.72.72,0,0,0,.23-.53.76.76,0,0,0-.43-.68.58.58,0,1,0-.64,0,.76.76,0,0,0-.43.68.72.72,0,0,0,.23.53,1.09,1.09,0,0,0-.55.93,1.07,1.07,0,0,0,2.14,0A1.09,1.09,0,0,0,35.92,38.65Z"></path><path class="cls-2" d="M29.66,20.46a.76.76,0,0,0,.23-.54.73.73,0,0,0-.43-.67.56.56,0,0,0,.26-.47.58.58,0,1,0-1.15,0,.56.56,0,0,0,.26.47.73.73,0,0,0-.43.67.76.76,0,0,0,.23.54,1,1,0,0,0-.55.92,1.07,1.07,0,1,0,2.13,0A1,1,0,0,0,29.66,20.46Z"></path><path class="cls-2" d="M43.3,26.14a.72.72,0,0,1-.23-.53.76.76,0,0,1,.43-.68.57.57,0,0,1-.26-.47.58.58,0,1,1,1.16,0,.57.57,0,0,1-.26.47.75.75,0,0,1,.42.68.72.72,0,0,1-.22.53,1.07,1.07,0,1,1-1.59.93A1.06,1.06,0,0,1,43.3,26.14Z"></path><path class="cls-2" d="M35.84,52.87a.76.76,0,0,0,.23-.54.76.76,0,0,0-.43-.67.57.57,0,0,0,.26-.47.58.58,0,0,0-1.16,0,.57.57,0,0,0,.26.47.76.76,0,0,0-.43.67.76.76,0,0,0,.23.54,1.08,1.08,0,0,0-.55.93,1.07,1.07,0,0,0,2.14,0A1.08,1.08,0,0,0,35.84,52.87Z"></path><path class="cls-2" d="M18.21,52.87a.76.76,0,0,0,.23-.54.76.76,0,0,0-.43-.67.57.57,0,0,0,.26-.47.58.58,0,0,0-1.16,0,.57.57,0,0,0,.26.47.76.76,0,0,0-.43.67.76.76,0,0,0,.23.54,1.08,1.08,0,0,0-.55.93,1.07,1.07,0,1,0,1.59-.93Z"></path><polygon class="cls-1" points="16.97 30.82 16.97 32.16 17.41 32.16 17.41 33.02 17.47 33.02 17.49 33.02 17.49 34.53 62.11 34.53 62.11 33.02 62.11 32.16 62.61 32.16 62.61 30.82 16.97 30.82"></polygon><path class="cls-2" d="M62,52.87a.76.76,0,0,0,.23-.54.76.76,0,0,0-.43-.67.57.57,0,0,0,.26-.47.58.58,0,1,0-1.16,0,.57.57,0,0,0,.26.47.76.76,0,0,0-.43.67.76.76,0,0,0,.23.54,1.08,1.08,0,0,0-.55.93,1.07,1.07,0,0,0,2.14,0A1.08,1.08,0,0,0,62,52.87Z"></path><path class="cls-2" d="M43.3,52.87a.76.76,0,0,1-.23-.54.76.76,0,0,1,.43-.67.57.57,0,0,1-.26-.47.58.58,0,0,1,1.16,0,.57.57,0,0,1-.26.47.75.75,0,0,1,.42.67.76.76,0,0,1-.22.54,1.07,1.07,0,0,1,.54.93,1.07,1.07,0,1,1-1.58-.93Z"></path><path class="cls-2" d="M25,64.81a.72.72,0,0,0,.23-.53.74.74,0,0,0-.43-.68.55.55,0,0,0,.26-.47.57.57,0,0,0-.57-.58.58.58,0,0,0-.58.58.55.55,0,0,0,.26.47.74.74,0,0,0-.43.68.72.72,0,0,0,.23.53,1.06,1.06,0,0,0-.55.93,1.07,1.07,0,1,0,2.13,0A1.06,1.06,0,0,0,25,64.81Z"></path><path class="cls-2" d="M7.4,64.81a.69.69,0,0,0,.23-.53.75.75,0,0,0-.42-.68.57.57,0,0,0,.26-.47.58.58,0,0,0-1.16,0,.55.55,0,0,0,.26.47.76.76,0,0,0-.43.68.72.72,0,0,0,.23.53,1.06,1.06,0,0,0-.55.93,1.07,1.07,0,1,0,2.13,0A1.06,1.06,0,0,0,7.4,64.81Z"></path><path class="cls-2" d="M73.37,64.81a.72.72,0,0,0,.23-.53.76.76,0,0,0-.43-.68.57.57,0,0,0,.26-.47.58.58,0,0,0-1.16,0,.57.57,0,0,0,.26.47.75.75,0,0,0-.42.68.72.72,0,0,0,.22.53,1.07,1.07,0,1,0,1.59.93A1.06,1.06,0,0,0,73.37,64.81Z"></path><path class="cls-2" d="M54.67,64.81a.72.72,0,0,1-.23-.53.76.76,0,0,1,.43-.68.57.57,0,0,1-.26-.47.58.58,0,1,1,1.16,0,.57.57,0,0,1-.26.47.76.76,0,0,1,.43.68.72.72,0,0,1-.23.53,1.07,1.07,0,1,1-1,0Z"></path><path class="cls-2" d="M56.3,26.14a.72.72,0,0,1-.23-.53.76.76,0,0,1,.43-.68.55.55,0,0,1-.26-.47.58.58,0,1,1,1.16,0,.57.57,0,0,1-.26.47.75.75,0,0,1,.42.68.72.72,0,0,1-.22.53,1.07,1.07,0,1,1-1.59.93A1.06,1.06,0,0,1,56.3,26.14Z"></path><path class="cls-2" d="M61.42,38.65a.72.72,0,0,1-.23-.53.74.74,0,0,1,.43-.68.55.55,0,0,1-.26-.47.58.58,0,0,1,1.15,0,.55.55,0,0,1-.26.47.74.74,0,0,1,.43.68.72.72,0,0,1-.23.53,1.07,1.07,0,1,1-1,0Z"></path><path class="cls-2" d="M49.47,38.65a.72.72,0,0,1-.22-.53.75.75,0,0,1,.42-.68.58.58,0,1,1,.64,0,.76.76,0,0,1,.43.68.72.72,0,0,1-.23.53,1.07,1.07,0,1,1-1.58.93A1.08,1.08,0,0,1,49.47,38.65Z"></path><path class="cls-2" d="M43.22,38.65a.72.72,0,0,1-.23-.53.76.76,0,0,1,.43-.68.58.58,0,1,1,.64,0,.75.75,0,0,1,.42.68.72.72,0,0,1-.22.53,1.08,1.08,0,0,1,.54.93,1.07,1.07,0,1,1-1.58-.93Z"></path><path class="cls-2" d="M49.47,20.46a.76.76,0,0,1-.22-.54.74.74,0,0,1,.42-.67.58.58,0,1,1,.64,0,.74.74,0,0,1,.43.67.76.76,0,0,1-.23.54,1,1,0,0,1,.55.92,1.07,1.07,0,1,1-2.13,0A1.05,1.05,0,0,1,49.47,20.46Z"></path><path class="cls-2" d="M34.71,14.85v-.08h-.08v-.4h-.2a.2.2,0,0,0,0-.13v-.05a.21.21,0,0,0-.21-.21h-.67a.22.22,0,0,0-.14-.17.81.81,0,0,0,.14-.16,6.65,6.65,0,0,0-.08-.86,1.3,1.3,0,0,0,0-.21c0-.11-.44-.12-.53-.13s-.12-.14-.12-.14a.29.29,0,0,1,.07-.22.74.74,0,0,0,.12-.41.56.56,0,0,0-.19-.45.14.14,0,0,1-.06-.12V11s0-.05-.06-.06a1.31,1.31,0,0,1-.05-.21v0a.71.71,0,0,1,0,.21s-.06,0-.06.06v.13a.2.2,0,0,1-.06.14.53.53,0,0,0-.18.44.71.71,0,0,0,.08.34.49.49,0,0,1,.06.29s0,.12-.13.14-.43,0-.45.11a3.2,3.2,0,0,0-.11.6.67.67,0,0,1-.34.52l-.16.08a.71.71,0,0,0-.07.15H31a.21.21,0,0,0-.21.21v0a.21.21,0,0,0,.17.21h-.33v.4h-.07v.08h-.27v.68H35v-.68Zm-1.64-1.46a.7.7,0,0,1,.09-.24,0,0,0,0,1,.06,0,1.16,1.16,0,0,1,.06.26h0a.21.21,0,0,1-.12.21s-.05,0-.05,0A.71.71,0,0,1,33.07,13.39Zm-1.44.5a.56.56,0,0,0,.33-.4l.08-.33s.05,0,.07,0a.47.47,0,0,1,.1.26,2.1,2.1,0,0,1-.16.38.2.2,0,0,1-.18.12h-.28Z"></path><path class="cls-2" d="M48.92,14.85v-.08h-.07v-.4h-.21a.21.21,0,0,0,0-.13v-.05a.21.21,0,0,0-.21-.21h-.67a.22.22,0,0,0-.14-.17l.14-.16a6.65,6.65,0,0,0-.08-.86.64.64,0,0,0,0-.21c0-.11-.43-.12-.52-.13s-.12-.14-.12-.14a.29.29,0,0,1,.06-.22.67.67,0,0,0,.13-.41.54.54,0,0,0-.2-.45.17.17,0,0,1-.05-.12V11s0-.05-.06-.06a.71.71,0,0,1-.05-.21v0a1.31,1.31,0,0,1,0,.21s-.06,0-.06.06v.13a.2.2,0,0,1-.06.14.54.54,0,0,0-.19.44.71.71,0,0,0,.08.34.59.59,0,0,1,.07.29s0,.12-.13.14-.43,0-.46.11a4.43,4.43,0,0,0-.11.6.64.64,0,0,1-.33.52l-.17.08a.47.47,0,0,0-.06.15h-.18a.21.21,0,0,0-.21.21v0a.22.22,0,0,0,.16.21h-.32v.4h-.07v.08H44.5v.68h4.69v-.68Zm-1.63-1.46a.68.68,0,0,1,.08-.24,0,0,0,0,1,.07,0l.06.26h0a.21.21,0,0,1-.12.21,0,0,0,0,1-.05,0A.53.53,0,0,1,47.29,13.39Zm-1.44.5a.56.56,0,0,0,.33-.4l.08-.33s.05,0,.07,0a.47.47,0,0,1,.1.26,2.1,2.1,0,0,1-.16.38.22.22,0,0,1-.19.12H45.8Z"></path><path class="cls-2" d="M34.73,33.56v-.08h-.07v-.4h-.21a.21.21,0,0,0,0-.13V32.9a.22.22,0,0,0-.21-.21h-.67a.22.22,0,0,0-.15-.17.57.57,0,0,0,.14-.16,5.34,5.34,0,0,0-.07-.86c0-.14,0-.13,0-.21s-.43-.12-.52-.13-.13-.14-.13-.14a.34.34,0,0,1,.07-.22.66.66,0,0,0,.12-.41.53.53,0,0,0-.19-.45.13.13,0,0,1-.05-.12.49.49,0,0,0,0-.14s0-.05-.05-.06a.67.67,0,0,1-.06-.21v0a1.13,1.13,0,0,1-.06.21.12.12,0,0,0-.06.06v.13a.2.2,0,0,1-.06.14.53.53,0,0,0-.18.44.71.71,0,0,0,.08.34.49.49,0,0,1,.06.29s0,.12-.12.14-.43,0-.46.11a3.2,3.2,0,0,0-.11.6.65.65,0,0,1-.34.52l-.16.08a.47.47,0,0,0-.06.15H31a.21.21,0,0,0-.21.21v0a.22.22,0,0,0,.16.21h-.33v.4h-.07v.08h-.26v.68H35v-.68ZM33.1,32.1a.53.53,0,0,1,.08-.24s.06,0,.07,0l.06.26h0a.21.21,0,0,1-.12.21s0,0,0,0A.53.53,0,0,1,33.1,32.1Zm-1.44.5a.58.58,0,0,0,.33-.4l.07-.33s0,0,.07,0a.49.49,0,0,1,.11.27,2.66,2.66,0,0,1-.17.37.2.2,0,0,1-.18.12h-.28Z"></path><path class="cls-2" d="M49,33.56v-.08h-.08v-.4h-.2a.2.2,0,0,0,0-.13V32.9a.21.21,0,0,0-.21-.21h-.67a.22.22,0,0,0-.14-.17.81.81,0,0,0,.14-.16,6.65,6.65,0,0,0-.08-.86,1.3,1.3,0,0,0,0-.21c0-.11-.44-.12-.53-.13s-.12-.14-.12-.14a.29.29,0,0,1,.07-.22.74.74,0,0,0,.12-.41.56.56,0,0,0-.19-.45.14.14,0,0,1-.06-.12v-.14s0-.05-.06-.06a1.31,1.31,0,0,1,0-.21v0a.71.71,0,0,1-.05.21s-.06,0-.06.06v.13a.2.2,0,0,1-.06.14.53.53,0,0,0-.18.44.71.71,0,0,0,.08.34.49.49,0,0,1,.06.29s0,.12-.13.14-.43,0-.45.11a3.2,3.2,0,0,0-.11.6.67.67,0,0,1-.34.52l-.16.08a.71.71,0,0,0-.07.15h-.18a.22.22,0,0,0-.21.21v0a.21.21,0,0,0,.17.21h-.33v.4h-.07v.08h-.27v.68h4.7v-.68ZM47.31,32.1a.7.7,0,0,1,.09-.24,0,0,0,0,1,.06,0,1.16,1.16,0,0,1,.06.26h0a.21.21,0,0,1-.12.21s0,0,0,0A.71.71,0,0,1,47.31,32.1Zm-1.44.5a.56.56,0,0,0,.33-.4l.08-.33s0,0,.07,0a.47.47,0,0,1,.1.27,2.41,2.41,0,0,1-.16.37.2.2,0,0,1-.18.12h-.29Z"></path><path class="cls-2" d="M34.73,45.5v-.08h-.07V45h-.21a.19.19,0,0,0,0-.13v0a.21.21,0,0,0-.21-.21h-.67a.2.2,0,0,0-.15-.17.57.57,0,0,0,.14-.17,5.34,5.34,0,0,0-.07-.86c0-.14,0-.13,0-.21s-.43-.12-.52-.13-.13-.14-.13-.14a.36.36,0,0,1,.07-.22.66.66,0,0,0,.12-.41.53.53,0,0,0-.19-.45.13.13,0,0,1-.05-.12.53.53,0,0,0,0-.14s0,0-.05-.06a.67.67,0,0,1-.06-.21v0h0v0a1.13,1.13,0,0,1-.06.21s0,0-.06.06v.13a.2.2,0,0,1-.06.14.55.55,0,0,0-.18.44.71.71,0,0,0,.08.34.49.49,0,0,1,.06.29s0,.12-.12.14-.43,0-.46.11a3.4,3.4,0,0,0-.11.6.64.64,0,0,1-.34.52l-.16.09a.38.38,0,0,0-.06.14H31a.21.21,0,0,0-.21.21v0A.2.2,0,0,0,31,45h-.33v.4h-.07v.08h-.26v.68H35V45.5ZM33.1,44a.49.49,0,0,1,.08-.23,0,0,0,0,1,.07,0l.06.26h0a.22.22,0,0,1-.12.22,0,0,0,0,1,0,0A.61.61,0,0,1,33.1,44Zm-1.44.5a.58.58,0,0,0,.33-.4l.07-.33a0,0,0,0,1,.07,0,.49.49,0,0,1,.11.27,1.91,1.91,0,0,1-.17.37.18.18,0,0,1-.18.12h-.28Z"></path><path class="cls-2" d="M25.06,45.5v-.08H25V45h-.21a.19.19,0,0,0,0-.13v0a.21.21,0,0,0-.21-.21H24a.2.2,0,0,0-.15-.17A.94.94,0,0,0,24,44.3a6.65,6.65,0,0,0-.08-.86c0-.14,0-.13-.05-.21s-.43-.12-.52-.13-.13-.14-.13-.14a.36.36,0,0,1,.07-.22.67.67,0,0,0,.13-.41.54.54,0,0,0-.2-.45.17.17,0,0,1-.05-.12v-.14s0,0-.06-.06a1.13,1.13,0,0,1-.06-.21v0h0v0a.67.67,0,0,1-.06.21s-.05,0-.05.06a.28.28,0,0,0,0,.13.21.21,0,0,1-.07.14.58.58,0,0,0-.18.44.71.71,0,0,0,.08.34.49.49,0,0,1,.06.29s0,.12-.12.14-.43,0-.46.11a3.4,3.4,0,0,0-.11.6.63.63,0,0,1-.33.52l-.17.09a.38.38,0,0,0-.06.14h-.18a.21.21,0,0,0-.21.21v0a.2.2,0,0,0,.16.2H21v.4h-.07v.08h-.27v.68h4.69V45.5ZM23.43,44a.63.63,0,0,1,.08-.23s.06,0,.07,0l.06.26h0a.22.22,0,0,1-.12.22,0,0,0,0,1-.05,0A.61.61,0,0,1,23.43,44Zm-1.44.5a.56.56,0,0,0,.33-.4l.08-.33s.05,0,.07,0a.56.56,0,0,1,.1.27,2.58,2.58,0,0,1-.16.37.21.21,0,0,1-.19.12h-.28Z"></path><path class="cls-2" d="M58.61,45.5v-.08h-.07V45h-.21a.19.19,0,0,0,.05-.13v0a.21.21,0,0,0-.21-.21H57.5a.21.21,0,0,0-.14-.17,1.33,1.33,0,0,0,.14-.17,6.65,6.65,0,0,0-.08-.86.64.64,0,0,0-.05-.21c0-.1-.43-.12-.52-.13s-.12-.14-.12-.14a.3.3,0,0,1,.06-.22.67.67,0,0,0,.13-.41.56.56,0,0,0-.19-.45.14.14,0,0,1-.06-.12v-.14s0,0-.06-.06a.71.71,0,0,1,0-.21v0h0v0a1.31,1.31,0,0,1,0,.21s-.06,0-.06.06v.13a.2.2,0,0,1-.06.14.55.55,0,0,0-.19.44.62.62,0,0,0,.09.34.72.72,0,0,1,.06.29s0,.12-.13.14-.43,0-.46.11a4.8,4.8,0,0,0-.11.6.63.63,0,0,1-.33.52l-.17.09a.38.38,0,0,0-.06.14H54.9a.22.22,0,0,0-.21.21v0a.2.2,0,0,0,.16.2h-.32v.4h-.07v.08h-.27v.68h4.69V45.5ZM57,44a.63.63,0,0,1,.08-.23s.06,0,.07,0a2.23,2.23,0,0,1,.06.26h0a.22.22,0,0,1-.12.22s0,0,0,0A.86.86,0,0,1,57,44Zm-1.44.5a.56.56,0,0,0,.33-.4l.08-.33a0,0,0,0,1,.07,0,.47.47,0,0,1,.1.27,1.79,1.79,0,0,1-.16.37.21.21,0,0,1-.19.12h-.28Z"></path><path class="cls-2" d="M49,45.5v-.08h-.08V45h-.2a.18.18,0,0,0,0-.13v0a.21.21,0,0,0-.21-.21h-.67a.21.21,0,0,0-.14-.17c.06-.07.13-.13.14-.17a6.65,6.65,0,0,0-.08-.86,1.3,1.3,0,0,0,0-.21c0-.1-.44-.12-.53-.13s-.12-.14-.12-.14a.31.31,0,0,1,.07-.22.74.74,0,0,0,.12-.41.56.56,0,0,0-.19-.45.14.14,0,0,1-.06-.12v-.14s0,0-.06-.06a1.31,1.31,0,0,1,0-.21v0h0v0a.71.71,0,0,1-.05.21s-.06,0-.06.06v.13a.2.2,0,0,1-.06.14.55.55,0,0,0-.18.44.71.71,0,0,0,.08.34.49.49,0,0,1,.06.29s0,.12-.13.14-.43,0-.45.11a3.4,3.4,0,0,0-.11.6.66.66,0,0,1-.34.52l-.16.09a.54.54,0,0,0-.07.14h-.18a.22.22,0,0,0-.21.21v0a.2.2,0,0,0,.17.2h-.33v.4h-.07v.08h-.27v.68h4.7V45.5ZM47.31,44a.65.65,0,0,1,.09-.23s.06,0,.06,0a1.16,1.16,0,0,1,.06.26h0a.22.22,0,0,1-.12.22s0,0,0,0A.85.85,0,0,1,47.31,44Zm-1.44.5a.56.56,0,0,0,.33-.4l.08-.33a0,0,0,0,1,.07,0,.47.47,0,0,1,.1.27,1.79,1.79,0,0,1-.16.37.18.18,0,0,1-.18.12h-.29Z"></path><path class="cls-2" d="M32.37,70.85v-.1h-.1v-.54H32A.29.29,0,0,0,32,70V70a.29.29,0,0,0-.31-.28h-1a.28.28,0,0,0-.21-.23,1,1,0,0,0,.21-.23,7.4,7.4,0,0,0-.12-1.15,1.38,1.38,0,0,0-.06-.28c0-.15-.64-.17-.77-.19s-.18-.18-.18-.18a.41.41,0,0,1,.09-.3.81.81,0,0,0,.19-.55A.71.71,0,0,0,29.6,66a.21.21,0,0,1-.08-.16v-.18s-.05-.07-.08-.09a.78.78,0,0,1-.08-.29v0a1.58,1.58,0,0,1-.08.29s-.08,0-.09.09v.17a.23.23,0,0,1-.09.18.73.73,0,0,0-.27.6,1,1,0,0,0,.12.46.68.68,0,0,1,.09.39s-.05.16-.18.18-.63,0-.67.15a4.92,4.92,0,0,0-.16.81.87.87,0,0,1-.5.7l-.24.12a.63.63,0,0,0-.09.2h-.26a.29.29,0,0,0-.31.28v.06a.3.3,0,0,0,.24.28h-.48v.54h-.1v.1h-.4v.92h6.89v-.92Zm-2.39-2a.91.91,0,0,1,.12-.31.05.05,0,0,1,.1,0c0,.11.08.28.09.35h0a.3.3,0,0,1-.17.3.06.06,0,0,1-.08,0A.91.91,0,0,1,30,68.88Zm-2.12.68a.8.8,0,0,0,.49-.54l.11-.45s.08,0,.11,0a.7.7,0,0,1,.15.36,4.27,4.27,0,0,1-.24.51.32.32,0,0,1-.27.16H27.8Z"></path><path class="cls-2" d="M18.19,70.85v-.1h-.11v-.54h-.3a.29.29,0,0,0,.07-.18V70a.29.29,0,0,0-.31-.28h-1a.3.3,0,0,0-.22-.23,1,1,0,0,0,.21-.23,7.4,7.4,0,0,0-.12-1.15,1.38,1.38,0,0,0-.06-.28c-.05-.15-.64-.17-.77-.19s-.18-.18-.18-.18a.41.41,0,0,1,.09-.3.81.81,0,0,0,.19-.55.71.71,0,0,0-.29-.61.21.21,0,0,1-.08-.16v-.18s-.05-.07-.08-.09a.78.78,0,0,1-.08-.29v0a1.58,1.58,0,0,1-.08.29s-.08,0-.09.09v.17a.23.23,0,0,1-.09.18.72.72,0,0,0-.26.6,1,1,0,0,0,.11.46.68.68,0,0,1,.09.39s-.05.16-.18.18-.63,0-.67.15a4.92,4.92,0,0,0-.16.81.87.87,0,0,1-.5.7l-.24.12a.63.63,0,0,0-.09.2h-.26a.29.29,0,0,0-.31.28v.06a.3.3,0,0,0,.24.28h-.48v.54h-.1v.1h-.4v.92h6.89v-.92Zm-2.4-2a.91.91,0,0,1,.12-.31.05.05,0,0,1,.1,0c0,.11.08.28.09.35h0a.28.28,0,0,1-.17.3.06.06,0,0,1-.08,0A.91.91,0,0,1,15.79,68.88Zm-2.12.68a.8.8,0,0,0,.49-.54l.11-.45a.07.07,0,0,1,.11,0,.7.7,0,0,1,.15.36,3.12,3.12,0,0,1-.24.51.32.32,0,0,1-.27.16h-.41Z"></path><path class="cls-2" d="M67.43,70.85v-.1h-.11v-.54H67a.24.24,0,0,0,.07-.18V70a.29.29,0,0,0-.31-.28h-1a.29.29,0,0,0-.21-.23,1.27,1.27,0,0,0,.21-.23,8.86,8.86,0,0,0-.12-1.15.84.84,0,0,0-.07-.28c0-.15-.63-.17-.77-.19s-.18-.18-.18-.18a.42.42,0,0,1,.1-.3.86.86,0,0,0,.18-.55.7.7,0,0,0-.28-.61.21.21,0,0,1-.08-.16v-.18s-.06-.07-.09-.09a1.58,1.58,0,0,1-.08-.29v0a.78.78,0,0,1-.08.29s-.08,0-.08.09v.17a.23.23,0,0,1-.09.18.73.73,0,0,0-.27.6A1,1,0,0,0,64,67a.68.68,0,0,1,.09.39s0,.16-.18.18-.63,0-.68.15a4.92,4.92,0,0,0-.16.81.86.86,0,0,1-.49.7l-.24.12a.46.46,0,0,0-.09.2H62a.29.29,0,0,0-.31.28v.06a.31.31,0,0,0,.24.28h-.47v.54h-.11v.1h-.39v.92h6.89v-.92Zm-2.4-2a.76.76,0,0,1,.13-.31.05.05,0,0,1,.1,0c0,.11.08.28.09.35h0a.3.3,0,0,1-.18.3.05.05,0,0,1-.07,0A.89.89,0,0,1,65,68.88Zm-2.11.68a.8.8,0,0,0,.49-.54l.11-.45a.06.06,0,0,1,.1,0c.07.1.17.26.15.36a2.45,2.45,0,0,1-.24.51.3.3,0,0,1-.27.16h-.41Z"></path><path class="cls-2" d="M53.24,70.85v-.1h-.11v-.54h-.3A.24.24,0,0,0,52.9,70V70a.29.29,0,0,0-.31-.28h-1a.29.29,0,0,0-.21-.23,1.27,1.27,0,0,0,.21-.23,7.4,7.4,0,0,0-.12-1.15.84.84,0,0,0-.07-.28c0-.15-.63-.17-.76-.19a.27.27,0,0,1-.19-.18.47.47,0,0,1,.1-.3.86.86,0,0,0,.18-.55.7.7,0,0,0-.28-.61.21.21,0,0,1-.08-.16v-.18s-.06-.07-.09-.09a1.58,1.58,0,0,1-.08-.29v0a.78.78,0,0,1-.08.29s-.08,0-.08.09v.17A.23.23,0,0,1,50,66a.73.73,0,0,0-.27.6,1,1,0,0,0,.12.46.68.68,0,0,1,.09.39s0,.16-.18.18-.63,0-.68.15a4.92,4.92,0,0,0-.16.81.86.86,0,0,1-.49.7l-.24.12a.46.46,0,0,0-.09.2h-.27a.29.29,0,0,0-.31.28v.06a.31.31,0,0,0,.24.28h-.47v.54h-.1v.1h-.4v.92h6.89v-.92Zm-2.39-2a.74.74,0,0,1,.12-.31.05.05,0,0,1,.1,0c0,.11.08.28.09.35h0a.3.3,0,0,1-.18.3.05.05,0,0,1-.07,0A.73.73,0,0,1,50.85,68.88Zm-2.12.68a.8.8,0,0,0,.49-.54l.11-.45a.06.06,0,0,1,.1,0c.07.1.17.26.15.36a2.45,2.45,0,0,1-.24.51.3.3,0,0,1-.27.16h-.41Z"></path><rect class="cls-1" x="25.91" y="30.82" width="2.77" height="3.41"></rect><rect class="cls-1" x="21.79" y="37.19" width="2.77" height="2.77"></rect><rect class="cls-1" x="15.08" y="43.33" width="2.77" height="2.85"></rect><rect class="cls-1" x="54.58" y="37.13" width="2.77" height="2.77"></rect><rect class="cls-1" x="50.6" y="31.44" width="2.77" height="2.77"></rect><rect class="cls-2" x="25.91" y="12.63" width="2.77" height="2.84"></rect><rect class="cls-2" x="50.6" y="13.14" width="2.77" height="2.31"></rect><rect class="cls-1" x="61.4" y="43.33" width="2.77" height="2.85"></rect><rect class="cls-1" x="21.96" y="19.65" width="3.95" height="0.86"></rect><rect class="cls-2" x="32.63" y="19.65" width="3.95" height="0.86"></rect><rect class="cls-1" x="10.59" y="49.79" width="3.95" height="0.86"></rect><rect class="cls-1" x="21.26" y="49.79" width="3.95" height="0.86"></rect><rect class="cls-2" x="43" y="19.65" width="3.95" height="0.86" transform="translate(89.95 40.16) rotate(180)"></rect><rect class="cls-1" x="65.04" y="49.79" width="3.95" height="0.86" transform="translate(134.04 100.44) rotate(180)"></rect><rect class="cls-1" x="54.38" y="49.79" width="3.95" height="0.86" transform="translate(112.7 100.44) rotate(180)"></rect><rect class="cls-1" x="10.59" y="57.75" width="3.95" height="0.86"></rect><rect class="cls-1" x="21.26" y="57.75" width="3.95" height="0.86"></rect><rect class="cls-1" x="65.04" y="57.75" width="3.95" height="0.86" transform="translate(134.04 116.36) rotate(180)"></rect><rect class="cls-1" x="54.38" y="57.75" width="3.95" height="0.86" transform="translate(112.7 116.36) rotate(180)"></rect><rect class="cls-1" x="10.59" y="75.38" width="3.95" height="0.86"></rect><rect class="cls-1" x="21.26" y="75.38" width="3.95" height="0.86"></rect><rect class="cls-1" x="65.04" y="75.38" width="3.95" height="0.86" transform="translate(134.04 151.62) rotate(180)"></rect><rect class="cls-1" x="54.38" y="75.38" width="3.95" height="0.86" transform="translate(112.7 151.62) rotate(180)"></rect><rect class="cls-1" x="4.9" y="81.07" width="3.95" height="0.86"></rect><rect class="cls-1" x="15.57" y="81.07" width="3.95" height="0.86"></rect><rect class="cls-1" x="70.73" y="81.07" width="3.95" height="0.86" transform="translate(145.41 162.99) rotate(180)"></rect><rect class="cls-1" x="60.06" y="81.07" width="3.95" height="0.86" transform="translate(124.07 162.99) rotate(180)"></rect><rect class="cls-2" x="38.15" y="9.23" width="2.95" height="0.78" rx="0.23"></rect><rect class="cls-2" x="38.15" y="10.37" width="2.95" height="0.78" rx="0.23"></rect><rect class="cls-2" x="37.27" y="15.82" width="4.71" height="1.25" rx="0.37"></rect><rect class="cls-2" x="38.15" y="11.51" width="2.95" height="0.78" rx="0.23"></rect><rect class="cls-2" x="27.76" y="23.02" width="2.77" height="1.55"></rect><rect class="cls-2" x="48.61" y="23.02" width="2.77" height="1.55"></rect><rect class="cls-1" x="27.76" y="41.22" width="2.77" height="2.1"></rect><rect class="cls-1" x="15.82" y="41.22" width="2.77" height="2.1"></rect><rect class="cls-1" x="60.74" y="41.22" width="2.77" height="2.1"></rect><rect class="cls-1" x="48.61" y="41.22" width="2.77" height="2.1"></rect><rect class="cls-2" x="27.76" y="55.44" width="2.77" height="2.32"></rect><rect class="cls-2" x="15.82" y="55.44" width="2.77" height="2.32"></rect><rect class="cls-2" x="60.74" y="55.44" width="2.77" height="2.32"></rect><rect class="cls-2" x="48.61" y="55.44" width="2.77" height="2.32"></rect><rect class="cls-2" x="27.76" y="73.06" width="2.77" height="2.32"></rect><rect class="cls-2" x="10.13" y="73.06" width="2.77" height="2.32"></rect><rect class="cls-2" x="66.43" y="73.06" width="2.77" height="2.32"></rect><rect class="cls-1" x="10.13" y="81.93" width="2.77" height="2.28"></rect><rect class="cls-1" x="66.43" y="81.93" width="2.77" height="2.28"></rect><rect class="cls-2" x="48.61" y="73.06" width="2.77" height="2.32"></rect><rect class="cls-1" x="20.64" y="52.52" width="11.74" height="1.62"></rect><rect class="cls-1" x="46.8" y="52.52" width="11.74" height="1.62"></rect><rect class="cls-1" x="64.43" y="52.52" width="4.35" height="1.62"></rect><rect class="cls-1" x="10.97" y="52.52" width="4.35" height="1.62"></rect><path class="cls-2" d="M65.33,83.64H14.54l2.89-2.77a3.75,3.75,0,0,1,2.59-1H59.83a3.79,3.79,0,0,1,2.61,1Z"></path><rect class="cls-1" x="14.54" y="83.64" width="50.79" height="2.07"></rect><rect class="cls-2" x="24.56" y="85.71" width="3.2" height="14.29"></rect><rect class="cls-2" x="51.86" y="85.71" width="3.2" height="14.29"></rect></g></g></svg>