<svg xmlns="http://www.w3.org/2000/svg" xmlns:xlink="http://www.w3.org/1999/xlink" id="Layer_1" x="0px" y="0px" viewBox="0 0 708 427" style="enable-background:new 0 0 708 427;" xml:space="preserve"><style type="text/css">	.st0{fill:none;}	.st1{fill:#EBEBEB;}	.st2{fill:#F5F5F5;}	.st3{fill:#E0E0E0;}	.st4{fill:#F7F7F8;}	.st5{fill:#263238;}	.st6{fill:#FAAD83;stroke:#EA976E;stroke-width:2;stroke-miterlimit:10;}	.st7{opacity:0.3;}	.st8{fill:#EA976E;}	.st9{fill:#FFFFFF;}	.st10{fill:url(#SVGID_1_);}	.st11{fill:#02195B;}	.st12{fill:none;stroke:#02195B;stroke-width:2;stroke-miterlimit:10;}	.st13{fill:#F9FAFA;}	.st14{fill:#99A5D0;}	.st15{fill:#6678B9;}	.st16{fill:#223988;}	.st17{fill:#7787C1;}</style><rect x="119" y="214" class="st0" width="84" height="73"></rect><g id="Layer_2_00000032624691609663522140000013827144710329124737_">	<g id="Background_Complete">		<path class="st1" d="M233.1,342.2h39.2c0,0-3.5-6.3-13.6-5.4c-9.7,0.9-10.1-3.1-15-3.6C238.8,332.8,234.7,336.4,233.1,342.2z"></path>		<path class="st2" d="M563.6,137.4c-7.3-10.3-5-23.8-0.4-35c0.7-1.9,1.2-3.9,2.8-5.2c1.5-1.3,4-1.7,5.4-0.3c1.2,1.2,1.2,3,1.5,4.7   c0.4,2.2,1.4,4.2,2.9,5.9c1,1.1,2.3,2,3.7,1.8c2-0.4,2.9-2.5,3.6-4.4l3.7-10.6c0.5-2,1.4-3.7,2.6-5.4c1.2-1.7,3.1-2.7,5.2-2.7   c2,0.2,3.8,2,3.6,4c-0.2,0.8-0.4,1.6-0.8,2.4c-0.4,0.8-0.1,1.7,0.4,2.3c0.8,0.4,1.7,0.4,2.4-0.1c2.6-1.3,5-3.1,6.9-5.2   c2-2.1,4.3-3.9,6.8-5.5c2.5-1.4,5.5-2.2,8.3-1.4s5.1,3.6,4.8,6.4c-0.3,2.8-2.8,5.1-5.2,6.6c-3.6,2.3-7.6,4-11.8,5.2   c-0.8,0.1-1.5,0.5-2,1.1c-0.9,1.1-0.1,2.8,1,3.6c1.2,1,2.8,1.4,4.3,2s2.8,2,2.8,3.6c0.1,2.2-2.2,3.6-4.4,4.4   c-4.2,1.5-8.5,2.3-12.9,2.3c-1.6-0.1-3.1,0.1-4.6,0.5c-1.5,0.5-2.8,2-2.6,3.6s1.8,2.6,3.4,2.8c1.6,0.1,3.1,0.1,4.7-0.1   c2.9-0.1,6.2,1.3,7.1,4.2c0.4,2,0,4-1.2,5.5c-1.2,1.5-2.8,2.8-4.5,3.6c-5.9,3.5-12.6,5.3-19.4,5.3c-6.8-0.1-12.5-1.5-17.8-5.9"></path>		<path class="st3" d="M565.2,138.7c2-4.4,0.2-2.3,3.9-7.4c4.1-5.5,8.5-10.7,13.2-15.8l3.7-3.9c1.2-1.3,2.4-2.6,3.6-3.7   c2.4-2.3,5-4.4,7.6-6.4c2.5-2,5-3.6,7.3-5.2c2.3-1.6,4.5-3,6.6-4.3c3.2-2,6.6-3.6,10.1-5.2c1.2-0.5,2.2-0.9,2.8-1.1l0.7-0.3   c0.1,0,0.2-0.1,0.3-0.1l-0.3,0.1l-0.7,0.3c-0.6,0.3-1.6,0.6-2.8,1.2c-3.5,1.5-6.8,3.2-10,5.2c-2,1.2-4.2,2.7-6.5,4.3   c-2.3,1.6-4.7,3.4-7.3,5.2c-2.7,2-5.2,4.1-7.5,6.4c-1.2,1.2-2.4,2.5-3.6,3.7l-3.7,4c-4.7,5-9.1,10.2-13.2,15.7c-3.7,5.1-2,3-4,7.3   "></path>		<path class="st3" d="M589.9,107.9c0-0.3,0.1-0.6,0.1-0.9c0.1-0.5,0.3-1.3,0.4-2.3c0.4-2,1.1-4.7,1.8-7.6c0.7-2.9,1.3-5.7,1.8-7.6   c0.2-1,0.4-1.8,0.4-2.3c0-0.3,0.1-0.6,0.2-0.9c0,0.3,0,0.6,0,0.9c-0.1,0.5-0.2,1.3-0.4,2.4c-0.4,2-0.9,4.7-1.6,7.7   c-0.7,3-1.4,5.6-2,7.6l-0.5,2.3C590.1,107.2,590,107.6,589.9,107.9z"></path>		<path class="st3" d="M615.8,112c-0.4,0-0.7-0.1-1-0.3c-0.6-0.2-1.6-0.4-2.8-0.7c-2.3-0.5-5.5-1.2-9.1-1.8s-6.8-1-9.2-1.2   c-1.2-0.1-2.1-0.2-2.8-0.2c-0.4,0-0.7,0-1.1-0.1c0.4,0,0.7,0,1.1,0c0.7,0,1.6,0,2.8,0.1c2.4,0.2,5.7,0.4,9.2,1.1   c3.1,0.4,6.1,1.2,9.1,2c1.2,0.3,2,0.6,2.7,0.8C615.1,111.9,615.4,111.9,615.8,112z"></path>		<path class="st3" d="M569.6,131c0-0.1-0.1-0.3-0.1-0.4c0-0.3-0.1-0.6-0.1-1.1c-0.1-0.9-0.2-2.2-0.3-3.8c-0.2-3.2-0.3-7.6-0.3-12.5   c0-4.9-0.1-9.3-0.2-12.5c-0.1-1.6-0.1-2.8-0.2-3.8c0-0.4,0-0.7,0-1.1c0-0.1,0-0.3,0-0.4c0,0.1,0.1,0.3,0.1,0.4   c0,0.3,0.1,0.6,0.1,1.1c0.1,0.9,0.2,2.2,0.3,3.8c0.2,3.2,0.3,7.6,0.3,12.5c0,4.9,0.1,9.3,0.2,12.5c0.1,1.6,0.1,2.8,0.2,3.8   c0,0.4,0,0.8,0,1.1C569.6,130.8,569.6,130.9,569.6,131z"></path>		<path class="st3" d="M605.6,132.2c-0.1,0-0.3,0-0.4,0h-1.1l-3.9-0.1c-3.3-0.1-7.7-0.2-12.7-0.3c-5-0.1-9.5-0.3-12.7-0.4   c-1.6-0.1-2.9-0.2-3.8-0.3l-1.1-0.1c-0.1,0-0.3,0-0.4-0.1c0.1,0,0.3,0,0.4,0h1.1l3.8,0.1c3.3,0.1,7.7,0.2,12.7,0.3   c5,0.1,9.5,0.3,12.7,0.4c1.6,0.1,2.9,0.2,3.8,0.3l1.1,0.1C605.3,132.2,605.4,132.2,605.6,132.2z"></path>		<path class="st1" d="M161.5,174.8c-4,2.3-8-2-5.8-6.2c0.3-0.5,0.7-1,1.2-1.3c4-2.3,8,2,5.8,6.2C162.5,174,162.1,174.5,161.5,174.8   z"></path>		<path class="st2" d="M271.2,18.4h77.2c0,0-6.8-12.4-26.7-10.7c-19,1.8-20-6-29.6-7S274.4,7.1,271.2,18.4z"></path>		<path class="st1" d="M242.6,32.4h49.9c0,0-4.4-8-17.2-6.8c-12.3,1.1-12.9-3.9-19.1-4.5C249.9,20.4,244.6,25.1,242.6,32.4z"></path>		<path class="st1" d="M-0.2,238.2h49.9c0,0-4.4-8-17.2-6.8c-12.3,1.1-12.9-3.9-19.1-4.5C7.2,226.2,1.8,230.9-0.2,238.2z"></path>		<path class="st2" d="M559.7,214h47.1c0,0-4.2-7.5-16.3-6.5c-11.5,1.1-12.2-3.7-18-4.4C566.6,202.5,561.6,207.1,559.7,214z"></path>		<path class="st1" d="M244.6,151.7c-0.1-0.5-0.2-1-0.2-1.5c0-0.6-0.1-1.2-0.3-1.8c-0.1-0.8-0.3-1.6-0.5-2.4   c-0.5-2.2-1.5-4.3-2.7-6.2c-1.5-2.6-3.6-4.8-6-6.6c-6.3-4.8-14.6-6-21.9-3.4c-2.1,0.7-4.1,1.8-5.9,3.1c-1,0.7-1.9,1.4-2.7,2.2   c-0.8,0.8-1.6,1.7-2.3,2.7c-6,8.1-6,19.2-0.1,27.4c0.7,1,1.4,1.9,2.2,2.7c0.8,0.8,1.7,1.6,2.6,2.2c1.8,1.3,3.7,2.4,5.9,3.2   c10.5,3.8,22.2-0.2,28.1-9.7c1.2-2,2.1-4,2.7-6.2c0.3-0.8,0.4-1.6,0.5-2.4c0.1-0.6,0.2-1.2,0.3-1.8   C244.3,152.7,244.4,152.3,244.6,151.7c0,0.5,0,1-0.1,1.5c0,0.6,0,1.2-0.1,1.9c-0.1,0.8-0.3,1.7-0.4,2.5c-0.5,2.3-1.4,4.4-2.6,6.5   c-3.6,6-9.4,10.2-16.3,11.5c-4.3,0.8-8.7,0.4-12.8-1.1c-2.2-0.8-4.3-1.9-6.1-3.3c-1-0.7-1.9-1.5-2.8-2.3c-0.9-0.9-1.7-1.9-2.4-2.8   c-6.3-8.6-6.2-20.3,0.2-28.9c0.7-1,1.5-2,2.4-2.8c0.9-0.8,1.8-1.6,2.8-2.3c1.9-1.4,4-2.5,6.2-3.3c4.1-1.4,8.5-1.8,12.8-0.9   c6.8,1.3,12.7,5.6,16.2,11.6c1.2,2,2,4.2,2.5,6.5c0.2,0.8,0.4,1.7,0.4,2.5c0.1,0.6,0.1,1.2,0.1,1.9   C244.7,150.8,244.7,151.3,244.6,151.7z"></path>		<path class="st1" d="M239.5,137c0.1,0.1-0.4,0.4-1.2,1.1l-1.5,1.2c-0.3,0.2-0.6,0.4-1,0.7l-1.2,0.6c-4.2,2.5-9,3.8-13.9,3.8   l-2.1-0.1l-2-0.3c-0.4-0.1-0.7-0.1-1-0.2l-1-0.2c-0.6-0.2-1.2-0.3-1.9-0.4c-2-0.6-4.1-1.5-6-2.6c-3.2-1.9-4.8-3.6-4.7-3.7   c0.1-0.2,1.9,1.2,5.2,2.8c1.9,0.9,3.8,1.7,5.9,2.3c0.5,0.2,1.2,0.3,1.8,0.4l0.9,0.2l1,0.1l2,0.3l2,0.1c4.7,0,9.3-1.2,13.5-3.4   l1.2-0.5c0.4-0.2,0.7-0.4,1-0.6c0.6-0.4,1.2-0.6,1.6-0.9C239,137.2,239.5,136.9,239.5,137z"></path>		<path class="st1" d="M202.1,166.7c-0.1-0.1,0.4-0.4,1.2-1.1l1.5-1.2c0.3-0.2,0.6-0.4,1-0.7l1.2-0.6c4.2-2.5,9-3.8,13.9-3.8   l2.1,0.1l2,0.3c0.4,0.1,0.6,0.1,1,0.2l1,0.3c0.6,0.2,1.2,0.3,1.9,0.4c2,0.7,4.1,1.6,6,2.7c3.2,1.9,4.8,3.6,4.7,3.7   c-0.1,0.2-1.9-1.2-5.2-2.8c-1.9-0.9-3.8-1.7-5.9-2.3c-0.5-0.2-1.2-0.3-1.8-0.4l-0.9-0.2l-1-0.1l-2-0.3h-2c-4.7,0-9.3,1.2-13.5,3.3   l-1.2,0.5c-0.4,0.2-0.7,0.4-1,0.6l-1.6,0.9C202.7,166.5,202.1,166.7,202.1,166.7z"></path>		<path class="st1" d="M244.6,152.3c0,0.4-10.7,0.6-23.8,0.5c-13.1-0.1-23.8-0.4-23.8-0.8c0-0.4,10.7-0.6,23.8-0.5   C233.9,151.6,244.6,151.9,244.6,152.3z"></path>		<path class="st1" d="M220.2,175.4c-0.4,0-0.6-10.7-0.5-23.7c0.1-13.1,0.4-23.7,0.8-23.7c0.4,0,0.6,10.7,0.5,23.8   C220.9,164.9,220.5,175.4,220.2,175.4z"></path>		<path class="st1" d="M220.2,175.4c-0.1,0.2-2.8-1.6-5.9-5.5c-1.8-2.3-3.3-4.9-4.4-7.6c-1.3-3.4-2-6.9-2-10.6s0.8-7.3,2.2-10.6   c1.2-2.7,2.7-5.2,4.5-7.5c3.1-3.9,5.7-5.7,5.9-5.5c0.2,0.2-2.2,2.1-5.1,6.1c-1.7,2.3-3,4.8-4.1,7.5c-1.3,3.2-2,6.7-2,10.1   s0.6,6.9,1.9,10.1c1.1,2.7,2.4,5.2,4,7.5C217.9,173.2,220.3,175.2,220.2,175.4z"></path>		<path class="st1" d="M221,127.8c0.1-0.2,2.8,1.6,5.9,5.5c1.8,2.3,3.3,4.9,4.4,7.6c1.3,3.4,2,7,2,10.6c0,3.6-0.8,7.3-2.2,10.6   c-1.2,2.7-2.7,5.2-4.5,7.5c-3.1,3.9-5.7,5.7-5.9,5.5s2.2-2.1,5.1-6.1c1.7-2.3,3-4.8,4.1-7.5c1.3-3.2,2-6.7,2-10.1   c0-3.5-0.6-6.9-1.9-10.1c-1.1-2.7-2.4-5.2-4-7.5C223.2,130,220.8,128,221,127.8z"></path>	</g>	<g id="Map">		<path class="st3" d="M574.9,326.8c-0.4,1.9-1.4,3.6-2.8,4.8c-1.1,0.9-4.4,2.6-4.7,0.2c0.1-1.5,0.4-3.1,0.9-4.5   c0.8-2,1.7-0.7,3-0.4S573.9,325.8,574.9,326.8z"></path>		<path class="st3" d="M566,126.6c0.4,1.7,0.8,3.3,1.2,4.8c-1.2,1.9-3.7,1.2-5.6,2.2c-0.9,0.4-1.1,2.2-2,2.5   c-0.7,0.2-1.2-0.7-1.9-0.7c-1.6,0-2.5,3.3-4.4,2.5c-1.2,0.8,0,4-1.3,4.3c-1,0.2-1.6-1.4-2.2-2.3c-0.7-1.2-1.8-1.8-1.8-2.8   c0-1,1.6-2.6,2.1-3.3c0.6-0.8,2-2.4,2.8-2.6c1.5-0.4,3.1,0.2,4.3-0.4c1-0.5,1.1-2.4,1.6-2.8c0.5-0.4,1-0.3,1.3-0.5   c1.1-0.7,2.2-3.1,1.6-5.5c-0.4-1.5-2.5-3.2-1.2-5.1c2.5,0.6,4.4,2.6,5.1,5.1c0.2,1-0.3,1.9-0.3,2.8   C565.5,125.4,565.8,126,566,126.6z"></path>		<path class="st3" d="M566.5,111.6c-0.3,0.7-0.8,0.5-1.2,1c-0.4,0.4-1.1,1.7-1.6,1.8c-0.9,0.2-2-1.1-2.8-0.8   c-1.1,0.3-0.4,1.3-0.8,2.5c-1-0.3-2.5-1.5-2.5-2.8c0-0.8,0.8-1.2,1.1-2.2c0.4-1.6-0.5-2.4-1.1-3.8c0-0.2,0.1-0.3,0.1-0.4   c1.2-0.3,3.3,2.2,5.9,2.8C565,109.8,566.4,109.6,566.5,111.6z"></path>		<path class="st3" d="M562.2,251.3c0.1,1.2-1.5,1-1.7,0.3C560.5,250.7,562,250.4,562.2,251.3z"></path>		<path class="st3" d="M554.2,100c1.2,0.7,3.9,2.4,2,3.8C554.7,103.2,554,101.6,554.2,100z"></path>		<path class="st3" d="M548.9,245.3c1.3-0.9,2.8-2.8,5.1-1.8c-0.5,1.7-2.2,1.7-3.3,2.5c-1.1,0.8-2,2.2-3.5,2.3   c-0.1-0.3-0.3-0.4-0.4-0.5C546.8,246.2,548,245.9,548.9,245.3z"></path>		<path class="st3" d="M545.9,219.4c1.3,0,2.6-0.5,3.6,0.2c-0.2,3.5-4.6,0.8-7.5,1.4c-0.6,0.1-0.8,0.7-1.5,0.4   c0.1-1.2,1-2.2,2.2-2.5C543.4,218.7,544.6,219.4,545.9,219.4z"></path>		<path class="st3" d="M546.9,223.7c0.2,1.9-2,2.1-2.7,3.6c1,1.8,1.3,4.2,2.4,5.8c0,1.1,0.2,2.4-0.4,2.9c-2.3,0.5-3.6-4.4-4.4-6.2   c-1.8,0.4-0.2,7.2-2.5,6.3c-1.2-0.4,0-2.3-0.3-3.8c-0.2-1.3-1.3-1.6-1.3-2.7c-0.1-0.9,0.8-1.8,1.1-2.6c0.4-1.2,0.2-3.6,1.3-3.7   c0.6,0,1.4,1.5,1.9,1.7C543.4,225.3,545.1,223.2,546.9,223.7z"></path>		<path class="st3" d="M542.8,244.2c-0.4,1.1-2.8,0.5-3-0.4C540.2,242.7,542.5,243,542.8,244.2z"></path>		<path class="st3" d="M540.6,247.5c-0.1,0.2-0.3,0.4-0.4,0.5c-0.9-0.4-1.8-0.6-2-1.7C538.7,245.3,540.6,246.2,540.6,247.5z"></path>		<path class="st3" d="M537.4,244c-0.6,1-2.6-0.1-3.3,1c-1.2,0-2.4-0.1-2.7-1.2c0.4-1,1.4-0.4,2.3-0.4   C535.2,243.2,537.1,242.1,537.4,244z"></path>		<path class="st4" d="M521.3,296.8c0-1.2-0.6-2.3-0.8-3.6c-0.1-0.4,0.1-1.1,0-1.7c-0.2-0.7-0.3-1.3-0.4-2c0.2-0.9,1.1-1,1.2-1.8   c0.4-1.3-0.4-1.5-0.4-3c0-1.1,0.7-1.6,1.2-3c0.2-0.6,0.2-1.9,0.4-2.3c0.3-0.4,1.6-1.1,2-1.3c1.8-1.1,3.2-2.9,4.9-3.3   c0.4-0.1,1.1,0.1,1.3,0c1.1-0.2,2.3-1.2,3.8-1.7c1.5-0.4,2.7-0.3,3.6-1c1.4-1.1,2.5-2.5,3.2-4.1c0.5-1.5,0.4-2.8,1.3-3.3   c0.5-0.3,1,0,1.5-0.1c0.8-0.3,1.4-0.7,2-1.2c0.8-0.9,0.9-2.2,1.9-3.2c0.8-0.8,1.7-1.5,2.7-2c0.5-0.4,1.2-0.5,1.9-0.5   c1.6,0.2,2.4,2.8,4.1,2.3c0.6-0.2,1.2-1.8,1.9-2.8c0.8-1.4,1.4-3.3,2.8-3.7c1.2-0.4,2.5,0.5,3.1-0.7c0.2-0.9-0.5-1.4,0-2   c1.3,0.1,3.6,2.2,5.6,2.3c1.1,0,3.1-1.4,3.3,0.5c0.1,0.9-0.8,1.6-1.1,2.5c-0.2,0.6,0.2,1-0.1,1.7c-0.9,0.4-2,0.7-2,2   c0,1.6,1.9,2.3,2.9,3.2c0.8,0.6,1.4,1.5,1.9,1.8c0.4,0.3,0.9,0.4,1.2,0.5c0.7,0.5,1.2,1.9,2.3,2c1.2,0,2.3-1.8,2.9-3.5   c0.8-2,0.8-4.4,1.2-6.5c0.1-0.7,0.5-1.3,0.7-2c0.4-1.9,1.1-4.4,2.4-5.1c1.3,1.8,1.9,5.2,1.6,8c0.9,0.8,2.5,0.5,2.8,2.5   c0.1,0.7-0.3,1.5-0.2,2.2c0.1,1.2,0.8,2.2,0.9,3.2c0.3,1.9-0.3,3.4,0.4,4.7c0.9,1.7,2.7,1.6,3.8,3.5c0.1,0.9,0.3,1.7,0.6,2.5   c0.1,0.4,0,1.1,0.1,1.3c0.4,0.9,1.3,1,1.7,1.8c0.2,0.4,0.2,1.1,0.4,1.8c0.4,1,1,1.9,1.6,2.8c0.5,1,1.3,2,1.5,2.8   c0.3,1.3-0.6,2.3-0.8,3.5c-0.3,1.3,0,3.1-0.4,4.5c-0.5,1.7-1.9,3.3-2.8,5.3c-0.8,1.8-1.9,3.4-3.2,4.8c-0.7,0.7-1.6,1.1-2.3,1.8   c-1.1,1.2-2,2.4-2.9,3.7c-1.1,1.3-2.3,2.3-3.1,3.5c-1.2,1.6-1.8,4.3-3.8,4.5c-1.2,0.2-2.2,0-3.3,0.5c-1.7,0.8-2.8,2.3-3.6,2.3   s-1.7-1.2-2.5-1.3s-1.6,0.8-2.9,0.8c-0.5,0-0.8-0.4-1.6-0.7c-1.6-0.6-3.5-0.6-3.6-2.8c-0.2-1.2,0.6-1.7,0.5-2.8s-0.9-1.3-1.2-2.2   c0.2-1,0.3-2.1-0.6-2.8c-0.1-0.7,0.1-1.3,0.4-2c-0.8,0.3-1.6,0.7-2.3,1.1c-0.8,0.6-1.4,2-2.4,1.8c-0.9-0.4-0.2-1.4-0.4-2.3   c-0.4-1.4-1.1-2.8-2-4c-1.2-0.8-2.5-1.3-3.9-1.8c-3.6-0.7-5.8,1.6-8.6,2c-0.7,0.1-1.5-0.2-2.2,0c-2.3,0.4-4.9,2.7-6.3,4.1   c-2.4,0.3-4.8-0.6-7.2,0.3c-2.4,0.9-3.8,3.3-7.5,2.6c-0.7-0.8-2-1.2-2-2.5c0-1.1,1.3-1.7,1.7-2.5c0.6-1.2,1.1-2.5,1.2-3.8   c0-0.9-0.5-2-0.4-3.2C520.9,298.7,521.4,297.7,521.3,296.8z"></path>		<path class="st3" d="M519.4,239.4c0.6-0.1,1.1-0.6,1.7-0.7c1.3-0.1,2.7,1.2,4.3,1c0.4,0.4,0.1,0.8,0.1,1.5   c1.3,0.9,3.6,0.7,4.3,2.3c-1,1.2-2.5,0.4-3.8,0.1c-1.3-0.3-2.4-0.1-3.6-0.3c-1.6-0.3-3-1.3-4.6-1.5c-0.9-0.1-1.9,0.2-2.8,0   c-1.1-0.2-4.9-2-4.9-3.2s1.7-1.6,3.3-1.3C515.3,237.6,516.7,239.8,519.4,239.4z"></path>		<path class="st3" d="M522.4,229.9c-0.9-0.3-1.7-0.1-2-0.4c-0.8-0.5-0.7-2.2-0.9-3.2c-0.2-1-1.2-1.4-1.7-2.8   c-0.7-1.9-1.1-6,0.9-6.5c0.8-0.2,1.6,0.5,2.2,0.4c1.1-0.4,0.9-2,1.9-2.8c0.5-0.4,1.4-0.3,2.2-0.5c0.8-0.4,1.4-1.2,1.9-2   c0.4-0.7,0.9-1.9,1.5-2.3c0.6-0.4,1.3-0.5,2-1.1c1.5-1.4,1.6-3.3,2.8-5c1.1-1.4,2.7,1.3,2.8,2.5c0.5,0.9,1.7,1.1,2.2,2   c-0.7,2.4-2.6,2.7-2.2,6c0.2,0.8,0.4,1.6,0.7,2.3c0.4,0.8,1.3,1.7,1.2,2.2c-0.1,1.1-1.8,1-2.2,2c-0.4,1.1,0,1.1-0.1,2.7   c-0.4,1.2-1.8,1.4-2.2,2.8c-0.4,1.6,0.1,3.7-1.1,5c-0.8,0-1.6,0.8-2.5,0.7c-0.9-0.1-2-1.8-3.6-1.8c-0.6,0-1.3,0.4-2,0.4   C523.6,230.6,523.1,230.1,522.4,229.9z"></path>		<path class="st3" d="M515.1,226.8c2.9,0,2.9,5.4,0,5.4S512.1,226.8,515.1,226.8z"></path>		<path class="st3" d="M510.8,226.2c0.8,0.7,1.3,1.7,1.6,2.8c0,1-1.2,0.9-1.6,2.2c-0.5,2,0.3,4.3-0.7,5.2c-0.5,0.4-1.5,0.3-2.3,0.3   c-2-1.9-3.9-3.9-5.5-6.2c-0.7-0.8-1.3-1.6-1.9-2.5c-0.6-1.3-0.8-2.8-1.5-4c-0.6-1.1-1.7-1.9-2.3-3c-0.4-1-0.5-2.2-1.1-3.2   c-0.5-1-1.2-1.2-1.9-2c-0.4-0.4-0.5-1.2-0.9-1.7c-1.4-2-4.2-3.2-4.4-6.2c0.6-0.8,1.2,0.3,2.3,0.5c0.7,0.2,1.6-0.1,2,0.1   c1.1,0.4,1.8,2.4,2.8,3.5c0.6,0.6,1.4,1,2,1.7c0.6,0.7,1.2,1.7,1.7,2c0.7,0.5,1.8,0.9,2.8,1.7c1.3,1,3.7,2,4,4.1   c0.1,0.5-0.2,1.4-0.1,1.8c0.2,0.7,0.9,1.1,1.3,1.7c0.5,0.8,0.7,1.9,1.5,2S509.9,226,510.8,226.2z"></path>		<path class="st3" d="M456.7,197.2c1,0.4,4.3,5.2,3.3,7.8c-0.4,1-1.4,1.6-2.5,1.5c-2.3-0.4-1.9-6.5-1.2-9   C456.4,197.5,456.5,197.3,456.7,197.2z"></path>		<path class="st3" d="M380.5,266.9c0.2-1.3,0.6-2.6,1.5-3.6c1.1-1,2.5-0.9,3.6-1.5s2-1.5,2.8-2.5c0.5-0.9,0.6-1.9,1.1-2.5   c0.3-0.4,1-0.5,1.3-1.1s0.3-1.4,0.8-2c1.6-0.8,2,2.7,2.3,5.1c0.1,0.8,0.4,1.6,0.4,2c-0.2,1.1-1.2,1.3-1.5,2   c-0.2,2.8-0.9,5.5-2,8.1c-0.8,2.1-1.2,4.5-1.9,6.3c-0.3,0.7-0.7,1.2-0.9,1.8c-0.8,2.3-1.2,6-2.7,7c-1,0.5-2.1,0.8-3.2,1   c-1.5-0.2-2.7-1.2-3-2.8c-0.1-0.8-0.1-1.7-0.1-2.5c-0.2-1.1-0.7-2-0.5-3.3c0.3-2.8,2.5-4.2,2.7-6.5   C381.1,270.4,380.3,268.6,380.5,266.9z"></path>		<path class="st4" d="M325.2,71c0.1,2.3-2.9,2-3.3,4c-0.2,0.9,0.4,2,0.3,2.9c-0.3,1.4-1.4,1.1-2.8,1.8c-0.8,0.4-1.5,1.8-2.3,2   s-1.2-0.5-1.7-0.4c-0.8,0.2-0.5,1.2-1.6,1.5c-0.9,0.2-2.4-1-2.5,0.4c-0.1,0.9,1.4,1.3,2.3,1.2c0.7-0.1,1.2-0.7,2-0.7   c1.3,0,2.2,1.2,3.1,1.2c2,0.1,3.9-2.2,6-2c0.9,0.1,1.5,0.9,2.2,0.8c1.1-0.1,2-1.7,2.8-2.2c-0.4-2.3,0-5.4,1.9-5.5   c1.2-0.1,3.1,2.6,3.3,0c0-1.1-0.7-2-1.8-2c-0.7,0-1.5,1.6-2,0.3c0-1.2,1.2-0.9,1.9-1.2c0.4-0.3,0.8-0.9,1.3-1.1   c2.8-1.2,6.5,1.2,7.5-1.7c-2.4-2.5-6.6,0.9-9.3,0.7c-1.4-0.2-2.6-1.2-3.1-2.5c-0.1-0.4,0-1-0.1-1.8c-0.1-0.8-0.4-1.8-0.4-2.3   c0.1-2.5,5.2-2.9,5.2-6c-1-1.2-3.9-1-4.8,0.3c-0.4,0.4-0.4,1.3-0.8,2.2c-1.1,1.9-4.4,2.1-5.4,4.4c-0.4,0.9-0.5,1.8-0.4,2.8   C322.8,69.2,325.2,69.6,325.2,71z M298,205.7c-3.3-0.5-6.7,1-9,2.2c-1.3,0.7-2.7,1.7-3.7,1.8c-1.1,0.1-2.1-0.7-3.2-0.8   c-1.5-0.2-3,0-4.4,0.3c-1.3,0.3-2.5,1.4-3.6,1.5c-2.2,0.2-4.4-2.4-5.8-3.7c-0.9-0.8-1.7-1.4-2.5-2.2c-0.8-0.8-2-1.3-2.7-2   c-0.9-1.1-0.9-2.8-1.3-4.3c-0.5-1.7-2.2-2.8-3.6-4.4c-1-1.2-3.2-2.9-3.5-4.4c-0.1-0.8,0.3-1.7,0.3-2.5c-0.1-1.2-0.8-1.9-0.8-2.8   c0-1.2,1.2-2.1,1.5-3.2c0.2-0.5,0.1-1.2,0.3-2c0.4-1.4,1.1-2.2,0.9-4.3c-0.1-0.8-0.6-1.6-0.7-2.6c0-0.7,0.4-1.2,0.4-1.8   c-0.1-1.2-1.3-1.4-1.5-2.8c-0.2-1.3,1.1-2.6,1.9-4.1c0.4-0.7,0.5-1.8,0.8-2.3c0.6-1.2,1.7-1.8,2.2-2.9c0.4-0.9,0.4-2.1,0.8-2.8   c0.4-0.8,1.2-1.2,2-2.3c0.6-0.9,0.9-2,1.3-2.3c0.6-0.4,1.3-0.7,2-1c2.1-1.1,3.8-2.8,4.7-5.1c-0.3-1.6,0-3.3,0.9-4.7   c0.7-1.4,1.2-2.8,2.4-3.6c1.4-1,2.8-1.1,3.8-2.9c0.6-1.1,1.1-2.2,1.3-3.4c0-1.3-1.2-3.1-2.2-3.3s-2.7,1-3.2-0.4   c-0.2-0.4,0.1-1.4,0-2c-0.1-0.9-0.8-1.5-0.8-2.2c-0.1-1.2,1.1-2.7,1.3-4.1c0.4-2,0-3.6-0.1-6c1.6-3,5.2-1.5,8.7-1.2   c0.5,0,1.2-0.2,1.7-0.2c2.1,0.1,3.7,0.8,4.4-1.4c0.4-1.5,0.4-3.1,0.4-4.7c-0.5-1.4-1.3-2.8-2.4-3.8c-1.2-0.9-2.8-0.5-3.5-2   c0.5-2.8,3.1-0.4,4.6-1.1c0.8-0.4,0.7-2,1.3-2.2c0.4-0.2,1.1,0.5,1.7,0.5c1.2-0.4,2.1-1,3.1-1.7c0.7-0.6,1-1.9,1.6-2.3   c0.4-0.4,1-0.3,1.5-0.5c1.2-0.6,2.1-1.4,2.8-2.5c1-1.3,1.3-3,2.5-3.3c1.5-0.4,5,0.4,5.2-1.7c0.3-2-1.4-3.5-0.8-5.5   c0.4-1.6,1.7-1.3,3.5-2.3c0.8,0.7,0.6,2.8,0.7,4c1.1,0,3.2-0.4,3.5-1.5c0.3-1.4-1.5-2.8-2-3.7s-0.5-2.6-1.3-2.8   c-1.8-0.4-3.5,2.8-5.6,2.8c-1.5-0.2-2.8-1.2-3.3-2.6c-0.1-0.7-0.2-1.5-0.1-2.2c-0.2-1.2-0.7-2.3-0.4-3.8c0.9-1.8,2.9-2.1,4.4-3   c0.5-0.4,1-1.1,1.6-1.4c1.1-0.4,2.6,0,3.6-0.7c0.6-0.4,0.4-1.2,0.9-2c0.3-0.5,1-0.9,1.3-1.5c0.3-0.4,0.3-1.1,0.5-1.5   c1-1.5,2.8-2,3.6-3.6c0.4-0.7-0.5-0.9-0.4-2c0.4-1,1.8-0.3,2.7-0.4c1.2-0.2,2.2-1.9,3.5-2.2c1.2-0.4,2.7-0.2,3.9-0.7   c0.7-0.4,1.4-1.2,2-1.2c0.3,0,0.9,0.2,1.2,0.2s0.9-0.4,1.5-0.4c1,0,2,0.1,3,0.3c1.8,0.1,3.6-0.6,5.1,0.2c0.8,0.4,0.7,1.5,1.7,2   c0.5,0.2,1.2-0.1,2,0c1.2,0.1,2.3,1.1,3.8,1.2c0.5,0.1,1.1-0.1,1.6,0c1.7,0.3,3.5,1.2,5.1,2c1.3,0.5,4.2,1.2,4.3,2.8   c0.1,1.8-2.5,2.3-3.6,2.3c-1.8,0-4.2-1.2-6-0.5c0,3.1,2.8,5.5,5.4,5.1c0.3-1.4-1.4-0.6-1.2-2c1.2-1.1,2.5,0.7,4.1,0.4   c0.6-0.2,0.5-1.3,0.7-2c1.3-1,3.1-2.5,5.2-1.3c0.1-0.3,0.3-0.4,0.4-0.5c0.2-1.5-1.3-2.3-0.5-3.7c0.4-1,2.6-0.6,2.8,0.2   c0.2,0.9-0.5,0.8-0.4,1.7c0.3,0.8,1,1.3,1.9,1.2c1.2-0.1,1.3-1.2,2.4-2c0.4-0.3,1.1-0.3,1.6-0.5c0.5-0.3,1.2-0.9,1.7-1.1   s1,0,1.5-0.2c0.7-0.2,1.4-0.8,2-0.8c0.7,0,1.2,1,2,1.1c0.4,0.1,1-0.4,1.7-0.4s1.2,0.1,1.6,0c1.1-0.2,1.9-0.9,2.8-0.8   c0.6,0,1.8,1.1,2.2,0.5c0.7-0.9-1-1.5-0.4-2.3c1.8,0.2,3.6,0.1,5.4,0.4c2.6,0.4,5.1,2,7.5,2c-0.2-2-2-1.3-2.8-2.2   c-0.5-0.9-1-1.9-1.2-2.9c0.4-1.2,1-2.2,1.6-3.3c1-1.2,4.4-1.2,5.2,0.4c0.6,1.1,0.4,2.7,1.3,2.6c0.9-0.1,1.2-2.4,2.2-2.5   c0.8,0,1.2,1.5,2,1.5c1,0,1.6-2.1,2.8-2.2c0.7,0,0.9,0.4,2,0.5c0.7-0.5-0.3-1.3,0.1-2c1.2-1.2,4.2-0.3,5.9-1   c0.4-0.6-0.5-1.2-0.1-1.8c1.4-1.2,3.8-1.3,6.2-1.8c1.5-0.3,2.8-1.5,4-1.7s2.3,0.9,3.5,0.8c0.7-0.1,1.4-0.3,2-0.5s1.1-1.1,1.7-1.2   c1-0.3,2.3,0.2,3.5,0s2.3-0.7,3.2-0.5c0.9,0.2,1.5,1.2,2.3,1.3c2.4,0.4,4.9-0.4,7.1,0.3c0.4,0.2,0.8,0.6,1.2,0.8   c1.5,0.6,2.5,0.4,2.8,2.7c1.2,0.4,1.9,1.8,3.2,2.2c0.9,0.3,1.9-0.2,2.8-0.2c1.4,0,2.8,0.1,4.3,0.3c0.6,0.1,1.2,0.7,1.9,0.8   c0.4,0.1,1.1-0.1,1.6,0c0.6,0.2,1.3,0.4,2,0.4c1.2,0,2.1-1.3,3.1-1.5c0.6,0,1.2,0.1,1.7,0.3c2,0.2,4.2-0.3,5.8,0.2   c1.2,0.5,2.3,1.2,3.2,2.2c0.7,0.6,1.1,1.6,1.7,2c0.6,0.4,2.1,1.2,2.8,1.1c0.6-0.2,0.8-1.2,1.5-1.5c2.3-0.6,6.3,0.9,8.2-0.2   c0.7-0.4,0.5-1.3,1.2-1.8c3.5-0.2,6.8,0.2,10,0.3c1.2,0,2.3-0.4,3.4-0.2c1.1,0.2,2,1.6,3.1,2c0.7,0.3,2,0.2,3.2,0.4   c0.8,0.2,1.4,0.7,2,0.8c1.2,0.1,2.4,0,3.6-0.3c2.7-0.3,6-0.4,8.6,0.8c1.3,0.7,2,2,3.5,2.2c2.1,0.3,5.4-0.2,7.5,0   c0.4,0.1,0.9,0.2,1.3,0.3c0.7-0.1,1.2-0.8,2-0.8c1.2,0,2.9,2.1,4.6,1.8c0.7-0.6-0.5-1.3,0.1-2c0.6-0.6,1.5,0,2.5,0   c0.5,0,1.2-0.4,1.7-0.3c1.2,0.2,2.5,1.5,4,2c1.4,0.4,2.9,0.4,4.4,0.3c1.1-0.2,2-0.6,3.1-0.4c0.5,0.1,1,0.5,1.5,0.7s1,0,1.3,0.2   c0.4,0.2,0.7,0.5,1.2,0.7c2.1,0.7,5,1.1,7.2,2c1.3,0.4,2.7,1.5,3.7,1.5c0.5,0,1.1-0.3,1.7-0.3c3.5,0,7.5,1.8,7.2,5.7   c-4.1,1.1-7.5-3.4-11.7-2c-0.8,0.3-1.3,1.1-1.3,2c0.2,2.4,5.2,2.2,5.6,4.5c-0.8,0.7-1.8,0.1-2.4,0.2c-1.3,0.4-2.5,1.2-3.5,2.2   c-0.8,0.9-1.4,3.1-2.3,3.3c-1.1,0.3-2.6-1.2-4.2-0.8c-0.5,0.2-1.1,1-1.6,1.1c-1.2,0.3-2.8-0.8-3.6,1c0.4,1.2,0.2,3,1.1,3.7   c0.5,0.4,1.2,0.1,2,0.4s1.2,1.5,2,2.2s1.2,0.5,1.5,1.2c0.1,1-0.4,1.2-0.3,1.8c0.2,1.2,1.7,1.4,1.7,2.2c0.1,1-1,0.8-1.2,1.8   c-0.1,0.6,0.6,0.8,0.7,1.7c0,0.5-0.4,1.2-0.4,1.8c0.1,0.9,0.6,1.5,0.5,2.3c-0.1,0.6-0.4,1.2-1.1,1.5c-2.2-1.7-4.2-4-6.5-6.2   s-6.2-5-6.7-9.6c0-0.7,1.2-1.2,1.5-2.3c0-0.5-0.1-1.1-0.1-1.7c0.1-1.6,1.2-3.2,1.2-4.2c-0.4-1.4-1.2-2.6-2.5-3.3   c-0.7,0.4,0,1.2-0.1,2c-0.2,0.9-0.8,1.7-1.7,2c-2.1,0.2-2.4-3.4-5.9-2.3c-0.9,0.3-2.1,1.9-1.9,3.8c0.1,0.6,1.5,1.2,1.3,2   c-0.2,0.8-3.1,1.1-3.8,1c-1.9-0.2-2.8-1.9-4.4-1.8c-0.8,0-1.5,0.8-2.2,1c-3.6,0.8-9-2.1-10.2,1.7c-0.2,0.5-0.1,1.2-0.3,1.8   c-0.3,0.6-0.5,1.3-0.9,2c-0.2,0.4-0.1,1.2-0.4,2c-0.3,0.7-2.4,2.9-0.4,3.6c0.4,0.2,0.7-0.3,1.2-0.2c1,0.2,2.7,2,3.7,2   c0.7,0,1.7-0.9,2.2-1c1.1-0.1,1.8,0.8,2.7,1.2s1.9,1.3,2.4,1.3c1.1-0.1,0.5-1,1.6-1.4c2,0.7,2.9,3.2,4.8,5.2   c0.7,0.7,1.7,1.3,2.7,2.3c0.5,0.5,2.1,2,2.2,2.8c0.1,0.7-0.4,1-0.6,1.5c-0.2,0.9,0.3,1.4-0.3,2c-1.9-0.8-2.2-3-3.6-4.8   c-0.4-0.7-1-1.5-1.7-2.5c-0.4-0.4-1.6-2-2.3-1.7c-1.4,0.6,0.8,3.3,1.2,3.8c0.7,1.2,1.8,2.8,1.9,4.2c0,0.8-0.4,2.3-0.4,3.7   c0,1,0.2,1.8,0.1,2.6c-0.2,0.9-0.4,1.8-0.8,2.7c-0.3,1-0.4,2.2-0.5,2.8c-0.4,1.2-2,2.7-3,2.8c-1.1,0.1-1.3-0.9-2.3-0.8   c-1.4,0.1-1.7,1.6-2.5,2.8c0.1,1.3,0.4,1.8,0.2,2.8c-0.3,1.4-2,1.7-2,3.2s1.5,1.6,2.3,2.2c1.4,1.2,2.8,2.6,3.8,4.1   c0.6,1,1.6,2.8,1.5,3.8c-0.1,1.3-3.4,3.3-4.7,2.8s-0.9-2-1.2-3.3c-0.3-1.1-0.9-1.5-1.2-2.3c-0.2-0.4-0.1-1.2-0.4-1.7   c-0.7-1.4-1.9-0.6-3.4-1.5c-0.9-0.5-0.6-1.8-1.1-2.9c-0.5-1.5-2.6-2.1-4.3-1.8c-1.2,0.3-1.6,1.5-2.8,1.8c-1.7-1.2,0.4-4.2-1.7-4.4   c-1.6-0.2-2.7,2.8-3.6,3.6c-0.6,0.5-1.8,0.7-1.9,1.5c-0.2,1.5,1.3,1.2,2.5,1.8c1.2,0.5,1.2,2,2.2,2c0.8,0.1,1.3-1,2.2-1.1   c1.2,0,2.5,0.4,3.5,1.2c-0.6,1.7-3.6,2.9-3.6,5.1c0,1.2,1.2,1.5,2.2,2.3c0.8,0.7,1.9,2.8,2.9,4.1c0.4,0.6,1.2,1,1.5,1.4   c0.5,0.9,0.4,2,1.1,2.7c0.1,0.8-0.3,1-0.2,1.7c0.3,1,1.5,0.8,1.9,1.8c-0.3,2.4,0.6,4.6-1.1,5.5c-0.7,4.3-1.6,7.5-4,9.9   c-2.2,2-5.1,2.7-7.6,3.7c-0.7,0.3-1.2,1.2-1.9,1.4c-1.5,0.6-4.3,0.3-4.4,2.5c-0.1,1.1,1.2,1.8,1.2,2.9c0.2,1.7-1.2,3.5-2,3.6   c-1.2,0.1-2.1-0.8-2.2-2c-0.1-1.7,1.7-2.3,1.9-3.3c0.2-1.6-0.9-3-2.5-3.3c-0.2,0-0.4,0-0.4,0c-1.5,0.1-5,3.8-5.1,5.8   c-0.1,1.5,2.5,4.6,3.3,5.5c3.2,3.4,6.7,5.4,6,13.8c-0.8,2.1-2.8,2.6-4.4,3.7c-1.2,0.9-1.9,3.6-3.9,3.9c-0.8-0.4-0.4-1.9-0.5-2.7   c-0.4-1-2-1.4-3-2.5c-0.8-0.8-1.2-2.1-1.9-2.9c-0.8-1-2-1.2-3-1.8c-0.6-0.4-1.1-1.8-1.7-1.8c-1,0.1-0.7,1.2-0.9,3.2   c-0.2,2-1.4,3.4-1.1,5.7c0.2,0.9,1.2,1.7,1.6,2.6c0.8,1.6,0.9,3.4,1.7,4.3c0.5,0.6,1.4,0.7,2,1.2c1.2,1.1,3.4,3.3,3.8,4.5   c0.5,1.4,0,3.2,0.4,4.7c0.4,1.8,2.3,3,1.2,4.8c-1.1-0.4-2.1-1-3-1.8c-1.4-1.1-2.6-2.5-3.3-4.1c-0.4-0.5-0.6-1.1-0.9-1.7   c-0.4-1.2-0.3-2.7-0.7-4.1c-0.5-1.6-1.4-3.1-2.5-4.4c-0.8-0.9-2.2-1.4-2.3-2.8c-0.1-1.9,0.5-4,0.4-6.2c0-0.4-0.3-1-0.4-1.5   c-0.1-1.1,0.1-2.3-0.1-3.3c-0.3-0.9-0.6-1.7-1.1-2.5c-0.3-0.8-0.6-1.6-0.9-2.6c-0.4-1.6-1-4.6-2-4.8s-2.3,2.6-3.8,2.7   c-1-0.1-1.7-0.7-2-1.7c-0.2-0.8,0.4-1.7,0.4-2.6c0-1.9-1.2-2.6-2-3.8c-0.4-0.5-0.4-1.2-0.7-1.7c-0.5-0.7-1.5-1.2-2.2-2   c-0.6-0.7-1.2-1.6-1.6-2.5c-0.4-1.1-0.6-2.5-1.2-2.6c-0.6-0.1-1.4,1-2,1.2c-1,0.4-2,0.5-3.1,0.7c-2.3,0.2-4.2-0.5-3.9,2.8   c-0.4,1.5-1.7,1.5-2.5,2.2c-1.1,0.9-1.9,2.7-3.1,4.1c-0.6,0.7-1.4,1.2-2,1.8c-0.5,0.6-0.5,1.4-1.1,2c-1.2,1.4-3,1.5-3.9,3.5   c-0.1,2.3,0.9,4,0.7,6.2c-0.1,1-0.7,1.9-0.8,2.9c-0.1,0.9,0.3,1.8,0.1,2.8c-0.1,0.5-0.5,0.8-0.9,1.4s-0.4,1.2-0.7,1.7   c-0.4,0.6-1,1-1.3,1.5c-0.6,0.8-0.7,1.4-1.2,1.5c-2.5,0.4-3.1-5.3-4.3-7.7c-0.5-1.1-1.6-2.1-2-3.5c-0.6-1.5-0.8-3.5-1.6-5.2   c-0.8-1.4-1.6-3-2.2-4.5c-0.4-1.3-0.8-2.9-1.2-4.4c-0.4-1.5-0.7-3.1-0.9-4.7c-0.1-1.8,0.3-2.8-0.9-3.6c-1.1,0.4-1.6,1.7-2.8,1.7   c-1.2,0-4.5-2.6-3.6-4.8c-0.8-1.3-2.8-2.1-4.4-3.7c-0.9-0.9-1.7-3.1-3.2-3.3c-0.4,0-0.9,0.2-1.3,0.3c-1,0.1-2.7-0.1-3.7,0   c-1.6,0.3-3.2,0.4-4.8,0.3c-1.2-0.2-2.5-0.4-3.6-0.5c-1.4-0.2-3.5-0.6-4.3-1.5c-0.5-0.5-0.7-2.4-1.6-2.6c-1.1-0.3-1.7,0.7-2.7,1   c-2.1,0.5-3.8-0.5-5.2-1.7c-1-0.8-2-1.2-2.7-1.8c-1.8-1.4-2-5.6-4.7-5.7c-0.9,0-2.4,0.7-2.5,2c-0.1,0.9,0.9,2.5,1.2,3.2   c1.3,2.1,3.6,3,4.4,6c0.4,0.2,1.4-0.5,2,0.2c0.4,1.2,0,3.6,1.1,4.1c4.8,1,6.1-2.2,8.3-4.4c1.2,1,0.8,1.8,1.2,2.8   c0.4,1,1.1,1.9,2,2.3c0.5,0.3,1.3,0,2.2,0.4c0.5,0.3,2.8,2.8,2.8,3.7s-1.5,3.6-2,4.3c-0.4,0.7-1.2,1.1-1.3,1.7   c-0.2,0.4-0.1,1.5-0.2,1.8c-0.2,0.5-1.2,1.2-1.9,2c-0.6,0.6-1.2,1.2-2,1.8c-0.7,0.7-1.2,1.6-2,2c-1.5,0.7-3,0.4-4.3,1.4   c-0.8,0.6-0.8,2.1-1.9,2.9c-1.1,0.8-2.8,0.8-4.4,1.7c-1,0.5-1.6,1.6-2.4,2c-0.4,0.2-0.8,0-1.2,0.2c-0.8,0.3-1.4,0.9-2.2,1.1   c-0.5,0.2-1.2,0.1-1.7,0.3c-1.8,0.6-3.4,2.8-5.2,1.5c-0.8-2.3-1-5.2-2-7.3c-0.5-1.1-1.5-1.3-1.9-2.5c-0.1-0.9,0.8-0.6,0.9-1.3   c-0.3-1.5-1.4-2.2-2.2-3.5c-0.4-0.6-0.5-1.5-0.9-2.2c-1.3-2.4-4.1-3.6-4.6-6.6c-0.2-0.8,0-1.4-0.1-2c-0.3-1.1-0.7-2-1.3-2.8   c-0.4-0.6-1.3-1.1-1.9-2c-0.4-0.6-0.4-1.4-0.7-2c-1.2-2.5-2.7-4.7-4.6-6.6c-0.9,0.2-2,0.3-2.4,1c0.4,1.7,1.2,3.3,2,4.8   c0.9,1.4,1.6,2.9,2.2,4.4c0.2,0.5,0.2,1.3,0.4,2c0.7,2.2,3,2.8,3.5,5.4c0.3,1.7-0.1,2.8,0.4,4.5c0.4,1.7,2.4,2.6,3.2,4.1   c0.7,1.2,0.7,3,1.2,4.3c0.7,1.8,2.6,2.6,4,3.7c1.2,1.1,2.1,2.8,3.2,3.8c0.6,0.7,1.4,0.8,1.6,1.5c0.2,1-0.4,1.2-0.4,2   c0.9,1.1,1.8,3.1,3.2,3.3c0.6,0.1,1.3-0.7,2.3-0.8c0.4-0.1,1,0.1,1.3,0c0.6-0.1,1.2-0.8,1.9-1c1.2-0.3,2.5-0.2,4-0.4   c1.5-0.3,2.4-1.6,3.5-1.2c1.2,1.6,0.4,3.3,0,4.8c-0.1,0.5-0.1,1.1-0.2,1.5c-0.6,2.5-2.2,4.3-3,6.5c-0.3,0.7-0.2,1.5-0.4,2.2   c-0.9,2.2-2.7,4.4-4,6.2c-0.7,1-1.4,1.9-2.3,2.8c-0.8,0.8-1.9,1.2-2.8,2c-2,1.8-3.6,3.8-5.1,6c-0.5,0.8-0.7,1.8-1.2,2.5   c-0.7,1-1.9,1.5-2.5,2.5c-0.5,1.2-1,2.3-1.3,3.6c-0.6,1.6-2,2.7-1.7,4.8c0.1,0.8,0.7,1.3,0.9,2.2c0.3,1.4,0.2,2.8-0.1,4.3   c0.6,1.9,1.2,4,2.3,5.2c0.2,2.8-0.2,5.5,0,7.8c0.1,1.5,0.6,2.6,0.1,4c-0.7,1.6-1.8,3-3.1,4.1c-1.1,0.9-2.8,1.1-3.9,2   c-0.8,0.7-1.5,2-2.3,2.8c-1.3,1.3-3.2,2.6-3.3,4c-0.1,0.8,0.5,2,0.7,2.8c0.4,2,0.9,5,0.1,7.2c-0.8,2.4-5.1,1.9-5.5,4.4   c-0.2,0.8,0.3,1.3,0.3,2.2c-0.3,1.3-0.6,2.7-1.2,4c-0.5,1.2-1.7,1.7-2.4,2.7c-0.9,1.2-1.4,3-2.4,4.3c-1.5,1.9-3.1,3.6-4.9,5.1   c-1.9,1.6-4.2,2.6-6.7,2.8c-1.4,0.1-2.8-0.4-4.4-0.1c-0.5,0.1-1.2,0.7-1.9,0.8c-0.4,0.1-0.8-0.1-1.2,0c-0.7,0.2-1.4,0.8-2,0.8   c-1.5,0-3.4-2.1-3.5-4.3c0-0.8,0.6-1.6,0.5-2.3c0-0.9-0.9-2-1.6-3.6c-0.7-1.6-0.9-3.3-1.6-4.5c-0.7-1.2-1.7-2-2.2-3   c-1.1-2.1-1.2-4.6-1.5-7.2c-0.1-0.8-0.6-1.7-0.7-2.8c-0.1-1.2,0.1-2.7-0.1-3.7c-0.4-0.9-0.9-1.8-1.4-2.7c-0.8-1.8-1.3-4.1-2-5.5   s-2-2.7-2-4.1c0-1.3,0.1-2.6,0.3-3.8c0.1-1,0.7-1.8,0.9-2.8c0.1-0.7,0-1.4,0.1-2.2c0.6-3.1,3.5-4.3,3.1-8.1   c-0.2-1.6-1.1-2.4-1.2-4.3c-0.1-0.9,0.4-1.6,0.4-2.5c0-1.2-0.8-2.9-1.2-4c-1.2-3-1.9-5.8-3.6-8.1c-0.9-1.2-2.1-2.1-2.8-3.3   c-0.7-1.1-1.2-2.2-1.3-3.5c0-0.8,0.5-1.2,0.7-2c0.3-1,0.3-2.9,0.5-4.5c0.2-0.7,0.8-2.5,0.7-3.7c-0.1-1.2-1.5-3.4-2.8-3.7   c-1.6-0.4-3.3,0.6-5.2,0.4C300.4,209.6,300.5,206.1,298,205.7z M361.3,255c0.5-1,1.2-3.8,0-4.5h-0.2   C360.6,251.5,360.1,254.2,361.3,255z M359.7,226.2c0.4-1,1.3-2,1.2-3.2c-0.4-2.7-4.4-1.3-4.9,0.5c-0.4,1.2,0.2,2.3-0.3,3.6   c0.4,1,1.6,1.2,3,1.1C359.4,227.8,359.4,227.1,359.7,226.2L359.7,226.2z M352.7,240.4c0.4-1-0.7-1.7-0.9-2.8   c-0.2-1.2,0.3-2.8-0.7-3.5h-0.4C349.9,236.4,351.1,240.1,352.7,240.4L352.7,240.4z M395.7,127c0.5-4.8-2.5-5.2-3.1-8.5   c0.3,0,0.1-0.4,0.4-0.4c0.8-0.4,1.9,0.7,2.3-0.4c0-1.3-1.1-2.3-2.4-2.3c-0.4,0-0.7,0.1-1.1,0.3c-0.5-0.4-0.5-1.3-0.7-2.2   c-1.3-0.9-4.5-2.9-4.4-4.8c0-1.5,1.7-2.4,3.6-2.3c0.8-0.7,0.3-2.9-0.4-3.5c-2.9-0.8-4.5-0.3-6.4,1.4c-0.9,0.8-1.9,1.3-2.4,1.8   c-0.5,0.6-1,1.3-1.1,2.2c0.1,0.9,1.1,1.3,1.5,2.5c0.2,0.6,0.2,1.3,0.4,1.8c0.5,1.3,1.8,2.2,2.8,3.3c0.7,0.8,2.6,2.5,2.7,3.5   c0,0.8-0.6,1-0.8,1.8c-0.3,1.2-0.4,2.3-0.4,3.5c0.3,1.5,1.5,1.6,2.8,2.2c1.2,0.6,2.3,1.8,3.6,1.8   C393.6,128.4,394.8,127.9,395.7,127L395.7,127z M368.8,117.1c3.1-0.7,1.7-3.8,0.1-5c-1.2-0.9-2.7-1.6-4-2.7   c-0.8-0.6-3.9-1.7-3.9-2.8s2.3-1.7,1.3-4c-1.6-0.4-5.3,0.3-5.1,2.3c0.2,1.2,1.3,0.5,1.6,1.8c-1.2,0.4-2.5,1.8-3.6,1.5   c-1.4-0.3-1.8-2.3-2.5-3.6c-1.1,0-1.8-1.2-3.1-1.1s-2,2.5-2.8,3.7c-0.4,0.6-1,1-1.2,1.5c-0.1,0.4,0,0.9-0.1,1.4   c-0.4,1.5-1.5,2.1-1.3,3.5c0.1,1.2,1.2,1.8,1.2,2.8c-0.1,1.1-1.5,0.5-1.3,1.8c2,2,2.1-1,3.2-1.4c0.9-0.4,2.5,0.3,3.6,0   c0.9-0.3,1.5-1.2,2.5-1.7c0.7-0.4,1.4-0.5,2.2-0.5c3.6-0.2,6,2.7,9.1,2.8C366.1,117.4,367.4,117.3,368.8,117.1L368.8,117.1z    M361.4,133.4c0.1-1.5-0.4-2.6-0.5-4.7c-2.1-1.5-3.7,1.4-5.9,1.1c-1.3-0.2-2.2-2-3.6-1.8c-0.8,0.2-1.2,1.3-2,1.5   c-1.6,0.4-2.4-1.6-4.1-0.8c-2.5-2.2-3.6-5.9-4.1-10c-1.3-2.1-3.4-0.4-4.4,1c-0.6,0-1.3-0.4-1.5,0.4c-0.4,2.6,3,2.8,3,4.5   c0,1.2-1.3,1-2,1.8s-0.2,1.5-1.1,2c-2.2,0.4-3-1.2-3-3.6c-1-1.8-2.2-3.1-3.1-4.5c-0.4-0.7-0.7-1.4-0.9-2.2   c-0.1-0.6,0.3-1.4,0.1-2.2c-0.3-1.3-2.3-2.3-3.6-3c-1.2-0.7-3-1.5-4-2.5c-0.7-0.7-1-1.9-1.6-2.3c-0.6-0.4-1.2-0.3-1.6-0.7   c-0.6-0.5-0.5-1.4-1.3-1.7c-0.4-0.2-1.1,0.5-1.3,1c-0.5,3,1.5,3.2,2.4,4.5c0.6,0.9,1,2.3,1.6,2.9c0.6,0.6,1.6,0.5,2.5,1   c0.6,0.3,1,1.2,1.6,1.7c1.1,0.8,2.8,1,3,2.5c-0.7,0.5-2.2-0.8-2.8,0.5c-0.1,0.9,0.6,1.3,0.5,2.2c0,1.3-1.3,2.8-2.4,2.6   c-0.1-0.8,0.6-1.4,0.5-2.3c0-1.8-3-4.4-4.4-5.2c-0.7-0.4-1.5-0.4-2.2-0.8c-1.4-1.1-2.8-2.3-3.8-3.7c-0.8-1.3-1.5-3.7-3.3-3.6   c-0.7,0.1-1.3,0.9-2,1.2s-1.2,0.7-1.7,1.1c-0.7,0.5-1.2,1.1-1.9,1.1c-1.4,0.1-2.7-1.2-3.9-1c-0.4,0.1-0.8,0.5-1.2,1.1   c0,0.8,0.2,1.3,0.1,2.2c-0.4,0.8-1.5,0.7-2.3,1.2c-1.2,0.8-2.2,2.3-3.2,3.5c-0.5,0.5-1,1.2-1.2,2c-0.1,0.4,0.4,1.3,0.3,2   c-0.4,1-1,1.9-1.9,2.6c-0.4,0.4-1,0.4-1.3,0.7c-0.9,0.6-1.3,1.5-2,1.7c-2,0.4-5.7-0.5-5.6,2c0,1.7,2,1.7,3.1,1.7   c1.6-0.1,3,0.4,3.9,0.2c0.6-0.2,1.3-1,2-1.4c0.4-0.2,0.8-0.3,1.2-0.4c0.7-0.4,1.1-1.1,1.6-1.4c1.3-0.6,2.7-1,4.1-1.1   c1.5-0.1,3.2,0.2,5.2,0c0.7-0.1,1.4-0.6,2.2-0.7c1.2-0.1,2.8,0.6,3.9,0.5c0.7,0,1.5-0.8,2.3-0.8c0.9,0.1,1.8,0.6,2,1.5   c0.1,0.4-0.2,1.1-0.1,1.7c0.1,1,0.9,1.4,0.8,2c-0.1,0.9-1.9,2-1.6,3c0.2,0.6,1.4,1.3,2,1.8c0.7,0.6,1.6,1,2.5,1.2   c0.6,0.1,1.2-0.2,1.9-0.2c1.2,0.3,2.2,0.7,3.2,1.4c1.1,0.9,0.9,2.4,2.2,2.9c0.5,0.2,1.5,0.1,2.2,0.3c1.7,0.4,2.9,2.1,4.1,2   c2-0.3,1.1-2.5,1.2-4c0.4-3.6,6.2-3.4,7.4-1c0.8,0.3,1.6,0,2.5,0.4c0.5,0.2,1,1,1.5,1.1c0.5,0,1,0,1.5,0c2.2,0.3,4.2,2.3,6,2   c1.2-0.2,2-1.6,3.2-1.7c2.2-0.2,3.6,2,6,1c1.8-0.7,1.3-2.9,2-5.1C360.6,135.6,361.4,134.5,361.4,133.4L361.4,133.4z M454.9,38.6   c-1.2,0-1.8,0.6-2.5,1.1c-0.4,0.3-1.3,0.4-1.1,1.2C452.5,40.8,454.7,40.2,454.9,38.6z M406.6,55.5c2.7,0.7,4-2.9,2.2-5   c-0.4-0.4-1.8-0.7-2.4-1.8c-0.7-1.3-0.6-3.1-2.3-2.8c0,0.2,0,0.4-0.1,0.4c-0.2,3,3.5,3.7,3.5,6.2C407.4,53.9,406.3,54,406.6,55.5z   "></path>		<path class="st3" d="M368.9,50.3c-0.4-1.5,2-1.2,1.6,0.2C370.1,50.8,369.1,50.8,368.9,50.3z"></path>		<path class="st3" d="M354.8,132.6c0.1-1.2,2.2-1.6,2.7-0.5C357.3,133.2,355.3,134,354.8,132.6z"></path>		<path class="st3" d="M315.5,125.2c1.2-1.2,3.8-0.4,5.5-0.4c-0.4,1.1-0.4,2.4-1.1,3C318.1,127.4,316.4,126.9,315.5,125.2z"></path>		<path class="st3" d="M307.1,117.9c1.6-2,3.2-1,2.7,2.8c-0.4,1.2-2,2.7-2.8,1C307.2,120.5,307.2,119.1,307.1,117.9z"></path>		<path class="st3" d="M309.4,113.5c0.2,0.8-0.1,1.6-0.8,2C307.1,115.2,308.3,112,309.4,113.5z"></path>		<path class="st3" d="M287.2,85.6c0.1-0.9-0.4-1.7-1.1-2.2c-0.4-0.3-1-0.2-1.3-0.4c-1.2-0.7-1.5-2.3-2.2-2.6c0.1-1.5-0.4-2.6,0-3.6   c0.6-1.1,1.5-2,2.5-2.6c1-0.4,2,0,2.7-1c0.2-0.1,0.4,0,0.5,0.2c0,0.9-0.6,1-0.7,1.8c0.2,1.2,2,0.4,2.2,1.6   c-0.2,1.2-1.2,1.5-1.2,2.5s1.4,2.4,2,3.5c0.5,0.8,1.4,1.4,1.9,2.2c0.4,0.8,0.4,1.6,0.8,2c0.6,0.7,2,0.8,2,1.8   c0.1,1.3-1.3,1.9-1.2,3.3c-1.6,1.5-4.2,0.7-6.8,1.1c-1.2,0.2-2.5,1.6-3.6,0.4c-0.3-0.9,1-1.1,1.2-2c-0.1-0.8-1-0.7-1.2-1.4   c0.4-1.1,1.3-1.2,1.2-2.8C285.8,86.4,287,86.7,287.2,85.6z"></path>		<path class="st3" d="M278.6,82.3c1.5-1.2,4.2-0.3,4.4,1.1c0.1,1.1-0.8,1.2-1.2,2.3s0.1,2.3-0.4,3c-0.4,0.7-1.3,0.6-2,0.8   c-1.4,0.5-4.3,2.6-5.4,0.3c0.2-1.2,1.2-1.5,1.5-2.5c0-0.8-0.7-1.2-0.5-2c0.2-1.1,0.8-0.7,1.7-1.1   C277.5,83.9,277.7,82.9,278.6,82.3z"></path>		<path class="st3" d="M200.4,52.3c0.3,1.2-3,2.8-3.4,1.2C196.8,52.3,199.5,50.7,200.4,52.3z"></path>		<path class="st3" d="M196.5,362.7h-1.7C195.4,362.5,196,362.5,196.5,362.7z"></path>		<path class="st3" d="M191.4,42.6c0.2-0.2,0.5-0.2,0.7,0c-0.1,0.4-0.2,0.7-0.7,0.5V42.6z"></path>		<path class="st3" d="M181.2,64.5c0,0.7-2.3,2-2.5,0.5c-0.1-0.4,0.1-0.9,0.4-1.1C179.8,63.5,181.2,63.7,181.2,64.5z"></path>		<path class="st3" d="M133.6,192.4c-0.1,0.2-0.2,0.4-0.3,0.5C132.1,192.9,133.2,191.1,133.6,192.4z"></path>		<path class="st3" d="M87,96.1c0.8-0.5,1.6,0.9,1.1,1.5C87.1,97.9,86.9,96.7,87,96.1z"></path>		<path class="st4" d="M211.9,101.3c-0.5-0.2-1.2-0.2-2-0.3s-1.2-0.4-1.9-0.4c-1.4-0.2-2.9,0.3-3.8-0.7c1.4-2.2,3.1-4.3,5-6.2   c0.5-0.5,1.7-1,1.4-2c-1-1.1-2.1,0.1-3.1,0.7c-1,0.8-2,1.4-3.2,1.8c-1.9,0.4-4.4-0.7-6,0.5c-0.2,1.1,1.8,0.6,1.5,2.2   c-0.7,0.3-1.5,0.1-2-0.4c-0.5-0.6-0.3-1.4-0.5-1.8c-0.6-0.6-2.8-0.7-3.8-0.5c-1.2,0.2-2.2,1.2-2.4,2.3c1.4,0.8,3.8-0.8,4.4,1.2   c-0.8,1.7-2.7,2.7-2.4,5c0.2,1,0.7,1.8,1.6,2.2c0.6,0.2,1-0.6,1.6-0.5s0.5,1,1.2,0.8c1.1-0.5,1.7-2.4,3-2.3c1.5,2.2-1.3,3.3-3,4   c-1.9,0.8-4.3,1.2-5.6,2c-0.7,0.4-3.5,3.6-3.9,1.1c-0.3-1.8,1.4-1.2,1.7-2.8c-1.8-0.4-3.5,0.9-5.1,1.7c-2.3,1.1-6.2,1.7-6.8,4.8   c-0.1,0.6,0.2,1.8-0.1,2.2c-0.3,0.4-2,0.4-2.7,0.7c-1.1,0.4-2,1.4-2.8,1.7c-0.5,0.2-1.2,0.1-1.6,0.3c-0.9,0.4-1.2,1.9-2.3,2.9   c-0.4,0.4-1.4,0.7-1.7,1.1c-0.6,0.7-0.7,2.5-1.7,2.8c-0.7,0.1-1.2-0.6-1.9-0.2c-0.1,1.8,0.5,4.2-0.1,6c-1.4,1.2-2.9,2.4-4.6,3.5   c-1,0.6-1.9,0.8-3,1.5c-0.8,0.5-1.6,1.7-2.5,2.3c-2.2,1.6-4.8,3.4-4.8,7.3c0,0.9,0.4,1.8,0.4,2.8c0.1,0.6-0.1,1.2,0,1.8   c0.1,1.4,1,3.3,0,4.3c-1.5-0.8-3.6-1-4.6-2.3c-0.3-1.3,0.6-2.5,0.4-3.7c-0.1-1-1.2-2.8-2-2.9s-1.3,0.8-2,0.7   c-0.7-0.1-1.7-1.5-2.8-1.7c-1.6-0.3-2.8,0.4-4.6,0.2c-1.7,1.1-2.2,3.1-4.4,2.8c-0.7-0.1-1.4-0.8-2.3-1c-1.1-0.4-2.2-0.5-3.3-0.5   c-2,0.2-3.4,1.9-5.1,2.8c-1.5,0.9-3.6,2-4,4c-0.3,1.1-0.1,2.5-0.4,3.5c-0.3,0.6-0.5,1.2-0.9,1.8c-1.6,3.3-2.1,7-1.4,10.6   c0.5,1.6,1.2,3.2,2,4.7c0.9,1,2,1.7,3.3,2c0.9-0.1,1.8-0.4,2.7-0.7c1-0.1,2-0.3,3-0.5c2.5-1,2-5,4.4-6.3c1.1-0.6,2.3-0.7,4.3-0.8   c0.6,0.7,0.9,1.7,0.8,2.6c-0.3,0.8-0.5,1.6-0.9,2.3c-0.3,0.9-0.4,1.9-0.5,2.6c-0.4,0.9-1.1,1.6-1.4,2.5c-0.2,0.5-0.1,1.2-0.3,1.8   c-0.3,0.9-1.2,1.5-0.8,2.5c2.5,1.2,5.4-0.4,7.5,0.1c0.9,0.2,2.8,1.5,2.8,3.2c0,1.2-0.8,2-0.9,3.5c-0.1,1.7-0.7,3.8-0.8,5.2   c-0.1,2.3,2.8,6.2,4.8,6.2c2.1,0,3.5-2.6,6-1.2c0.9,0.4,1.8,2.1,2.8,2c0.8-0.1,2-1.8,2.5-2.9c0.6-1.4,0.7-2.6,1.9-3.3   c1.2-0.7,2.2-0.4,3.7-1.1c0.7-0.4,1.3-0.8,2-1.4c0.5-0.4,1.2-1.7,1.9-0.8c0.9,1.1-1.2,1.7-0.4,2.9c1.6,1,2.4-1.9,3.6-2   c0.8,0.4,1.6,0.8,2.3,1.4c0.9,0.7,1.2,1.7,2.1,2c0.6,0.2,1.6-0.3,2.5-0.2c1.2,0.2,1.9,1.4,2.8,1.4c1.1,0,1.6-1.4,2.5-1.7   c2-0.4,2.8,0.3,3.6,1.8c1,0.2,1.1-1.4,2-0.8c-0.5,1.2,0.2,1.8,0.5,2.8c0.3,0.6,0.2,1.1,0.4,1.4c0.5,0.6,1.6,0.6,2.4,1.2   c0.8,0.6,1.3,1.9,2.3,3.2c1,1.3,2.7,2.8,4,2.9c1.3,0.2,2.3-0.4,3.3-0.3c2.4,0.4,3.8,1.8,5.5,3.3c1,0.9,1.8,1.4,2,2.5   c0.2,0.7,0.1,1.7,0.4,2.5c0.5,1.7,2.6,2.6,1.9,5.5c0.4,0.9,1.1,1.2,2,1.8c0.7,0.5,1.2,1.5,2,1.7c0.4,0.1,1-0.2,1.4-0.1   c1.2,0.2,2.3,0.6,3.3,1.2c0.7,0.2,1.4,0.5,2,0.8c0.5,0.4,0.6,2,1.3,2.5c0.4,0.3,1.5-0.1,2.3,0c1.2,0.2,2.9,1.1,4,1.1   c0.7,0,1.2-0.4,1.9-0.3c2.8,0.3,4.4,4.3,7.1,5.5c0.9,0.4,2.2,0.1,2.8,0.4c1,0.5,1.9,4.3,2,6c0.3,5-2.9,6.6-4.8,9.9   c-0.4,0.7-0.6,1.8-1.2,2.8c-1.1,2-2.3,2.3-2.2,6c0,1,0.4,2,0.4,3c0,1.4-0.1,2.8-0.4,4.3c-0.2,0.9-0.8,1.7-0.9,2.5   c-0.1,0.8,0.2,1.5,0.1,2.2c-0.3,1.1-0.7,2-1.2,3c-1.1,2.3-1.3,5.2-3.5,6c-1.2,0.5-3,0.3-4.4,0.8c-0.5,0.3-1.2,0.9-2,1.2   c-2,1.2-4.8,2.7-5.4,5.1c-0.5,2.2,0.7,4,0.4,6.5c-0.4,0.8-0.9,1.6-1.4,2.3c-0.5,0.8-0.7,1.7-1.2,2.5c-0.7,1.1-1.8,1.5-2.1,2.9   c-0.2,0.4-0.1,1.1-0.3,1.8c-0.1,0.3-0.5,0.7-0.7,1.2c-0.2,0.5-0.2,1.1-0.4,1.5c-0.5,1.2-2.1,4.2-3.2,4.5c-2.4,0.8-4.9-1.2-6.6-0.8   c0.3,1.3,1.1,1.2,1.6,2.2c0.3,0.6,0.5,1.3,0.9,2c0.5,0.7,1,1,1.1,1.8c0,1.5-0.6,3-1.7,4c-1.1,0.5-2.1,1-3.4,1.1   c-0.8,0.2-3,0.2-3.5,0.8c-0.6,1,0.4,3.3-0.1,4.3c-0.9,2-3.2-0.1-4.4,0.5c-0.2,1,0.2,2,0.9,2.6c0.7,0.5,1.8-0.2,2.3,0.8   c-0.3,1.3-1.4,1.5-1.7,2.9c0,1.3,0.4,1.7,0.3,2.5c-0.3,1.8-2.6,1.7-2.5,3.6c0.1,2.8,4.5,1.7,4.6,4.4c0,1.7-1.2,1.7-1.7,3.3   c-0.3,0.9,0.2,1.1,0,1.8c-0.2,1-1.2,1.2-1.2,2.3c0,1.3,1.6,2.8,2.4,3.8c0.8,1.2,1.8,2.4,2.8,3.3c1.6,1.1,4,0.8,4.7,2.8   c-0.2,1.2-1.2,1.4-2,1.8h-0.3c-0.5-0.3-1.2-0.3-1.7,0h-1.6c-1.5-0.9-3.4-1.4-5.2-2.2c-0.7-0.3-1.4-1-2.1-1.3   c-0.5-0.3-1.2-0.4-1.6-0.7c-1-0.6-2.1-2.7-3.1-3.5c-0.6-0.4-1.6-0.7-2-1.2c-0.4-0.7-0.6-1.3-0.9-2c-0.4-0.6-1.1-1.1-1.5-1.8   c-1-1.5-2.1-3.6-2.1-4.7s0.9-1.9,0.5-2.8s-2-0.8-2.3-2c-0.2-0.7,0.5-1.9,0.4-2.8c0-0.5-0.9-1.3-0.5-2.2c0.4-1,1.2,0.1,1.9-0.4   c-0.5-2,0-5.2-1.6-5.8c-0.9,0.9,0.9,2.8-0.5,3.3c-1.4-0.7-1.1-2.9-1.3-4.5c-0.4-1.1-0.5-2.1-0.7-3.2c0.1-0.6,0.1-1.2,0.1-2   c-0.3-1.9-2-3.4-2-5.2c-0.1-0.9,0.4-1.7,0.5-2.6c0.1-0.6-0.1-1.4,0-2c0.1-0.9,0.5-1.7,0.5-2.5c0.1-1.8,0-3.6-0.3-5.3   c-0.3-1.6-1.3-2.9-1.5-4.7c-0.1-0.6,0.2-1.7,0.1-2.5c-0.1-0.8-0.4-1.5-0.4-2.3c0-0.8,0.1-1.7,0.3-2.5c0.1-1.8-0.3-3.6-0.3-5.3   c0-0.5,0.3-0.9,0.3-1.3c0-1.4-0.4-2.8-0.4-4.3c-0.1-2.7,0.3-4.4-0.1-6.9c-0.3-1.9-0.6-4.6-1.2-5.8c-0.6-1.3-3-3.5-4.3-4.3   c-0.8-0.5-1.8-0.7-2.7-1.2c-1.9-1.1-5.5-3.5-6.3-5.7c-0.3-0.6-0.2-1.5-0.4-2.2c-0.5-1.4-1.6-2.7-2.3-4c-1.4-2.6-2.6-5.9-4-8.5   c-0.6-1.3-1.3-2.7-2.1-4c-0.4-0.6-2-1.2-2.1-2.2c-0.3-1.2-1.1-3-0.9-4c0.2-1.3,2.3-2.4,2.3-3.6c0-1-1.2-1.6-1.4-2.5   c-0.5-2.1,0.4-3.4,1.1-5.1c0.3-0.5,0.4-1.5,0.7-2c0.4-0.8,1.2-1,1.9-1.8c0.4-0.4,0.5-1.4,0.9-2c0.9-1.4,2.3-1.9,2.7-3.2   c0.4-2.6,0.4-5.2,0.1-7.8c-0.2-1-1-1.8-1.2-2.8c-0.5-1.7-0.6-3.5-2-3.5c-0.9,0-1.5,1.2-2,2c-0.1,1-0.1,2-0.9,2.3   c-1.3,0.4-1.8-1.7-3.3-2.2c-0.6-0.2-1.6-0.2-2-0.4c-1.1-0.6-1.4-2.6-2.7-3.3c-1-0.6-1.8-0.4-2.4-1.4c-0.2-0.9-0.2-1.8-0.2-2.8   c-1.2-0.9-2.3-4.2-3.8-5c-1-0.5-2.5-0.4-3.6-1c-0.5-0.3-1.1-0.5-1.6-0.7c-0.7-0.1-1.4-0.3-2-0.5c-2.3-1.3-3.5-5.8-6.3-5.7   c-1.2,0-2.4,1.4-3.5,1.4s-2.8-1.1-4.3-1.8s-2.9-1.2-4.1-2c-0.9-0.5-1.6-1.6-2.4-2c-0.6-0.4-1.5-0.4-2-0.7c-0.9-0.6-1.7-1.3-2.4-2   c-0.9-0.7-1.8-1.9-1.9-2.8c0-1.1,0.8-2,0.9-3c0.3-3.3-1.7-5.7-3-7.5c-0.9-1.4-2-2.7-2.9-4c0.1-0.6,0.1-1.2,0-2   c-0.8-1.1-1.4-2.1-2-3.3c-0.7-1.2-2-2.3-2.1-3.6c-0.2-1.6,0.5-2.9,0-4.4c-0.8-2.5-3.7-1.3-3.4,2c0.1,0.9,1.2,2.1,1.5,3   s0.3,2,0.6,3.2c0.4,1.2,1.2,2,1.5,3.2c0.5,1.9,0.4,3.9,0.9,5.1c0.4,1.2,1.9,2,1.1,3.3c-1.1,0.3-1.5-1.1-2.1-1.8   c-0.4-0.4-1.8-1.2-2-2.2c-0.2-0.8,0.4-1.9,0.3-2.9c-0.4-2-3.6-2-3.6-4c0-1.2,1.3-1.4,1.4-2.6s-1.5-2.5-1.9-3.6   c-0.3-1.3-0.4-2.8-0.4-4.1c0-1.3-0.1-2.7-0.3-4c-0.4-1.1-1.2-2-2.1-2.8s-1.8-0.4-2.3-1.4c-0.4-1.2-0.7-2.3-0.8-3.6   c-0.2-1.7,0-3.5-0.1-5.2c-0.2-1.8-0.2-3.6,0-5.3c0.5-1.3,1.6-2,2.1-3.3c0.4-0.9,0.4-2,0.9-3c0.9-1.8,2.7-3.5,3.9-5.2   c1.4-1.9,2.6-3.9,3.4-6c0.3-0.8,1.1-2.5,0.9-3.5c-0.2-1.3-2.2-2.4-2-4c0.1-1,1.2-1,1.6-2c0.2-0.8,0.4-1.6,0.4-2.5   c0-1.3-0.5-2.8-0.4-4.2c0.2-1.2,1.7-1.7,0.9-3s-2.3,0.8-3.2-0.1s0.2-1.7,0.3-3.2c0-0.6-0.3-1.2-0.3-1.7c0.1-0.6,1.1-1.7,0.8-2   c-0.6-1-1.3-3.4-2.7-4.2c-1.7-1-3.5-0.4-5.9-0.8c-1.4-0.3-2.1-2-3.5-1.8c-0.8,0.1-1.2,1.2-2.4,1.8s-2.6,0.4-3.6,0.7   s-1.6,1.2-2.8,1.1c-1-0.1-1-1.1-2-1.2c-0.6,0.1-1.3,0.3-2,0.4c-2.2,0.3-4.5,0.3-6.8-0.2c-1.6-0.4-3-1.2-4.4-2   c-1.3-0.8-3.9-1.7-3.8-2.9c0.1-0.8,2.4-1.6,3.3-2c1.5-0.5,2.4-1.4,3.6-1.5c0.4,0,1.1,0.4,1.6,0.3s1.3-0.7,2-0.8   c1.6-0.3,3.8,0.1,3.6-1.8c-1.2-1.2-6.2,0.9-6.3-1.7c0-1.5,2-2,3.4-2.4c1.4-0.4,2.9-0.7,4.4-0.8c1.3,0.1,3,1.9,3.8-0.2   c0.4-1.4-0.4-2.6-0.7-3.7c1-1.6,2.8-1.4,4.1-1.7c1.5-0.3,3-0.7,4.4-1.3c1.4-0.7,2.8-1.2,4.4-1.3c1.6-0.3,3-1,4.4-1.1   c1.2,0,2.2-0.1,3.3-0.3c1-0.3,2-0.9,3.1-0.8c0.7,0,1.3,0.7,2,0.8s1.5,0,2.2,0.2c0.5,0.2,1.1,0.6,1.6,0.7c0.9,0.2,1.8-0.2,2.7,0   s1.4,0.7,2.1,0.8c1.8,0.3,3.8-0.1,5.5,0.3c0.6,0.2,1.2,0.5,2,0.7s1.4,0,2,0.2c0.9,0.2,1.7,1.2,2.7,1.3c1.8,0.2,3.7-0.9,5.6-1.1   c1.4,0,2.8-0.1,4.1-0.3c1.2-0.4,2.4-0.7,3.6-1c0.6,0,1.2,0.3,1.7,0.2c0.5-0.1,1.3-1,2-0.8c0.9,0.2,0.7,1.5,1.6,1.8   c1-0.6,2,0,3.1,0c1.2,0,2-0.6,3.2-0.4c2.1,0.4,5,2.8,6.7,1.5c0.4-0.4,0.4-0.9,0.7-1.8c0.5-1.2,1.5-2.6,1.2-4.3   c-2.3,0-4.5,1.4-7.1,1.5c-2.7-2,0.7-3.2,2.7-4.2c1.6-0.7,2.8-2.4,4.8-2.8c1.6-0.3,3.4,0.4,5.2,0.7c1.1,0.2,2.2-0.1,2.8,0.2   c1.2,0.4,1.7,1.8,2.7,2c0.4,0.2,1.1,0.1,1.6,0.3c1.1,0.3,2,1,3,0c0.8,0.2,0.9,1.2,1.7,1.3c0.8-0.5,1.3-1.8,2.5-2   c0.5-0.2,1.1,0.1,1.6,0c1-0.2,2.2-1.7,2.8-0.3c-0.3,1-1.5,1.2-2.1,2c-0.6,0.8-1.6,2.3-1.5,3c0.2,1.3,1.8,0.8,1.9,2.5   c-0.3,1-1.2,0.5-2,1c-0.8,0.4-1,1.2-1.7,1.3c-2.1,0.4-3.8-0.6-5.6-0.5c-0.1,1,0.9,1.5,1.3,1.8c1.7,1.1,2.9,0.9,5.2,0.8   c1.2,0,2.6,0.4,3.6-0.4c0.6-0.5,0.6-1.7,1.2-2.3c0.8-0.9,1.9-1.4,3.1-1.3c0.6,0.2,1.2,0.7,1.2,1.3c0,1.2-1.5,0.9-1.5,2.2   c1,0.7,3.6-0.8,3.6-2c0.1-0.9-0.8-1.3-0.8-2.2c0.1-1.4,1.7-1.4,1.5-2.8c-0.8-0.7-1.6,0.2-2.4,0c-1.2-0.3-2.1-1.9-2.7-2.9   c0.5-0.7,1.5-0.3,2.3-0.2c0.9-1.4,2.4-2,4.6-2.2c0.8-0.1,1.8-0.4,2.1,0.4c0.2,1.3-1.6,2-1.2,3.6c1.5,0.4,2-2,3.4-3   c0.7-0.4,1.4-0.8,2.1-1.1c0.7-0.4,1.5-1.2,2-1.1s0.7,0.6,1.4,1s1.3-0.2,1.5,0.7c-1.3,2.8-6.3,1.2-7.5,4c0.3,1.9-0.8,3.7,0.1,5   c0.6,0.9,2,0.3,2.4,1.2c0.4,1.2-1.4,1.2-0.9,2.8c1.2,0.9,2.7-0.8,3.7-1.5s2.8-1.6,2.8-3.3c-0.6-1.4-2.8-0.4-3.2-1.8   c-0.2-0.8,0.7-2.6,0.9-2.8c1.2-1.6,5.3-3.9,8.3-3.6c0.5,0.1,1.2,0.4,1.7,0.5c2,0.3,4.3-1.1,5.9,0c1.2-0.9,2.8,0.1,4.4-0.2   c1.3,1,1,2.9,3,3.8c0.5,0.3,1.2,0.1,2,0.3c0.5,0.2,1.1,0.9,1.7,1.2c0.9,0.4,1.5,0.4,1.7,1.1s-0.6,1.2-0.5,2c0.5,0.4,0.1,1.2,0.4,2   c0.5,1.2,1.8,1.2,3,1.8c0.9,0.4,2.8,1.8,2.7,2.8c-0.1,0.7-1.8,1.9-2.3,2.2c-0.4,0.2-2.3,1.3-3,1.2c-1.1-0.2-1.5-2.8-3-2.8   c-0.7,0.1-1.3,0.7-1.2,1.4v0.1c0,1.8,1.7,1.9,1.7,3.5c0,1.9-0.9,2-2.1,3.2c-0.9-0.6-2-1.1-3-1.2c-0.7,1.1,1.2,1.4,0.5,2.8   c-1.9,0.4-3.2-0.6-5-1.2c-0.5-0.2-1.2-0.1-1.7-0.4c-0.6-0.4-0.8-1.8-1.4-2.5c-0.6-0.7-1.9-2-2.8-2c-1.4,0-3.5,2.1-4.6,0.2   c0.8-3.1,4.4-0.8,6.8-2c0.9-0.4,1.2-1.6,2-2c1.5-1,3.9-1.2,3.6-3.2c-0.1-1-1.3-1-2-1.5c-0.9-0.7-1.6-3.2-2.8-3.3   c-0.6-0.1-1.2,0.6-1.9,0.7c-1.5,0.2-3.1-0.7-4.4,0c-0.6,0.4-0.2,1.2-0.7,2c-0.4,0.7-1.3,0.9-1.7,1.5s-0.4,1.8-0.9,2.3   c-1,1-2.9,1.2-4.1,1.7c-0.5,0.2-1.2,1-1.7,1c-1,0-1.3-1.5-2.4-1c-0.1,1.5,1.3,2,2.1,2.8c1.1,0.6,1.9,1.6,2.3,2.8   c-1,2.4-2.4-0.1-3.9-0.2c-1.6,0-4,3.7-5.4,0.7c0.4-1.6,1.9-1.9,2.1-3.5c-1.6,0.4-3,2-5,2.5c-0.8,0.2-1.6,0.2-2.3,0.4   c-1.3,0.5-2.3,1.7-3.7,2.3c-0.5,0.3-1.2,0.2-1.9,0.4c-1.5,0.7-3,1.5-4.4,2.5c-1.4,0.8-2.8,1.8-4,2.9c-0.5,0.5-1.8,2.3-1.7,2.8   c0.1,0.8,1.3,1.1,1.4,2c0,0.5-0.7,1.6-0.3,2.3c0.4,0.7,1.4,0.2,2.4,0.3c1.8,0.3,2.9,2,4.3,2.9c1.1,0.8,2.3,1.3,3.6,1.7   c1.6,0.3,3.4-0.5,3.6,1s-1.5,2-1.6,2.9c0.9,1.3-0.5,2-0.5,3.2c0,1,1,2.4,1.9,2.5c1.2,0.1,2.8-1.3,3.4-2.8c0.5-1.7,0.4-3.9,1.3-5.1   c5.3,0.2,9.9-2.9,9.5-9.5c-0.2-0.7-0.3-1.4-0.2-2.2c0.2-1.1,1.7-2,1.5-3.3c1.5-0.5,1.4-3.5,3-3.8c1.3-0.4,2.8,1.1,4.4,1   c0.5,0,1.2-0.6,1.9-0.5c1.2,0.2,1.8,1.9,2.7,2.6s1.5,0.4,1.7,1.4c-0.2,1.5-1.2,1.6-1.1,3c0.1,1.1,0.8,2,1.7,2.3c1,0,2-0.3,2.8-0.8   c1.5-0.9,2.8-3.5,4.1-3.2c1,0.3,1.8,4.1,2,5.5s-0.2,2.7-0.1,4c0.2,2.3,2.6,2,3.8,3.3c0.4,0.4,0.5,1.3,0.8,1.8c0.5,1,1.2,1,1.3,2   c0.2,2.4-1.8,2.6-1.6,5.2c-0.4,1.1-1.4,1-1.3,2.3c0.1,2.1,2.8,0.5,3.5,2.2c0.4,0.9-0.1,1.6-0.4,2.8c0.9,1.2,0.9,3.3-0.7,3.3   C213.2,102.8,212.9,101.6,211.9,101.3z M88,97.7c0.5-0.7-0.3-2-1.1-1.5C86.9,96.7,87.1,97.9,88,97.7L88,97.7z M168,110.3   c-0.4-0.5-2-0.4-3.1-0.3c-0.8,0.1-1.7,0.3-1.7,1C164.4,111.6,167.7,112,168,110.3L168,110.3z M162.1,107.9   c0.7-0.7,0.7-1.9-0.1-2.6c-0.1-0.1-0.3-0.2-0.4-0.3c-0.4-0.1-0.9,0.4-1.5,0.3c-0.6-0.1-1.3-0.8-1.9-0.8c-0.9-0.1-1.7,0.3-2.2,1   c0,0.8,0.5,1,0.4,1.8c-1.1,1-0.5,4.2,0.5,4.3c1.1,0.1,1.8-3.6,3.3-3.8C161,107.5,161.3,107.9,162.1,107.9L162.1,107.9z    M160.5,113.4c-1.6-0.7-3.1,0.4-4.4,0.7c-0.8,0.1-2.2-0.2-2,1.2c0.2,1.2,1.7,0.7,2.5,0.4C158,115.2,159.3,114.4,160.5,113.4   L160.5,113.4z M155.4,103c2.3-1.2-0.4-4.8-1.5-5.1c-1.9-0.6-4.5,1.6-6.7,2.3c-1.2,0.4-2.4,0.4-2.7,1.7c1.1,2.1,3.2-0.4,4.8-0.2   c0.8,0.2,1.2,1.5,2,1.7C152.8,103.3,154.1,103.2,155.4,103L155.4,103z M153.8,105.1c-0.4-0.7-3,0.1-3.7,0.7   c-0.5,0.7-1,1.4-1.4,2.2c-0.5,0.8-1.2,1.4-1.6,2c-0.4,0.6-2.8,4.6-0.9,5.1c0.8,0.2,2.4-1.8,2.5-2.5c0.5-2.5,1.4-4.4,3.1-5.5   C152.7,106.5,153.6,106.6,153.8,105.1L153.8,105.1z M139.5,89.7c1.2-0.1,2.1-4.6,0-4C138,86.1,137.7,89.7,139.5,89.7L139.5,89.7z    M133.3,193c0.1-0.2,0.2-0.4,0.3-0.5C133.2,191.1,132.1,192.9,133.3,193L133.3,193z M84.8,77.7c0-0.3-0.2-0.3-0.1-0.5   c-0.4,0-0.7-0.1-0.7,0.4S84.6,78,84.8,77.7z M205.2,56.1c0.5,0.1,0.9-0.2,0.8-0.8C205.5,54.8,204.8,55.5,205.2,56.1z M192.1,42.6   c-0.2-0.2-0.5-0.2-0.7,0v0.5C191.8,43.3,192,42.9,192.1,42.6z M148.6,53.2c0.4-0.3,1-0.7,0.7-1.3c-1.2-0.7-3.4-0.2-5.2-0.4   c-1.1-1.8-2.8-2-3,0.8C143.1,54.3,146.4,51.3,148.6,53.2L148.6,53.2z M128.1,67.4c0.6-0.3,1.6-0.2,1.7-1c-0.5-0.5-1.1-1.2-1.7-1.2   c-0.8,0-1.2,0.9-2,1.4c-1,0.6-2.3,0.8-2.4,1.8C125.3,68.8,126.9,67.9,128.1,67.4L128.1,67.4z M127.4,57.5c0.7-0.2,1.5,0.3,2-0.5   c-0.5-3-4.1-1.2-6-1c-0.5,0.8-1,1.8-1.2,2.8C123.8,59.2,125.7,57.9,127.4,57.5z M161.8,198.2c0.9-0.2,0.6-2.7-0.4-2   C160.6,196.6,160.9,198.4,161.8,198.2z"></path>		<path class="st3" d="M84.7,77.1c0,0.3,0.2,0.3,0.1,0.5c-0.2,0.4-0.6,0.3-0.8-0.2S84.4,77.1,84.7,77.1z"></path>		<path class="st3" d="M81.3,85.3c-0.3,0.8-0.9,1.3-1.6,1.7c-0.3-0.2-0.4-0.4-0.5-0.7C79.1,84.9,80.7,84,81.3,85.3z"></path>	</g>	<g id="Speech_Bubbles">		<path class="st5" d="M90.9,229.2c0,0.7,0.6,1.3,1.3,1.3s1.3-0.6,1.3-1.3s-0.6-1.3-1.3-1.3l0,0C91.6,227.9,90.9,228.5,90.9,229.2   L90.9,229.2z"></path>		<path class="st5" d="M85.6,229.2c0,0.7,0.6,1.3,1.3,1.3s1.3-0.6,1.3-1.3s-0.6-1.3-1.3-1.3l0,0C86.2,227.9,85.6,228.5,85.6,229.2   L85.6,229.2z"></path>		<path class="st5" d="M80.4,228.5c-0.4,0.6-0.2,1.4,0.4,1.8s1.4,0.2,1.8-0.4c0.4-0.6,0.2-1.4-0.4-1.8l0,0   C81.5,227.7,80.7,227.9,80.4,228.5z"></path>		<path class="st5" d="M86.8,213.6h-0.3l-0.8,0.1c-0.2,0-0.4,0-0.6,0.1l-0.7,0.1l-0.8,0.1l-0.9,0.3c-1.5,0.4-3,1.1-4.4,2   c-4,2.6-6.6,6.8-6.9,11.5c-0.1,0.7-0.1,1.4,0,2c0,0.4,0,0.7,0.1,1.1c0.1,0.4,0.1,0.7,0.2,1.1c0.3,1.5,0.8,2.9,1.5,4.3   c1.5,2.8,3.8,5.2,6.8,6.7c1.5,0.8,3.2,1.2,4.9,1.5c0.4,0.1,0.9,0.1,1.3,0.1s0.9,0,1.3,0c0.9,0,1.8-0.2,2.7-0.4   c1.9-0.4,3.6-1.2,5.2-2.2l0.1-0.1h0.1l5.4,2.2l-0.3,0.2c-0.5-2-1.1-3.9-1.6-5.8v-0.1v-0.1c1.4-2,2.4-4.2,2.8-6.5   c0.2-1.1,0.3-2.2,0.2-3.4c0-0.5-0.1-1.1-0.2-1.6c0-0.3-0.1-0.5-0.1-0.8c0-0.3-0.1-0.5-0.2-0.8c-1.5-6-6.3-10.4-12.3-11.5   c-0.4-0.1-0.8-0.2-1.1-0.2l-0.8-0.1H87C86.9,213.6,86.9,213.6,86.8,213.6h0.7h0.8c0.4,0,0.7,0.1,1.1,0.1l0.6,0.1l0.7,0.2l0.8,0.2   l0.8,0.3c1.2,0.4,2.5,1.1,3.6,1.9c3,2.1,5.2,5.3,6,8.9c0.1,0.3,0.2,0.5,0.2,0.8s0.1,0.5,0.1,0.8c0.1,0.5,0.2,1.1,0.2,1.6   c0.1,1.2,0,2.3-0.2,3.4c-0.4,2.4-1.4,4.7-2.9,6.7v-0.2c0.5,1.9,1.1,3.8,1.6,5.8l0.1,0.4l-0.4-0.1l-5.4-2.2h0.2   c-1.6,1.1-3.5,1.9-5.3,2.2c-0.9,0.2-1.8,0.3-2.7,0.4c-0.4,0-0.9,0-1.3,0s-0.9-0.1-1.3-0.1c-1.7-0.2-3.4-0.7-5-1.5   c-1.5-0.8-2.8-1.8-4.1-2.9c-1.2-1.2-2-2.5-2.8-3.9c-0.7-1.3-1.2-2.8-1.5-4.4c-0.1-0.4-0.1-0.7-0.2-1.1s0-0.7-0.1-1.1   c-0.1-0.7-0.1-1.4,0-2.1c0.3-2.6,1.2-5.1,2.6-7.2c1.2-1.8,2.8-3.3,4.5-4.4c1.3-0.9,2.8-1.5,4.4-1.9l0.9-0.3l0.8-0.1l0.7-0.1h0.6   h0.8L86.8,213.6z"></path>		<path class="st5" d="M485.8,43c0,0.7,0.6,1.3,1.3,1.3s1.3-0.6,1.3-1.3s-0.6-1.3-1.3-1.3l0,0C486.4,41.7,485.8,42.3,485.8,43z"></path>		<path class="st5" d="M480.4,43c0,0.7,0.6,1.3,1.3,1.3s1.3-0.6,1.3-1.3s-0.6-1.3-1.3-1.3l0,0C481,41.7,480.4,42.3,480.4,43z"></path>		<path class="st5" d="M475.2,42.4c-0.4,0.6-0.2,1.4,0.4,1.9c0.6,0.4,1.4,0.2,1.9-0.4c0.4-0.6,0.2-1.4-0.4-1.9c0,0,0,0-0.1,0   C476.3,41.6,475.5,41.8,475.2,42.4z"></path>		<path class="st5" d="M481.7,27.6h-0.3l-0.8,0.1c-0.2,0-0.4,0-0.6,0l-0.7,0.1l-0.8,0.1l-0.9,0.4c-1.5,0.4-3,1.1-4.4,2   c-4,2.6-6.6,6.8-6.9,11.5c-0.1,0.7-0.1,1.4,0,2c0,0.4,0,0.7,0.1,1.1s0.1,0.7,0.2,1.1c0.3,1.5,0.8,2.9,1.4,4.3   c0.7,1.4,1.7,2.7,2.8,3.8c1.2,1.2,2.5,2.1,4,2.8c1.5,0.8,3.2,1.2,4.9,1.5c0.4,0.1,0.9,0.1,1.3,0.1c0.4,0,0.9,0,1.3,0   c0.9,0,1.8-0.2,2.7-0.4c1.9-0.4,3.6-1.2,5.2-2.2h0.1h0.1l5.4,2.2l-0.3,0.2c-0.5-2-1.1-3.9-1.6-5.8v-0.1l0.1-0.1   c1.4-1.9,2.4-4.2,2.8-6.5c0.2-1.1,0.3-2.2,0.2-3.4c0-0.5-0.1-1.1-0.2-1.6c0-0.3-0.1-0.5-0.1-0.8s-0.1-0.5-0.2-0.7   c-1.5-6-6.3-10.4-12.3-11.5c-0.4-0.1-0.8-0.2-1.1-0.2l-0.8-0.1h-0.4H481.7c0.1,0.1,0.1,0.1,0.2,0.1h0.4h0.8c0.4,0,0.7,0.1,1.1,0.2   c0.2,0,0.4,0.1,0.6,0.1l0.7,0.2l0.8,0.2l0.8,0.3c1.2,0.4,2.5,1.1,3.6,1.9c3,2.1,5.2,5.2,6,8.9c0.1,0.3,0.2,0.5,0.2,0.8   s0.1,0.5,0.1,0.8c0.1,0.5,0.2,1.1,0.2,1.6c0.1,1.2,0,2.3-0.2,3.4c-0.4,2.4-1.4,4.7-2.9,6.7v-0.2l1.6,5.8l0.1,0.4l-0.4-0.1   l-5.4-2.2h0.2c-1.6,1.1-3.5,1.9-5.3,2.2c-0.9,0.2-1.8,0.3-2.7,0.4c-0.4,0-0.9,0-1.3,0s-0.9,0-1.3-0.1c-1.8-0.2-3.4-0.7-5-1.5   c-1.5-0.8-2.8-1.8-4.1-2.9c-1.2-1.2-2-2.5-2.8-3.9c-0.7-1.3-1.2-2.8-1.5-4.4l-0.2-1.2c-0.1-0.4,0-0.7-0.1-1.1   c-0.1-0.7-0.1-1.4,0-2.1c0.4-4.8,3.1-9.1,7.2-11.6c1.3-0.9,2.8-1.5,4.4-2l0.9-0.2l0.8-0.1l0.7-0.1h0.6h0.8   C481.5,27.6,481.6,27.6,481.7,27.6z"></path>		<path class="st5" d="M465.5,248.8c0,1,0.8,1.8,1.8,1.8c1,0,1.8-0.8,1.8-1.8c0-1-0.8-1.8-1.8-1.8   C466.3,247,465.5,247.8,465.5,248.8z"></path>		<path class="st5" d="M458.6,248.8c0,1,0.8,1.8,1.8,1.8c1,0,1.8-0.8,1.8-1.8c0-1-0.8-1.8-1.8-1.8   C459.4,247,458.6,247.8,458.6,248.8z"></path>		<path class="st5" d="M451.6,247.9c-0.5,0.8-0.3,2,0.6,2.4c0.8,0.5,2,0.3,2.4-0.6c0.4-0.9,0.3-2-0.6-2.4c0,0,0,0-0.1,0   C453.2,246.9,452.1,247.1,451.6,247.9z"></path>		<path class="st5" d="M460.2,228.5c-0.1,0-0.3,0-0.4,0l-1.1,0.1c-0.2,0-0.4,0-0.7,0.1l-0.9,0.2l-1.1,0.2l-1.2,0.4   c-2,0.5-3.9,1.4-5.7,2.6c-5.2,3.4-8.5,9-9.1,15.1c-0.1,0.9-0.1,1.9,0,2.8c0,0.4,0,0.9,0.1,1.4s0.2,0.9,0.2,1.4c0.4,2,1,3.8,2,5.5   c1,1.9,2.2,3.5,3.6,5c1.5,1.5,3.3,2.8,5.2,3.7c2,1,4.2,1.7,6.4,2c0.5,0.1,1.2,0.2,1.7,0.2c0.5,0,1.2,0,1.7,0   c1.2,0,2.3-0.2,3.5-0.4c2.4-0.5,4.8-1.5,6.8-2.8l0.1-0.1h0.1l7.1,2.8l-0.3,0.3c-0.7-2.6-1.4-5.2-2-7.6v-0.2l0.1-0.1   c1.9-2.5,3.2-5.4,3.7-8.5c0.3-1.4,0.4-2.9,0.3-4.4c0-0.7-0.1-1.4-0.2-2.1c0-0.4-0.1-0.7-0.2-1c-0.1-0.3-0.2-0.7-0.3-1   c-2-7.8-8.3-13.7-16.3-15c-0.5-0.1-1-0.2-1.4-0.2l-1.1-0.1l-0.6-0.1L460.2,228.5h0.2h0.6h1.1c0.4,0,0.9,0.1,1.4,0.2   c0.3,0,0.5,0.1,0.9,0.1l0.9,0.3l1,0.3l1.1,0.4c1.7,0.6,3.3,1.4,4.7,2.5c3.9,2.8,6.8,6.9,8,11.5c0.1,0.4,0.2,0.7,0.3,1   s0.1,0.7,0.2,1.1c0.1,0.7,0.2,1.4,0.2,2.1c0.1,1.5,0,3-0.3,4.4c-0.5,3.2-1.9,6.1-3.8,8.7v-0.1l2.1,7.6l0.1,0.4l-0.4-0.2l-7.1-2.8   h0.2c-3.1,2-6.8,3.2-10.5,3.4c-0.6,0-1.2,0-1.8,0s-1.2-0.1-1.8-0.2c-2.3-0.3-4.4-1-6.5-2c-2-1-3.7-2.3-5.3-3.8   c-1.5-1.5-2.8-3.2-3.7-5.1c-0.9-1.8-1.6-3.7-2-5.7l-0.2-1.4c-0.1-0.4-0.1-1-0.1-1.4c-0.4-7.3,3.3-14.2,9.4-18.1   c1.8-1.2,3.7-2,5.8-2.5l1.2-0.3l1.1-0.2l0.9-0.1c0.3,0,0.5,0,0.8,0h1.1L460.2,228.5z"></path>	</g></g><g>	<path class="st6" d="M627.2,212.2c-6.9-3.3-14.4-5.4-22-6.1c-12.2-1.2-31.4-3-39-3.4c-11.6-0.6-69.1-2.2-69.1-2.2  s-51.4-12.7-75.1-8.8c-23.8,3.9-14.9,23.2-14.9,23.2s8.8,13.8,26.5,16.6l-57.5,7.2c0,0-33.7-42-48.1-56.9s-37-6.1-37-6.1  s-6.1-21.5-21.5-28.7c-15.5-7.2-28.7,3.3-28.7,3.3s17.1,26.5,23.2,37.6c6.1,11.1,10.5,18.8,10.5,18.8l-38.7-31.5  c0,0-5.3-7.2-17.6-7.9c-7.5-0.5-14.7,2.5-20.1,7.7c-1.2,1.1-2.4,2.4-3.8,3.5l44.2,37.6c0,0-16-1.1-25.4,16l83.4,43.1  c0,0,50.8,7.2,71.8,8.8c21,1.7,25.4,3.9,25.4,3.9s14.9,10.5,43.6,18.8c28.7,8.3,93.9-17.1,141.4-6.6c47.5,10.5,65.2,32,65.2,32  s30.4,32.6,51.9,50.3c5.8,4.8,9.3,7.7,11.3,9.4V257.6C707.3,257.6,666.8,231.2,627.2,212.2z"></path>	<g class="st7">		<image style="overflow:visible;" width="589" height="323" xlink:href="59F42604.png" transform="matrix(1 0 0 1 156 107)">		</image>	</g>	<g>		<path class="st8" d="M238.5,216c14.3,11,29.9,23.5,44,34.9c2.4,2,8.5,7,10.9,8.9c4.7,4,10.2,6.9,16.1,8.3   c19.1,4.9,39.9,10.4,58.8,15.8c-19.2-4.2-40.1-9.2-59.3-13.9c-6.2-1.5-12.1-4.5-16.9-8.7c-2.3-1.9-8.4-7-10.8-9   C267.4,240.8,252,227.9,238.5,216L238.5,216z"></path>	</g>	<g>		<path class="st8" d="M274.4,206.6c13.6,17.5,26.7,35.3,39.6,53.3c2.1,3.1,5.1,5.5,8.6,6.9c0,0,14.5,5.6,14.5,5.6   c9.7,3.7,19.4,7.6,29,11.6c-9.9-3.3-19.7-6.6-29.6-10.1c-4.9-1.7-9.8-3.5-14.7-5.3c-3.8-1.5-7.1-4.2-9.5-7.5   C299.4,243.1,286.6,225,274.4,206.6L274.4,206.6z"></path>	</g>	<g>		<path class="st8" d="M291,175.6l-3.3,1.7c0-0.6,13.2,20.2,13.3,20.1c10.3,15.9,22.5,35.1,32.5,50.9c1.9,2.9,4.3,7.3,6.8,9.7   c2.7,2.9,6.2,4.8,9.8,6.4c24.7,12,51.3,25.1,75.7,37.7c-21.1-9.6-44.7-20.7-65.6-30.8c0,0-10.9-5.2-10.9-5.2   c-3.7-1.7-7.5-3.7-10.3-6.7c-2.6-2.5-5-7-7-10.1c-9.9-15.8-22-35.3-31.8-51.4c0,0-12.5-20.7-12.5-20.8c0,0,0.1,0,0.1,0   S291,175.6,291,175.6L291,175.6z"></path>	</g>	<g>		<path class="st9" d="M387.7,237c13,1.7,39.1,5.3,52.1,7.1c4.3,0.7,8.6,1,12.9-0.1c37.3-12.6,74.6-25.6,113-34.9   c8.5-1.9,17.2-3.9,25.9-4.1c-8.8,0.4-17.3,2.5-25.8,4.6c-8.5,2.1-16.9,4.5-25.3,7c-29.4,8.6-58.5,18.6-87.5,28.3   c-4.3,1.1-8.9,0.9-13.2,0.1C426.7,242.9,400.6,239,387.7,237L387.7,237z"></path>	</g>	<g>		<path class="st8" d="M433.5,231.5c16.5-3.2,33.1-6.3,49.2-11.3c3.9-1.4,8.1-2.8,12.1-3.8c6.8-1.7,13.9-2.9,20.8-4   c16.7-2.3,33.6-3.9,50.5-3.1c-5.6,0.1-11.2,0.4-16.8,0.9c-18.1,1.6-36.3,3.8-54,8c-3.9,0.9-8.2,2.4-12,3.7   C467,226.8,450.3,229.4,433.5,231.5L433.5,231.5z"></path>	</g>	<linearGradient id="SVGID_1_" gradientUnits="userSpaceOnUse" x1="375.6903" y1="168.4644" x2="375.6903" y2="8.7282">		<stop offset="3.516341e-07" style="stop-color:#D44A26"></stop>		<stop offset="2.177541e-02" style="stop-color:#D54F25"></stop>		<stop offset="0.266" style="stop-color:#E48419"></stop>		<stop offset="0.4942" style="stop-color:#F0AE10"></stop>		<stop offset="0.6997" style="stop-color:#F8CC09"></stop>		<stop offset="0.8752" style="stop-color:#FDDE05"></stop>		<stop offset="1" style="stop-color:#FFE504"></stop>	</linearGradient>	<path class="st10" d="M450.6,77.6c0.5,28.3-14.7,53.2-37.5,66.3c-3.4,2-5.6,5.6-5.6,9.6v14.4h-63.4v-13.7c0-4.3-2.3-8.2-6.1-10.3  c-22.4-13-37.4-37.2-37.4-64.9c0-42,34.5-75.9,76.8-74.9C417.4,5,449.9,37.6,450.6,77.6z"></path>	<path class="st11" d="M389.8,207.7H387c0.2,0.8,0.2,1.6,0.2,2.4c0,6.7-5.7,12.1-12.6,11.6c-5.1-0.4-9.5-4.3-10.4-9.4  c-0.3-1.6-0.3-3.1,0.1-4.5h-2c-10,0-18.1-8.1-18.1-18.1v-21.6h63.7v21.6C407.9,199.6,399.8,207.7,389.8,207.7z"></path>	<path class="st12" d="M358.4,168.4c0,0,2.8-48.6-12.2-65.2c0,0,22.7-9.9,10.5-24.9c-12.2-14.9-19.9,6.1-3.3,11.1  c16.6,5,26-1.7,22.1-13.3s-16.6-6.1-9.9,7.7c5.2,10.8,23.4,8.4,30.9,6.9c2.8-0.6,5.1-2.8,5.4-5.7c0.3-2.6,0.7-6.7-5.4-7.5  c-12.2-1.7-4.4,34,14.9,31.2c0,0-21,22.7-19.3,60.8"></path>	<g>		<path class="st13" d="M332.1,130.6c-37-27.4-34.2-84.5,4.1-109.5c8.8-5.9,19.1-9.5,29.7-10.6c3.5-0.3,7-0.3,10.5-0.1   c-13.9,1-27.1,5.8-37.9,13.9C303.5,50.1,301.2,100.5,332.1,130.6L332.1,130.6z"></path>	</g>	<g>		<polygon class="st13" points="344.3,174.1 373.3,175.1 344.3,176.1 344.3,174.1   "></polygon>	</g>	<g>		<polygon class="st13" points="344.3,180.6 373.3,181.6 344.3,182.6 344.3,180.6   "></polygon>	</g>	<g>		<polygon class="st13" points="344.3,187.1 373.3,188.1 344.3,189.1 344.3,187.1   "></polygon>	</g></g><g>	<g>		<g>			<path class="st14" d="M126.8,283.6c0.5-1.2,1-2.3,1.3-3.5c-9.1-5.5-15.3-15.6-15.3-27.1c0-17.5,14.2-31.6,31.6-31.6    c17.5,0,31.6,14.2,31.6,31.6s-14.2,31.6-31.6,31.6c-2.4,0-4.7-0.3-6.9-0.8c-4.1,5.1-10.5,7.9-17,7.4    C123.1,289.4,125.3,286.8,126.8,283.6z"></path>		</g>		<g>			<g>				<path class="st13" d="M118.4,256.1c0-15.4,12.5-27.9,27.9-27.9c9,0,17,4.3,22.2,10.9c-4.8-8.4-13.9-14-24.2-14     c-15.4,0-27.9,12.5-27.9,27.9c0,6.4,2.2,12.3,5.8,17C119.8,266,118.4,261.2,118.4,256.1z"></path>			</g>		</g>		<g>			<path class="st11" d="M176.1,252C176.1,252,176.1,252,176.1,252c-0.4-11-6.3-20.5-15-25.9c3.1,4.9,5,10.8,5,17    c0,17.4-14.1,31.6-31.6,31.6c-6.1,0-11.7-1.7-16.5-4.7c2.6,4,6,7.4,10.1,9.9c0,0,0,0,0,0c0,0,0.1,0,0.1,0.1    c-0.3,1.2-0.7,2.4-1.3,3.5c-1.5,3.2-3.7,5.8-6.3,7.7c6.5,0.5,12.9-2.3,17-7.4c0,0,0,0,0,0c0,0,0,0,0,0c2.2,0.5,4.6,0.8,7,0.8    c6.1,0,12.2-1.8,17.3-5.2c4.5-3,8.2-7.1,10.7-11.9c2-3.8,3.1-7.9,3.5-12.2C176.1,254.4,176.1,253.2,176.1,252z"></path>		</g>	</g>	<g>		<g>			<path class="st15" d="M190.2,293.2c-0.5-1.2-1-2.3-1.3-3.5c9.1-5.5,15.3-15.6,15.3-27.1c0-17.5-14.2-31.6-31.6-31.6    c-17.5,0-31.6,14.2-31.6,31.6s14.2,31.6,31.6,31.6c2.4,0,4.7-0.3,6.9-0.8c4.1,5.1,10.5,7.9,17,7.4    C193.9,299,191.7,296.4,190.2,293.2z"></path>		</g>		<g>			<path class="st16" d="M190.2,293.2c-0.5-1.1-0.9-2.3-1.2-3.5c9.1-5.5,15.3-15.6,15.3-27c0-11.4-6-21.4-15.1-26.9    c3.1,4.9,5,10.8,5,17c0,17.4-14.1,31.6-31.6,31.6c-6.1,0-11.7-1.7-16.5-4.7c5.6,8.8,15.4,14.6,26.6,14.6c2.4,0,4.7-0.3,6.9-0.8    c4.1,5.1,10.5,7.9,17,7.4C193.9,299,191.7,296.4,190.2,293.2z"></path>		</g>		<g>			<g>				<path class="st17" d="M146.6,265.7c0-15.4,12.5-27.9,27.9-27.9c9,0,17,4.3,22.2,10.9c-4.8-8.4-13.9-14-24.2-14     c-15.4,0-27.9,12.5-27.9,27.9c0,6.4,2.2,12.3,5.8,17C147.9,275.6,146.6,270.8,146.6,265.7z"></path>			</g>		</g>	</g>	<g>		<circle class="st9" cx="160.9" cy="263.4" r="3"></circle>	</g>	<g>		<circle class="st9" cx="172.6" cy="263.4" r="3"></circle>	</g>	<g>		<circle class="st9" cx="183.9" cy="263.4" r="3"></circle>	</g></g></svg>