<svg xmlns="http://www.w3.org/2000/svg" xmlns:xlink="http://www.w3.org/1999/xlink" viewBox="0 0 500.55 499.44"><defs><style>.cls-1{fill:#ebebf2;}.cls-2{fill:#e1e1e1;}.cls-3{fill:none;stroke:#c8c8c8;stroke-miterlimit:10;}.cls-4{fill:#c8c8c8;}.cls-5{fill:#e59e85;}.cls-6{fill:#eea987;}.cls-7{fill:#001f8a;}.cls-8{fill:#262626;}.cls-9{fill:#e81f38;}.cls-10{fill:#6678b9;}.cls-11{fill:#334ba1;}.cls-12,.cls-13{fill:#99a5d0;}.cls-13{opacity:0.95;}.cls-14{fill:url(#linear-gradient);}.cls-15{fill:#fff;}.cls-16{fill:#eea886;}.cls-17{fill:#eb4747;}.cls-18{fill:#393d63;}.cls-19{fill:#ed4b60;}.cls-20{fill:#a77860;}.cls-21{fill:#f9fafa;}.cls-22{opacity:0.45;}.cls-23{fill:url(#linear-gradient-2);}.cls-24{fill:url(#linear-gradient-3);}.cls-25{fill:url(#linear-gradient-4);}.cls-26{fill:url(#linear-gradient-5);}.cls-27{fill:url(#linear-gradient-6);}.cls-28{fill:url(#linear-gradient-7);}.cls-29{fill:#ececec;}</style><linearGradient id="linear-gradient" x1="288.83" y1="250.73" x2="288.83" y2="155.72" gradientUnits="userSpaceOnUse"><stop offset="0" stop-color="#02195b"></stop><stop offset="0.21" stop-color="#071e62"></stop><stop offset="0.53" stop-color="#152d77"></stop><stop offset="0.91" stop-color="#2c4498"></stop><stop offset="1" stop-color="#334ba1"></stop></linearGradient><linearGradient id="linear-gradient-2" x1="179.19" y1="135.06" x2="200.75" y2="135.06" gradientUnits="userSpaceOnUse"><stop offset="0" stop-color="#6678b9"></stop><stop offset="0.26" stop-color="#6d7ebc"></stop><stop offset="0.65" stop-color="#8290c5"></stop><stop offset="1" stop-color="#99a5d0"></stop></linearGradient><linearGradient id="linear-gradient-3" x1="179.19" y1="150.64" x2="200.75" y2="150.64" xlink:href="#linear-gradient-2"></linearGradient><linearGradient id="linear-gradient-4" x1="179.19" y1="166.22" x2="200.75" y2="166.22" xlink:href="#linear-gradient-2"></linearGradient><linearGradient id="linear-gradient-5" x1="209.65" y1="135.06" x2="215.78" y2="135.06" xlink:href="#linear-gradient-2"></linearGradient><linearGradient id="linear-gradient-6" x1="209.65" y1="150.64" x2="215.78" y2="150.64" xlink:href="#linear-gradient-2"></linearGradient><linearGradient id="linear-gradient-7" x1="209.65" y1="166.22" x2="215.78" y2="166.22" xlink:href="#linear-gradient-2"></linearGradient></defs><g id="Layer_2" data-name="Layer 2"><g id="Layer_1-2" data-name="Layer 1"><path class="cls-1" d="M364.36,126.66A26,26,0,1,1,338.69,96.9v25.95Z"></path><path class="cls-2" d="M369.92,117.57a25.09,25.09,0,0,1-.28,3.8L344,117.57V91.62a25.9,25.9,0,0,1,25.94,25.95Z"></path><line class="cls-3" x1="351.85" y1="137.22" x2="379.45" y2="137.22"></line><path class="cls-3" d="M381.38,139.15a1.93,1.93,0,1,1,1.94-1.93A1.93,1.93,0,0,1,381.38,139.15Z"></path><rect class="cls-4" x="388.4" y="135.77" width="21.43" height="0.97"></rect><rect class="cls-4" x="388.4" y="137.7" width="12.13" height="0.97"></rect><path class="cls-1" d="M130.18,401.93H1.65c-.91,0-1.65-1.2-1.65-2.69H0c0-1.48.74-2.69,1.65-2.69H130.18c.91,0,1.65,1.21,1.65,2.69h0C131.83,400.73,131.09,401.93,130.18,401.93Z"></path><path class="cls-1" d="M131.18,421.2H2.65C1.74,421.2,1,420,1,418.51H1c0-1.49.74-2.69,1.65-2.69H131.18c.91,0,1.65,1.2,1.65,2.69h0C132.83,420,132.09,421.2,131.18,421.2Z"></path><path class="cls-1" d="M212.75,440.46H2.69A2.68,2.68,0,0,1,0,437.77H0a2.68,2.68,0,0,1,2.69-2.69H212.75a2.68,2.68,0,0,1,2.69,2.69h0A2.68,2.68,0,0,1,212.75,440.46Z"></path><path class="cls-1" d="M285.88,28.93h-143c-1,0-1.83-1.2-1.83-2.69h0c0-1.48.82-2.69,1.83-2.69h143c1,0,1.84,1.21,1.84,2.69h0C287.72,27.73,286.9,28.93,285.88,28.93Z"></path><path class="cls-1" d="M287,48.2H143.94c-1,0-1.83-1.21-1.83-2.69h0c0-1.49.82-2.69,1.83-2.69H287c1,0,1.83,1.2,1.83,2.69h0C288.83,47,288,48.2,287,48.2Z"></path><path class="cls-1" d="M238.63,67.46h-96.4c-.68,0-1.23-1.2-1.23-2.69h0c0-1.49.55-2.69,1.23-2.69h96.4c.68,0,1.23,1.2,1.23,2.69h0C239.86,66.26,239.31,67.46,238.63,67.46Z"></path><rect class="cls-1" y="454.34" width="215.44" height="5.38" rx="2.56"></rect><path class="cls-1" d="M466.39,460.52a6.35,6.35,0,0,1,6.49,5.7,34.42,34.42,0,0,0,13.45-5.77,6.35,6.35,0,0,1,8.83-9.13,34.62,34.62,0,0,0,5.39-13.82,6.36,6.36,0,0,1-.35-12.71,34.46,34.46,0,0,0-6.12-13.5,6.35,6.35,0,0,1-9.31-8.64,34.75,34.75,0,0,0-13.74-5,6.36,6.36,0,0,1-12.65.54,34.54,34.54,0,0,0-13,6.06,6.35,6.35,0,0,1-8.55,9.2,34.57,34.57,0,0,0-5,13.34,6.35,6.35,0,0,1,.33,12.5,34.79,34.79,0,0,0,5.72,13.05,6.35,6.35,0,0,1,9,8.72,34.64,34.64,0,0,0,13.36,5.35A6.35,6.35,0,0,1,466.39,460.52Zm20.59-29A20.74,20.74,0,0,1,482.49,445l-7.08-6.71a11.07,11.07,0,0,0-.35-12.93l6.71-7.07A20.66,20.66,0,0,1,487,431.51Zm-20.65,6.39a5.83,5.83,0,1,1,5.67-6A5.83,5.83,0,0,1,466.33,437.9Zm-.72-26.63a20.72,20.72,0,0,1,13.49,4.49l-6.71,7.07a11.11,11.11,0,0,0-12.93.35l-7.07-6.7A20.66,20.66,0,0,1,465.61,411.27Zm-20.24,21.37a20.72,20.72,0,0,1,4.49-13.49l7.07,6.71a11.11,11.11,0,0,0-1.9,6.52,11,11,0,0,0,2.26,6.4l-6.71,7.08A20.66,20.66,0,0,1,445.37,432.64Zm7.88,15.75,6.7-7.08a11.11,11.11,0,0,0,12.93-.35l7.08,6.7a20.8,20.8,0,0,1-26.71.73Z"></path><path class="cls-5" d="M83.3,163.3s-.56,9.07-7.57,9.07-9.67-8.79-9.67-8.79L67.88,151H81.06Z"></path><path class="cls-6" d="M89.66,139.76s1.14-4.45,3.28-3.58c2.9,1.2.14,9.15-1.12,10s-1.86.45-1.86.45"></path><path class="cls-6" d="M59.63,139.76s-1.14-4.45-3.27-3.58c-2.91,1.2-.15,9.15,1.11,10s1.87.45,1.87.45"></path><path class="cls-6" d="M90.43,145.1c0,6.37-8.12,13.56-12.4,16.84-.85.64-6.51.72-7.71-.39-5.12-4.74-10.44-9.67-10.88-16.45a96,96,0,0,1,0-14.79c.88-10.07,10.34-13.56,15.71-13.56,5.75,0,15.19,6,15.54,15.82C90.87,137.7,90.43,140.8,90.43,145.1Z"></path><path class="cls-7" d="M102.46,190.5l-53.25-.11s-4-15.92-4-18.57.48-3.87,3.19-5.36,16.39-6,16.39-6l10.45,9.87,9.28-9.87s15.75,4.51,18.06,6,3.08,3,3.27,5.88S102.46,190.5,102.46,190.5Z"></path><path class="cls-8" d="M92.62,121.79c-2.27-4.34-8.41-8.13-17-8.13s-16.44,3.55-18.72,7.92c-1.93,3.71-1.76,15.85-1.76,15.85s1.83-3,3.58.21a67.41,67.41,0,0,1,.7,6.73l1.41,1.19s-.87-6.4.63-7.15,1.56-2.62,1.75-3.37-1-5.9,2-7.22c1.32-.59,5.52,1.85,9.61,1.9S83,127.43,84.35,128c2.94,1.32,1.77,6.48,2,7.22s.26,2.62,1.75,3.37.64,7.15.64,7.15l1.4-1.19a67.41,67.41,0,0,1,.7-6.73c1.75-3.23,3.57-.21,3.57-.21S94.55,125.5,92.62,121.79Z"></path><path class="cls-9" d="M76.87,174.49a3,3,0,0,1-2.87.07c-.61-.48-1.46-3.18-.93-3.8.28-.33,1.36.07,2.42.1s1.86-.37,2.12,0C78.16,171.56,77.32,174,76.87,174.49Z"></path><polygon class="cls-9" points="78.41 190.24 76.85 174.25 74.1 174.2 72.5 190.24 78.41 190.24"></polygon><path class="cls-10" d="M24.45,200.59,35.8,209l6.35-7a66,66,0,0,0,9.55,4.62l-1.6,9.48,13.76,3.33,3.1-8.91a66.1,66.1,0,0,0,9.43.53l2.07,9.4,14-2.06L92,209a66.27,66.27,0,0,0,9.25-3.14l5.48,7.9,12.17-7.22-4-8.54a65.74,65.74,0,0,0,7.71-6.79l8.11,5.18L139.16,185l-7-6.34a64.75,64.75,0,0,0,4.07-8.17l9.44,1.81,3.64-13.67-8.84-3.31a65.34,65.34,0,0,0,.74-10.9l9.4-2.07-2.06-14-9.43.46a68,68,0,0,0-2.79-8.42l8-5.36-7-12.27-8.59,3.88a64.87,64.87,0,0,0-8.51-9.55L125,89l-11.35-8.44-6.31,7.27a65.86,65.86,0,0,0-9.62-4.39l1.32-9.34L85.33,70.79l-3,9.16a65.64,65.64,0,0,0-9.4-.31l-2.28-9.17-14,2.06.69,9.6a65.59,65.59,0,0,0-9.15,3.36l-5.57-7.61L30.49,85.09l4.26,8.62a64.63,64.63,0,0,0-7.51,7l-8.09-4.87-8.44,11.35L18,113.45a65.13,65.13,0,0,0-3.85,8.22l-9.32-1.53L1.16,133.81,10.25,137a66,66,0,0,0-.47,10.88L.6,150.13l2.06,14,9.61-.68a65.23,65.23,0,0,0,3,8.3l-7.7,5.48,7,12.27,8.68-4.15a66.5,66.5,0,0,0,6.35,7.13ZM41.92,120.4a41.82,41.82,0,1,1,8.61,58.51A41.81,41.81,0,0,1,41.92,120.4Z"></path><path class="cls-11" d="M366.17,58.85l.1-.66,1.09.08v.67a1.54,1.54,0,0,0,3.07,0v-.67c.54,0,1.08-.08,1.62-.14l.11.66a1.53,1.53,0,1,0,3-.51l-.11-.66c.44-.1.87-.2,1.29-.32l.21.63a1.54,1.54,0,0,0,2.92-1l-.22-.63c.47-.18.93-.38,1.38-.59l.31.59a1.53,1.53,0,1,0,2.71-1.44l-.31-.59c.44-.26.88-.54,1.31-.83l.4.53a1.54,1.54,0,0,0,2.15.29,1.52,1.52,0,0,0,.29-2.15l-.41-.54.53-.45.47.47a1.53,1.53,0,0,0,2.17-2.17L389.8,49c.18-.21.36-.41.53-.62l.54.4a1.52,1.52,0,0,0,2.15-.3,1.54,1.54,0,0,0-.3-2.15l-.53-.4c.25-.36.49-.74.71-1.11l.59.31a1.53,1.53,0,0,0,1.44-2.71l-.58-.32c.2-.44.41-.91.59-1.37l.63.21a1.53,1.53,0,1,0,1-2.9l-.63-.22c.14-.49.26-1,.37-1.5l.66.11a1.54,1.54,0,0,0,.5-3l-.66-.11q.07-.73.12-1.5h.67a1.53,1.53,0,1,0,0-3.06h-.67c0-.33-.05-.65-.07-1l.66-.09a1.54,1.54,0,1,0-.44-3l-.66.1c-.09-.44-.18-.87-.29-1.3l.63-.2a1.53,1.53,0,0,0-.91-2.93l-.63.2c-.17-.47-.36-.93-.56-1.39l.59-.3A1.53,1.53,0,1,0,393.87,16l-.6.3c-.25-.45-.52-.9-.8-1.33l.54-.39a1.54,1.54,0,1,0-1.81-2.48l-.54.39c-.28-.35-.57-.69-.87-1l.47-.47a1.53,1.53,0,0,0-2.17-2.17l-.47.47c-.31-.27-.61-.53-.93-.79l.39-.54a1.53,1.53,0,0,0-2.47-1.82l-.4.54c-.37-.24-.74-.47-1.13-.69l.31-.6A1.53,1.53,0,1,0,380.66,4l-.3.59c-.46-.21-.92-.4-1.39-.58l.21-.63a1.54,1.54,0,0,0-2.92-.95l-.21.64c-.49-.14-1-.26-1.51-.36l.1-.66a1.54,1.54,0,0,0-3-.45l-.09.66-1.09-.08V1.53a1.53,1.53,0,1,0-3.06,0V2.2c-.55,0-1.09.08-1.62.14l-.12-.66a1.53,1.53,0,1,0-3,.51l.11.66c-.43.1-.86.2-1.29.32l-.21-.63a1.54,1.54,0,0,0-2.91,1l.21.63c-.46.19-.92.38-1.38.59l-.31-.59a1.53,1.53,0,1,0-2.71,1.44l.31.59c-.44.26-.88.54-1.31.83l-.4-.53a1.54,1.54,0,1,0-2.44,1.87l.41.53-.52.45-.48-.47A1.53,1.53,0,0,0,347.5,11l.48.47-.54.62-.54-.4a1.53,1.53,0,0,0-1.84,2.45l.53.4c-.25.36-.49.74-.72,1.12l-.58-.32a1.55,1.55,0,0,0-2.08.64,1.52,1.52,0,0,0,.63,2.07l.59.32c-.21.45-.41.91-.6,1.37l-.63-.21a1.53,1.53,0,0,0-1,2.9l.64.22c-.14.49-.27,1-.38,1.5l-.66-.11a1.53,1.53,0,0,0-.49,3l.65.11c-.05.5-.09,1-.12,1.5h-.67a1.54,1.54,0,0,0,0,3.07h.67c0,.32,0,.64.08,1l-.67.09a1.54,1.54,0,1,0,.44,3l.66-.09c.09.43.18.86.29,1.29l-.63.2a1.53,1.53,0,1,0,.91,2.93l.63-.2c.17.47.36.94.56,1.39l-.59.3a1.53,1.53,0,1,0,1.37,2.74l.6-.29c.26.44.52.89.81,1.32l-.55.39a1.54,1.54,0,0,0,1.81,2.49l.54-.4c.28.35.57.69.87,1l-.47.47a1.53,1.53,0,0,0,2.17,2.17l.48-.47.92.8-.39.53a1.53,1.53,0,1,0,2.47,1.82l.4-.54c.37.24.75.47,1.13.69l-.31.6a1.54,1.54,0,0,0,2.73,1.41l.31-.6c.45.21.91.4,1.38.58l-.21.63a1.54,1.54,0,1,0,2.92,1l.21-.63c.5.13,1,.25,1.51.35l-.1.65a1.54,1.54,0,0,0,3,.46Zm27.42-28.62a24.66,24.66,0,0,1-6.18,16.35l-7.87-7.86a13.61,13.61,0,0,0,0-17l7.86-7.86A24.57,24.57,0,0,1,393.59,30.23Zm-24.7,5.16A5.16,5.16,0,1,1,374,30.24,5.16,5.16,0,0,1,368.89,35.39ZM352.54,11.72a24.67,24.67,0,0,1,32.69,0l-7.86,7.86a13.61,13.61,0,0,0-17,0Zm-8.36,18.52a24.62,24.62,0,0,1,6.19-16.35l7.86,7.86a13.61,13.61,0,0,0,0,17l-7.86,7.87A24.62,24.62,0,0,1,344.18,30.24Zm8.37,18.52,7.85-7.87a13.61,13.61,0,0,0,17,0l7.87,7.86a24.69,24.69,0,0,1-32.69,0Z"></path><path class="cls-12" d="M211,340.4a4.16,4.16,0,0,1-.52-5.63,22.85,22.85,0,0,0-9-3.31,4.15,4.15,0,0,1-8.29.36,22.79,22.79,0,0,0-8.78,4.14,4.16,4.16,0,0,1-5.55,6.19,22.73,22.73,0,0,0-3.17,9.17,4.16,4.16,0,0,1,.54,8.29,22.56,22.56,0,0,0,4.26,8.57,4.16,4.16,0,0,1,6.25,5.44,22.67,22.67,0,0,0,8.92,3,4.15,4.15,0,0,1,8.19-.53,22.7,22.7,0,0,0,8.38-4.08,4.15,4.15,0,0,1,5.46-6.09,22.55,22.55,0,0,0,3.15-8.77,4.15,4.15,0,0,1-.36-8.2,22.57,22.57,0,0,0-3.94-8.55A4.15,4.15,0,0,1,211,340.4Zm-22.83,4.51a13.58,13.58,0,0,1,8.2-4.38l.35,6.36a7.32,7.32,0,0,0-3.84,2.24,7.21,7.21,0,0,0-1.81,4.06l-6.37.35A13.55,13.55,0,0,1,188.19,344.91Zm12.68,6.25a3.81,3.81,0,1,1-5.39.3A3.81,3.81,0,0,1,200.87,351.16Zm-11.64,13a13.56,13.56,0,0,1-4.38-8.2l6.37-.35a7.25,7.25,0,0,0,6.29,5.65l.34,6.37A13.6,13.6,0,0,1,189.23,364.14Zm19.23-1a13.64,13.64,0,0,1-8.2,4.38l-.35-6.37a7.25,7.25,0,0,0,5.65-6.29l6.37-.35A13.62,13.62,0,0,1,208.46,363.1Zm3.34-11-6.37.34a7.26,7.26,0,0,0-6.29-5.64l-.35-6.37a13.6,13.6,0,0,1,13,11.67Z"></path><path class="cls-11" d="M194.61,389.48l-.72.35c-.21-.38-.42-.76-.65-1.13l.66-.45a1.83,1.83,0,0,0-2.06-3l-.66.45c-.39-.51-.8-1-1.22-1.5l.58-.55A1.82,1.82,0,1,0,188,381l-.58.55q-.57-.54-1.17-1.05l.48-.63a1.83,1.83,0,0,0-2.92-2.21l-.47.63c-.5-.33-1-.65-1.51-1l.38-.71a1.83,1.83,0,0,0-3.23-1.7l-.37.7c-.56-.26-1.13-.5-1.7-.73l.25-.75A1.83,1.83,0,0,0,173.7,373l-.25.76-.79-.21.14-.78a1.82,1.82,0,1,0-3.58-.68l-.15.78-1-.11,0-.8a1.82,1.82,0,0,0-3.64-.18l0,.79c-.53,0-1.06,0-1.58.05l-.09-.79a1.83,1.83,0,1,0-3.63.4l.09.78c-.59.1-1.17.21-1.75.34l-.21-.76a1.83,1.83,0,0,0-3.52,1l.21.77c-.58.19-1.15.4-1.73.63l-.33-.72a1.83,1.83,0,0,0-3.32,1.55l.34.71c-.52.28-1,.58-1.55.89l-.45-.66a1.83,1.83,0,0,0-3,2l.45.66-.9.72-.54-.58a1.82,1.82,0,1,0-2.69,2.46l.53.58c-.37.38-.73.77-1.08,1.16l-.61-.49a1.83,1.83,0,1,0-2.27,2.86l.61.49c-.34.48-.67,1-1,1.48l-.69-.39a1.83,1.83,0,0,0-1.78,3.19l.7.39c-.28.55-.53,1.11-.77,1.68l-.75-.27a1.83,1.83,0,0,0-1.23,3.44l.75.27c-.15.51-.3,1-.42,1.54l-.78-.15a1.83,1.83,0,0,0-.68,3.59l.78.15c-.06.48-.12,1-.16,1.44l-.8,0a1.83,1.83,0,0,0-1.88,1.77,1.81,1.81,0,0,0,1.76,1.88l.79,0c0,.53,0,1.05.07,1.58l-.79.1A1.82,1.82,0,1,0,131,412l.79-.1c.1.59.22,1.17.36,1.75l-.77.22a1.83,1.83,0,0,0,1,3.51l.76-.23c.21.58.42,1.16.66,1.73l-.71.34a1.82,1.82,0,0,0-.85,2.43,1.84,1.84,0,0,0,2.44.86l.72-.35c.21.38.42.76.65,1.13l-.66.45a1.82,1.82,0,1,0,2.05,3l.66-.45c.4.52.8,1,1.22,1.5l-.57.56a1.82,1.82,0,0,0,2.53,2.63l.57-.55c.38.36.78.71,1.18,1.05l-.48.63a1.83,1.83,0,0,0,2.91,2.21l.48-.63c.49.33,1,.65,1.5,1l-.37.7a1.83,1.83,0,0,0,3.23,1.71l.37-.7c.56.26,1.13.5,1.7.72l-.25.75a1.82,1.82,0,1,0,3.46,1.16l.26-.76.79.21-.15.78a1.83,1.83,0,0,0,3.59.68l.15-.78,1,.11,0,.8a1.83,1.83,0,0,0,3.65.17l0-.78c.52,0,1,0,1.58-.05l.08.78a1.83,1.83,0,1,0,3.63-.39l-.08-.79c.59-.09,1.17-.21,1.75-.33l.21.76a1.83,1.83,0,0,0,3.52-1l-.21-.76c.58-.2,1.16-.41,1.73-.64l.33.72a1.83,1.83,0,1,0,3.31-1.54l-.33-.72c.52-.28,1-.57,1.55-.88l.45.66a1.82,1.82,0,1,0,3-2.06l-.45-.66c.31-.23.61-.47.91-.72l.54.59a1.83,1.83,0,1,0,2.69-2.47l-.53-.58c.37-.38.72-.76,1.07-1.15l.62.49a1.83,1.83,0,0,0,2.27-2.86l-.61-.49c.34-.48.67-1,1-1.48l.69.38a1.82,1.82,0,1,0,1.78-3.18l-.7-.39c.27-.56.53-1.12.76-1.68l.75.27a1.83,1.83,0,0,0,1.24-3.44l-.75-.27c.15-.51.29-1,.42-1.54l.78.14a1.82,1.82,0,0,0,.68-3.58l-.78-.15c.06-.48.12-1,.16-1.45l.79,0a1.83,1.83,0,1,0,.13-3.65l-.8,0c0-.53,0-1.06-.07-1.58l.79-.1a1.82,1.82,0,1,0-.44-3.62l-.79.09q-.15-.87-.36-1.74l.76-.23a1.82,1.82,0,1,0-1-3.5l-.75.22c-.21-.58-.43-1.15-.66-1.72l.7-.34a1.82,1.82,0,1,0-1.58-3.29Zm-46.5-7.79a29.28,29.28,0,0,1,20.21-4.87l-2.46,13a16.2,16.2,0,0,0-16.68,11.37l-13-2.46A29.26,29.26,0,0,1,148.11,381.69Zm21.62,20.82a6.14,6.14,0,1,1-8.52-1.61A6.15,6.15,0,0,1,169.73,402.51Zm-12.32,31.93a29.36,29.36,0,0,1-21.9-32.13l13,2.46a16.19,16.19,0,0,0,11.37,16.68Zm23.8-4.19A29.3,29.3,0,0,1,161,435.12l2.46-13a16.2,16.2,0,0,0,16.68-11.37l13,2.46A29.24,29.24,0,0,1,181.21,430.25Zm12.6-20.62-13-2.46a16.2,16.2,0,0,0-11.37-16.68l2.46-13a29.36,29.36,0,0,1,21.9,32.13Z"></path><path class="cls-7" d="M70.78,189.23H209.18a10,10,0,0,1,10,10V337.58a10,10,0,0,1-10,10H70.78a10,10,0,0,1-10-10V199.18A10,10,0,0,1,70.78,189.23Z"></path><rect class="cls-12" x="103.34" y="311.49" width="73.29" height="3.62"></rect><rect class="cls-12" x="113.72" y="322.9" width="52.53" height="3.62"></rect><rect class="cls-11" x="241.17" y="245.13" width="216.66" height="254.3" rx="13.02"></rect><rect class="cls-12" x="339.41" y="395.16" width="17.18" height="3.18"></rect><rect class="cls-12" x="274.17" y="424.32" width="99.99" height="6.16"></rect><rect class="cls-12" x="274.17" y="453.9" width="80.86" height="6.16"></rect><rect class="cls-12" x="274.17" y="439.11" width="47.4" height="6.16"></rect><path class="cls-12" d="M400.32,270.49v3.11h18.32v17.2h3.11V270.49ZM275.89,290.8H279V273.6h18.33v-3.11H275.89Zm142.75,88.73v17.21H400.32v3.11h21.43V379.53Zm-139.64,0h-3.11v20.32h21.44v-3.11H279Z"></path><path class="cls-12" d="M412.05,460.51a18.33,18.33,0,1,1,18.33-18.32A18.34,18.34,0,0,1,412.05,460.51Zm0-33.1a14.78,14.78,0,1,0,14.78,14.78A14.8,14.8,0,0,0,412.05,427.41Z"></path><polygon class="cls-12" points="410.88 449.4 402.56 441.08 405.07 438.57 410.88 444.39 419.04 436.23 421.55 438.74 410.88 449.4"></polygon><rect class="cls-13" x="86.63" y="206.15" width="106.7" height="91.55"></rect><rect class="cls-14" x="230.68" y="130.61" width="116.31" height="104.75" rx="9.15"></rect><rect class="cls-15" x="283.78" y="215.54" width="9.22" height="1.71"></rect><path class="cls-8" d="M296.73,121.43s7.44,4.08,5.08,14.12-3.26,11.36-1.34,15.41,3.6,21,1.56,24.16S279.25,160,277,145.34s2.88-20.83,4.72-23.14S290.18,117.71,296.73,121.43Z"></path><path class="cls-16" d="M310.69,204.37h-8c-.38-3.92-.74-6.65-.66-7.06.11-.66-7.92-21.74-8.67-23.48s-3.7-6.42-4.09-10.82,5.35-6.18,5.35-6.18c7.75,1.39,10.38,12.11,10.38,12.11s3.25,21.73,4.89,27.85A38.09,38.09,0,0,1,310.69,204.37Z"></path><path class="cls-17" d="M306.68,174.17l-11.84,5s-10.9-27-1.77-24S306.27,163.82,306.68,174.17Z"></path><path class="cls-9" d="M304.05,186.9c-.35,2.68-1.77,12.18-1.45,14.75,0,.42.23,1.4.49,2.72H274.52c.76-2.71,1.45-5.11,1.87-6.51,1.39-4.6.06-5.83-.64-9.51a74.85,74.85,0,0,0-2.28-7.27c-.35-1-.71-2.11-1.06-3.19a66.66,66.66,0,0,1-2.2-10.2c-1.72-11,6.73-12.05,6.73-12.05,3.14-.58,8.63-2.27,8.63-2.27l8.6,1.79a9.29,9.29,0,0,1,2,1.18h0a15.7,15.7,0,0,1,1.94,1.69,52.22,52.22,0,0,1,4.67,6.76c.57.93,1.15,1.89,1.69,2.83,1.74,3,3,5.46,2.95,8.21S304.39,184.21,304.05,186.9Z"></path><path class="cls-16" d="M294.17,155.16s5.38,9.2,3.38,9.89-12.56-1.64-16.68-10.33C280.87,154.72,287.8,151.57,294.17,155.16Z"></path><path class="cls-16" d="M293.4,159.36s-4.79,2-9.12-4.64c0,0,1.17-7.56-1.3-11.94S293.74,148,293.74,148s-.21.9-.44,2.23c-.11.68-.23,1.47-.31,2.32-.08.7-.14,1.43-.16,2.17A11.58,11.58,0,0,0,293.4,159.36Z"></path><path class="cls-18" d="M281.52,169.67c-1,5.06-8,11.41-8,11.41-.35-1-.71-2.11-1.06-3.19A46.14,46.14,0,0,0,281.52,169.67Z"></path><path class="cls-16" d="M279.75,173.7c-.45,1.84-2.51,20.54-2.29,21.18.13.36,1.13,4.69,2.13,9.49h-9.22c-.95-3.09-1.51-5.66-1.37-7.12.59-6.31-1.55-26.41-1.55-26.41s-1.91-12.16,8.18-13.68c0,0,6,.79,6.32,5.19S280.2,171.86,279.75,173.7Z"></path><path class="cls-19" d="M266.71,176.28l12.52,2.93s9.93-19.29,1-22.81C270.79,152.69,264.45,165.76,266.71,176.28Z"></path><path class="cls-6" d="M295.58,122.5s10.88,4,4,22.78-21-3.21-18.85-14.75S295.58,122.5,295.58,122.5Z"></path><path class="cls-8" d="M301.23,133.92a24.93,24.93,0,0,1-15,5.37s-2.15,5.25-2.5,6.86c0,0-9.11-15.64,1.36-23.54S305.1,130.64,301.23,133.92Z"></path><path class="cls-6" d="M287.51,140.41c0-1.39-.71-4.59-2.81-3.8s-.22,7.32,1.17,7C285.87,143.6,287.53,143.7,287.51,140.41Z"></path><path class="cls-20" d="M292.84,154.43a11.58,11.58,0,0,1-7.15-6.46c4.16,5.38,7.3,4.61,7.3,4.61C292.91,153.28,292.91,153.71,292.84,154.43Z"></path><path class="cls-15" d="M316.48,149.56v1.67h9.83v9.23H328v-10.9Zm-66.8,10.9h1.67v-9.23h9.84v-1.67H249.68Zm76.63,47.64v9.23h-9.83V219H328V208.1Zm-75,0h-1.67V219h11.51v-1.67h-9.84Z"></path><rect class="cls-15" x="133.82" y="293.8" width="12.32" height="2.28"></rect><path class="cls-21" d="M176.91,205.67v2.23H190v12.33h2.23V205.67ZM87.69,220.23h2.23V207.9h13.14v-2.23H87.69ZM190,283.86v12.33H176.91v2.24h15.36V283.86Zm-100.12,0H87.69v14.57h15.37v-2.24H89.92Z"></path><g class="cls-22"><rect class="cls-23" x="179.19" y="131.82" width="21.56" height="6.5" rx="1.17"></rect></g><g class="cls-22"><rect class="cls-24" x="179.19" y="147.39" width="21.56" height="6.5" rx="1.17"></rect></g><g class="cls-22"><rect class="cls-25" x="179.19" y="162.97" width="21.56" height="6.5" rx="1.17"></rect></g><g class="cls-22"><rect class="cls-26" x="209.65" y="131.82" width="6.13" height="6.5" rx="1.17"></rect></g><g class="cls-22"><rect class="cls-27" x="209.65" y="147.39" width="6.13" height="6.5" rx="1.17"></rect></g><g class="cls-22"><rect class="cls-28" x="209.65" y="162.97" width="6.13" height="6.5" rx="1.17"></rect></g><rect class="cls-10" x="285.67" y="281.47" width="127.16" height="108"></rect><path class="cls-29" d="M348.91,305.37A49.92,49.92,0,0,0,299,355.3h28.46a21.47,21.47,0,1,1,42.94,0h28.45A49.92,49.92,0,0,0,348.91,305.37Z"></path><path class="cls-9" d="M337.54,306.69A49.92,49.92,0,0,0,299,355.3h28.46A21.48,21.48,0,0,1,344,334.38Z"></path><polygon class="cls-7" points="347.93 355.52 337.58 306.68 349.88 355.07 347.93 355.52 347.93 355.52"></polygon><path class="cls-29" d="M358.86,355.3a10,10,0,1,1-9.95-10A10,10,0,0,1,358.86,355.3Z"></path><rect class="cls-29" x="100.5" y="237.17" width="14.63" height="40.74"></rect><rect class="cls-7" x="100.5" y="259.36" width="14.63" height="18.54"></rect><rect class="cls-29" x="121.2" y="237.17" width="14.63" height="40.74"></rect><rect class="cls-9" x="121.2" y="248.31" width="14.63" height="29.6"></rect><rect class="cls-29" x="142.5" y="224.47" width="14.63" height="53.43"></rect><rect class="cls-7" x="142.5" y="253.59" width="14.63" height="24.32"></rect><rect class="cls-29" x="163.2" y="224.47" width="14.63" height="53.43"></rect><rect class="cls-9" x="163.2" y="239.08" width="14.63" height="38.82"></rect><path class="cls-29" d="M476.52,51.58c-13.15,1.09-26.77,2.05-40,2.31l-2.25,0c-.19-5.85-.21-13.36-.25-19.26V32.17h2.51c13.34,0,26.68.31,40,1.11l1.44.09c-.2,5.6-1,12.61-1.44,18.2Zm0,0c-.42-5.8-1-11.3-1.39-16.9l1.39,1.38c-13.32.8-26.66,1.1-40,1.11l2.5-2.49c0,5-.08,12-.19,16.9l-2.31-2.31c13.08.28,26.85,1.36,40,2.31Z"></path><path class="cls-29" d="M498.83,76.89c-13.15,1.09-26.77,2-40,2.31l-2.25,0c-.19-5.85-.2-13.36-.25-19.26V57.48h2.51c13.34,0,26.68.31,40,1.11l1.45.09c-.21,5.61-1,12.61-1.45,18.2Zm0,0c-.42-5.79-1.05-11.3-1.39-16.9l1.39,1.38c-13.32.81-26.66,1.1-40,1.12l2.5-2.5c0,5-.08,12-.19,16.9l-2.31-2.31c13.08.28,26.85,1.36,40,2.31Z"></path><path class="cls-29" d="M453.33,228.83c-14.94,1.08-30.42,2.06-45.42,2.31l-2.26.05c-.19-6.51-.2-15-.24-21.55v-2.5h2.51c15.14,0,30.29.31,45.42,1.11l1.44.08c-.2,6.28-1,14.23-1.44,20.5Zm0,0c-.42-6.55-1.05-12.82-1.39-19.19l1.39,1.38c-15.13.81-30.28,1.11-45.42,1.12l2.5-2.5c0,5.66-.09,13.61-.19,19.19l-2.31-2.31c14.86.28,30.48,1.36,45.42,2.31Z"></path></g></g></svg>