<svg xmlns="http://www.w3.org/2000/svg" xmlns:xlink="http://www.w3.org/1999/xlink" viewBox="0 0 499.23 499.75"><defs><style>.cls-1{fill:#ececec;}.cls-1,.cls-2,.cls-3{fill-rule:evenodd;}.cls-2{fill:#f0f0f0;}.cls-3{fill:#e1e1e1;}.cls-4,.cls-6{fill:#6678b9;}.cls-5{fill:url(#linear-gradient);}.cls-6{opacity:0.24;}.cls-7{fill:#99a5d0;}.cls-8{fill:#334ba1;}.cls-9{fill:#001f8a;}.cls-10{fill:#e81f38;}.cls-11{fill:url(#linear-gradient-2);}.cls-12{opacity:0.45;fill:url(#linear-gradient-3);}.cls-13{fill:url(#linear-gradient-4);}</style><linearGradient id="linear-gradient" x1="61.03" y1="485.63" x2="225.97" y2="174.65" gradientUnits="userSpaceOnUse"><stop offset="0" stop-color="#02195b"></stop><stop offset="0.21" stop-color="#071e62"></stop><stop offset="0.53" stop-color="#152d77"></stop><stop offset="0.91" stop-color="#2c4498"></stop><stop offset="1" stop-color="#334ba1"></stop></linearGradient><linearGradient id="linear-gradient-2" x1="273.41" y1="244.31" x2="310.68" y2="244.31" xlink:href="#linear-gradient"></linearGradient><linearGradient id="linear-gradient-3" x1="235.24" y1="183.92" x2="314.57" y2="183.92" gradientTransform="matrix(-1.87, 0, 0, 1, 938.09, 0)" gradientUnits="userSpaceOnUse"><stop offset="0" stop-color="#6678b9"></stop><stop offset="0.26" stop-color="#6d7ebc"></stop><stop offset="0.65" stop-color="#8290c5"></stop><stop offset="1" stop-color="#99a5d0"></stop></linearGradient><linearGradient id="linear-gradient-4" x1="300.13" y1="183.92" x2="331.23" y2="183.92" gradientTransform="matrix(-1, 0, 0, 1, 668.47, 0)" xlink:href="#linear-gradient"></linearGradient></defs><g id="Layer_2" data-name="Layer 2"><g id="Layer_1-2" data-name="Layer 1"><path class="cls-1" d="M486,72.08a18.38,18.38,0,0,1,3.53,3.46l4.52-.82,3,7-3.72,2.69a18.63,18.63,0,0,1,0,5L497.18,92l-2.83,7-4.53-.72a18.43,18.43,0,0,1-3.47,3.53l.83,4.51-7,3-2.69-3.71a18.63,18.63,0,0,1-4.95,0L470,109.4l-7-2.83.72-4.53a18.67,18.67,0,0,1-3.53-3.46l-4.52.83-3-7,3.72-2.69a18.56,18.56,0,0,1-.05-4.94l-3.77-2.61,2.83-7.05,4.52.73a18.73,18.73,0,0,1,3.47-3.53l-.83-4.52,7-3,2.68,3.72a18.22,18.22,0,0,1,4.95,0l2.61-3.78,7,2.83L486,72.08Zm-7.85,7.56a8.14,8.14,0,1,0,4.52,10.59A8.13,8.13,0,0,0,478.19,79.64Z"></path><path class="cls-1" d="M67.37,132.52a33.56,33.56,0,0,1,6.39,6.26l8.16-1.49,5.38,12.62-6.72,4.86a33.49,33.49,0,0,1,.1,8.95l6.82,4.71-5.11,12.73-8.19-1.31a33.26,33.26,0,0,1-6.26,6.39l1.49,8.16-12.62,5.38L52,193.06a33.42,33.42,0,0,1-8.94.1L38.29,200l-12.73-5.11,1.31-8.19a33.56,33.56,0,0,1-6.39-6.26l-8.16,1.49L6.94,169.29l6.72-4.86a33.49,33.49,0,0,1-.1-9l-6.82-4.71L11.86,138,20,139.35A33.86,33.86,0,0,1,26.3,133l-1.49-8.16,12.62-5.38,4.86,6.72a33.49,33.49,0,0,1,9-.1L56,119.22l12.73,5.11-1.31,8.19ZM53.19,146.17a14.72,14.72,0,1,0,8.17,19.15A14.72,14.72,0,0,0,53.19,146.17Z"></path><path class="cls-2" d="M33.88,68.64a18.44,18.44,0,0,1,3.54,3.46l4.51-.83,3,7L41.19,81a18.62,18.62,0,0,1,.06,5L45,88.5l-2.83,7-4.53-.73a18.73,18.73,0,0,1-3.46,3.54l.82,4.51-7,3-2.69-3.72a18.62,18.62,0,0,1-5,.06L17.8,106l-7-2.83.73-4.53a18.73,18.73,0,0,1-3.54-3.46L3.43,96l-3-7,3.72-2.69a18.63,18.63,0,0,1-.06-5L.34,78.73l2.83-7,4.53.73a18.44,18.44,0,0,1,3.46-3.54l-.82-4.51,7-3L20,65.1a19.05,19.05,0,0,1,4.95,0l2.61-3.77,7,2.83-.73,4.53ZM26,76.19a8.14,8.14,0,1,0,4.52,10.59A8.15,8.15,0,0,0,26,76.19Z"></path><path class="cls-3" d="M125.73,13.09a46,46,0,0,1,10.91,5.76l10.2-5.17,12.08,14.56-7,9.06a46.53,46.53,0,0,1,3.64,11.79l10.87,3.55L164.7,71.48,153.37,73a46.42,46.42,0,0,1-5.76,10.91l5.17,10.19-14.56,12.08-9.06-7a46.55,46.55,0,0,1-11.79,3.65l-3.55,10.87L95,111.93,93.5,100.6a46.56,46.56,0,0,1-10.9-5.77L72.4,100,60.32,85.45l7-9.07A46.48,46.48,0,0,1,63.64,64.6L52.77,61.05l1.76-18.84,11.34-1.48a46,46,0,0,1,5.76-10.91l-5.18-10.2L81,7.54l9.07,7a46.46,46.46,0,0,1,11.78-3.64L105.41,0l18.84,1.76,1.48,11.33ZM112.36,36.71a20.3,20.3,0,1,0,18.32,22.1A20.31,20.31,0,0,0,112.36,36.71Z"></path><rect class="cls-4" x="47.7" y="156.67" width="193.93" height="342.54" rx="16.25"></rect><rect class="cls-5" x="51.6" y="160.57" width="186.13" height="334.74" rx="14.56"></rect><path class="cls-6" d="M232.6,401.68V185.15a20.88,20.88,0,0,0-20.88-20.88H73.92A20.88,20.88,0,0,0,53,185.15v6.23C105.21,277.27,166.46,341.42,232.6,401.68Z"></path><rect class="cls-7" y="265.67" width="80.28" height="53.29" rx="5.12"></rect><path class="cls-4" d="M74.37,265.67H5.91A5.91,5.91,0,0,0,0,271.58v5.76H80.28v-5.76A5.92,5.92,0,0,0,74.37,265.67Z"></path><path class="cls-7" d="M25.81,272.67H9.7a1,1,0,0,1-1-1h0a1,1,0,0,1,1-1H25.81a1,1,0,0,1,1,1h0A1,1,0,0,1,25.81,272.67Z"></path><path class="cls-7" d="M38.19,272.67H31.72a1,1,0,0,1-1-1h0a1,1,0,0,1,1-1h6.47a1,1,0,0,1,1,1h0A1,1,0,0,1,38.19,272.67Z"></path><path class="cls-7" d="M50.89,272.67H44.42a1,1,0,0,1-1-1h0a1,1,0,0,1,1-1h6.47a1,1,0,0,1,1,1h0A1,1,0,0,1,50.89,272.67Z"></path><rect class="cls-4" x="192.13" y="66.99" width="145.66" height="49.27" rx="3.92"></rect><rect class="cls-7" x="197.23" y="72.12" width="39.02" height="39.02" rx="1.72" transform="translate(433.48 183.25) rotate(180)"></rect><path class="cls-8" d="M275.65,81.54h18.1a1.16,1.16,0,0,0,1.15-1.16h0a1.16,1.16,0,0,0-1.15-1.15h-18.1a1.16,1.16,0,0,0-1.15,1.15h0A1.16,1.16,0,0,0,275.65,81.54Z"></path><path class="cls-8" d="M261.77,81.54h6.91a1.15,1.15,0,0,0,1.15-1.16h0a1.15,1.15,0,0,0-1.15-1.15h-6.91a1.15,1.15,0,0,0-1.15,1.15h0A1.15,1.15,0,0,0,261.77,81.54Z"></path><path class="cls-8" d="M248.37,81.54h6.92a1.16,1.16,0,0,0,1.15-1.16h0a1.16,1.16,0,0,0-1.15-1.15h-6.92a1.15,1.15,0,0,0-1.15,1.15h0A1.15,1.15,0,0,0,248.37,81.54Z"></path><path class="cls-8" d="M248.37,86.26h16a1.15,1.15,0,0,0,1.16-1.15h0A1.15,1.15,0,0,0,264.38,84h-16a1.14,1.14,0,0,0-1.15,1.15h0A1.14,1.14,0,0,0,248.37,86.26Z"></path><path class="cls-8" d="M271.53,86.26h36.28A1.15,1.15,0,0,0,309,85.11h0A1.15,1.15,0,0,0,307.81,84H271.53a1.15,1.15,0,0,0-1.15,1.15h0A1.15,1.15,0,0,0,271.53,86.26Z"></path><rect class="cls-9" x="178.32" y="293.89" width="307.13" height="203.1" rx="14.57"></rect><path class="cls-9" d="M165.47,482H498.23a0,0,0,0,1,0,0v.52A17.25,17.25,0,0,1,481,499.75H182.73a17.25,17.25,0,0,1-17.25-17.25V482a0,0,0,0,1,0,0Z"></path><rect class="cls-4" x="186.56" y="301.96" width="289.79" height="171.52"></rect><polygon class="cls-4" points="301.61 481.98 305.73 488.55 363.84 488.55 367.67 481.98 301.61 481.98"></polygon><rect class="cls-7" x="196.22" y="313.39" width="266.8" height="160.03"></rect><path class="cls-4" d="M207.61,321.28a2.24,2.24,0,1,1-2.24-2.24A2.24,2.24,0,0,1,207.61,321.28Z"></path><path class="cls-4" d="M216.75,321.28a2.24,2.24,0,1,1-2.24-2.24A2.24,2.24,0,0,1,216.75,321.28Z"></path><path class="cls-4" d="M225.88,321.28a2.24,2.24,0,1,1-2.24-2.24A2.24,2.24,0,0,1,225.88,321.28Z"></path><path class="cls-4" d="M463,331.07c0,.14-59.73.26-133.4.26s-133.41-.12-133.41-.26,59.72-.25,133.41-.25S463,330.93,463,331.07Z"></path><rect class="cls-4" x="178.32" y="482.11" width="307.13" height="0.98"></rect><rect class="cls-4" x="218.1" y="408.82" width="58.35" height="3.9"></rect><rect class="cls-4" x="293.47" y="354.62" width="58.35" height="3.9"></rect><path class="cls-4" d="M438.62,369.16c0,.14-32.5.26-72.57.26s-72.58-.12-72.58-.26,32.49-.25,72.58-.25S438.62,369,438.62,369.16Z"></path><path class="cls-4" d="M438.62,377.69c0,.14-32.5.25-72.57.25s-72.58-.11-72.58-.25,32.49-.26,72.58-.26S438.62,377.55,438.62,377.69Z"></path><path class="cls-4" d="M438.62,386.21c0,.14-32.5.26-72.57.26s-72.58-.12-72.58-.26S326,386,366.05,386,438.62,386.07,438.62,386.21Z"></path><path class="cls-4" d="M438.62,394.74c0,.14-32.5.25-72.57.25s-72.58-.11-72.58-.25,32.49-.26,72.58-.26S438.62,394.59,438.62,394.74Z"></path><path class="cls-4" d="M438.62,403.26c0,.14-32.5.25-72.57.25s-72.58-.11-72.58-.25S326,403,366.05,403,438.62,403.12,438.62,403.26Z"></path><path class="cls-4" d="M350.13,411.78c0,.14-12.68.26-28.33.26s-28.33-.12-28.33-.26,12.68-.25,28.33-.25S350.13,411.64,350.13,411.78Z"></path><path class="cls-4" d="M437.56,428.33c0,.14-21.36.25-47.7.25s-47.71-.11-47.71-.25,21.36-.26,47.71-.26S437.56,428.19,437.56,428.33Z"></path><path class="cls-4" d="M437.56,437.37c0,.15-21.36.26-47.7.26s-47.71-.11-47.71-.26,21.36-.25,47.71-.25S437.56,437.23,437.56,437.37Z"></path><path class="cls-4" d="M437.56,446.42c0,.14-21.36.26-47.7.26s-47.71-.12-47.71-.26,21.36-.25,47.71-.25S437.56,446.28,437.56,446.42Z"></path><path class="cls-4" d="M437.56,455.47c0,.14-21.36.26-47.7.26s-47.71-.12-47.71-.26,21.36-.25,47.71-.25S437.56,455.33,437.56,455.47Z"></path><path class="cls-4" d="M276.6,427.46c0,.14-12.73.26-28.43.26s-28.44-.12-28.44-.26,12.73-.25,28.44-.25S276.6,427.32,276.6,427.46Z"></path><path class="cls-4" d="M276.6,434.57c0,.14-12.73.25-28.43.25s-28.44-.11-28.44-.25,12.73-.26,28.44-.26S276.6,434.43,276.6,434.57Z"></path><path class="cls-4" d="M276.6,441.67c0,.14-12.73.26-28.43.26s-28.44-.12-28.44-.26,12.73-.25,28.44-.25S276.6,441.53,276.6,441.67Z"></path><path class="cls-4" d="M276.6,448.78c0,.14-12.73.25-28.43.25s-28.44-.11-28.44-.25,12.73-.26,28.44-.26S276.6,448.64,276.6,448.78Z"></path><path class="cls-4" d="M276.6,455.88c0,.15-12.73.26-28.43.26s-28.44-.11-28.44-.26,12.73-.25,28.44-.25S276.6,455.74,276.6,455.88Z"></path><rect class="cls-9" x="218.1" y="341.87" width="58.5" height="56.6"></rect><polygon class="cls-10" points="222.63 393.63 238.82 364.5 252.06 383.12 260.1 373.23 272.06 393.63 222.63 393.63"></polygon><path class="cls-10" d="M257.69,358.84a4.21,4.21,0,1,1-4.21-4.22A4.21,4.21,0,0,1,257.69,358.84Z"></path><path class="cls-4" d="M272.07,393.78a1,1,0,0,1,0-.23c0-.17,0-.38,0-.66q0-.9,0-2.55c0-2.24,0-5.49-.06-9.61,0-8.27-.07-20-.12-34.17l.24.24-49.43,0c-.07.05.52-.53.27-.28v12.71q0,6.24,0,12.2c0,7.92,0,15.42,0,22.31l-.24-.24,35.73.12,10.08.07,2.68,0h.94a.89.89,0,0,1-.22,0h-.67l-2.62,0-10,.06-35.89.13h-.25v-.25c0-6.89,0-14.39,0-22.31q0-6,0-12.2V346.56l.28-.28,49.43,0h.24v.24c-.05,14.19-.09,26-.12,34.32,0,4.1-.05,7.33-.06,9.56,0,1.08,0,1.91,0,2.5,0,.27,0,.48,0,.64S272.07,393.79,272.07,393.78Z"></path><rect class="cls-9" x="293.44" y="424.01" width="41.4" height="40.06"></rect><polygon class="cls-10" points="296.65 460.64 308.1 440.02 317.47 453.2 323.16 446.2 331.63 460.64 296.65 460.64"></polygon><path class="cls-10" d="M321.46,436a3,3,0,1,1-3-3A3,3,0,0,1,321.46,436Z"></path><path class="cls-4" d="M331.63,460.75a1.15,1.15,0,0,1,0-.17c0-.12,0-.27,0-.46,0-.43,0-1,0-1.81,0-1.58,0-3.88,0-6.8,0-5.85-.05-14.18-.09-24.18l.17.16-35,0,.19-.19h0V445c0,5.6,0,10.91,0,15.79l-.17-.17,25.29.08,7.13,0,1.9,0h0l-1.85,0-7.1,0-25.4.09h-.18v-.17c0-4.88,0-10.19,0-15.79q0-4.21,0-8.64v-9h0l.2-.2,35,0h.17v.17c0,10-.07,18.41-.09,24.29,0,2.9,0,5.18,0,6.76,0,.77,0,1.36,0,1.77,0,.19,0,.34,0,.45A.85.85,0,0,1,331.63,460.75Z"></path><rect class="cls-4" x="87.67" y="170.1" width="114" height="4.43" rx="2"></rect><rect class="cls-11" x="273.41" y="225.67" width="37.27" height="37.27" rx="4.45"></rect><path class="cls-4" d="M302.85,258.86H281.24a3.75,3.75,0,0,1-3.75-3.75V233.5a3.75,3.75,0,0,1,3.75-3.75h21.61a3.76,3.76,0,0,1,3.75,3.75v21.61A3.76,3.76,0,0,1,302.85,258.86Zm-21.61-28.38a3,3,0,0,0-3,3v21.61a3,3,0,0,0,3,3h21.61a3,3,0,0,0,3-3V233.5a3,3,0,0,0-3-3Z"></path><polygon class="cls-12" points="351.23 168.59 499.23 168.59 499.23 199.25 356.66 199.25 355.5 191.84 363.15 184.96 360.39 179.5 352.83 172.33 351.23 168.59"></polygon><path class="cls-13" d="M337.26,182.56l.38-2.18a1,1,0,0,1,.85-.79l3.19-.33A12.59,12.59,0,0,1,343,177l-1.32-2.93a1,1,0,0,1,.26-1.13l1.69-1.42a1,1,0,0,1,1.16-.06l2.66,1.81a12.05,12.05,0,0,1,2.44-.89l.88-3.1a1,1,0,0,1,.92-.69h2.22a1,1,0,0,1,.92.69l.88,3.1a12.05,12.05,0,0,1,2.44.89l2.66-1.81a1,1,0,0,1,1.16.06l1.69,1.42a1,1,0,0,1,.26,1.13L362.59,177a12.59,12.59,0,0,1,1.31,2.25l3.19.33a1,1,0,0,1,.85.79l.38,2.18a1,1,0,0,1-.53,1L364.9,185a12,12,0,0,1-.45,2.56l2.24,2.3a1,1,0,0,1,.14,1.15l-1.1,1.92a1,1,0,0,1-1.07.45l-3.11-.79a12.43,12.43,0,0,1-2,1.69l.24,3.19a1,1,0,0,1-.63,1l-2.08.76a1,1,0,0,1-1.11-.34l-1.87-2.6a12.29,12.29,0,0,1-2.62,0l-1.87,2.6a1,1,0,0,1-1.11.34l-2.08-.76a1,1,0,0,1-.63-1l.24-3.19a12.43,12.43,0,0,1-2-1.69l-3.11.79a1,1,0,0,1-1.07-.45l-1.1-1.92a1,1,0,0,1,.14-1.15l2.24-2.3a12,12,0,0,1-.45-2.56l-2.89-1.4A1,1,0,0,1,337.26,182.56Zm20.91,1.61a5.38,5.38,0,1,0-5.38,5.38A5.37,5.37,0,0,0,358.17,184.17Z"></path><path class="cls-10" d="M118.16,390.51l-.57-3.21a1.41,1.41,0,0,0-1.25-1.17l-4.72-.48a17.82,17.82,0,0,0-1.93-3.33l2-4.33a1.43,1.43,0,0,0-.38-1.67l-2.51-2.1a1.41,1.41,0,0,0-1.71-.09l-3.93,2.67a17.87,17.87,0,0,0-3.61-1.31l-1.29-4.58a1.43,1.43,0,0,0-1.37-1H93.57a1.41,1.41,0,0,0-1.36,1l-1.3,4.58a17.87,17.87,0,0,0-3.61,1.31l-3.93-2.67a1.41,1.41,0,0,0-1.71.09l-2.5,2.1a1.42,1.42,0,0,0-.39,1.67l2,4.33a17.82,17.82,0,0,0-1.93,3.33l-4.72.48a1.41,1.41,0,0,0-1.25,1.17l-.57,3.21A1.43,1.43,0,0,0,73,392l4.28,2.07A18.21,18.21,0,0,0,78,397.9l-3.31,3.4a1.42,1.42,0,0,0-.21,1.7l1.63,2.83a1.44,1.44,0,0,0,1.58.67l4.61-1.17a17.94,17.94,0,0,0,2.94,2.49l-.34,4.72A1.42,1.42,0,0,0,85.8,414l3.07,1.12a1.42,1.42,0,0,0,1.63-.51l2.78-3.84a17.41,17.41,0,0,0,1.93.11,17.69,17.69,0,0,0,1.93-.11l2.77,3.84a1.42,1.42,0,0,0,1.63.51l3.08-1.12a1.44,1.44,0,0,0,.93-1.44l-.35-4.72a18.44,18.44,0,0,0,3-2.49l4.6,1.17a1.43,1.43,0,0,0,1.58-.67L116,403a1.42,1.42,0,0,0-.21-1.7l-3.31-3.4a17.58,17.58,0,0,0,.66-3.79l4.28-2.07A1.43,1.43,0,0,0,118.16,390.51Zm-30.9,2.39a7.95,7.95,0,1,1,7.95,8A7.94,7.94,0,0,1,87.26,392.9Z"></path><path class="cls-8" d="M148.22,435.81l-5-2a31.56,31.56,0,0,0-.42-4.05l4.48-3a1.43,1.43,0,0,0,.56-1.62l-1-3.11a1.44,1.44,0,0,0-1.41-1l-5.38.2a33.49,33.49,0,0,0-2-3.55l2.85-4.54a1.4,1.4,0,0,0-.15-1.7L138.53,409a1.42,1.42,0,0,0-1.68-.33L132,411.07a31.39,31.39,0,0,0-3.32-2.39l.77-5.33a1.42,1.42,0,0,0-.83-1.5l-3-1.33a1.4,1.4,0,0,0-1.66.39L120.55,405a31,31,0,0,0-4-.83L115.09,399a1.43,1.43,0,0,0-1.37-1h-3.27a1.42,1.42,0,0,0-1.36,1l-1.47,5.19a30.67,30.67,0,0,0-4,.83l-3.45-4.13a1.42,1.42,0,0,0-1.67-.39l-3,1.33a1.42,1.42,0,0,0-.82,1.5l.76,5.33a32.45,32.45,0,0,0-3.32,2.39l-4.81-2.37a1.42,1.42,0,0,0-1.68.33l-2.19,2.43a1.43,1.43,0,0,0-.15,1.7l2.86,4.54a30.33,30.33,0,0,0-2,3.55l-5.39-.2a1.42,1.42,0,0,0-1.4,1l-1,3.11a1.42,1.42,0,0,0,.56,1.62l4.47,3a31.56,31.56,0,0,0-.41,4.05l-5,2a1.42,1.42,0,0,0-.88,1.47l.34,3.25a1.43,1.43,0,0,0,1.17,1.25l5.31.92a32.06,32.06,0,0,0,1.25,3.89l-3.74,3.85a1.42,1.42,0,0,0-.22,1.7L80.82,455a1.43,1.43,0,0,0,1.58.67l5.22-1.32a31.39,31.39,0,0,0,2.72,3l-1.85,5.05a1.42,1.42,0,0,0,.5,1.64L91.63,466a1.41,1.41,0,0,0,1.71,0l4.22-3.31a31.15,31.15,0,0,0,3.74,1.64l.36,5.38a1.42,1.42,0,0,0,1.13,1.29l3.19.68a1.42,1.42,0,0,0,1.55-.72l2.52-4.78c.68.05,1.35.11,2,.11s1.36-.06,2-.11l2.52,4.78a1.42,1.42,0,0,0,1.55.72l3.2-.68a1.41,1.41,0,0,0,1.12-1.29l.36-5.38a30.47,30.47,0,0,0,3.74-1.64l4.22,3.31a1.41,1.41,0,0,0,1.71,0l2.65-1.92a1.43,1.43,0,0,0,.49-1.64l-1.85-5.05a31.49,31.49,0,0,0,2.73-3l5.22,1.32a1.44,1.44,0,0,0,1.58-.67l1.63-2.83a1.42,1.42,0,0,0-.21-1.7L141,446.59a32.06,32.06,0,0,0,1.25-3.89l5.31-.92a1.41,1.41,0,0,0,1.17-1.25l.34-3.25A1.42,1.42,0,0,0,148.22,435.81Zm-36.13,17.9A18.68,18.68,0,1,1,130.76,435,18.68,18.68,0,0,1,112.09,453.71Z"></path></g></g></svg>