<svg xmlns="http://www.w3.org/2000/svg" viewBox="0 0 65.73 100"><defs><style>.cls-1{fill:#6678b9;}.cls-2{fill:#334ba1;}.cls-3{fill:none;}.cls-4{fill:#99a5d0;}.cls-5{fill:#001f8a;}.cls-6{fill:#bac2d8;}</style></defs><g id="Layer_2" data-name="Layer 2"><g id="Layer_1-2" data-name="Layer 1"><rect class="cls-1" x="21" y="4.64" width="23.74" height="53.67"></rect><rect class="cls-2" x="22.95" width="19.84" height="4.7"></rect><rect class="cls-3" x="19.16" y="58.25" width="27.41" height="1.49"></rect><rect class="cls-2" x="19.16" y="58.25" width="27.41" height="1.54"></rect><rect class="cls-4" x="18.22" y="59.75" width="29.3" height="2.05"></rect><rect class="cls-1" x="8.06" y="61.29" width="49.62" height="2"></rect><rect class="cls-4" x="7.28" y="63.3" width="51.17" height="4.64"></rect><rect class="cls-3" x="7.28" y="68.11" width="51.17" height="0.85"></rect><rect class="cls-2" x="7.28" y="67.79" width="51.17" height="22.85"></rect><rect class="cls-5" x="13.07" y="73.11" width="36.03" height="14.36" rx="2.01"></rect><rect class="cls-1" x="14.85" y="71.47" width="36.03" height="14.36" rx="2.22"></rect><rect class="cls-4" x="4.84" y="90.47" width="56.05" height="3.13"></rect><rect class="cls-1" x="2.73" y="93.6" width="60.28" height="3.13"></rect><rect class="cls-4" y="96.72" width="65.73" height="3.28"></rect><polygon class="cls-6" points="37.1 17.72 32.87 16.72 28.63 17.72 27.3 16.55 28.63 15.38 32.87 16.37 37.1 15.38 38.43 16.55 37.1 17.72"></polygon><path class="cls-6" d="M32.87,19a2.45,2.45,0,1,1,2.45-2.44A2.45,2.45,0,0,1,32.87,19Zm0-4.3a1.86,1.86,0,1,0,1.85,1.86A1.86,1.86,0,0,0,32.87,14.69Z"></path><polygon class="cls-6" points="31.7 27.46 32.69 16.55 31.7 12.31 32.87 10.98 34.04 12.31 33.04 16.55 34.04 27.46 32.87 28.79 31.7 27.46"></polygon></g></g></svg>