<svg xmlns="http://www.w3.org/2000/svg" viewBox="0 0 74.01 100"><defs><style>.cls-1{fill:#334ba1;}.cls-2{fill:#99a5d0;}</style></defs><g id="Layer_2" data-name="Layer 2"><g id="Layer_1-2" data-name="Layer 1"><path class="cls-1" d="M24.62,55.3H21.75v9.31h1l-.37.89-.66.9v.94h.66v.89h-.66V100h2.87V55.29Z"></path><path class="cls-1" d="M49.39,55.3h0V100h2.86V68.23H51.6v-.89h.65V66.4h0l-.65-.9-.37-.89h1V55.3H49.39Z"></path><path class="cls-2" d="M37.47,37.88H21.75V52.62h1v.89l-.37.89.08-.2H24.7a11.15,11.15,0,0,1,11.07-9.77h2.46A11.16,11.16,0,0,1,49.31,54.2h2.21l.08.2-.37-.89v-.89h1V37.88Z"></path><polygon class="cls-2" points="51.52 54.2 48.8 54.2 49.39 55.3 52.25 55.3 51.52 54.2"></polygon><rect class="cls-2" x="49.39" y="55.3" width="2.86" height="0.64"></rect><polygon class="cls-1" points="52.25 37.88 21.75 37.88 21.75 40.27 35.85 40.27 36.18 43.49 37.9 43.49 38.23 40.27 52.25 40.27 52.25 37.88"></polygon><polygon class="cls-2" points="22.41 54.4 22.49 54.2 25.21 54.2 24.61 55.3 21.75 55.3 22.41 54.4"></polygon><rect class="cls-2" x="21.75" y="55.3" width="2.86" height="0.64"></rect><path class="cls-1" d="M51.52,54.2l-.29-.69V52.6A12.75,12.75,0,0,0,38.34,41.4h-.23l-.21,2.09H36.18L36,41.4h-.3A12.75,12.75,0,0,0,22.78,52.6v.91l-.29.69h2.23a11.16,11.16,0,0,1,11.05-9.77h2.46A11.16,11.16,0,0,1,49.28,54.2Z"></path><rect class="cls-2" x="1.49" y="33.02" width="71.03" height="0.8"></rect><polygon class="cls-1" points="72.52 33.02 1.49 33.02 0.75 32.22 73.25 32.22 72.52 33.02"></polygon><rect class="cls-2" x="3.03" y="24.9" width="67.95" height="7.32"></rect><rect class="cls-1" x="5.01" y="17.59" width="63.98" height="7.32"></rect><rect class="cls-1" x="10.05" y="6.09" width="53.91" height="11.49"></rect><rect class="cls-2" x="22.89" y="3.84" width="28.22" height="2.25"></rect><path class="cls-1" d="M47.06,3.84a15.1,15.1,0,0,0-20.12,0Z"></path><rect class="cls-1" x="2.52" y="33.83" width="68.97" height="2.65"></rect><rect class="cls-2" x="4.47" y="33.83" width="3.05" height="2.65"></rect><rect class="cls-2" x="10.11" y="33.83" width="3.05" height="2.65"></rect><rect class="cls-2" x="15.75" y="33.83" width="3.05" height="2.65"></rect><rect class="cls-2" x="21.38" y="33.83" width="3.05" height="2.65"></rect><rect class="cls-2" x="27.02" y="33.83" width="3.05" height="2.65"></rect><rect class="cls-2" x="32.66" y="33.83" width="3.05" height="2.65"></rect><rect class="cls-2" x="38.3" y="33.83" width="3.05" height="2.65"></rect><rect class="cls-2" x="43.93" y="33.83" width="3.05" height="2.65"></rect><rect class="cls-2" x="49.57" y="33.83" width="3.05" height="2.65"></rect><rect class="cls-2" x="55.21" y="33.83" width="3.05" height="2.65"></rect><rect class="cls-2" x="60.85" y="33.83" width="3.05" height="2.65"></rect><rect class="cls-2" x="66.48" y="33.83" width="3.05" height="2.65"></rect><polygon class="cls-1" points="72.28 37.88 1.72 37.88 1.23 36.48 72.77 36.48 72.28 37.88"></polygon><path class="cls-2" d="M24.1,12.06a3,3,0,1,1-3-3A3,3,0,0,1,24.1,12.06Z"></path><path class="cls-2" d="M56,12.06a3,3,0,1,1-3-3A3,3,0,0,1,56,12.06Z"></path><polygon class="cls-2" points="48.82 8.73 43.37 8.73 43.37 8.18 30.64 8.18 30.64 8.73 25.19 8.73 25.19 15.39 30.64 15.39 30.64 15.94 43.37 15.94 43.37 15.39 48.82 15.39 48.82 8.73"></polygon><rect class="cls-2" x="52.25" y="92.18" width="20.55" height="7.82"></rect><rect class="cls-2" x="52.25" y="89.85" width="20.55" height="2.33"></rect><rect class="cls-2" x="52.25" y="68.23" width="20.55" height="21.62"></rect><rect class="cls-2" x="51.6" y="67.34" width="22.04" height="0.89"></rect><polygon class="cls-2" points="72.8 66.39 52.25 66.39 51.6 65.5 73.64 65.5 72.8 66.39"></polygon><polygon class="cls-2" points="73.64 65.5 51.6 65.5 51.23 64.61 74 64.61 73.64 65.5"></polygon><polygon class="cls-2" points="72.8 55.3 52.25 55.3 51.6 54.4 73.64 54.4 72.8 55.3"></polygon><rect class="cls-2" x="51.23" y="52.62" width="22.77" height="0.89"></rect><polygon class="cls-2" points="73.64 54.4 51.6 54.4 51.23 53.51 74 53.51 73.64 54.4"></polygon><rect class="cls-2" x="52.25" y="66.4" width="20.55" height="0.94"></rect><rect class="cls-2" x="52.25" y="55.3" width="20.55" height="9.32"></rect><rect class="cls-2" x="52.25" y="37.88" width="20.55" height="14.74"></rect><polygon class="cls-2" points="72.8 38.81 52.25 38.81 51.76 37.88 73.29 37.88 72.8 38.81"></polygon><rect class="cls-2" x="52.25" y="38.81" width="20.55" height="0.47"></rect><rect class="cls-1" x="55.65" y="92.18" width="13.74" height="7.82"></rect><rect class="cls-1" x="55.65" y="89.85" width="13.74" height="2.33"></rect><rect class="cls-1" x="55.65" y="68.23" width="13.74" height="21.62"></rect><rect class="cls-2" x="55" y="67.34" width="15.23" height="0.89"></rect><polygon class="cls-2" points="69.4 66.39 55.66 66.39 55 65.5 70.23 65.5 69.4 66.39"></polygon><polygon class="cls-2" points="70.23 65.5 55 65.5 54.63 64.61 70.6 64.61 70.23 65.5"></polygon><polygon class="cls-1" points="69.4 55.3 55.66 55.3 55 54.4 70.23 54.4 69.4 55.3"></polygon><rect class="cls-1" x="54.63" y="52.62" width="15.97" height="0.89"></rect><polygon class="cls-1" points="70.23 54.4 55 54.4 54.63 53.51 70.6 53.51 70.23 54.4"></polygon><rect class="cls-1" x="55" y="47.95" width="15.23" height="0.89"></rect><polygon class="cls-1" points="70.23 47.95 55 47.95 54.63 47.06 70.6 47.06 70.23 47.95"></polygon><rect class="cls-2" x="55.65" y="66.4" width="13.74" height="0.94"></rect><rect class="cls-1" x="55.65" y="55.3" width="13.74" height="9.32"></rect><rect class="cls-1" x="57.82" y="57.25" width="9.41" height="4.85"></rect><rect class="cls-1" x="55.65" y="48.84" width="13.74" height="3.78"></rect><rect class="cls-1" x="57.82" y="49.61" width="9.41" height="1.98"></rect><path class="cls-1" d="M65.94,43.16A3.22,3.22,0,1,1,62.73,40,3.21,3.21,0,0,1,65.94,43.16Z"></path><path class="cls-1" d="M65.09,43.16a2.37,2.37,0,1,1-2.36-2.36A2.37,2.37,0,0,1,65.09,43.16Z"></path><rect class="cls-2" x="1.21" y="92.18" width="20.55" height="7.82"></rect><rect class="cls-2" x="1.21" y="89.85" width="20.55" height="2.33"></rect><rect class="cls-2" x="1.21" y="68.23" width="20.55" height="21.62"></rect><rect class="cls-2" x="0.37" y="67.34" width="22.04" height="0.89"></rect><polygon class="cls-2" points="1.21 66.39 21.75 66.39 22.41 65.5 0.37 65.5 1.21 66.39"></polygon><polygon class="cls-2" points="0.37 65.5 22.41 65.5 22.77 64.61 0 64.61 0.37 65.5"></polygon><polygon class="cls-2" points="1.21 55.3 21.75 55.3 22.41 54.4 0.37 54.4 1.21 55.3"></polygon><rect class="cls-2" y="52.62" width="22.77" height="0.89"></rect><polygon class="cls-2" points="0.37 54.4 22.41 54.4 22.77 53.51 0 53.51 0.37 54.4"></polygon><rect class="cls-2" x="1.21" y="66.4" width="20.55" height="0.94"></rect><rect class="cls-2" x="1.21" y="55.3" width="20.55" height="9.32"></rect><rect class="cls-2" x="1.21" y="37.88" width="20.55" height="14.74"></rect><polygon class="cls-2" points="1.21 38.81 21.75 38.81 22.24 37.88 0.71 37.88 1.21 38.81"></polygon><rect class="cls-2" x="1.21" y="38.81" width="20.55" height="0.47"></rect><rect class="cls-1" x="4.61" y="92.18" width="13.74" height="7.82"></rect><rect class="cls-1" x="4.61" y="89.85" width="13.74" height="2.33"></rect><rect class="cls-1" x="4.61" y="68.23" width="13.74" height="21.62"></rect><rect class="cls-2" x="3.77" y="67.34" width="15.23" height="0.89"></rect><polygon class="cls-2" points="4.61 66.39 18.35 66.39 19 65.5 3.77 65.5 4.61 66.39"></polygon><polygon class="cls-2" points="3.77 65.5 19 65.5 19.37 64.61 3.4 64.61 3.77 65.5"></polygon><polygon class="cls-1" points="4.61 55.3 18.35 55.3 19 54.4 3.77 54.4 4.61 55.3"></polygon><rect class="cls-1" x="3.4" y="52.62" width="15.97" height="0.89"></rect><polygon class="cls-1" points="3.77 54.4 19 54.4 19.37 53.51 3.4 53.51 3.77 54.4"></polygon><rect class="cls-1" x="3.77" y="47.95" width="15.23" height="0.89"></rect><polygon class="cls-1" points="3.77 47.95 19 47.95 19.37 47.06 3.4 47.06 3.77 47.95"></polygon><rect class="cls-2" x="4.61" y="66.4" width="13.74" height="0.94"></rect><rect class="cls-1" x="4.61" y="55.3" width="13.74" height="9.32"></rect><rect class="cls-1" x="6.77" y="57.25" width="9.41" height="4.85"></rect><rect class="cls-1" x="4.61" y="48.84" width="13.74" height="3.78"></rect><rect class="cls-1" x="6.77" y="49.61" width="9.41" height="1.98"></rect><path class="cls-1" d="M8.07,43.16A3.21,3.21,0,1,0,11.28,40,3.21,3.21,0,0,0,8.07,43.16Z"></path><path class="cls-1" d="M8.91,43.16a2.37,2.37,0,1,0,2.37-2.36A2.37,2.37,0,0,0,8.91,43.16Z"></path></g></g></svg>